<?xml version="1.0" encoding="utf-8"?>
<!-- Generator: Adobe Illustrator 18.1.1, SVG Export Plug-In . SVG Version: 6.00 Build 0)  -->
<!DOCTYPE svg PUBLIC "-//W3C//DTD SVG 1.1//EN" "http://www.w3.org/Graphics/SVG/1.1/DTD/svg11.dtd">
<svg version="1.1" xmlns="http://www.w3.org/2000/svg" xmlns:xlink="http://www.w3.org/1999/xlink" x="0px" y="0px"
	 viewBox="-243 245 512 512" enable-background="new -243 245 512 512" xml:space="preserve">
<g id="Capa_1">
	<g>
		<path d="M173,549c44.2,0,80-35.8,80-80c0-11.9-2.6-23.3-7.3-33.4L173,293l-72.7,142.6C95.6,445.7,93,457.1,93,469
			C93,513.2,128.8,549,173,549z M196.9,572.5l29.1,58.2l-73.8,36.9l-21.7-108.5L85,501l-72-48l-96,64l-64-64l-96,192l128,64l128-64
			l128,64l128-64l-45.4-90.8L196.9,572.5z M-126.3,667.6l-73.8-36.9l61.8-123.7l32.6,32.6l4.2,4.2L-126.3,667.6z M-3,617.2
			L-92.5,662l23.1-115.6l4.1-2.8L-3,502.1V617.2z M29,617.2V502.1l62.3,41.5l4.1,2.8L118.5,662L29,617.2z"/>
	</g>
</g>
<g id="Layer_2" display="none">
	<polygon display="inline" points="-86.3,676.6 -160.1,639.7 -98.3,516 -65.6,548.6 -61.5,552.8 	"/>
	<polygon display="inline" points="37,626.2 -52.5,671 -29.4,555.4 -25.3,552.6 37,511.1 	"/>
	<polygon display="inline" points="69,626.2 69,511.1 131.3,552.6 135.3,555.4 158.5,671 	"/>
</g>
<g id="Layer_3" display="none">
	<path display="inline" d="M172.5,546.1c44.2,0,80-35.8,80-80c0-11.9-2.6-23.3-7.3-33.4l-72.7-142.6L99.8,432.7
		c-4.7,10.2-7.3,21.5-7.3,33.4C92.5,510.3,128.3,546.1,172.5,546.1z"/>
</g>
</svg>
