<?xml version="1.0" encoding="utf-8"?>
<!-- Generator: Adobe Illustrator 18.1.1, SVG Export Plug-In . SVG Version: 6.00 Build 0)  -->
<!DOCTYPE svg PUBLIC "-//W3C//DTD SVG 1.1//EN" "http://www.w3.org/Graphics/SVG/1.1/DTD/svg11.dtd">
<svg version="1.1" id="Capa_1" xmlns="http://www.w3.org/2000/svg" xmlns:xlink="http://www.w3.org/1999/xlink" x="0px" y="0px"
	 viewBox="-1 3 124 124" enable-background="new -1 3 124 124" xml:space="preserve">
<path fill-rule="evenodd" clip-rule="evenodd" d="M111.1,120.2H11.3c-7,0-11.5-7.4-8.4-13.6l49.9-88.8c3.4-6.9,13.3-6.9,16.7,0
	l49.9,88.8C122.6,112.8,118.1,120.2,111.1,120.2z M51.6,104.5c0,5.4,3.9,9.5,9.5,9.5c5.6,0,9.5-4.2,9.5-9.5v-0.2
	c0-5.4-3.9-9.5-9.5-9.5c-5.6,0-9.5,4.2-9.5,9.5V104.5z M76.8,57.7l-15.7-31l-15.7,31c-1,2.2-1.6,4.7-1.6,7.3
	c0,9.6,7.8,17.4,17.3,17.4s17.3-7.8,17.3-17.4C78.4,62.4,77.8,59.9,76.8,57.7z"/>
</svg>
