<?xml version="1.0" encoding="utf-8"?>
<!-- Generator: Adobe Illustrator 18.1.1, SVG Export Plug-In . SVG Version: 6.00 Build 0)  -->
<!DOCTYPE svg PUBLIC "-//W3C//DTD SVG 1.1//EN" "http://www.w3.org/Graphics/SVG/1.1/DTD/svg11.dtd">
<svg version="1.1" id="Capa_1" xmlns="http://www.w3.org/2000/svg" xmlns:xlink="http://www.w3.org/1999/xlink" x="0px" y="0px"
	 viewBox="0 0 128 128" enable-background="new 0 0 128 128" xml:space="preserve">
<g>
	<g>
		<path d="M60.9,79.9l21.2-21.2l-20.5-3.1c-2.2-0.3-4.2,1.6-3.8,3.8L60.9,79.9z"/>
		<path d="M110.1,35c-0.7-0.8-1.6-1.2-2.5-1.2c-0.9,0-1.7,0.3-2.4,1L85.3,54.7L58.9,81.1L36,104c-1.4,1.4-1.3,3.6,0.2,4.9
			c9.2,8,21.2,12.9,34.4,12.9c7.2,0,14-1.4,20.2-4c10.8-4.5,19.8-12.6,25.5-22.7c4.3-7.6,6.7-16.3,6.7-25.6
			C123,56.2,118.1,44.2,110.1,35z"/>
		<path d="M58.3,46.9c2.4,0,4.7,0.9,6.4,2.7c1,1,2.6,1,3.6,0s1-2.6,0-3.6c-2.7-2.7-6.2-4.1-10-4.1c-7.8,0-14.1,6.3-14.1,14.1
			c0,3.8,1.5,7.3,4.1,10c0.5,0.5,1.1,0.7,1.8,0.7c0.6,0,1.3-0.2,1.8-0.7c1-1,1-2.6,0-3.6c-1.7-1.7-2.7-4-2.7-6.4
			C49.2,50.9,53.3,46.9,58.3,46.9z"/>
		<path d="M36,67.2c0.6,0,1.3-0.2,1.8-0.7c1-1,1-2.6,0-3.6c-3.6-3.6-5.7-8.5-5.7-13.7c0-10.7,8.7-19.3,19.3-19.3
			c5.2,0,10,2,13.7,5.7c1,1,2.6,1,3.6,0c1-1,1-2.6,0-3.6c-4.6-4.6-10.7-7.1-17.2-7.1c-6.5,0-12.6,2.5-17.2,7.1s-7.1,10.7-7.1,17.2
			c0,6.5,2.5,12.6,7.1,17.2C34.7,67,35.3,67.2,36,67.2z"/>
		<path d="M21.7,72.7c-0.6,0-1.2-0.2-1.7-0.7C12.6,64.6,8.6,54.8,8.6,44.4C8.6,34,12.6,24.2,20,16.8C27.4,9.4,37.2,5.4,47.6,5.4
			c10.4,0,20.2,4.1,27.6,11.4c0.5,0.5,0.7,1.1,0.7,1.7c0,0.6-0.2,1.2-0.7,1.7c-0.5,0.5-1.1,0.7-1.7,0.7s-1.2-0.2-1.7-0.7
			c-6.5-6.5-15.1-10-24.2-10c-18.9,0-34.2,15.4-34.2,34.2c0,9.1,3.6,17.7,10,24.2c0.9,0.9,0.9,2.5,0,3.4
			C22.9,72.5,22.3,72.7,21.7,72.7z"/>
	</g>
</g>
</svg>
