<?xml version="1.0" encoding="utf-8"?>
<!-- Generator: Adobe Illustrator 18.1.1, SVG Export Plug-In . SVG Version: 6.00 Build 0)  -->
<!DOCTYPE svg PUBLIC "-//W3C//DTD SVG 1.1//EN" "http://www.w3.org/Graphics/SVG/1.1/DTD/svg11.dtd">
<svg version="1.1" id="Layer_1" xmlns="http://www.w3.org/2000/svg" xmlns:xlink="http://www.w3.org/1999/xlink" x="0px" y="0px"
	 viewBox="7 -6.7 141.7 141.7" enable-background="new 7 -6.7 141.7 141.7" xml:space="preserve">
<g>
	<path fill="#231F20" d="M90.5,79.2c-0.7,0-1.2-0.6-1.2-1.3v-8.5c0-0.7,0.4-1.3,1-1.6L77.8,57.4c0,0,0,0-0.1-0.1c0,0,0,0-0.1,0
		L65.1,67.8c0.6,0.3,1,0.9,1,1.6v8.4c0,0.7-0.6,1.3-1.2,1.3s-1.2-0.6-1.2-1.3v-7.5h-1.6c-0.8,0-1.2-0.5-1.4-1
		c-0.1-0.5-0.1-1.1,0.5-1.6L76.6,55c0.6-0.5,1.6-0.5,2.2,0l5.7,4.7c0.1-0.8,0.8-1.5,1.6-1.5h3.5c0.9,0,1.6,0.8,1.6,1.7v5.4
		c0,0,0,0,0,0l2.9,2.4c0.6,0.5,0.7,1.2,0.5,1.6c-0.1,0.4-0.6,1-1.4,1h-1.6l0,7.6C91.7,78.6,91.2,79.2,90.5,79.2z M90.9,68.7
		c-0.4,0-0.6,0.3-0.6,0.7v8.5c0,0.2,0.1,0.3,0.2,0.3c0.1,0,0.2-0.1,0.2-0.3V70c0,0,0-0.3,0.2-0.5c0.1-0.1,0.3-0.2,0.5-0.2h1.9
		c0.3,0,0.4-0.2,0.4-0.3c0-0.1,0.1-0.3-0.2-0.5L90.6,66c-0.3-0.3-0.3-0.6-0.3-0.7v-5.4c0-0.4-0.3-0.7-0.6-0.7h-3.5
		c-0.4,0-0.6,0.3-0.6,0.7v0.6c0,0.4-0.3,0.6-0.6,0.6h-0.2L84.5,61l-6.4-5.3c-0.2-0.2-0.7-0.2-0.9,0L61.9,68.5
		c-0.3,0.2-0.2,0.5-0.2,0.5c0,0.1,0.1,0.3,0.4,0.3h1.8c0.4,0,0.7,0.3,0.7,0.7v7.9c0,0.2,0.1,0.3,0.2,0.3c0.1,0,0.2-0.1,0.2-0.3v-8.4
		c0-0.4-0.3-0.7-0.6-0.7h-0.3c0,0-0.1,0-0.2,0h-0.3l-0.2-0.3l-0.1-0.3l0.2-0.2c0.1-0.2,0.4-0.3,0.4-0.4L77,56.7
		c0.6-0.4,0.9-0.4,1.4,0l13.2,10.9c0.2,0.2,0.3,0.4,0.2,0.7c-0.1,0.3-0.4,0.4-0.8,0.4H90.9z M89.2,64.5c-0.2,0-0.4-0.1-0.5-0.2
		l-2.6-2.3c0,0-0.1-0.2-0.1-0.4v-1.1c0-0.4,0.3-0.6,0.6-0.6h2.5c0.3,0,0.6,0.2,0.6,0.6v3.4C89.8,64.3,89.5,64.5,89.2,64.5z M87,61.4
		l1.8,1.6v-2.1H87V61.4z"/>
	<path fill="#231F20" d="M74.8,79.2c-0.1,0-0.3,0-0.4-0.1c-0.6-0.2-1-1-0.8-1.6c0.6-1.9,2.1-3,4-3c1.9,0,3.4,1.1,4.1,2.9
		C82,78,81.6,78.8,81,79c-0.2,0.1-0.3,0.1-0.5,0.1l0,0c-0.5,0-1-0.3-1.2-0.8c-0.3-0.9-0.9-1.3-1.8-1.3c-0.8,0-1.3,0.4-1.6,1.3
		C75.8,78.8,75.3,79.2,74.8,79.2z M77.6,75.4c-1.5,0-2.5,0.8-3,2.3c-0.1,0.2,0,0.3,0.2,0.4l0.1,0c0.1,0,0.2-0.1,0.2-0.2
		c0.4-1.3,1.3-2,2.6-2c1.3,0,2.2,0.6,2.7,1.9c0,0.1,0.1,0.2,0.2,0.2c0.2-0.1,0.3-0.3,0.2-0.4C80.2,76.2,79.1,75.4,77.6,75.4z"/>
	<path fill="#231F20" d="M68.1,69.5c-0.3,0-0.7-0.2-0.9-0.5c-0.3-0.5-0.3-1.2,0.2-1.6l9.1-7.2c0.6-0.5,1.7-0.5,2.3,0l9.2,7.3
		c0.5,0.4,0.6,1.1,0.2,1.6c-0.4,0.5-1.1,0.6-1.6,0.2l-9-7.1l-8.9,7.1C68.6,69.4,68.4,69.5,68.1,69.5z M77.7,61.1
		c0.1,0,0.3,0,0.4,0.1l9.2,7.3l0.5,0.3l-0.4-0.3c0-0.1,0-0.2,0-0.2L78.2,61c-0.3-0.2-0.8-0.2-1,0l-9.1,7.2c-0.1,0-0.1,0.1,0,0.2
		l0.1,0c0,0,0,0,0,0l9.1-7.2C77.4,61.1,77.6,61.1,77.7,61.1z"/>
	<path fill="#231F20" d="M77.7,85.2c-5.6,0-10.9-0.3-14.8-0.8c-2-0.3-3.5-0.6-4.6-0.9c-0.7-0.2-2.5-0.8-2.5-2.3c0-1.4,1.6-2,2.2-2.2
		c0.9-0.3,2.3-0.6,4-0.9c0.7-0.1,1.3,0.4,1.4,1.1c0.1,0.7-0.4,1.4-1.1,1.5c-1.2,0.2-2.1,0.4-2.7,0.5c0.9,0.2,2.3,0.5,4.4,0.8
		c3.8,0.5,8.6,0.7,13.7,0.7c5.1,0,10-0.2,13.7-0.7c2.1-0.3,3.5-0.5,4.4-0.8c-0.6-0.2-1.5-0.4-2.8-0.5c-0.7-0.1-1.1-0.8-1.1-1.5
		c0.1-0.7,0.7-1.2,1.4-1.1c1.7,0.3,3.1,0.6,4,0.9c0.6,0.2,2.2,0.8,2.2,2.2c0,1.5-1.8,2.1-2.5,2.3c-1.1,0.3-2.7,0.7-4.6,0.9
		C88.6,85,83.3,85.2,77.7,85.2z M62.1,79.1c-1.7,0.2-2.9,0.5-3.8,0.8c-1.1,0.4-1.5,0.8-1.5,1.3c0,0.5,0.6,1,1.8,1.4
		c1.1,0.3,2.6,0.6,4.5,0.9c3.9,0.5,9.2,0.8,14.7,0.8c5.5,0,10.8-0.3,14.7-0.8c1.9-0.3,3.4-0.5,4.5-0.9c1.3-0.4,1.8-0.8,1.8-1.4
		c0-0.5-0.5-0.9-1.6-1.3c-0.9-0.3-2.2-0.6-3.8-0.8c-0.2,0-0.3,0.1-0.3,0.2c0,0.2,0.1,0.3,0.2,0.3c1.7,0.3,3,0.5,3.9,0.9
		c0.3,0.1,0.5,0.4,0.5,0.7c0,0.3-0.2,0.5-0.4,0.6c-0.8,0.3-2.4,0.7-5.7,1.1c-3.8,0.5-8.7,0.7-13.9,0.7c-5.1,0-10.1-0.3-13.9-0.7
		c-3.3-0.4-4.9-0.8-5.7-1.1c-0.3-0.1-0.4-0.4-0.5-0.6c0-0.3,0.2-0.5,0.4-0.6c0.9-0.3,2.2-0.6,4-0.9c0.1,0,0.2-0.2,0.2-0.3
		C62.3,79.2,62.2,79.1,62.1,79.1z"/>
	<path fill="#231F20" d="M70.5,56c-0.8,0-1.5-0.3-2.1-0.9c-0.5-0.6-0.8-1.3-0.8-2.1c0-1,0.6-2.1,0.8-2.5c0.7-1.2,1.3-1.8,2.1-1.8
		c0.5,0,1.2,0.2,2.1,1.8c0.3,0.5,0.8,1.6,0.8,2.5C73.4,54.6,72.1,56,70.5,56z M70.5,49.6c-0.2,0-0.6,0.1-1.2,1.3
		c-0.3,0.6-0.7,1.4-0.7,2c0,0.6,0.2,1.1,0.6,1.5c0.4,0.4,0.8,0.6,1.3,0.6c1,0,1.9-0.9,1.9-2c0-0.8-0.5-1.8-0.7-2
		C71.5,50.5,70.9,49.6,70.5,49.6z M70.5,54.5c-0.8,0-1.5-0.7-1.5-1.6c0-0.3,0.3-2.7,1.5-2.7h0c1.1,0,1.5,2.2,1.5,2.7
		C72,53.8,71.3,54.5,70.5,54.5z M70.5,51.3C70.3,51.6,70,52.5,70,53c0,0.3,0.2,0.6,0.5,0.6s0.5-0.3,0.5-0.6
		C71,52.5,70.7,51.6,70.5,51.3z"/>
	<path fill="#231F20" d="M84.9,56c-0.8,0-1.5-0.3-2.1-0.9c-0.5-0.6-0.8-1.3-0.8-2.1c0-1,0.6-2.1,0.8-2.5c0.7-1.2,1.3-1.8,2.1-1.8
		c0.5,0,1.2,0.2,2.1,1.8c0.2,0.4,0.8,1.6,0.8,2.5C87.8,54.6,86.5,56,84.9,56z M84.9,49.6c-0.2,0-0.6,0.1-1.2,1.3
		c-0.3,0.6-0.7,1.4-0.7,2c0,0.6,0.2,1.1,0.6,1.5c0.4,0.4,0.8,0.6,1.3,0.6c1,0,1.9-0.9,1.9-2c0-0.8-0.5-1.8-0.7-2
		C85.9,50.5,85.4,49.6,84.9,49.6z M84.9,54.5c-0.8,0-1.5-0.7-1.5-1.6c0-0.5,0.4-2.7,1.5-2.7h0c1.1,0,1.5,2.2,1.5,2.7
		C86.4,53.8,85.7,54.5,84.9,54.5z M84.9,51.3c-0.2,0.3-0.5,1.2-0.5,1.7c0,0.3,0.2,0.6,0.5,0.6s0.5-0.3,0.5-0.6
		C85.4,52.5,85.1,51.6,84.9,51.3z"/>
	<path fill="#231F20" d="M77.7,49.8c-1.6,0-2.9-1.4-2.9-3.1c0-1,0.6-2.1,0.8-2.5c0.7-1.2,1.4-1.8,2.1-1.8c0.5,0,1.2,0.2,2.1,1.8
		c0.2,0.4,0.8,1.6,0.8,2.5C80.6,48.4,79.3,49.8,77.7,49.8z M77.7,43.4c-0.2,0-0.6,0.1-1.2,1.3c-0.3,0.6-0.7,1.4-0.7,2
		c0,1.1,0.9,2.1,1.9,2.1c1,0,1.9-0.9,1.9-2.1c0-0.8-0.5-1.8-0.7-2C78.7,44.3,78.1,43.4,77.7,43.4z M77.7,48.3
		c-0.8,0-1.5-0.7-1.5-1.6c0-0.3,0.3-2.7,1.5-2.7h0c1.1,0,1.5,2.2,1.5,2.7C79.2,47.6,78.5,48.3,77.7,48.3z M77.7,45.1
		c-0.2,0.3-0.5,1.2-0.5,1.7c0,0.3,0.2,0.6,0.5,0.6s0.5-0.3,0.5-0.6C78.2,46.3,77.9,45.4,77.7,45.1z"/>
	<path fill="#231F20" d="M64.6,49.8c-1.6,0-2.9-1.4-2.9-3.1c0-1,0.6-2.1,0.8-2.5c0.7-1.2,1.3-1.8,2.1-1.8c0.5,0,1.2,0.2,2.1,1.8
		c0.3,0.5,0.8,1.6,0.8,2.5C67.5,48.4,66.2,49.8,64.6,49.8z M64.6,43.4c-0.2,0-0.6,0.1-1.2,1.3c-0.3,0.6-0.7,1.4-0.7,2
		c0,1.1,0.9,2.1,1.9,2.1c1,0,1.9-0.9,1.9-2.1c0-0.8-0.5-1.8-0.7-2C65.6,44.3,65,43.4,64.6,43.4z M64.6,48.3c-0.8,0-1.5-0.7-1.5-1.6
		c0-0.5,0.4-2.7,1.5-2.7h0c1.1,0,1.5,2.2,1.5,2.7C66.1,47.6,65.4,48.3,64.6,48.3z M64.6,45.1c-0.2,0.3-0.5,1.2-0.5,1.7
		c0,0.3,0.2,0.6,0.5,0.6s0.5-0.3,0.5-0.6C65.1,46.3,64.8,45.4,64.6,45.1z"/>
	<path fill="#231F20" d="M90.8,49.8c-1.6,0-2.9-1.4-2.9-3.1c0-1,0.6-2.1,0.8-2.5c0.7-1.2,1.3-1.8,2.1-1.8c0.5,0,1.2,0.2,2.1,1.8
		c0.3,0.5,0.8,1.6,0.8,2.5C93.7,48.4,92.4,49.8,90.8,49.8z M90.8,43.4c-0.2,0-0.6,0.1-1.2,1.3c-0.3,0.6-0.7,1.4-0.7,2
		c0,1.1,0.8,2.1,1.9,2.1c1,0,1.9-0.9,1.9-2.1c0-0.8-0.5-1.8-0.7-2C91.8,44.3,91.2,43.4,90.8,43.4z M90.8,48.3
		c-0.8,0-1.5-0.7-1.5-1.6c0-0.5,0.4-2.7,1.5-2.7h0c1.1,0,1.5,2.2,1.5,2.7C92.3,47.6,91.6,48.3,90.8,48.3z M90.8,45.1
		c-0.2,0.3-0.5,1.2-0.5,1.7c0,0.3,0.2,0.6,0.5,0.6s0.5-0.3,0.5-0.6C91.3,46.3,91,45.4,90.8,45.1z"/>
</g>
</svg>
