<?xml version="1.0" encoding="utf-8"?>
<!-- Generator: Adobe Illustrator 18.1.1, SVG Export Plug-In . SVG Version: 6.00 Build 0)  -->
<!DOCTYPE svg PUBLIC "-//W3C//DTD SVG 1.1//EN" "http://www.w3.org/Graphics/SVG/1.1/DTD/svg11.dtd">
<svg version="1.1" id="Layer_1" xmlns="http://www.w3.org/2000/svg" xmlns:xlink="http://www.w3.org/1999/xlink" x="0px" y="0px"
	 viewBox="7 -6.7 141.7 141.7" enable-background="new 7 -6.7 141.7 141.7" xml:space="preserve">
<g>
	<g>
		<path fill="#FFFFFF" d="M103.7,84.7c0,3.1-2.5,5.5-5.5,5.5H58c-3.1,0-5.5-2.5-5.5-5.5V49.4c0-3.1,2.5-5.5,5.5-5.5h40.1
			c3.1,0,5.5,2.5,5.5,5.5V84.7z M100.5,49.4c0-1.3-1.1-2.3-2.3-2.3H58c-1.3,0-2.3,1-2.3,2.3v35.3c0,1.3,1.1,2.3,2.3,2.3h40.1
			c1.3,0,2.3-1.1,2.3-2.3C100.5,84.7,100.5,49.4,100.5,49.4z"/>
		<path fill="#231F20" d="M98.1,90.7H58c-3.3,0-6-2.7-6-6V49.4c0-3.3,2.7-6,6-6h40.1c3.3,0,6,2.7,6,6v35.3
			C104.2,88,101.5,90.7,98.1,90.7z M58,44.3c-2.8,0-5,2.3-5,5v35.3c0,2.8,2.3,5,5,5h40.1c2.8,0,5-2.3,5-5V49.4c0-2.8-2.3-5-5-5H58z
			 M98.1,87.5H58c-1.6,0-2.8-1.3-2.8-2.8V49.4c0-1.6,1.3-2.8,2.8-2.8h40.1c1.6,0,2.8,1.3,2.8,2.8v35.3C101,86.3,99.7,87.5,98.1,87.5
			z M58,47.5c-1,0-1.8,0.8-1.8,1.8v35.3c0,1,0.8,1.8,1.8,1.8h40.1c1,0,1.8-0.8,1.8-1.8V49.4c0-1-0.8-1.8-1.8-1.8H58z"/>
	</g>
	<g>
		<path fill="#FFFFFF" d="M95,84.6h-5.1c-0.4,0-0.8-0.4-0.8-0.8c0-0.4,0.4-0.8,0.8-0.8H95c0.8,0,1.4-0.1,1.4-1.9
			c0-0.4,0.4-0.8,0.9-0.8c0.4,0,0.9,0.4,0.9,0.8v0.3c0,0-0.1,0.1-0.1,0.1C97.9,83.6,96.8,84.6,95,84.6L95,84.6z"/>
		<path fill="#231F20" d="M95,85.1h-5c-0.7,0-1.3-0.6-1.3-1.3c0-0.7,0.6-1.3,1.3-1.3h5c0.6,0,0.9,0,0.9-1.4c0-0.7,0.6-1.3,1.4-1.3
			c0.7,0,1.4,0.6,1.4,1.3v0.5l-0.1,0.1C98.3,83.9,97.1,85.1,95,85.1z M89.9,83.5c-0.2,0-0.3,0.1-0.3,0.3c0,0.2,0.1,0.3,0.3,0.3h5
			c1.6,0,2.4-0.8,2.5-2.6l0-0.2l0.1-0.1v-0.1c0-0.1-0.2-0.3-0.4-0.3c-0.2,0-0.4,0.2-0.4,0.3c0,2-0.7,2.4-1.9,2.4H89.9z"/>
	</g>
	<g>
		<path fill="#FFFFFF" d="M97.2,78.6c-0.2,0-0.4-0.1-0.6-0.2c-0.1-0.1-0.2-0.4-0.2-0.6c0-0.2,0.1-0.4,0.2-0.6c0.3-0.3,0.8-0.3,1.1,0
			c0.1,0.1,0.2,0.4,0.2,0.6s-0.1,0.4-0.2,0.6C97.6,78.5,97.4,78.6,97.2,78.6L97.2,78.6z"/>
		<path fill="#231F20" d="M97.2,79.1c-0.3,0-0.7-0.1-0.9-0.4c-0.2-0.3-0.4-0.6-0.4-0.9c0-0.3,0.1-0.7,0.4-0.9c0.5-0.5,1.4-0.5,1.8,0
			c0.2,0.3,0.4,0.6,0.4,0.9c0,0.3-0.1,0.7-0.4,0.9C97.8,78.9,97.5,79.1,97.2,79.1z M97.2,77.5c-0.1,0-0.2,0-0.2,0.1
			c-0.1,0.1-0.1,0.1-0.1,0.2c0,0.1,0,0.2,0.1,0.2c0.1,0.1,0.3,0.1,0.4,0c0,0,0.1-0.1,0.1-0.2s0-0.2-0.1-0.2
			C97.3,77.5,97.3,77.5,97.2,77.5z"/>
	</g>
	<g>
		<path fill="#FFFFFF" d="M64.3,66.2h-0.8c-0.4,0-0.8-0.4-0.8-0.8s0.4-0.8,0.8-0.8h0.8c0.4,0,0.8,0.4,0.8,0.8S64.8,66.2,64.3,66.2
			L64.3,66.2z"/>
		<path fill="#231F20" d="M64.3,66.7h-0.8c-0.7,0-1.3-0.6-1.3-1.3s0.6-1.3,1.3-1.3h0.8c0.7,0,1.3,0.6,1.3,1.3S65,66.7,64.3,66.7z
			 M63.5,65.1c-0.2,0-0.3,0.1-0.3,0.3c0,0.2,0.1,0.3,0.3,0.3h0.8c0.2,0,0.3-0.1,0.3-0.3c0-0.2-0.1-0.3-0.3-0.3H63.5z"/>
	</g>
	<g>
		<path fill="#FFFFFF" d="M69.9,66.2h-0.8c-0.4,0-0.8-0.4-0.8-0.8s0.4-0.8,0.8-0.8h0.8c0.4,0,0.8,0.4,0.8,0.8S70.4,66.2,69.9,66.2
			L69.9,66.2z"/>
		<path fill="#231F20" d="M69.9,66.7h-0.8c-0.7,0-1.3-0.6-1.3-1.3s0.6-1.3,1.3-1.3h0.8c0.7,0,1.3,0.6,1.3,1.3S70.6,66.7,69.9,66.7z
			 M69.1,65.1c-0.2,0-0.3,0.1-0.3,0.3s0.1,0.3,0.3,0.3h0.8c0.2,0,0.3-0.1,0.3-0.3s-0.1-0.3-0.3-0.3H69.1z"/>
	</g>
	<g>
		<path fill="#FFFFFF" d="M75.5,66.2h-0.8c-0.4,0-0.8-0.4-0.8-0.8s0.4-0.8,0.8-0.8h0.8c0.4,0,0.8,0.4,0.8,0.8S76,66.2,75.5,66.2
			L75.5,66.2z"/>
		<path fill="#231F20" d="M75.5,66.7h-0.8c-0.7,0-1.3-0.6-1.3-1.3s0.6-1.3,1.3-1.3h0.8c0.7,0,1.3,0.6,1.3,1.3S76.2,66.7,75.5,66.7z
			 M74.7,65.1c-0.2,0-0.3,0.1-0.3,0.3s0.1,0.3,0.3,0.3h0.8c0.2,0,0.3-0.1,0.3-0.3s-0.1-0.3-0.3-0.3H74.7z"/>
	</g>
	<g>
		<path fill="#FFFFFF" d="M80.3,66.2h-0.8c-0.4,0-0.8-0.4-0.8-0.8s0.4-0.8,0.8-0.8h0.8c0.4,0,0.8,0.4,0.8,0.8
			C81.1,65.9,80.8,66.2,80.3,66.2L80.3,66.2z"/>
		<path fill="#231F20" d="M80.3,66.7h-0.8c-0.7,0-1.3-0.6-1.3-1.3s0.6-1.3,1.3-1.3h0.8c0.7,0,1.3,0.6,1.3,1.3S81,66.7,80.3,66.7z
			 M79.5,65.1c-0.2,0-0.3,0.1-0.3,0.3c0,0.2,0.1,0.3,0.3,0.3h0.8c0.2,0,0.3-0.1,0.3-0.3c0-0.2-0.1-0.3-0.3-0.3H79.5z"/>
	</g>
	<g>
		<path fill="#FFFFFF" d="M85.9,66.2h-0.8c-0.4,0-0.8-0.4-0.8-0.8s0.4-0.8,0.8-0.8h0.8c0.4,0,0.8,0.4,0.8,0.8S86.4,66.2,85.9,66.2
			L85.9,66.2z"/>
		<path fill="#231F20" d="M85.9,66.7h-0.8c-0.7,0-1.3-0.6-1.3-1.3s0.6-1.3,1.3-1.3h0.8c0.7,0,1.3,0.6,1.3,1.3S86.6,66.7,85.9,66.7z
			 M85.1,65.1c-0.2,0-0.3,0.1-0.3,0.3s0.1,0.3,0.3,0.3h0.8c0.2,0,0.3-0.1,0.3-0.3s-0.1-0.3-0.3-0.3H85.1z"/>
	</g>
	<g>
		<path fill="#FFFFFF" d="M91.5,66.2h-0.8c-0.4,0-0.8-0.4-0.8-0.8s0.4-0.8,0.8-0.8h0.8c0.4,0,0.8,0.4,0.8,0.8S92,66.2,91.5,66.2
			L91.5,66.2z"/>
		<path fill="#231F20" d="M91.5,66.7h-0.8c-0.7,0-1.3-0.6-1.3-1.3s0.6-1.3,1.3-1.3h0.8c0.7,0,1.3,0.6,1.3,1.3S92.2,66.7,91.5,66.7z
			 M90.7,65.1c-0.2,0-0.3,0.1-0.3,0.3s0.1,0.3,0.3,0.3h0.8c0.2,0,0.3-0.1,0.3-0.3s-0.1-0.3-0.3-0.3H90.7z"/>
	</g>
	<g>
		<path fill="#FFFFFF" d="M64.3,71h-0.8c-0.4,0-0.8-0.4-0.8-0.8c0-0.4,0.4-0.8,0.8-0.8h0.8c0.4,0,0.8,0.4,0.8,0.8
			C65.1,70.7,64.8,71,64.3,71L64.3,71z"/>
		<path fill="#231F20" d="M64.3,71.5h-0.8c-0.7,0-1.3-0.6-1.3-1.3c0-0.7,0.6-1.3,1.3-1.3h0.8c0.7,0,1.3,0.6,1.3,1.3
			C65.6,71,65,71.5,64.3,71.5z M63.5,69.9c-0.2,0-0.3,0.1-0.3,0.3s0.1,0.3,0.3,0.3h0.8c0.2,0,0.3-0.1,0.3-0.3s-0.1-0.3-0.3-0.3H63.5
			z"/>
	</g>
	<g>
		<path fill="#FFFFFF" d="M69.9,71h-0.8c-0.4,0-0.8-0.4-0.8-0.8c0-0.4,0.4-0.8,0.8-0.8h0.8c0.4,0,0.8,0.4,0.8,0.8
			C70.7,70.7,70.4,71,69.9,71L69.9,71z"/>
		<path fill="#231F20" d="M69.9,71.5h-0.8c-0.7,0-1.3-0.6-1.3-1.3c0-0.7,0.6-1.3,1.3-1.3h0.8c0.7,0,1.3,0.6,1.3,1.3
			C71.2,71,70.6,71.5,69.9,71.5z M69.1,69.9c-0.2,0-0.3,0.1-0.3,0.3s0.1,0.3,0.3,0.3h0.8c0.2,0,0.3-0.1,0.3-0.3s-0.1-0.3-0.3-0.3
			H69.1z"/>
	</g>
	<g>
		<path fill="#FFFFFF" d="M75.5,71h-0.8c-0.4,0-0.8-0.4-0.8-0.8c0-0.4,0.4-0.8,0.8-0.8h0.8c0.4,0,0.8,0.4,0.8,0.8
			C76.3,70.7,76,71,75.5,71L75.5,71z"/>
		<path fill="#231F20" d="M75.5,71.5h-0.8c-0.7,0-1.3-0.6-1.3-1.3c0-0.7,0.6-1.3,1.3-1.3h0.8c0.7,0,1.3,0.6,1.3,1.3
			C76.8,71,76.2,71.5,75.5,71.5z M74.7,69.9c-0.2,0-0.3,0.1-0.3,0.3s0.1,0.3,0.3,0.3h0.8c0.2,0,0.3-0.1,0.3-0.3s-0.1-0.3-0.3-0.3
			H74.7z"/>
	</g>
	<g>
		<path fill="#FFFFFF" d="M80.3,71h-0.8c-0.4,0-0.8-0.4-0.8-0.8c0-0.4,0.4-0.8,0.8-0.8h0.8c0.4,0,0.8,0.4,0.8,0.8
			C81.1,70.7,80.8,71,80.3,71L80.3,71z"/>
		<path fill="#231F20" d="M80.3,71.5h-0.8c-0.7,0-1.3-0.6-1.3-1.3c0-0.7,0.6-1.3,1.3-1.3h0.8c0.7,0,1.3,0.6,1.3,1.3
			C81.6,71,81,71.5,80.3,71.5z M79.5,69.9c-0.2,0-0.3,0.1-0.3,0.3s0.1,0.3,0.3,0.3h0.8c0.2,0,0.3-0.1,0.3-0.3s-0.1-0.3-0.3-0.3H79.5
			z"/>
	</g>
	<g>
		<path fill="#FFFFFF" d="M85.9,71h-0.8c-0.4,0-0.8-0.4-0.8-0.8c0-0.4,0.4-0.8,0.8-0.8h0.8c0.4,0,0.8,0.4,0.8,0.8
			C86.7,70.7,86.4,71,85.9,71L85.9,71z"/>
		<path fill="#231F20" d="M85.9,71.5h-0.8c-0.7,0-1.3-0.6-1.3-1.3c0-0.7,0.6-1.3,1.3-1.3h0.8c0.7,0,1.3,0.6,1.3,1.3
			C87.2,71,86.6,71.5,85.9,71.5z M85.1,69.9c-0.2,0-0.3,0.1-0.3,0.3s0.1,0.3,0.3,0.3h0.8c0.2,0,0.3-0.1,0.3-0.3s-0.1-0.3-0.3-0.3
			H85.1z"/>
	</g>
	<g>
		<path fill="#FFFFFF" d="M91.5,71h-0.8c-0.4,0-0.8-0.4-0.8-0.8c0-0.4,0.4-0.8,0.8-0.8h0.8c0.4,0,0.8,0.4,0.8,0.8
			C92.3,70.7,92,71,91.5,71L91.5,71z"/>
		<path fill="#231F20" d="M91.5,71.5h-0.8c-0.7,0-1.3-0.6-1.3-1.3c0-0.7,0.6-1.3,1.3-1.3h0.8c0.7,0,1.3,0.6,1.3,1.3
			C92.8,71,92.2,71.5,91.5,71.5z M90.7,69.9c-0.2,0-0.3,0.1-0.3,0.3s0.1,0.3,0.3,0.3h0.8c0.2,0,0.3-0.1,0.3-0.3s-0.1-0.3-0.3-0.3
			H90.7z"/>
	</g>
	<g>
		<path fill="#FFFFFF" d="M64.3,80.6h-0.8c-0.4,0-0.8-0.4-0.8-0.8c0-0.4,0.4-0.8,0.8-0.8h0.8c0.4,0,0.8,0.4,0.8,0.8
			C65.1,80.3,64.8,80.6,64.3,80.6L64.3,80.6z"/>
		<path fill="#231F20" d="M64.3,81.1h-0.8c-0.7,0-1.3-0.6-1.3-1.3c0-0.7,0.6-1.3,1.3-1.3h0.8c0.7,0,1.3,0.6,1.3,1.3
			C65.6,80.6,65,81.1,64.3,81.1z M63.5,79.5c-0.2,0-0.3,0.1-0.3,0.3c0,0.2,0.1,0.3,0.3,0.3h0.8c0.2,0,0.3-0.1,0.3-0.3
			c0-0.2-0.1-0.3-0.3-0.3H63.5z"/>
	</g>
	<g>
		<path fill="#FFFFFF" d="M69.9,80.6h-0.8c-0.4,0-0.8-0.4-0.8-0.8c0-0.4,0.4-0.8,0.8-0.8h0.8c0.4,0,0.8,0.4,0.8,0.8
			C70.7,80.3,70.4,80.6,69.9,80.6L69.9,80.6z"/>
		<path fill="#231F20" d="M69.9,81.1h-0.8c-0.7,0-1.3-0.6-1.3-1.3c0-0.7,0.6-1.3,1.3-1.3h0.8c0.7,0,1.3,0.6,1.3,1.3
			C71.2,80.6,70.6,81.1,69.9,81.1z M69.1,79.5c-0.2,0-0.3,0.1-0.3,0.3c0,0.2,0.1,0.3,0.3,0.3h0.8c0.2,0,0.3-0.1,0.3-0.3
			c0-0.2-0.1-0.3-0.3-0.3H69.1z"/>
	</g>
	<g>
		<path fill="#FFFFFF" d="M75.5,80.6h-0.8c-0.4,0-0.8-0.4-0.8-0.8c0-0.4,0.4-0.8,0.8-0.8h0.8c0.4,0,0.8,0.4,0.8,0.8
			C76.3,80.3,76,80.6,75.5,80.6L75.5,80.6z"/>
		<path fill="#231F20" d="M75.5,81.1h-0.8c-0.7,0-1.3-0.6-1.3-1.3c0-0.7,0.6-1.3,1.3-1.3h0.8c0.7,0,1.3,0.6,1.3,1.3
			C76.8,80.6,76.2,81.1,75.5,81.1z M74.7,79.5c-0.2,0-0.3,0.1-0.3,0.3c0,0.2,0.1,0.3,0.3,0.3h0.8c0.2,0,0.3-0.1,0.3-0.3
			c0-0.2-0.1-0.3-0.3-0.3H74.7z"/>
	</g>
	<g>
		<path fill="#FFFFFF" d="M80.3,80.6h-0.8c-0.4,0-0.8-0.4-0.8-0.8c0-0.4,0.4-0.8,0.8-0.8h0.8c0.4,0,0.8,0.4,0.8,0.8
			C81.1,80.3,80.8,80.6,80.3,80.6L80.3,80.6z"/>
		<path fill="#231F20" d="M80.3,81.1h-0.8c-0.7,0-1.3-0.6-1.3-1.3c0-0.7,0.6-1.3,1.3-1.3h0.8c0.7,0,1.3,0.6,1.3,1.3
			C81.6,80.6,81,81.1,80.3,81.1z M79.5,79.5c-0.2,0-0.3,0.1-0.3,0.3c0,0.2,0.1,0.3,0.3,0.3h0.8c0.2,0,0.3-0.1,0.3-0.3
			c0-0.2-0.1-0.3-0.3-0.3H79.5z"/>
	</g>
	<g>
		<path fill="#FFFFFF" d="M64.3,75.8h-0.8c-0.4,0-0.8-0.4-0.8-0.8c0-0.4,0.4-0.8,0.8-0.8h0.8c0.4,0,0.8,0.4,0.8,0.8
			C65.1,75.5,64.8,75.8,64.3,75.8L64.3,75.8z"/>
		<path fill="#231F20" d="M64.3,76.3h-0.8c-0.7,0-1.3-0.6-1.3-1.3c0-0.7,0.6-1.3,1.3-1.3h0.8c0.7,0,1.3,0.6,1.3,1.3
			C65.6,75.8,65,76.3,64.3,76.3z M63.5,74.7c-0.2,0-0.3,0.1-0.3,0.3c0,0.2,0.1,0.3,0.3,0.3h0.8c0.2,0,0.3-0.1,0.3-0.3
			c0-0.2-0.1-0.3-0.3-0.3H63.5z"/>
	</g>
	<g>
		<path fill="#FFFFFF" d="M69.9,75.8h-0.8c-0.4,0-0.8-0.4-0.8-0.8c0-0.4,0.4-0.8,0.8-0.8h0.8c0.4,0,0.8,0.4,0.8,0.8
			C70.7,75.5,70.4,75.8,69.9,75.8L69.9,75.8z"/>
		<path fill="#231F20" d="M69.9,76.3h-0.8c-0.7,0-1.3-0.6-1.3-1.3c0-0.7,0.6-1.3,1.3-1.3h0.8c0.7,0,1.3,0.6,1.3,1.3
			C71.2,75.8,70.6,76.3,69.9,76.3z M69.1,74.7c-0.2,0-0.3,0.1-0.3,0.3c0,0.2,0.1,0.3,0.3,0.3h0.8c0.2,0,0.3-0.1,0.3-0.3
			c0-0.2-0.1-0.3-0.3-0.3H69.1z"/>
	</g>
	<g>
		<path fill="#FFFFFF" d="M75.5,75.8h-0.8c-0.4,0-0.8-0.4-0.8-0.8c0-0.4,0.4-0.8,0.8-0.8h0.8c0.4,0,0.8,0.4,0.8,0.8
			C76.3,75.5,76,75.8,75.5,75.8L75.5,75.8z"/>
		<path fill="#231F20" d="M75.5,76.3h-0.8c-0.7,0-1.3-0.6-1.3-1.3c0-0.7,0.6-1.3,1.3-1.3h0.8c0.7,0,1.3,0.6,1.3,1.3
			C76.8,75.8,76.2,76.3,75.5,76.3z M74.7,74.7c-0.2,0-0.3,0.1-0.3,0.3c0,0.2,0.1,0.3,0.3,0.3h0.8c0.2,0,0.3-0.1,0.3-0.3
			c0-0.2-0.1-0.3-0.3-0.3H74.7z"/>
	</g>
	<g>
		<path fill="#FFFFFF" d="M80.3,75.8h-0.8c-0.4,0-0.8-0.4-0.8-0.8c0-0.4,0.4-0.8,0.8-0.8h0.8c0.4,0,0.8,0.4,0.8,0.8
			C81.1,75.5,80.8,75.8,80.3,75.8L80.3,75.8z"/>
		<path fill="#231F20" d="M80.3,76.3h-0.8c-0.7,0-1.3-0.6-1.3-1.3c0-0.7,0.6-1.3,1.3-1.3h0.8c0.7,0,1.3,0.6,1.3,1.3
			C81.6,75.8,81,76.3,80.3,76.3z M79.5,74.7c-0.2,0-0.3,0.1-0.3,0.3c0,0.2,0.1,0.3,0.3,0.3h0.8c0.2,0,0.3-0.1,0.3-0.3
			c0-0.2-0.1-0.3-0.3-0.3H79.5z"/>
	</g>
	<g>
		<path fill="#FFFFFF" d="M85.9,75.8h-0.8c-0.4,0-0.8-0.4-0.8-0.8c0-0.4,0.4-0.8,0.8-0.8h0.8c0.4,0,0.8,0.4,0.8,0.8
			C86.7,75.5,86.4,75.8,85.9,75.8L85.9,75.8z"/>
		<path fill="#231F20" d="M85.9,76.3h-0.8c-0.7,0-1.3-0.6-1.3-1.3c0-0.7,0.6-1.3,1.3-1.3h0.8c0.7,0,1.3,0.6,1.3,1.3
			C87.2,75.8,86.6,76.3,85.9,76.3z M85.1,74.7c-0.2,0-0.3,0.1-0.3,0.3c0,0.2,0.1,0.3,0.3,0.3h0.8c0.2,0,0.3-0.1,0.3-0.3
			c0-0.2-0.1-0.3-0.3-0.3H85.1z"/>
	</g>
	<g>
		<path fill="#FFFFFF" d="M91.5,75.8h-0.8c-0.4,0-0.8-0.4-0.8-0.8c0-0.4,0.4-0.8,0.8-0.8h0.8c0.4,0,0.8,0.4,0.8,0.8
			C92.3,75.5,92,75.8,91.5,75.8L91.5,75.8z"/>
		<path fill="#231F20" d="M91.5,76.3h-0.8c-0.7,0-1.3-0.6-1.3-1.3c0-0.7,0.6-1.3,1.3-1.3h0.8c0.7,0,1.3,0.6,1.3,1.3
			C92.8,75.8,92.2,76.3,91.5,76.3z M90.7,74.7c-0.2,0-0.3,0.1-0.3,0.3c0,0.2,0.1,0.3,0.3,0.3h0.8c0.2,0,0.3-0.1,0.3-0.3
			c0-0.2-0.1-0.3-0.3-0.3H90.7z"/>
	</g>
	<g>
		<path fill="#FFFFFF" d="M63.7,52.6c-0.9,0-1.6-0.7-1.6-1.6V39c0-0.9,0.7-1.6,1.6-1.6c0.9,0,1.6,0.7,1.6,1.6v12
			C65.3,51.9,64.6,52.6,63.7,52.6L63.7,52.6z"/>
		<path fill="#231F20" d="M63.7,53.1c-1.2,0-2.1-0.9-2.1-2.1V39c0-1.2,0.9-2.1,2.1-2.1c1.2,0,2.1,0.9,2.1,2.1v12
			C65.8,52.2,64.8,53.1,63.7,53.1z M63.7,37.9c-0.6,0-1.1,0.5-1.1,1.1v12c0,0.6,0.5,1.1,1.1,1.1c0.6,0,1.1-0.5,1.1-1.1V39
			C64.8,38.4,64.3,37.9,63.7,37.9z"/>
	</g>
	<g>
		<path fill="#FFFFFF" d="M91.7,52.6c-0.9,0-1.6-0.7-1.6-1.6V39c0-0.9,0.7-1.6,1.6-1.6s1.6,0.7,1.6,1.6v12
			C93.3,51.9,92.6,52.6,91.7,52.6L91.7,52.6z"/>
		<path fill="#231F20" d="M91.7,53.1c-1.2,0-2.1-0.9-2.1-2.1V39c0-1.2,0.9-2.1,2.1-2.1c1.2,0,2.1,0.9,2.1,2.1v12
			C93.8,52.2,92.8,53.1,91.7,53.1z M91.7,37.9c-0.6,0-1.1,0.5-1.1,1.1v12c0,0.6,0.5,1.1,1.1,1.1c0.6,0,1.1-0.5,1.1-1.1V39
			C92.8,38.4,92.3,37.9,91.7,37.9z"/>
	</g>
	<g>
		<path fill="#FFFFFF" d="M101.9,59h-48c-0.4,0-0.8-0.4-0.8-0.8c0-0.4,0.4-0.8,0.8-0.8h48c0.4,0,0.8,0.4,0.8,0.8
			C102.7,58.7,102.4,59,101.9,59L101.9,59z"/>
		<path fill="#231F20" d="M101.9,59.5h-48c-0.7,0-1.3-0.6-1.3-1.3s0.6-1.3,1.3-1.3h48c0.7,0,1.3,0.6,1.3,1.3S102.6,59.5,101.9,59.5z
			 M53.9,57.9c-0.2,0-0.3,0.1-0.3,0.3c0,0.2,0.1,0.3,0.3,0.3h48c0.2,0,0.3-0.1,0.3-0.3s-0.1-0.3-0.3-0.3H53.9z"/>
	</g>
</g>
</svg>
