<?xml version="1.0" encoding="utf-8"?>
<!-- Generator: Adobe Illustrator 18.1.1, SVG Export Plug-In . SVG Version: 6.00 Build 0)  -->
<!DOCTYPE svg PUBLIC "-//W3C//DTD SVG 1.1//EN" "http://www.w3.org/Graphics/SVG/1.1/DTD/svg11.dtd">
<svg version="1.1" id="Layer_1" xmlns="http://www.w3.org/2000/svg" xmlns:xlink="http://www.w3.org/1999/xlink" x="0px" y="0px"
	 viewBox="0 0 128 128" enable-background="new 0 0 128 128" xml:space="preserve">
<g>
	<path fill="#231F20" d="M83.4,72.5H59.1c-2.1,0-3.7-1.5-3.7-3.3V44.8c0-1.9,1.6-3.3,3.7-3.3h24.3c2.1,0,3.7,1.5,3.7,3.3v24.4
		C87.1,71,85.4,72.5,83.4,72.5z M59.1,42.3c-1.5,0-2.8,1.1-2.8,2.4v24.4c0,1.4,1.3,2.4,2.8,2.4h24.3c1.5,0,2.8-1.1,2.8-2.4V44.7
		c0-1.4-1.3-2.4-2.8-2.4C83.4,42.3,59.1,42.3,59.1,42.3z"/>
	<path fill="#231F20" d="M75.2,46.3h-5.9c-0.7,0-1.4-0.6-1.4-1.4s0.6-1.4,1.4-1.4h5.9c0.7,0,1.4,0.6,1.4,1.4S75.9,46.3,75.2,46.3z
		 M69.3,44.5c-0.3,0-0.5,0.2-0.5,0.5s0.2,0.5,0.5,0.5h5.9c0.3,0,0.5-0.2,0.5-0.5s-0.2-0.5-0.5-0.5H69.3z"/>
	<path fill="#231F20" d="M75.2,68.7h-5.9c-0.7,0-1.4-0.6-1.4-1.4s0.6-1.4,1.4-1.4h5.9c0.7,0,1.4,0.6,1.4,1.4
		C76.6,68.1,75.9,68.7,75.2,68.7z M69.3,66.9c-0.3,0-0.5,0.2-0.5,0.5s0.2,0.5,0.5,0.5h5.9c0.3,0,0.5-0.2,0.5-0.5s-0.2-0.5-0.5-0.5
		H69.3z"/>
	<path fill="#231F20" d="M80.3,63.1H69.3c-0.7,0-1.4-0.6-1.4-1.4s0.6-1.4,1.4-1.4h10.9c0.7,0,1.4,0.6,1.4,1.4S81,63.1,80.3,63.1z
		 M69.3,61.3c-0.3,0-0.5,0.2-0.5,0.5c0,0.3,0.2,0.5,0.5,0.5h10.9c0.3,0,0.5-0.2,0.5-0.5c0-0.3-0.2-0.5-0.5-0.5H69.3z"/>
	<path fill="#231F20" d="M75.2,57.5h-5.9c-0.7,0-1.4-0.6-1.4-1.4s0.6-1.4,1.4-1.4h5.9c0.7,0,1.4,0.6,1.4,1.4S75.9,57.5,75.2,57.5z
		 M69.3,55.7c-0.3,0-0.5,0.2-0.5,0.5c0,0.3,0.2,0.5,0.5,0.5h5.9c0.3,0,0.5-0.2,0.5-0.5c0-0.3-0.2-0.5-0.5-0.5H69.3z"/>
	<path fill="#231F20" d="M80.3,51.9H69.3c-0.7,0-1.4-0.6-1.4-1.4s0.6-1.4,1.4-1.4h10.9c0.7,0,1.4,0.6,1.4,1.4S81,51.9,80.3,51.9z
		 M69.3,50.1c-0.3,0-0.5,0.2-0.5,0.5c0,0.3,0.2,0.5,0.5,0.5h10.9c0.3,0,0.5-0.2,0.5-0.5c0-0.3-0.2-0.5-0.5-0.5H69.3z"/>
</g>
</svg>
