<?xml version="1.0" encoding="utf-8"?>
<!-- Generator: Adobe Illustrator 18.1.1, SVG Export Plug-In . SVG Version: 6.00 Build 0)  -->
<!DOCTYPE svg PUBLIC "-//W3C//DTD SVG 1.1//EN" "http://www.w3.org/Graphics/SVG/1.1/DTD/svg11.dtd">
<svg version="1.1" id="Layer_1" xmlns="http://www.w3.org/2000/svg" xmlns:xlink="http://www.w3.org/1999/xlink" x="0px" y="0px"
	 viewBox="7 -6.7 141.7 141.7" enable-background="new 7 -6.7 141.7 141.7" xml:space="preserve">
<g>
	<g>
		<g>
			<path fill="#FFFFFF" d="M89.4,63.2c-0.1-0.9-0.8-1.3-1.1-2c0.6-0.3,1-0.3,1.7-0.3c0-0.3-1.1-0.3-1.3-0.2c0,0.2-0.8,0.2-0.8,0.4
				c-0.5,0.2-1.5-0.3-1.5-0.9c-0.2,0-0.2-0.9-0.5-0.9c0-0.5-0.5-0.9-0.6-1.4c-0.1-0.1-1.1-1.3-1.1-1.5c0.2,0.1,0.2,0.1,0.5,0.2
				c0-0.1-0.9-0.9-0.8-0.9c0-0.2-0.2-0.5-0.2-0.7c-0.9-0.5-0.1-1.1,0-1.7c0.8,0.2,1.1,2.1,1.4,2.1c0-0.2-0.1-1.3-0.4-1.3
				c-0.1-0.3-0.5-1-0.8-1c0-0.6,1.5-0.7,1.5-1c0.1,0,0.3,0,0.4,0c-0.1,0.3-0.1,0.6,0,0.8c0,0,0,0,0,0c0,0,0,0,0-0.1c0,0,0,0,0,0
				c0.1,0.1,0.2,0.4,0.3,0.5c0,0,0,0,0,0c0,0,0,0,0-0.1c0,0,0,0,0,0c0.1,0.1,0.3,0.3,0.4,0.3c0,0,0,0,0,0c0,0,0,0,0,0c0,0,0,0,0,0
				c0.1,0.1,0.3,0.2,0.5,0.2c0,0,0.1,0,0.1,0c0-0.1,0-0.4,0-0.5c0,0,0,0,0,0c0,0,0,0,0,0c0,0,0,0,0,0c0-0.1,0-0.3-0.1-0.5
				c0,0,0,0,0,0c0,0,0,0,0,0c0,0,0,0,0,0c0-0.2-0.2-0.4-0.2-0.6c0,0,0,0,0,0c0,0,0,0,0.1,0c0,0,0,0,0,0c-0.1-0.1-0.2-0.2-0.3-0.3
				c0.1,0,0.2,0,0.4,0c0-0.1,1.3-0.2,1.5-0.2c0.2,0.1,0.3,0.6,0.3,0.8c0.2,0,0.1,0.9,0.3,0.9c0.1,0.3,0,0.6,0.2,0.8
				c-0.1,0.2-0.3,0.3-0.3,0.6c0.2,0,0.2-0.1,0.4-0.2c0.1,0.3,0.1,0.6,0.4,0.8c0-0.3-0.6-3.7-0.7-3.7c0.4-0.1,0.5-0.2,0.9-0.2
				c0.1,0.4,0.5,0.5,0.6,0.9c0,0.1,0.5,1.2,0.5,1.2c0,0.4-0.1,0.5-0.2,0.8c0.2-0.1,0.2-0.2,0.4-0.3c0.1,0.2,0.2,0.5,0.4,0.5
				c-0.1-0.5-0.4-0.8-0.5-1.3c0-0.1-0.2-0.7-0.3-0.7c-0.2-0.7-0.4-1.1-0.6-1.7c0.3-0.2,0.6-0.8,0.7-1.1c0.2,0,0.3-0.3,0.5-0.5
				c0.9,0,0.9,2,1.3,2c0-1-0.4-1.6-0.8-2.2c0.9-0.4,0.6,0.3,1.4,0.6c-0.1-0.4-0.3-0.8-0.7-1c0.1-0.3,0.2-0.5,0.2-0.8
				c-0.3,0.1-0.3,0.3-0.5,0.5c0-0.4-0.8-0.1-1.1-0.2c0-0.3-1.6-0.2-1.9-0.2c-0.3,0-0.5,0-0.8,0c0.3-0.3,0.4-0.6,0.4-1c0,0,0,0-0.1,0
				c0,0,0,0-0.1,0.1c0,0,0,0,0,0c0-0.2-0.1-0.5-0.2-0.7c0,0,0,0-0.1,0c0,0,0,0,0,0.1c0,0,0,0,0,0c-0.1-0.2-0.2-0.4-0.3-0.5
				c0,0-0.1,0-0.1,0c0,0,0,0,0,0c0,0,0,0,0,0c-0.1-0.1-0.3-0.4-0.4-0.5c0,0-0.1,0-0.1,0c-0.1,0.1-0.2,0.4-0.3,0.6c0,0,0,0,0,0
				c0,0,0,0,0,0c0,0-0.1,0-0.1,0c-0.1,0.1-0.1,0.4-0.1,0.6c0,0,0,0,0,0c0,0,0,0,0,0c0,0,0,0-0.1,0c-0.1,0.2,0,0.6,0.1,0.7
				c0,0,0,0,0,0c0,0,0,0-0.1,0c0,0,0,0,0,0c0.1,0.3,0.3,0.5,0.7,0.8c-0.1,0-0.2,0.1-0.3,0.1c-0.4,0-1.2,0.1-1.4,0.4
				c-0.5,0.2-0.9,0.8-1.4,0.8C84.7,49,84.1,50,84,50c0,0.1-0.2,0.6-0.3,0.6c-0.1,0.6-0.6,0.8-0.8,1.3c-0.1,0-0.4,0.6-0.7,0.9
				c0-0.1,0-0.2,0-0.2c0,0,0,0-0.1,0c0,0,0,0,0,0c0,0,0,0,0,0c0-0.2,0-0.5,0-0.6c0,0,0-0.1-0.1,0c0,0-0.1,0-0.1,0
				c0.3-0.4,0.5-0.7,0.4-1.1c0,0,0-0.1-0.1,0c0,0,0,0-0.1,0.1c0,0,0,0,0,0c0-0.2-0.1-0.7-0.2-1c0,0-0.1,0-0.1,0c0,0,0,0,0,0.1
				c0,0,0,0,0,0c-0.1-0.2-0.3-0.6-0.4-0.7c0,0-0.1,0-0.1,0c0,0,0,0,0,0c0,0,0,0-0.1,0c-0.1-0.2-0.4-0.5-0.6-0.6c0,0-0.1,0-0.1,0
				c-0.1,0.2-0.3,0.6-0.3,0.8c0,0,0,0-0.1,0c0,0,0,0,0,0c0,0-0.1,0-0.1,0c-0.1,0.2-0.2,0.5-0.2,0.8c0,0,0,0,0,0c0,0,0,0-0.1-0.1
				c0,0-0.1,0-0.1,0c-0.1,0.3,0,0.8,0.1,1c0,0,0,0,0,0c0,0-0.1,0-0.1,0c0,0-0.1,0-0.1,0.1c0.1,0.5,0.5,0.8,1.1,1.1
				c-0.1,0.1-0.2,0.2-0.2,0.3c0,0,0,0,0,0c0,0,0,0,0-0.1c0,0,0,0-0.1,0c-0.1,0.2-0.1,0.5-0.1,0.8c-0.2,0.4-0.3,0.8-0.5,1.2
				c-0.2,0.3-0.3,0.7-0.5,1c-0.2-0.6-0.3-1-0.7-1.2c0,0-0.1,0-0.1,0c0,0,0,0.1,0,0.1c0,0,0,0.1,0,0c-0.2-0.1-0.6-0.3-0.9-0.3
				c0,0-0.1,0,0,0.1c0,0,0,0,0,0.1c0,0,0,0,0,0c-0.2-0.1-0.6-0.1-0.8,0c0,0-0.1,0.1,0,0.1c0,0,0,0,0,0c0,0,0,0.1,0,0.1
				c-0.2,0-0.6,0.1-0.8,0.1c0,0-0.1,0.1,0,0.1c0.1,0.2,0.3,0.6,0.4,0.7c0,0,0,0.1,0,0.1c0,0,0,0,0,0c0,0-0.1,0,0,0.1
				c0.1,0.2,0.3,0.4,0.5,0.6c0,0,0,0,0,0c0,0-0.1,0-0.1,0c0,0,0,0,0,0.1c0.2,0.2,0.6,0.4,0.8,0.5c0,0,0,0,0,0.1c0,0-0.1,0-0.1,0
				c0,0,0,0.1,0,0.1c0.4,0.2,0.8,0,1.3-0.2c-0.2,0.3-0.3,0.6-0.5,1c-0.2,0.5-0.5,0.9-0.8,1.4C77.5,59.4,77,60,77,60.1
				c0,0.2-1.1-0.7-1.2-0.8c-0.4-0.4-1-0.8-1.5-1.2c0.3,0,0.5,0,0.7-0.2c0,0,0,0,0-0.1c0,0,0,0-0.1,0c0,0,0,0,0,0
				c0.1-0.1,0.4-0.3,0.4-0.5c0,0,0,0,0,0c0,0,0,0-0.1,0c0,0,0,0,0,0c0.1-0.1,0.2-0.4,0.2-0.5c0,0,0,0,0,0c0,0,0,0,0,0c0,0,0,0,0,0
				c0.1-0.1,0.1-0.4,0.1-0.6c0,0,0-0.1-0.1-0.1c-0.1,0-0.4,0-0.6,0.1c0,0,0,0,0,0c0,0,0,0,0,0c0,0,0-0.1,0,0c-0.1,0-0.4,0.1-0.5,0.2
				c0,0,0,0,0,0c0,0,0,0,0-0.1c0,0,0,0,0,0c-0.2,0.1-0.4,0.3-0.5,0.4c0,0,0,0,0,0c0,0,0,0,0-0.1c0,0,0,0-0.1,0
				c-0.2,0.2-0.2,0.6-0.2,1c-0.7-0.5-1.4-1-2.1-1.6c0.3,0,0.6-0.1,0.7-0.3c0,0,0,0,0-0.1c0,0,0,0-0.1,0c0,0,0,0,0,0
				c0.1-0.1,0.3-0.4,0.3-0.6c0,0,0,0,0,0c0,0,0,0-0.1,0c0,0,0,0,0,0c0.1-0.2,0.1-0.4,0.1-0.6c0,0,0,0-0.1,0c0,0,0,0,0,0c0,0,0,0,0,0
				c0-0.2,0-0.5,0-0.6c0,0,0-0.1-0.1,0c-0.1,0-0.4,0.1-0.5,0.2c0,0,0,0,0,0c0,0,0,0,0,0c0,0,0,0-0.1,0c-0.1,0-0.3,0.2-0.5,0.3
				c0,0,0,0,0,0c0,0,0,0,0-0.1c0,0,0,0,0,0c-0.2,0.1-0.4,0.4-0.4,0.5c0,0,0,0,0,0c0,0,0,0,0-0.1c0,0,0,0-0.1,0
				c-0.1,0.2-0.1,0.5-0.1,0.8c-0.3-0.2-0.5-0.4-0.8-0.6c-1.4-1-2.8-2.2-2.7-4.1c0-0.7,0-1.4,0.1-2.1c0-0.5,0.4-0.6,0.5-1.1
				c-0.1,0-0.4,0.1-0.4,0.3c-0.2,0.2-0.6,0.1-0.8,0.1c0,0.1,0.1,0.2,0.1,0.2c0.2-0.1,0.3,0,0.5,0c-0.1,0.9-0.2,1.8-0.3,2.7
				c0,0.4,0.1,0.8-0.4,0.8c-0.3,0-0.5,0-0.8-0.1c-0.5-0.1-0.8-0.2-1.1-0.2C63.9,51,63.4,50.9,63,51c0,0.1-1.3,0.1-1.3,0.5
				c0.9,0,2.1-0.6,2.9,0.2c-0.6,0.3-1.4,1.1-1.4,1.7c0.4,0,0.5-0.7,0.7-0.7c0,0.2,0,0.5-0.1,0.7c0.5,0,0.2-0.9,0.5-0.9
				c0.1-0.2,0.6-0.4,0.6-0.6c0.5,0,1,0.2,1.5,0.2c0.3,0.4,0.5,0.9,0.9,1.1c0,0.2,0.3,0.6,0.5,0.8c0.2,0.3,0.2,0.3,0.2,0.7
				c-0.4,0.1-1.1,0.7-1.4,0.7c-0.3,0.4-1.3,0.9-1.3,1.5c-0.3,0.3-0.6,0.8-0.9,1c0,0.4-0.7,1.1-0.2,1.5c0.1-0.5,0.2-1.1,0.6-1.4
				c0-0.1,0.1-0.4,0.3-0.4c0,0.4,0.1,0.8,0.1,1.2c-0.2,0-0.3,0.3-0.3,0.5c0.2,0,0.3-0.2,0.5-0.2c0.1,0.3,0.1,0.9,0.4,0.9
				c0-0.4,0-1.1-0.3-1.3v-1.1c0-0.5,0.2-0.5,0.5-0.8c0.5-0.9,1.4-1.2,2.3-1.6c0.1,0.3,0.5,1.6,0.2,1.6c0,0.4-0.3,1-0.3,1.7
				c0.1,0,0.6-1.4,0.6-1.7c0.3,0.1,0.5,0.4,0.8,0.4c0.4,0.2,0.4,0.8,0.8,0.9c-0.1-0.3-0.2-0.6-0.2-0.8c-0.2,0-0.7-0.5-0.8-0.6
				c-0.4,0-0.4-0.9-0.5-1.3c0.6,0.2,1.2,0.8,1.7,1.1c0.7,0.5,1.3,1,2,1.6c0.7,0.6,1.4,1.3,2,2c0.3,0.3,1.6,1.4,1.6,1.9
				c0,0.1,0.3,0.9,0.4,0.9c-0.3,2.2-0.3,4.5-0.3,6.8c0,1-0.2,1.8-0.2,2.7c0,1-0.2,1.6-0.2,2.7c0,0.9-0.5,2.2-0.2,3.1
				c0.2,0.9-0.2,1.4-0.3,2.3c0,0,0,0.1,0,0.2c-0.4,0.7-0.6,1.6-0.3,2.4c0,0.1,0,0.2-0.1,0.3c-0.1,0.2-0.3,0.5-0.5,0.7
				c-0.2,0.1-0.2,0.3-0.2,0.4c-0.2,0.2-0.3,0.4-0.4,0.7c-0.1,0.1-0.1,0.1-0.2,0.2c-0.2,0.1-0.5,0.1-0.8,0.2
				c-0.7,0.2-0.9,0.6-0.9,0.6c0.3-0.2,0.9-0.1,1.2,0c0.4,0.1,1.7,0.2,2.3,0.1c0.5-0.1,1-0.3,1.5-0.1s2.3-0.2,3.4-0.2
				c1.1,0,1.8,0.2,1.8,0.2c-0.1-0.2-0.1-0.4-0.6-0.5s-0.1-0.3-0.5-0.7c-0.1-0.1-0.2-0.2-0.3-0.3c0,0,0,0,0,0
				c-0.2-0.6-0.5-1.2-0.7-1.8c-0.1-0.5-0.1-1.1-0.1-1.5c-0.1,0-0.3-1.9-0.2-2.2c0.2,0-0.4-2.5-0.4-2.9c-0.1-1.5-0.4-6.2-0.5-8.9
				c0-1.4-0.1-2.9-0.1-4.3c0.2-0.7,0.5-1.5,0.7-2.2c0.5-1.6,1.6-3.2,2.6-4.4c-0.1,0.1,0.1,0.3,0.2,0.4c0.3-1.1,1.1-0.3,1.6,0.2
				c0.5,0.5,1,1.1,1.4,1.8c0.5,0.7,1,1.5,1.1,2.4c0.1,0.7-0.3,1.5-0.3,2.2c-0.2,0-0.1,2.1-0.3,2.1c0.1,0.2,0,0.2,0.2,0.2
				c0-0.2,0.3-2,0.3-2c0-0.6,0.1-1.2,0.4-1.9c0.3-1,0.9,0.4,1.2,0.6c0.2,0.8,0.4,1.3,0.6,2.2c-0.2,0,0,0.4-0.2,0.4
				c0,0.1,0.1,0.2,0.1,0.2c0.2,0,0.2-0.2,0.2-0.4c0.2,0.2,0,0.6,0.4,0.6c-0.1-0.9-0.4-1.6-0.6-2.5c-0.1-0.5-0.3-0.7-0.5-1.2
				c0.1,0,0.1,0,0.1-0.1c0.5,0,0.7,0.5,1.1,0.8c0.1,0.5,0.4,1.9,0.4,0.6C89.3,62.9,89.2,63.1,89.4,63.2L89.4,63.2z M92.8,47.8
				c-0.2,0.3-0.9,0.7-0.9,0.2C92.1,47.9,92.6,47.8,92.8,47.8L92.8,47.8z M86.6,51.9l-0.2-0.2c0.1,0,0.1,0,0.2-0.1L86.6,51.9
				C86.6,51.9,86.6,51.9,86.6,51.9L86.6,51.9z M91.5,48.3h-0.2c-0.1,0.3-0.5,1.3-0.8,1.3c0-0.4-0.3-0.6-0.3-0.9c0,0-0.5-0.7-0.5-0.8
				C90.1,47.9,91.3,47.6,91.5,48.3L91.5,48.3z M88.4,46.9C88.4,46.9,88.4,46.8,88.4,46.9l0.2,0.5c-0.1,0-0.2,0-0.3,0L88.4,46.9z
				 M88.3,48.6c0.4,0.1,0.5,0.2,0.7,0.6c0.1,0.3,0.2,0.9,0.4,0.9c0-0.5-0.1-0.9-0.4-1.3c-0.1-0.2-0.7-0.5-0.7-0.7
				c0.4,0,0.7-0.3,1,0.2c0.3,0.1,0.4,0.3,0.5,0.6c0.2,0.1,0.5,0.9,0.5,0.9c-0.2,0.7-2.1,0.7-2.6,0.7c0.1-0.4,0.2-0.8,0.2-1.1
				C88.1,49.2,88.3,49,88.3,48.6L88.3,48.6z M88,48.4c0,0.2-0.1,0.9-0.3,0.9c0,0.1-0.2,0.1-0.2,0.3h0.2c0,0.3-0.1,0.7-0.1,1
				c-0.3,0-0.7,0-1,0.1c-0.6,0.1-1.1,0.3-1.7,0.4C85.1,49.9,86.6,48.4,88,48.4L88,48.4z M71,55.7c-0.1,0-0.1-0.1-0.2-0.1l0.3-0.3
				c0,0,0,0,0,0L71,55.7z M74.2,57.4l-0.3,0.4c0,0-0.1,0-0.1-0.1c-0.1,0-0.1-0.1-0.2-0.1L74.2,57.4C74.2,57.4,74.2,57.4,74.2,57.4
				L74.2,57.4z M79.1,56.5L78.5,56c0,0,0-0.1,0,0l0.7,0.2C79.2,56.3,79.1,56.4,79.1,56.5L79.1,56.5z M80.9,54.6
				c0-0.1,0.1-0.2,0.1-0.3c0.1,0,0.1,0,0.2,0C81.1,54.5,81,54.6,80.9,54.6L80.9,54.6z M81.1,52.2l0.1-0.7c0,0,0,0,0.1,0l0.2,0.5
				C81.2,52,81.1,52.1,81.1,52.2L81.1,52.2z M82.9,54.9c0.1-0.2,0.1-0.3,0.2-0.5c0.4,0.3,0.6,0.8,0.8,1.3
				C83.6,55.5,83.2,54.9,82.9,54.9L82.9,54.9z"/>
			<path fill="#231F20" d="M71.2,86.5l0.4-0.8c0,0,0.3-0.5,1.1-0.7c0.1,0,0.2-0.1,0.4-0.1c0.1,0,0.3-0.1,0.4-0.1l0.1-0.1
				c0.1-0.2,0.2-0.4,0.3-0.6c0-0.2,0.1-0.4,0.4-0.6c0.1-0.1,0.3-0.3,0.4-0.5c0,0,0-0.1,0-0.2c-0.2-0.8-0.1-1.6,0.3-2.5l0-0.1
				c0-0.4,0.1-0.7,0.2-1c0.1-0.4,0.2-0.8,0.1-1.2c-0.2-0.6,0-1.4,0.1-2.1c0.1-0.4,0.1-0.8,0.1-1.1c0-0.5,0.1-0.9,0.1-1.3
				c0-0.4,0.1-0.8,0.1-1.4c0-0.4,0-0.9,0.1-1.3c0-0.4,0.1-0.9,0.1-1.4c0-2.2,0-4.5,0.3-6.7c-0.2-0.3-0.4-0.9-0.4-0.9
				c0-0.2-0.9-1.1-1.2-1.4c-0.2-0.1-0.3-0.3-0.3-0.3c-0.6-0.7-1.3-1.3-2-1.9c-0.6-0.6-1.3-1.1-2-1.6c-0.1-0.1-0.3-0.2-0.4-0.3
				c-0.3-0.2-0.5-0.5-0.8-0.6c0,0.4,0.1,0.6,0.2,0.6h0.1l0.1,0.1c0.1,0.1,0.5,0.5,0.6,0.5h0.3l0,0.2c0,0.1,0.1,0.3,0.1,0.4
				c0,0.1,0.1,0.2,0.1,0.3l0.1,0.4l-0.4-0.1c-0.3-0.1-0.4-0.3-0.5-0.5c-0.1-0.1-0.1-0.3-0.2-0.3c-0.2,0-0.4-0.1-0.5-0.2c0,0,0,0,0,0
				c-0.1,0.6-0.4,1.5-0.8,1.5h-0.3v-0.3c0-0.4,0.1-0.7,0.2-1.1c0.1-0.2,0.1-0.4,0.1-0.6v-0.3h0.1c0-0.2-0.1-0.6-0.2-1
				c-0.1,0-0.1,0.1-0.2,0.1c-0.7,0.3-1.4,0.6-1.8,1.3l0,0.1C66,56.9,66,56.9,65.9,57c-0.2,0.2-0.3,0.2-0.3,0.5v1
				c0.2,0.4,0.3,1,0.3,1.4l0,0.3h-0.3c-0.4,0-0.5-0.4-0.6-0.8c-0.1,0-0.1,0.1-0.2,0.1l-0.3,0l0.1-0.3c0.1-0.3,0.2-0.5,0.3-0.6l0-0.4
				c-0.2,0.2-0.3,0.5-0.4,0.9c0,0.1-0.1,0.3-0.1,0.4l-0.1,0.4l-0.3-0.2c-0.5-0.4-0.2-0.9,0-1.3c0.1-0.1,0.1-0.3,0.1-0.4v-0.1
				l0.1-0.1c0.1-0.1,0.3-0.3,0.4-0.5c0.1-0.2,0.2-0.3,0.4-0.5c0.1-0.4,0.5-0.7,0.8-1.1c0.2-0.2,0.4-0.3,0.5-0.5l0.1-0.1h0.1
				c0.1,0,0.3-0.2,0.5-0.3c0.2-0.1,0.4-0.3,0.6-0.4c0-0.1,0-0.2-0.1-0.3c0,0-0.1-0.1-0.1-0.1c-0.2-0.2-0.3-0.4-0.4-0.6
				c-0.2-0.2-0.4-0.5-0.6-0.7c-0.1-0.1-0.1-0.2-0.2-0.3c-0.2,0-0.5-0.1-0.7-0.1c-0.2,0-0.4-0.1-0.6-0.1c-0.1,0.1-0.2,0.2-0.3,0.2
				c-0.1,0-0.2,0.1-0.2,0.2l-0.1,0.1l-0.1,0c0,0,0,0.1,0,0.2c0,0.3-0.1,0.8-0.6,0.8h-0.3l0-0.1c-0.1,0.1-0.2,0.1-0.3,0.1h-0.3v-0.3
				c0-0.6,0.7-1.3,1.2-1.7c-0.4-0.2-1-0.1-1.6,0c-0.3,0.1-0.6,0.1-0.8,0.1l-0.3,0v-0.3c0-0.5,0.6-0.5,1.1-0.6c0.1,0,0.1,0,0.2,0v0
				l0.2-0.1c0.4-0.1,0.9,0,1.3,0.1c0.3,0,0.5,0.1,0.8,0.1c0.1,0,0.2,0.1,0.4,0.1c0.3,0.1,0.5,0.1,0.8,0.1c0.1,0,0.1,0,0.1,0
				c0,0,0-0.1,0-0.2c0-0.1,0-0.2,0-0.3l0.3-2.5c0,0-0.1,0-0.1,0l-0.4,0.2V48c0-0.1-0.1-0.1-0.1-0.2l-0.1-0.3l0.3,0
				c0.1,0,0.1,0,0.2,0c0.2,0,0.3,0,0.4,0c0.1-0.2,0.3-0.3,0.5-0.4l0.4-0.1l-0.1,0.4c-0.1,0.3-0.2,0.4-0.3,0.6
				c-0.1,0.1-0.2,0.2-0.2,0.5l-0.1,2.1c-0.1,1.8,1.2,2.9,2.6,3.9l0.3,0.3c0-0.1,0.1-0.3,0.1-0.4l0.1-0.1l0.2,0
				c0.1-0.2,0.2-0.3,0.4-0.4l0.1,0l0.2,0c0.1-0.1,0.2-0.2,0.3-0.2l0.1,0c0,0,0.1,0,0.1,0c0.1-0.1,0.3-0.1,0.4-0.2
				c0.2,0,0.3,0.1,0.3,0.2c0,0.1,0,0.3,0,0.4h0l0,0.3c0,0.1,0,0.3-0.1,0.4l0.1,0.1l0,0.1c0,0.2-0.1,0.3-0.2,0.5c0,0.1,0,0.2,0,0.3
				c-0.1,0.1-0.2,0.2-0.4,0.3l1.3,1c0-0.3,0.1-0.5,0.3-0.7l0.1-0.1l0.2,0c0.2-0.1,0.3-0.2,0.4-0.3l0.1,0h0.1l0,0
				c0.1-0.1,0.3-0.1,0.4-0.1H75l0.1,0.1c0.1,0,0.3-0.1,0.4-0.1c0.2,0,0.3,0.2,0.3,0.3c0,0.1,0,0.3-0.1,0.5l0.1,0.1l0,0.1
				c0,0.1-0.1,0.3-0.1,0.4l0.1,0.1l-0.1,0.2c-0.1,0.2-0.2,0.3-0.3,0.4l0,0.1l-0.1,0.1c-0.1,0.1-0.1,0.1-0.2,0.1
				c0.4,0.3,0.7,0.5,1,0.8c0.1,0.1,0.6,0.5,0.9,0.7c0.1-0.1,0.2-0.2,0.3-0.4c0.1-0.1,0.1-0.2,0.2-0.2c0.2-0.3,0.4-0.7,0.5-1l0.2-0.4
				c0.1-0.1,0.1-0.3,0.2-0.4c-0.3,0.1-0.6,0.1-0.9,0l-0.1-0.1l0-0.2c0,0,0,0,0,0c-0.2-0.1-0.5-0.3-0.7-0.4l-0.1-0.1l0-0.2
				c0,0,0,0,0,0c-0.2-0.2-0.3-0.3-0.4-0.5l-0.1-0.1l0-0.2c0,0,0,0,0,0c-0.1-0.2-0.3-0.5-0.4-0.6c-0.1-0.2,0-0.4,0.2-0.4
				c0.1-0.1,0.4-0.1,0.7-0.1c0,0,0,0,0,0l0.1-0.1l0.2-0.1c0.1,0,0.4,0,0.6,0l0,0c0.1-0.1,0.1-0.1,0.2-0.1c0.2,0,0.5,0.1,0.7,0.2
				l0.1-0.1l0.1,0c0,0,0.1,0,0.1,0c0.3,0.1,0.5,0.4,0.7,0.8c0.1-0.1,0.1-0.3,0.2-0.4c0.1-0.1,0.1-0.3,0.2-0.5
				c0.1-0.2,0.2-0.5,0.3-0.7c0-0.3-0.1-0.6,0.1-0.9l0.1-0.1c-0.4-0.3-0.8-0.6-0.9-1.1l0-0.1l0.1-0.1c0,0,0,0,0.1-0.1
				c-0.1-0.3-0.1-0.6,0-0.8l0-0.2l0.1,0c0-0.2,0.1-0.5,0.2-0.6l0.1-0.1l0.2,0c0.1-0.2,0.2-0.5,0.3-0.7c0.1-0.1,0.2-0.1,0.3-0.1h0.1
				l0.1,0.1c0.1,0.1,0.3,0.3,0.5,0.5c0,0,0,0,0.1,0h0.1l0.1,0.1c0.1,0.1,0.2,0.3,0.3,0.5l0,0c0.1,0,0.2,0.1,0.2,0.1
				c0.1,0.2,0.2,0.5,0.2,0.8c0.1,0,0.2,0.1,0.2,0.2c0.1,0.4-0.1,0.7-0.3,1c0,0,0,0.1,0,0.1c0,0,0,0.1,0,0.2c0.1-0.1,0.2-0.3,0.3-0.3
				c0.1-0.3,0.2-0.4,0.4-0.6c0.2-0.2,0.3-0.4,0.3-0.6l0-0.2h0.1c0.1-0.1,0.1-0.3,0.1-0.4l0-0.2l0.1,0c0.1-0.1,0.4-0.6,0.6-0.8
				c0.1-0.1,0.2-0.3,0.2-0.3l0.1-0.1h0.1c0.2,0,0.4-0.2,0.6-0.3c0.2-0.2,0.4-0.3,0.6-0.4c0.2-0.3,0.8-0.4,1.3-0.4
				c-0.2-0.2-0.3-0.3-0.3-0.6l0-0.1l0.1-0.2c0-0.2,0-0.4,0-0.6l0-0.2l0.1,0c0-0.2,0.1-0.3,0.1-0.4l0.1-0.1l0.1,0
				c0.1-0.2,0.1-0.4,0.2-0.5l0.1-0.1l0.2,0c0.1,0,0.1,0,0.2,0.1c0.1,0.1,0.3,0.2,0.4,0.4l0,0c0.1,0,0.2,0,0.2,0.1
				c0.1,0.1,0.2,0.2,0.3,0.4h0.1l0.1,0.1c0.1,0.1,0.1,0.3,0.2,0.5h0.1l0.1,0.2c0,0.2,0,0.5-0.1,0.7c0.1,0,0.2,0,0.3,0l0.3,0
				c1.1,0,1.6,0.1,1.7,0.2c0.1,0,0.2,0,0.2,0c0.2,0,0.5-0.1,0.6,0c0.1-0.1,0.2-0.2,0.4-0.3l0.3-0.1l0,0.3c0,0.2-0.1,0.4-0.1,0.6
				c0,0,0,0.1,0,0.1c0.3,0.3,0.6,0.6,0.6,1.1l0.1,0.4l-0.4-0.1c-0.4-0.1-0.5-0.4-0.7-0.5c-0.1-0.2-0.1-0.2-0.2-0.1
				c0.4,0.6,0.7,1.2,0.7,2.1l0,0.3h-0.3c-0.3,0-0.5-0.4-0.6-0.9c-0.1-0.4-0.3-1-0.6-1.1c0,0,0,0,0,0.1c-0.1,0.1-0.2,0.3-0.3,0.4
				c-0.1,0.3-0.4,0.7-0.6,1c0.1,0.2,0.1,0.3,0.2,0.5c0.1,0.3,0.3,0.6,0.4,1c0.2,0.2,0.3,0.8,0.3,0.8c0,0.2,0.1,0.4,0.2,0.6
				c0.1,0.2,0.2,0.4,0.3,0.7l0,0.3h-0.3c-0.2,0-0.3-0.1-0.4-0.3c-0.1,0-0.1,0.1-0.3,0.1L91,54.1l0.1-0.4c0-0.1,0-0.2,0.1-0.3
				c0-0.1,0.1-0.2,0.1-0.4l0,0c-0.3-0.7-0.5-1-0.5-1.1c0-0.2-0.1-0.3-0.2-0.4c-0.1-0.1-0.2-0.2-0.3-0.4c-0.1,0-0.2,0-0.3,0.1
				c0,0-0.1,0-0.1,0c0.4,1,0.7,3.4,0.7,3.5l0.1,0.5L90,54.9c-0.3-0.2-0.3-0.4-0.4-0.6c0,0-0.1,0-0.2,0l-0.3,0l0.1-0.3
				c0-0.2,0.1-0.4,0.2-0.5c0,0,0,0,0,0c-0.1-0.2-0.1-0.3-0.1-0.5c0-0.1,0-0.1,0-0.2c-0.1-0.1-0.1-0.4-0.2-0.5c0-0.1,0-0.2,0-0.2H89
				v-0.3c0-0.1-0.1-0.4-0.2-0.5c-0.3,0-0.9,0.1-1.2,0.2v0.1h0l0,0.1l-0.1,0.1c0.1,0.1,0.1,0.3,0.2,0.5l0,0.1l-0.1,0.1
				c0,0.1,0,0.3,0,0.4l0,0.2l-0.1,0c0,0.1,0,0.3,0,0.4l0,0.2l-0.2,0c0,0-0.1,0-0.1,0c-0.1,0-0.2-0.1-0.4-0.2c0,0-0.1,0-0.1,0h-0.1
				l-0.1,0c-0.1,0-0.2-0.1-0.3-0.2l-0.1,0l-0.1-0.1c-0.1-0.1-0.2-0.2-0.3-0.4h-0.1l-0.1-0.1c-0.1-0.2-0.1-0.3-0.1-0.5
				c-0.1,0.1-0.3,0.2-0.5,0.2c-0.2,0.1-0.5,0.2-0.7,0.3c0.3,0.2,0.6,0.7,0.7,1c0.4,0.2,0.4,1.1,0.4,1.5l0,0.3h-0.3
				c-0.3,0-0.4-0.3-0.6-0.8c-0.2-0.4-0.4-0.9-0.7-1.2c0,0.1-0.1,0.2-0.2,0.3c-0.2,0.5-0.3,0.6,0.1,0.8l0.1,0.1v0.2
				c0,0.1,0,0.2,0.1,0.3c0.1,0.1,0.1,0.3,0.1,0.4c0.1,0.1,0.2,0.3,0.4,0.4c0.3,0.4,0.4,0.5,0.4,0.6v0.3l-0.2,0
				c0.2,0.4,0.6,0.8,0.7,0.9l0.1,0l0,0.1c0.1,0.2,0.1,0.3,0.3,0.5c0.1,0.2,0.3,0.5,0.3,0.8c0.2,0.1,0.2,0.4,0.3,0.6
				c0,0.1,0,0.2,0.1,0.2h0.1v0.3c0,0.1,0.1,0.3,0.3,0.4c0.2,0.2,0.6,0.3,0.8,0.2c0.1-0.1,0.3-0.2,0.5-0.2c0.1,0,0.1,0,0.2-0.1v-0.1
				l0.2-0.1c0.1,0,0.4-0.1,0.5-0.1c0.7,0,1.1,0.2,1.1,0.5v0.3H90c-0.5,0-0.9,0-1.3,0.2c0.1,0.1,0.2,0.3,0.3,0.4
				c0.3,0.4,0.7,0.8,0.7,1.4l0,0.4l-0.3-0.1c0,0,0,0,0,0c0,0.1-0.1,0.2-0.3,0.2c0,0,0,0,0,0c-0.2,0-0.3-0.1-0.5-1.2
				c-0.1-0.1-0.2-0.2-0.3-0.3c-0.1-0.1-0.1-0.1-0.1-0.2c0,0,0,0,0,0c0.1,0.2,0.2,0.4,0.3,0.8c0.1,0.3,0.2,0.7,0.3,1
				c0.1,0.5,0.3,1,0.3,1.5l0,0.3h-0.3c-0.2,0-0.3-0.1-0.4-0.2c-0.1,0-0.1,0-0.2,0h-0.3V65c0-0.1-0.1-0.1-0.1-0.2l-0.1-0.3h0.2
				c0-0.1,0-0.2,0.1-0.3c-0.1-0.3-0.2-0.6-0.3-0.9c-0.1-0.3-0.2-0.7-0.3-1c-0.1-0.1-0.2-0.2-0.3-0.3c-0.1-0.1-0.3-0.4-0.4-0.5
				c0,0,0,0.1-0.1,0.2c-0.2,0.6-0.3,1.2-0.3,1.8v0.3h-0.1c-0.1,0.4-0.2,1.6-0.2,1.7v0.3l-0.3-0.1c-0.3-0.1-0.3-0.1-0.4-0.3L85.3,65
				h0.2c0-0.2,0.1-0.6,0.1-0.9c0-0.6,0-0.9,0.1-1.1c0-0.3,0.1-0.6,0.1-0.9c0.1-0.4,0.2-0.8,0.1-1.2c-0.1-0.8-0.6-1.5-1-2.3
				c-0.4-0.6-0.8-1.3-1.3-1.8c-0.2-0.2-0.7-0.7-1-0.7c0,0-0.2,0-0.3,0.4L82.2,57l-0.3-0.2c0,0-0.1-0.1-0.1-0.1
				c-0.7,0.9-1.8,2.3-2.3,4l-0.7,2.2l0.1,4.2c0.1,2.3,0.3,6.2,0.4,8.1l0,0.8c0,0.1,0.1,0.5,0.1,0.9c0.3,1.6,0.3,2,0.2,2.1
				c0,0.3,0.1,1.4,0.2,1.8H80V81c0,0.4,0,0.9,0.1,1.4c0.3,0.6,0.5,1.1,0.7,1.7c0.1,0.1,0.2,0.2,0.3,0.3c0.2,0.2,0.3,0.4,0.3,0.5
				c0,0,0,0.1,0.1,0.1c0.5,0.2,0.7,0.4,0.8,0.7l0.1,0.4L82,86.1c0,0-0.6-0.2-1.5-0.2l-0.2,0c-0.4,0-0.9,0.1-1.4,0.1
				c-0.9,0.1-1.7,0.2-2.1,0.1c-0.3-0.1-0.7,0-1.1,0.1c-0.1,0-0.2,0-0.3,0.1c-0.3,0.1-0.6,0.1-0.9,0.1c-0.5,0-1.2,0-1.5-0.1
				c-0.4-0.1-0.8-0.2-1-0.1L71.2,86.5z M72.7,85.5c0.2,0,0.4,0.1,0.5,0.1c0.2,0.1,0.7,0.1,1.3,0.1c0.4,0,0.6,0,0.8-0.1
				c0.1,0,0.2,0,0.3-0.1c0.5-0.1,1-0.2,1.4,0c0,0,0.1,0,0.4,0c0.4,0,0.9-0.1,1.5-0.1c0.5-0.1,1-0.1,1.4-0.1l0.2,0c0.3,0,0.5,0,0.7,0
				c-0.1-0.1-0.2-0.2-0.2-0.4c0-0.1,0-0.1-0.1-0.2c-0.1-0.1-0.2-0.2-0.3-0.3l-0.1-0.2c-0.2-0.6-0.4-1.2-0.7-1.7l0-0.1
				c-0.1-0.5-0.1-1-0.1-1.5c-0.2-0.4-0.3-2-0.2-2.3l0-0.1c0-0.3-0.2-1.2-0.3-1.7c-0.1-0.5-0.1-0.8-0.2-0.9l0-0.8
				c-0.1-1.9-0.4-5.8-0.4-8.1l-0.1-4.3l0.7-2.3c0.6-1.9,2-3.6,2.7-4.5l0.2,0.2c0.2-0.3,0.4-0.4,0.6-0.4c0.4,0,0.9,0.4,1.3,0.8
				c0.6,0.5,1,1.2,1.4,1.8c0.2,0.3,0.4,0.6,0.5,0.9v-0.1c0-0.3-0.1-0.5-0.3-0.7c-0.1-0.2-0.2-0.4-0.3-0.6c-0.3-0.3-1.1-1.4-1.1-1.6
				v0l-0.4-0.3c-0.1-0.1-0.2-0.2-0.3-0.3c-0.2-0.2-0.4-0.5-0.6-0.5l-0.3,0l0.1-0.3c0-0.2,0.1-0.3,0.2-0.4c0,0,0.1-0.1,0.1-0.2L83,54
				l0.2,0.1c0-0.2,0.1-0.4,0.2-0.6c0.1-0.2,0.2-0.3,0.2-0.5l0-0.2l0.2,0c0-0.5,0.6-0.7,1.1-0.9c0.1,0,0.3-0.1,0.4-0.2v-0.2h0.3
				c0.1,0,0.2,0,0.3,0l0.5-0.2l-0.1,0l0.8-0.2c0.1,0,0.2,0,0.4-0.1c0.5-0.2,1.5-0.2,1.6-0.2h0.1l0.1,0c0.1,0,0.2,0.1,0.2,0.2l0.1,0
				l0-0.3c0.1,0,0.2,0,0.3-0.1c0.2,0,0.3-0.1,0.6-0.1h0.2l0.1,0.2c0,0.1,0.1,0.2,0.2,0.3c0,0,0,0,0-0.1c-0.1-0.2-0.2-0.4-0.2-0.6
				l0-0.1c-0.4,0.5-1.6,0.6-2.6,0.6h-0.3c-0.3,0-0.6,0-0.9,0.1c-0.3,0.1-0.5,0.1-0.8,0.2c-0.3,0.1-0.6,0.2-0.9,0.2l-0.4,0.1l0.1-0.4
				c0.3-1.3,1.8-3,3.4-3l0.1,0v-0.2h0.3c0.1,0,0.2,0,0.3,0c0.3-0.1,0.6-0.1,0.8,0.1c0,0,0-0.1,0-0.1v-0.2l0.2,0c0.1,0,0.2,0,0.3,0
				c0.2,0,0.4,0,0.6,0c0.5,0,0.8,0.1,1,0.4c0,0,0-0.1,0-0.1v-0.2l-0.1,0v-0.1c-0.1,0-0.5-0.1-1.3-0.1l-0.3,0c-0.3,0-0.5,0-0.8,0
				l-0.4,0c-0.1,0-0.2,0-0.3,0L88,47.7c-0.1,0-0.2,0.1-0.3,0.1l-0.1,0c-0.6,0-1.1,0.1-1.1,0.3l0,0.1l-0.1,0
				c-0.2,0.1-0.4,0.2-0.5,0.4c-0.2,0.2-0.5,0.4-0.8,0.4c0,0.1-0.1,0.1-0.2,0.2c-0.4,0.5-0.5,0.8-0.7,0.9c0,0.2-0.1,0.5-0.3,0.6
				c-0.1,0.3-0.3,0.5-0.4,0.7c-0.1,0.2-0.3,0.3-0.3,0.5l-0.1,0.2H83c-0.1,0.1-0.2,0.2-0.2,0.4c-0.1,0.2-0.2,0.4-0.3,0.5l-0.7,0.9
				l0.2-1.1c0,0,0,0,0,0l0,0C82,52.7,82,52.6,82,52.6c0-0.1,0-0.2,0-0.3l-0.2,0.1l0,0.1l-0.2-0.1l-0.2,0.1l0.1-0.1l-0.2,0l-0.6,1.1
				l0-0.4l0,0.1l-0.1,0c0,0.1,0,0.2,0,0.4l0,0.1l0,0.1c-0.1,0.2-0.2,0.5-0.3,0.7c-0.1,0.2-0.1,0.3-0.2,0.5c-0.2,0.3-0.3,0.7-0.5,1
				l-0.3,0.6l0,0c0,0,0,0,0,0l0,0L79,57.1c-0.2,0.3-0.3,0.6-0.5,1l-0.2,0.4c-0.2,0.3-0.4,0.7-0.6,1c0,0-0.1,0.1-0.2,0.2
				c-0.1,0.1-0.3,0.3-0.3,0.4c0,0.1,0,0.1-0.1,0.2l-0.1,0.1l-0.1,0c-0.3,0-1.3-0.9-1.3-0.9c-0.4-0.4-0.9-0.7-1.3-1.1L74,58.2l0,0
				l-0.5-0.4l0,0l-4-3c-0.7-0.5-1.4-1.1-1.9-1.8v0.1c0,0.1,0.2,0.3,0.3,0.5c0,0.1,0.1,0.1,0.1,0.2c0.2,0.3,0.2,0.4,0.2,0.7v0.3
				l-0.2,0c-0.2,0-0.4,0.2-0.6,0.3c0.1-0.1,0.2-0.1,0.3-0.1c0.1-0.1,0.3-0.1,0.4-0.2l0.3-0.1l0.1,0.2l0.3,0.1
				c0.5,0.1,0.9,0.5,1.3,0.9c0.1,0.1,0.3,0.2,0.4,0.3c0.7,0.5,1.4,1.1,2,1.6c0.7,0.6,1.4,1.3,2,2c0.1,0.1,0.2,0.2,0.3,0.3
				c0.9,0.9,1.4,1.4,1.4,1.7c0,0.1,0.2,0.4,0.3,0.6h0.2l0,0.3c-0.3,2.2-0.3,4.5-0.3,6.7c0,0.5,0,1-0.1,1.4c0,0.4-0.1,0.8-0.1,1.3
				c0,0.6,0,1-0.1,1.4c0,0.4-0.1,0.8-0.1,1.3c0,0.4-0.1,0.8-0.1,1.2c-0.1,0.7-0.2,1.3-0.1,1.9c0.1,0.6,0,1-0.1,1.5
				c-0.1,0.3-0.2,0.6-0.2,0.9l0,0.3c-0.4,0.8-0.5,1.5-0.3,2.2l0,0.1l0,0.1c0,0.1,0,0.2-0.1,0.3c-0.2,0.3-0.4,0.7-0.7,0.8
				c-0.1,0-0.1,0.1-0.1,0.2l0,0.1l-0.1,0.1c-0.1,0.1-0.2,0.3-0.3,0.5l0,0.1l-0.4,0.3c-0.1,0-0.3,0.1-0.4,0.1c-0.1,0-0.2,0.1-0.4,0.1
				C72.8,85.5,72.7,85.5,72.7,85.5z M86.3,60.5c0,0.1,0.1,0.3,0.1,0.4c0,0.1,0,0.2,0,0.3c0.1-0.1,0.2-0.2,0.3-0.2
				C86.5,60.8,86.4,60.6,86.3,60.5z M74.2,57.9l0.2,0c0.1,0,0.2,0,0.3,0l0-0.1l0.1-0.1c0.1-0.1,0.2-0.2,0.3-0.2L75,57.3l0.1-0.1
				c0.1-0.1,0.1-0.2,0.1-0.3l0,0c-0.1-0.1-0.1-0.2,0-0.3c0-0.1,0.1-0.2,0.1-0.3c-0.1,0-0.2,0-0.3,0.1l-0.1,0h-0.1l-0.1-0.1
				c-0.1,0-0.2,0.1-0.2,0.1l-0.1,0l-0.2,0l0,0c-0.1,0.1-0.1,0.1-0.2,0.2l-0.1,0.1l-0.1,0c0,0.1,0,0.3,0,0.5l0.4-0.2l0.2,0l0.2,0.2
				l-0.1,0.1L74.2,57.9z M77.2,56.5c0.2,0.1,0.4,0.2,0.5,0.3l0.2,0.1l0,0.2c0.2,0,0.5-0.1,0.8-0.3l0.1-0.1l-0.7-0.6l0.1-0.4l0.2,0
				l0,0l0.7,0.1l0-0.1c-0.1-0.4-0.2-0.7-0.4-0.9l0,0l-0.2,0l-0.1,0c-0.1,0-0.3-0.2-0.5-0.2v0l-0.1,0.1l-0.2,0l0,0
				c-0.1,0-0.3,0-0.5-0.1c0,0,0,0,0,0.1l-0.1,0.1l-0.2,0c-0.1,0-0.4,0-0.6,0.1c0.1,0.2,0.2,0.4,0.3,0.5l0.1,0.1l-0.1,0.2
				c0.1,0.1,0.2,0.3,0.4,0.4l0.1,0.1L77.2,56.5z M71.1,55h0.1l0.2,0.2l0,0.1l-0.2,0.4l0.1,0c0.2,0,0.3-0.1,0.4-0.1l0-0.1l0.1-0.1
				c0.1-0.1,0.2-0.2,0.2-0.3L71.9,55l0.1-0.1c0-0.1,0.1-0.2,0.1-0.3L72,54.4l0-0.1c0-0.1,0-0.2,0-0.3c-0.1,0-0.2,0.1-0.2,0.1l-0.1,0
				l-0.2,0l0,0c-0.1,0-0.2,0.1-0.2,0.2l-0.1,0.1l-0.2,0c-0.1,0.1-0.1,0.2-0.2,0.3l-0.1,0.1l-0.1,0c0,0.1,0,0.3,0,0.4l0,0.1L71,55
				L71.1,55z M86.9,52.9L86.9,52.9l0.2,0.1c0,0,0.1,0.1,0.2,0.1c0-0.1,0-0.2,0-0.2l0-0.1l0.1-0.1c0-0.1,0-0.2-0.1-0.2l0-0.1l0.1-0.1
				c-0.1-0.1-0.1-0.2-0.2-0.3l-0.1-0.1l0-0.1c0,0,0,0-0.1,0l-0.3-0.1l0.1,0.4l-0.2,0.2l-0.2,0L86.4,52l-0.2-0.2
				c0,0.1-0.1,0.3-0.1,0.4h0.1l0.1,0.2c0.1,0.1,0.1,0.2,0.1,0.3l0,0h0.1l0.1,0.1C86.7,52.8,86.8,52.8,86.9,52.9L86.9,52.9z
				 M65.8,51.7c0.2,0,0.4,0.1,0.6,0.1h0.1l0.1,0.1c0.1,0.1,0.2,0.3,0.3,0.4c0.2,0.3,0.4,0.5,0.6,0.7c-0.3-0.5-0.6-1-0.7-1.5
				c0,0.1-0.1,0.1-0.1,0.2c-0.1,0.1-0.2,0.2-0.4,0.2C66.1,51.7,66,51.7,65.8,51.7z M80.1,51.6c0.1,0.2,0.4,0.4,0.8,0.7l0.1-0.9
				l0.4,0l0.1,0.1l0.3,0.7l0.2-0.3c0.2-0.2,0.3-0.4,0.3-0.6h-0.1l0-0.3c0-0.3-0.1-0.5-0.1-0.6l-0.2,0l-0.1-0.2
				c-0.1-0.2-0.1-0.3-0.2-0.5c0,0,0,0-0.1,0h-0.1l-0.1-0.1c-0.1-0.1-0.2-0.3-0.4-0.4c-0.1,0.2-0.2,0.4-0.2,0.5l0,0.2l-0.2,0
				c0,0.2-0.1,0.4-0.1,0.5l0,0.2l-0.2,0c0,0.1,0,0.3,0.1,0.6l0,0.1L80.1,51.6z M87.7,48.7c-1.1,0.2-2.1,1.2-2.5,2.2
				c0.2,0,0.3-0.1,0.5-0.1c0.3-0.1,0.6-0.2,0.8-0.2c0.3-0.1,0.5-0.1,0.8-0.1l0-0.5h-0.2l0.1-0.3c0-0.2,0.2-0.2,0.2-0.3c0,0,0,0,0,0
				V49h0.2C87.7,49,87.7,48.9,87.7,48.7z M88.2,49.6c0,0.2-0.1,0.4-0.1,0.6c0,0.1,0,0.1,0,0.2c0.5,0,0.9,0,1.2-0.1
				c-0.2-0.2-0.3-0.5-0.3-0.8c0-0.1,0-0.1-0.1-0.2c-0.1-0.2-0.1-0.3-0.3-0.4c-0.1,0.2-0.1,0.3-0.2,0.4
				C88.3,49.4,88.2,49.5,88.2,49.6z M88.9,48.3C88.9,48.3,88.9,48.4,88.9,48.3c0.2,0.2,0.3,0.3,0.4,0.4c0.3,0.4,0.4,0.9,0.4,1.4l0,0
				c0.2-0.1,0.3-0.2,0.4-0.2c0,0,0-0.1-0.1-0.1c-0.1-0.2-0.3-0.6-0.3-0.7l-0.1-0.1l0-0.1c-0.1-0.3-0.2-0.4-0.3-0.5l-0.1,0l0-0.1
				C89,48.2,89,48.3,88.9,48.3z M90.6,49.9L90.6,49.9c0,0.1-0.1,0.2-0.1,0.2l0,0c0.1-0.1,0.2-0.2,0.3-0.4
				C90.8,49.8,90.7,49.9,90.6,49.9z M90.3,48.5h0.1v0.3c0,0.1,0,0.2,0.1,0.3c0,0.1,0.1,0.1,0.1,0.2c0.2-0.3,0.4-0.8,0.4-0.9l0-0.1
				c-0.1-0.1-0.2-0.1-0.5-0.1c-0.2,0-0.4,0-0.5,0C90.1,48.2,90.2,48.4,90.3,48.5z M91.4,48.9L91.4,48.9c0,0,0.1-0.1,0.1-0.2
				c0-0.1,0.1-0.1,0.1-0.2h-0.1C91.5,48.7,91.4,48.8,91.4,48.9z M87.6,46.9c0.1,0.1,0.3,0.2,0.5,0.4l0.1-0.7l0.4,0l0.1,0.1l0.2,0.4
				c0.1-0.2,0.3-0.4,0.3-0.5H89l0-0.2c0-0.2,0-0.3-0.1-0.4h-0.1l-0.1-0.2c0-0.1-0.1-0.2-0.1-0.3l0,0c-0.1,0-0.2,0-0.2-0.1
				c0-0.1-0.1-0.2-0.2-0.3c0,0.1-0.1,0.2-0.1,0.3l0,0.2l-0.1,0c0,0.1,0,0.2,0,0.3l0,0.2l-0.1,0c0,0.2,0.1,0.3,0.1,0.4l0,0.1
				L87.6,46.9z M80.9,54.9h-0.4l0.3-0.8l0.9-0.1l-0.4,0.5C81.3,54.7,81.1,54.9,80.9,54.9z"/>
		</g>
		<g>
			<path fill="#FFFFFF" d="M71.4,58.6C71.4,58.6,71.5,58.6,71.4,58.6C71.5,58.7,71.5,58.6,71.4,58.6c0-0.3-0.4-0.5-0.8-0.7
				c0,0,0,0,0,0l0,0.7c0,0,0,0,0,0L70.3,58c0,0,0,0,0,0c-0.2,0.4-0.5,0.7-0.4,1.1c0,0,0,0,0,0c0,0,0,0,0-0.1c0,0,0,0,0,0
				c0,0.1,0.1,0.4,0.2,0.6c0,0,0,0,0,0c0,0,0,0,0-0.1c0,0,0,0,0,0c0.1,0.1,0.2,0.3,0.3,0.4c0,0,0,0,0.1,0c0,0,0,0,0,0c0,0,0,0,0,0
				c0.1,0.1,0.3,0.3,0.4,0.4c0,0,0.1,0,0.1,0c0.1-0.1,0.1-0.4,0.2-0.5c0,0,0,0,0,0c0,0,0,0,0,0c0,0,0,0,0.1,0c0-0.1,0.1-0.3,0-0.5
				c0,0,0,0,0,0c0,0,0,0,0,0c0,0,0,0,0,0C71.5,59,71.4,58.8,71.4,58.6C71.4,58.6,71.4,58.6,71.4,58.6L71.4,58.6z"/>
			<path fill="#231F20" d="M71,60.5L71,60.5l-0.1,0c-0.1-0.1-0.2-0.2-0.3-0.3c0,0,0,0,0,0h-0.1l-0.1-0.1c-0.1-0.1-0.2-0.2-0.2-0.3
				H70l-0.1-0.1c-0.1-0.1-0.1-0.3-0.2-0.4h-0.1l-0.1-0.2c-0.1-0.4,0.1-0.7,0.3-1.1l0.2-0.3l0.2,0l0-0.1l0.4,0l0.2,0.1
				c0.4,0.2,0.7,0.4,0.8,0.8l0,0.1l-0.1,0.1c0,0.2,0.1,0.3,0.1,0.5l0,0.2l-0.1,0c0,0.1,0,0.2-0.1,0.3L71.5,60l-0.1,0
				c0,0.1-0.1,0.3-0.1,0.4l-0.1,0.1L71,60.5z M70.6,59.7h0.1l0.1,0.1c0,0,0.1,0.1,0.1,0.1c0-0.1,0-0.1,0-0.2l0-0.2l0.1,0
				c0-0.1,0-0.2,0-0.2l0-0.1l0.1-0.1c0-0.1-0.1-0.2-0.1-0.3l0-0.1l0-0.1c-0.1-0.1-0.2-0.1-0.3-0.2l0,0.5l-0.4,0l-0.1-0.1l-0.1-0.2
				c-0.1,0.1-0.1,0.2-0.1,0.3h0l0,0.2c0,0.1,0,0.2,0.1,0.3h0.1l0.1,0.2C70.5,59.5,70.5,59.6,70.6,59.7L70.6,59.7z"/>
		</g>
		<g>
			<path fill="#FFFFFF" d="M70.1,60.3C70.1,60.3,70.1,60.3,70.1,60.3C70.2,60.3,70.2,60.3,70.1,60.3c0-0.3-0.4-0.5-0.8-0.7
				c0,0,0,0,0,0l0,0.7c0,0,0,0,0,0L69,59.7c0,0,0,0,0,0c-0.2,0.4-0.5,0.7-0.4,1.1c0,0,0,0,0,0c0,0,0,0,0,0c0,0,0,0,0,0
				c0,0.1,0.1,0.4,0.2,0.6c0,0,0,0,0,0c0,0,0,0,0-0.1c0,0,0,0,0,0c0.1,0.1,0.2,0.3,0.3,0.4c0,0,0,0,0.1,0c0,0,0,0,0,0c0,0,0,0,0,0
				c0.1,0.1,0.3,0.3,0.4,0.4c0,0,0.1,0,0.1,0c0.1-0.1,0.1-0.4,0.2-0.5c0,0,0,0,0,0c0,0,0,0,0,0c0,0,0,0,0.1,0c0-0.1,0.1-0.3,0-0.5
				c0,0,0,0,0,0c0,0,0,0,0,0c0,0,0,0,0,0C70.2,60.7,70.1,60.4,70.1,60.3C70.1,60.3,70.1,60.3,70.1,60.3L70.1,60.3z"/>
			<path fill="#231F20" d="M69.7,62.2L69.7,62.2l-0.1,0c-0.1-0.1-0.2-0.2-0.3-0.3c0,0,0,0,0,0h-0.1l-0.1-0.1
				c-0.1-0.1-0.2-0.2-0.2-0.3h-0.1l-0.1-0.1c-0.1-0.1-0.2-0.3-0.2-0.4h-0.1l-0.1-0.2c-0.1-0.4,0.1-0.7,0.3-1.1l0.2-0.3l0.2,0l0-0.1
				l0.4,0l0.2,0.1c0.4,0.2,0.7,0.4,0.8,0.8l0,0.1l-0.1,0.1c0,0.2,0.1,0.3,0,0.5l0,0.2l-0.1,0c0,0.1,0,0.2-0.1,0.3l-0.1,0.2l-0.1,0
				c0,0.1-0.1,0.3-0.1,0.4l-0.1,0.1L69.7,62.2z M69.3,61.3h0.1l0.1,0.1c0,0,0.1,0.1,0.1,0.1c0-0.1,0-0.1,0-0.2l0-0.2l0.1,0
				c0-0.1,0-0.2,0-0.2l0-0.1l0.1-0.1c0-0.1,0-0.2-0.1-0.3l0-0.1l0-0.1c-0.1-0.1-0.2-0.1-0.3-0.2l0,0.5l-0.4,0l-0.1-0.1l-0.1-0.3
				c-0.1,0.1-0.1,0.2-0.1,0.3h0l0,0.2c0,0.1,0,0.2,0.1,0.3h0.1l0.1,0.2C69.2,61.2,69.2,61.3,69.3,61.3L69.3,61.3z"/>
		</g>
		<g>
			<path fill="#FFFFFF" d="M64.6,53.3C64.6,53.4,64.7,53.4,64.6,53.3C64.7,53.4,64.7,53.4,64.6,53.3c0.1,0,0.1,0,0.1,0
				c-0.1,0.2-0.1,0.4-0.1,0.5c0,0,0,0,0,0c0,0,0,0,0,0c0,0,0,0,0,0c0,0.1,0,0.4,0,0.5c0,0,0,0,0.1,0c0.1,0,0.4-0.2,0.5-0.2
				c0,0,0,0,0,0c0,0,0,0,0,0c0,0,0,0,0,0c0.1-0.1,0.3-0.2,0.4-0.3c0,0,0,0,0,0c0,0,0,0,0,0.1c0,0,0,0,0,0c0.1-0.1,0.3-0.4,0.3-0.5
				c0,0,0,0,0,0c0,0,0,0,0,0.1c0,0,0,0,0,0c0.2-0.3,0-0.7-0.1-1.1c0,0,0,0,0,0L65.7,53c0,0,0,0,0,0l0.2-0.6c0,0,0,0,0,0
				c-0.4,0.1-0.8,0.2-1,0.5c0,0,0,0,0,0c0,0,0,0,0.1,0c0,0,0,0,0,0C64.8,52.9,64.7,53.2,64.6,53.3L64.6,53.3z"/>
			<path fill="#231F20" d="M64.9,54.7h-0.2l-0.1-0.2c0-0.1,0-0.2,0-0.4h0l-0.1-0.2c0-0.1,0-0.2,0-0.4l-0.1-0.1l0-0.1
				c0-0.2,0.1-0.3,0.2-0.4l-0.1-0.1l0.1-0.2c0.2-0.3,0.6-0.4,1-0.5l0.4-0.1l0.2,0.2l0,0l0.2,0l0.1,0.4c0.1,0.4,0.3,0.8,0.1,1.2
				l-0.1,0.1l-0.1,0c-0.1,0.1-0.2,0.3-0.3,0.4l-0.1,0.1l-0.1,0c-0.1,0.1-0.2,0.2-0.3,0.2l-0.1,0h-0.1C65.2,54.6,65,54.7,64.9,54.7
				L64.9,54.7z M64.9,53.7L64.9,53.7l0.1,0.2c0,0.1,0,0.1,0,0.2c0.1,0,0.1-0.1,0.1-0.1l0.1-0.1l0.2,0c0.1,0,0.1-0.1,0.1-0.1l0.1-0.1
				l0.2,0c0-0.1,0.1-0.1,0.1-0.3l0.1-0.1l0.1,0c0-0.1,0-0.2-0.1-0.4l-0.2,0.3l-0.2,0L65.4,53l0-0.1l0.1-0.3c-0.1,0-0.3,0.1-0.3,0.1
				l0,0.1l-0.1,0.1c0,0.1-0.1,0.2-0.1,0.3l0.1,0.1l0,0.1C65,53.5,64.9,53.6,64.9,53.7z"/>
		</g>
		<g>
			<path fill="#FFFFFF" d="M65,59.9l-0.4,0.5c0,0,0,0,0,0l0.2-0.6c0,0,0,0,0,0c-0.5,0.1-0.8,0.2-1,0.5c0,0,0,0,0,0c0,0,0,0,0.1,0
				c0,0,0,0,0,0c-0.1,0.1-0.2,0.4-0.2,0.6c0,0,0,0,0,0c0,0,0,0,0,0c0,0,0,0,0,0c-0.1,0.2-0.1,0.4-0.1,0.5c0,0,0,0,0,0c0,0,0,0,0,0
				c0,0,0,0,0,0c0,0.1,0,0.4,0,0.5c0,0,0,0,0.1,0c0.1,0,0.4-0.2,0.5-0.2c0,0,0,0,0,0c0,0,0,0,0,0c0,0,0,0,0,0c0.1,0,0.3-0.2,0.4-0.3
				c0,0,0,0,0,0c0,0,0,0,0,0.1c0,0,0,0,0,0c0.1-0.1,0.3-0.4,0.3-0.5c0,0,0,0,0,0c0,0,0,0,0,0.1c0,0,0,0,0,0
				C65.3,60.7,65.2,60.3,65,59.9C65,59.8,65,59.8,65,59.9L65,59.9z"/>
			<path fill="#231F20" d="M63.8,62.1h-0.2l-0.1-0.2c0-0.1,0-0.2,0-0.4h0l-0.1-0.3c0-0.1,0-0.2,0-0.4l-0.1-0.1l0-0.1
				c0-0.2,0.1-0.3,0.2-0.5l-0.1-0.1l0.1-0.2c0.2-0.3,0.6-0.4,1-0.5l0.4-0.1l0.2,0.2l0,0l0.2,0l0.1,0.4c0.1,0.4,0.3,0.8,0.1,1.2
				l-0.1,0.1l-0.1,0c-0.1,0.1-0.2,0.3-0.3,0.4l-0.1,0.1l-0.1,0c-0.1,0.1-0.2,0.2-0.3,0.2l-0.1,0h-0.1C64.1,62,63.9,62.1,63.8,62.1
				L63.8,62.1z M63.8,61.1l0.1,0.1l0,0.1c0,0,0,0.1,0,0.2c0.1,0,0.1-0.1,0.1-0.1l0.1-0.1l0.2,0c0.1,0,0.1-0.1,0.1-0.1l0.1-0.1l0.2,0
				c0-0.1,0.1-0.2,0.1-0.3l0.1-0.1l0.1,0c0-0.1,0-0.2-0.1-0.4l-0.2,0.3l-0.2,0l-0.2-0.2l0-0.1l0.1-0.3c-0.1,0-0.2,0.1-0.3,0.1l0,0.1
				L64,60.3c-0.1,0.1-0.1,0.2-0.2,0.3l0.1,0.1l0,0.1C63.9,60.9,63.8,61,63.8,61.1z"/>
		</g>
		<g>
			<path fill="#FFFFFF" d="M62,54.7C62,54.7,62,54.7,62,54.7C61.9,54.8,62,54.8,62,54.7c0.2,0.1,0.4-0.1,0.5-0.2c0,0,0,0,0,0
				c0,0,0,0,0,0.1c0,0,0,0,0,0c0.3-0.2,0.3-0.6,0.4-1.1c0,0,0,0,0,0l-0.6,0.2c0,0,0,0,0,0l0.5-0.5c0,0,0,0,0,0
				C62.4,53,62,52.9,61.7,53c0,0,0,0,0,0c0,0,0,0,0.1,0c0,0,0,0,0,0c-0.1,0.1-0.4,0.2-0.5,0.3c0,0,0,0,0,0c0,0,0,0,0.1,0
				c0,0,0,0,0,0c-0.1,0.1-0.3,0.3-0.3,0.4c0,0,0,0,0,0c0,0,0,0,0,0c0,0,0,0,0,0c-0.1,0.1-0.2,0.4-0.2,0.5c0,0,0,0.1,0,0.1
				c0.1,0,0.4,0,0.5,0c0,0,0,0,0,0c0,0,0,0,0,0c0,0,0,0,0,0C61.6,54.7,61.8,54.7,62,54.7C62,54.6,62,54.7,62,54.7L62,54.7z"/>
			<path fill="#231F20" d="M62,55h-0.1L61.8,55c-0.1,0-0.3,0-0.3,0l-0.1,0l-0.1-0.1c-0.1,0-0.3,0-0.4-0.1c-0.2-0.1-0.2-0.2-0.2-0.4
				c0-0.1,0.1-0.3,0.2-0.4l0-0.1l0.1-0.2c0-0.1,0.1-0.2,0.2-0.3l0-0.1l0.1-0.1c0.1-0.1,0.2-0.2,0.4-0.3l0-0.1l0.1-0.1
				c0.3-0.2,0.7-0.1,1.1,0.1L63,53l0.1,0.3l0,0h0l0.2,0.2l-0.1,0.3c-0.1,0.4-0.2,0.8-0.5,1l-0.1,0l-0.2,0C62.3,54.9,62.1,55,62,55
				L62,55z M61.6,54.4l0.1,0.1c0.1,0,0.2,0,0.2,0l0.1,0h0.1l0,0c0.1,0,0.1-0.1,0.2-0.1l0.1,0l0.1,0c0.1-0.1,0.1-0.2,0.1-0.4L62.4,54
				h-0.2l-0.2-0.3l0.1-0.1l0.2-0.2c-0.1,0-0.2-0.1-0.3-0.1l0,0l-0.2,0.1c-0.1,0.1-0.2,0.1-0.3,0.1l0,0.1l-0.1,0.1
				c-0.1,0-0.1,0.1-0.2,0.2l0.1,0.1l-0.1,0.1c0,0-0.1,0.1-0.1,0.2c0,0,0.1,0,0.1,0L61.6,54.4z"/>
		</g>
		<g>
			<path fill="#FFFFFF" d="M85.6,65.7l-0.4,0.5c0,0,0,0,0,0l0.2-0.6c0,0,0,0,0,0c-0.4,0.1-0.8,0.2-1,0.5c0,0,0,0,0,0c0,0,0,0,0.1,0
				c0,0,0,0,0,0c-0.1,0.1-0.2,0.4-0.2,0.6c0,0,0,0,0,0c0,0,0,0,0,0c0,0,0,0,0,0c-0.1,0.2-0.1,0.4-0.1,0.5c0,0,0,0,0,0c0,0,0,0,0,0
				c0,0,0,0,0,0c0,0.1,0,0.4,0,0.5c0,0,0,0,0.1,0c0.1,0,0.4-0.2,0.5-0.2c0,0,0,0,0,0c0,0,0,0,0,0c0,0,0,0,0,0c0.1,0,0.3-0.2,0.4-0.3
				c0,0,0,0,0,0c0,0,0,0,0,0.1c0,0,0,0,0,0c0.1-0.1,0.3-0.4,0.3-0.5c0,0,0,0,0,0c0,0,0,0,0,0.1c0,0,0,0,0,0
				C86,66.6,85.8,66.2,85.6,65.7C85.7,65.7,85.6,65.7,85.6,65.7L85.6,65.7z"/>
			<path fill="#231F20" d="M84.4,68h-0.2l-0.1-0.2c0-0.1,0-0.2,0-0.4h0l0-0.3c0-0.1,0-0.2,0-0.4l-0.1-0.1l0-0.1
				c0-0.2,0.1-0.3,0.2-0.5L84,66l0.1-0.2c0.2-0.4,0.6-0.4,1-0.5l0.4-0.1l0.2,0.2l0.3,0l0.1,0.4c0.1,0.4,0.3,0.8,0.1,1.2L86,67.1
				l-0.1,0c-0.1,0.1-0.2,0.3-0.3,0.4l-0.1,0.1l-0.1,0c-0.1,0.1-0.2,0.2-0.3,0.2l-0.1,0h-0.1C84.7,67.9,84.5,67.9,84.4,68L84.4,68z
				 M84.5,66.9l0.1,0.1l0,0.1c0,0.1,0,0.1,0,0.2c0.1,0,0.1-0.1,0.2-0.1l0.1,0l0.2,0c0.1,0,0.1-0.1,0.1-0.1l0.1-0.1l0.2,0
				c0-0.1,0.1-0.2,0.1-0.3l0.1-0.1l0.1,0c0-0.1,0-0.2-0.1-0.4l-0.2,0.3l-0.2,0l-0.2-0.2l0-0.1l0.1-0.3c-0.1,0-0.2,0.1-0.3,0.1l0,0.1
				l-0.1,0.1c-0.1,0.1-0.1,0.2-0.2,0.3l0.1,0.1l0,0.1C84.5,66.7,84.5,66.8,84.5,66.9z"/>
		</g>
		<g>
			<path fill="#FFFFFF" d="M83.2,59C83.2,59,83.2,59,83.2,59C83.2,59.1,83.2,59.1,83.2,59c0.2,0,0.3-0.1,0.4-0.3c0,0,0,0,0,0
				c0,0,0,0,0,0.1c0,0,0,0,0,0c0.1-0.1,0.3-0.4,0.3-0.5c0,0,0,0,0,0c0,0,0,0,0,0.1c0,0,0,0,0,0c0.2-0.3,0-0.7-0.1-1.1c0,0,0,0,0,0
				l-0.4,0.5c0,0,0,0,0,0l0.2-0.6c0,0,0,0,0,0c-0.4,0.1-0.8,0.2-1,0.5c0,0,0,0,0,0c0,0,0,0,0.1,0c0,0,0,0,0,0
				c-0.1,0.1-0.2,0.4-0.2,0.6c0,0,0,0,0,0c0,0,0,0,0,0c0,0,0,0,0,0c-0.1,0.2-0.1,0.4-0.1,0.5c0,0,0,0,0,0c0,0,0,0,0,0c0,0,0,0,0,0
				c0,0.1,0,0.4,0,0.5c0,0,0,0,0.1,0C82.8,59.2,83,59.1,83.2,59C83.2,59,83.2,59,83.2,59L83.2,59z"/>
			<path fill="#231F20" d="M82.7,59.5h-0.2l-0.1-0.2c0-0.1,0-0.2,0-0.4h0l-0.1-0.3c0-0.1,0-0.2,0-0.4l-0.1-0.1l0-0.1
				c0-0.1,0.1-0.3,0.2-0.5l-0.1-0.1l0.1-0.2c0.2-0.4,0.6-0.4,1-0.5l0.4-0.1l0.2,0.2l0,0l0.2,0l0.1,0.4c0.1,0.4,0.3,0.8,0.1,1.2
				l-0.1,0.1l-0.1,0c-0.1,0.1-0.2,0.3-0.3,0.4l-0.1,0.1l-0.1,0c-0.1,0.1-0.2,0.2-0.3,0.2l-0.1,0h-0.1C83,59.4,82.8,59.5,82.7,59.5
				L82.7,59.5z M82.7,58.4l0.1,0.1l0,0.1c0,0,0,0.1,0,0.2c0.1,0,0.1-0.1,0.1-0.1l0.1-0.1l0.2,0c0.1,0,0.1-0.1,0.1-0.1l0.1-0.1l0.2,0
				c0-0.1,0.1-0.1,0.1-0.3l0.1-0.1l0.1,0c0-0.1,0-0.2-0.1-0.4L83.6,58l-0.2,0l-0.2-0.2l0-0.1l0.1-0.3c-0.1,0-0.2,0.1-0.3,0.1l0,0.1
				l-0.1,0.1c-0.1,0.1-0.1,0.2-0.1,0.3l0.1,0.1l-0.1,0.1C82.8,58.3,82.8,58.4,82.7,58.4z"/>
		</g>
		<g>
			<path fill="#FFFFFF" d="M88.6,65.5L88.1,66c0,0,0,0,0,0l0.2-0.6c0,0,0,0,0,0c-0.4,0.1-0.8,0.2-1,0.5c0,0,0,0,0,0c0,0,0,0,0.1,0
				c0,0,0,0,0,0c-0.1,0.1-0.2,0.4-0.2,0.6c0,0,0,0,0,0c0,0,0,0,0,0c0,0,0,0,0,0c-0.1,0.2-0.1,0.4-0.1,0.5c0,0,0,0,0,0c0,0,0,0,0,0
				c0,0,0,0,0,0c0,0.1,0,0.4,0,0.5c0,0,0,0,0.1,0c0.1,0,0.4-0.2,0.5-0.2c0,0,0,0,0,0c0,0,0,0,0,0c0,0,0,0,0,0c0.1,0,0.3-0.2,0.4-0.3
				c0,0,0,0,0,0c0,0,0,0,0,0.1c0,0,0,0,0,0c0.1-0.1,0.3-0.4,0.3-0.5c0,0,0,0,0,0c0,0,0,0,0,0.1c0,0,0,0,0,0
				C88.9,66.4,88.8,66,88.6,65.5C88.6,65.5,88.6,65.5,88.6,65.5L88.6,65.5z"/>
			<path fill="#231F20" d="M87.3,67.8h-0.2L87,67.5c0-0.1,0-0.2,0-0.4h0l0-0.3c0-0.1,0-0.2,0-0.4l-0.1-0.1l0-0.1
				c0-0.2,0.1-0.3,0.2-0.5L87,65.8l0.1-0.2c0.2-0.3,0.6-0.4,1-0.5l0.4-0.1l0.2,0.2l0.2,0l0.1,0.4c0.1,0.4,0.3,0.8,0.1,1.2l-0.1,0.1
				l-0.1,0c-0.1,0.1-0.2,0.3-0.3,0.4l-0.1,0.1l-0.1,0c-0.1,0.1-0.2,0.2-0.3,0.2l-0.1,0h-0.1C87.6,67.7,87.5,67.7,87.3,67.8
				L87.3,67.8z M87.4,66.7l0.1,0.1l0,0.1c0,0.1,0,0.1,0,0.2c0.1,0,0.1-0.1,0.1-0.1l0.1-0.1l0.2,0c0.1,0,0.1-0.1,0.1-0.1l0.1-0.1
				l0.2,0c0-0.1,0.1-0.2,0.1-0.3l0.1-0.1l0.1,0c0-0.1,0-0.2-0.1-0.4l-0.2,0.3l-0.2,0l-0.2-0.2l0-0.1l0.1-0.3c-0.1,0-0.2,0.1-0.3,0.1
				l0,0.1l-0.1,0.1c-0.1,0.1-0.1,0.2-0.2,0.3l0.1,0.1l0,0.1C87.4,66.5,87.4,66.6,87.4,66.7z"/>
		</g>
		<g>
			<path fill="#FFFFFF" d="M88.7,56.2c0.1-0.1,0.3-0.2,0.4-0.3c0,0,0,0,0,0c0,0,0,0,0,0.1c0,0,0,0,0,0c0.1-0.1,0.3-0.4,0.3-0.5
				c0,0,0,0,0,0c0,0,0,0,0,0.1c0,0,0,0,0,0c0.2-0.3,0-0.7-0.1-1.1c0,0,0,0,0,0L89,54.8c0,0,0,0,0,0l0.2-0.6c0,0,0,0,0,0
				c-0.4,0.1-0.8,0.2-1,0.5c0,0,0,0,0,0c0,0,0,0,0.1,0c0,0,0,0,0,0C88.1,54.8,88,55,88,55.2c0,0,0,0,0,0c0,0,0,0,0,0c0,0,0,0,0,0
				C88,55.4,88,55.6,88,55.7c0,0,0,0,0,0c0,0,0,0,0,0c0,0,0,0,0,0c0,0.1,0,0.4,0,0.5c0,0,0,0,0.1,0C88.3,56.3,88.5,56.2,88.7,56.2
				C88.7,56.1,88.7,56.1,88.7,56.2C88.7,56.1,88.7,56.1,88.7,56.2C88.7,56.2,88.7,56.2,88.7,56.2L88.7,56.2z"/>
			<path fill="#231F20" d="M88.2,56.6H88l-0.1-0.2c0-0.1,0-0.2,0-0.4h0l0-0.3c0-0.1,0-0.2,0-0.4l-0.1-0.1l0-0.1
				c0-0.1,0.1-0.3,0.2-0.5l-0.1-0.1l0.1-0.2c0.2-0.3,0.6-0.4,1-0.5l0.4-0.1l0.2,0.2l0,0l0.2,0l0.1,0.4c0.1,0.4,0.3,0.8,0.1,1.2
				l-0.1,0.1l-0.1,0c-0.1,0.1-0.2,0.3-0.3,0.4l-0.1,0.1l-0.1,0c-0.1,0.1-0.2,0.2-0.3,0.2l-0.1,0h-0.1C88.5,56.5,88.4,56.6,88.2,56.6
				L88.2,56.6z M88.3,55.6l0.1,0.1l0,0.1c0,0,0,0.1,0,0.2c0.1,0,0.1-0.1,0.2-0.1l0.1,0l0.2,0c0.1,0,0.1-0.1,0.1-0.1l0.1-0.1l0.2,0
				c0-0.1,0.1-0.1,0.1-0.3l0.1-0.1l0.1,0c0-0.1,0-0.2-0.1-0.4l-0.2,0.3l-0.2,0l-0.2-0.2l0-0.1l0.1-0.3c-0.1,0-0.2,0.1-0.3,0.1l0,0.1
				l-0.1,0.1c-0.1,0.1-0.1,0.2-0.2,0.3l0.1,0.1l0,0.1C88.3,55.4,88.3,55.5,88.3,55.6z"/>
		</g>
		<g>
			<path fill="#FFFFFF" d="M88.7,58.3C88.7,58.2,88.7,58.2,88.7,58.3c-0.1-0.1-0.4-0.2-0.5-0.2c0,0,0,0,0,0c0,0,0,0,0,0
				c0,0,0,0,0-0.1c-0.1,0-0.3,0-0.5,0c0,0,0,0,0,0c0,0,0,0,0,0c0,0,0,0,0,0c-0.2,0-0.4,0.1-0.6,0.2c0,0,0,0,0,0c0,0,0,0,0-0.1
				c0,0,0,0,0,0c-0.3,0.1-0.4,0.5-0.6,1c0,0,0,0,0,0l0.6-0.1c0,0,0,0,0,0l-0.5,0.4c0,0,0,0,0,0c0.4,0.2,0.8,0.4,1.1,0.3c0,0,0,0,0,0
				c0,0,0,0-0.1,0c0,0,0,0,0,0c0.1,0,0.4-0.1,0.5-0.3c0,0,0,0,0,0c0,0,0,0-0.1,0c0,0,0,0,0,0c0.1-0.1,0.3-0.2,0.3-0.4c0,0,0,0,0-0.1
				c0,0,0,0,0,0c0,0,0,0,0,0C88.5,58.6,88.6,58.4,88.7,58.3L88.7,58.3z"/>
			<path fill="#231F20" d="M87.5,59.9c-0.3,0-0.5-0.1-0.8-0.3l-0.3-0.1l-0.1-0.3l0,0l-0.1-0.1L86.2,59l0.1-0.3
				c0.1-0.4,0.3-0.8,0.6-1l0.1,0h0.1l0,0c0.2-0.1,0.3-0.1,0.4-0.1h0.1l0.1,0.1c0.1,0,0.3,0,0.3,0l0.1,0l0.1,0.1
				c0.1,0,0.3,0.1,0.4,0.1c0.1,0.1,0.2,0.2,0.2,0.4c0,0.1-0.1,0.2-0.2,0.4l0,0.1l-0.1,0.1c-0.1,0.1-0.1,0.2-0.2,0.3l0,0.1l-0.1,0.1
				c-0.1,0.1-0.2,0.2-0.4,0.2l0,0.1l-0.1,0.1C87.7,59.9,87.6,59.9,87.5,59.9z M87.1,59.3c0.1,0.1,0.2,0.1,0.3,0.1l0,0l0.2-0.1
				c0.1,0,0.2-0.1,0.3-0.1l0-0.1L88,59c0.1,0,0.1-0.1,0.2-0.1l0-0.1l0.1-0.1c0,0,0.1-0.1,0.1-0.2c-0.1,0-0.1,0-0.2,0l-0.1,0
				l-0.1-0.1c-0.1,0-0.2,0-0.2,0l-0.1,0h-0.1l0-0.1c-0.1,0-0.1,0.1-0.2,0.1l-0.1,0l-0.1,0c-0.1,0.1-0.1,0.2-0.2,0.4l0.4-0.1l0.2,0.3
				l-0.1,0.1L87.1,59.3z"/>
		</g>
		<g>
			<path fill="#FFFFFF" d="M91.7,56.1C91.7,56.1,91.7,56.1,91.7,56.1C91.7,56.1,91.7,56.1,91.7,56.1c0.1-0.2-0.1-0.5-0.1-0.6
				c0,0,0,0,0,0c0,0,0,0,0.1,0c0,0,0,0,0,0c-0.1-0.3-0.5-0.4-1-0.5c0,0,0,0,0,0l0.2,0.6c0,0,0,0,0,0l-0.4-0.5c0,0,0,0,0,0
				c-0.2,0.5-0.3,0.8-0.2,1.1c0,0,0,0,0,0c0,0,0,0,0-0.1c0,0,0,0,0,0c0,0.1,0.2,0.4,0.3,0.5c0,0,0,0,0,0c0,0,0,0,0-0.1c0,0,0,0,0,0
				c0.1,0.1,0.3,0.3,0.4,0.3c0,0,0,0,0,0c0,0,0,0,0,0c0,0,0,0,0,0c0.1,0.1,0.3,0.2,0.4,0.3c0,0,0.1,0,0.1,0c0-0.1,0.1-0.4,0.1-0.5
				c0,0,0,0,0,0c0,0,0,0,0,0c0,0,0,0,0,0C91.7,56.5,91.7,56.3,91.7,56.1C91.6,56.1,91.6,56.1,91.7,56.1L91.7,56.1z"/>
			<path fill="#231F20" d="M91.5,57.5L91.5,57.5c-0.2,0-0.3-0.1-0.5-0.2c0,0,0,0-0.1,0h-0.1l-0.1,0c-0.1,0-0.2-0.1-0.3-0.2l-0.1,0
				l-0.1-0.1c-0.1-0.1-0.2-0.2-0.3-0.4h-0.1l-0.1-0.2c-0.2-0.3,0-0.7,0.1-1.1l0.1-0.4l0.3,0l0.2-0.2l0.2,0l0.2,0.1
				c0.4,0.1,0.8,0.2,1,0.6l0.1,0.1l-0.1,0.1c0.1,0.2,0.1,0.3,0.1,0.5l0,0.1l-0.1,0.1c0,0.1,0,0.3,0,0.4l0,0.2l-0.1,0
				c0,0.1,0,0.3-0.1,0.4l-0.1,0.2L91.5,57.5z M91,56.7L91,56.7l0.2,0.1c0,0,0.1,0.1,0.1,0.1c0-0.1,0-0.2,0-0.2l0-0.1l0.1-0.1
				c0-0.1,0-0.2,0-0.2l0-0.1l0.1-0.1c0-0.1-0.1-0.2-0.1-0.3l-0.1-0.1l0-0.1c-0.1-0.1-0.2-0.1-0.3-0.1l0.1,0.4l-0.2,0.2l-0.2,0
				l-0.1-0.1l-0.2-0.2c0,0.1-0.1,0.3-0.1,0.4h0l0.1,0.2c0,0.1,0.1,0.2,0.1,0.3l0,0h0.1l0.1,0.1C90.8,56.6,90.9,56.6,91,56.7L91,56.7
				z"/>
		</g>
		<g>
			<path fill="#FFFFFF" d="M90.8,57.9C90.8,57.9,90.8,57.9,90.8,57.9C90.9,57.9,90.9,57.9,90.8,57.9c0.1-0.2-0.1-0.5-0.1-0.6
				c0,0,0,0,0,0c0,0,0,0,0.1,0c0,0,0,0,0,0c-0.1-0.3-0.5-0.4-1-0.5c0,0,0,0,0,0l0.2,0.6c0,0,0,0,0,0L89.5,57c0,0,0,0,0,0
				c-0.2,0.5-0.3,0.8-0.2,1.1c0,0,0,0,0,0c0,0,0,0,0-0.1c0,0,0,0,0,0c0,0.1,0.2,0.4,0.3,0.5c0,0,0,0,0,0c0,0,0,0,0-0.1c0,0,0,0,0,0
				c0.1,0.1,0.3,0.3,0.4,0.3c0,0,0,0,0,0c0,0,0,0,0,0c0,0,0,0,0,0c0.1,0.1,0.3,0.2,0.4,0.3c0,0,0.1,0,0.1,0c0-0.1,0.1-0.4,0.1-0.5
				c0,0,0,0,0,0c0,0,0,0,0,0c0,0,0,0,0,0C90.8,58.3,90.8,58.1,90.8,57.9C90.8,57.9,90.8,57.9,90.8,57.9L90.8,57.9z"/>
			<path fill="#231F20" d="M90.6,59.3L90.6,59.3c-0.2,0-0.3-0.1-0.5-0.2c0,0,0,0-0.1,0H90l-0.1,0c-0.1,0-0.2-0.1-0.3-0.2l-0.1,0
				l-0.1-0.1c-0.1-0.1-0.2-0.2-0.3-0.4h-0.1L89,58.2c-0.2-0.4,0-0.7,0.1-1.1l0.1-0.4l0.3,0l0.2-0.2l0.2,0l0.2,0.1
				c0.4,0.1,0.8,0.2,1,0.6l0.1,0.1L91,57.4c0.1,0.1,0.1,0.3,0.1,0.5l0,0.1l-0.1,0.1c0,0.1,0,0.3,0,0.4l0,0.2l-0.1,0
				c0,0.1,0,0.3-0.1,0.4l-0.1,0.2L90.6,59.3z M90.1,58.5L90.1,58.5l0.2,0.1c0,0,0.1,0.1,0.1,0.1c0-0.1,0-0.2,0-0.2l0-0.1l0.1-0.1
				c0-0.1,0-0.2,0-0.2l0-0.1l0.1-0.1c0-0.1-0.1-0.2-0.1-0.3l-0.1-0.1l0-0.1c-0.1-0.1-0.2-0.1-0.3-0.1l0.1,0.4L90,57.7l-0.2,0
				l-0.1-0.1l-0.2-0.2c0,0.1-0.1,0.3-0.1,0.4h0l0.1,0.2c0,0.1,0.1,0.2,0.1,0.3l0,0h0.1l0.1,0.1C90,58.4,90,58.5,90.1,58.5L90.1,58.5
				z"/>
		</g>
		<g>
			<path fill="#FFFFFF" d="M90.7,63.9C90.7,63.9,90.7,63.9,90.7,63.9C90.7,63.9,90.7,63.9,90.7,63.9c-0.1-0.3-0.5-0.4-0.9-0.5
				c0,0,0,0,0,0l0.2,0.6c0,0,0,0,0,0l-0.4-0.5c0,0,0,0,0,0c-0.2,0.5-0.3,0.8-0.2,1.1c0,0,0,0,0,0c0,0,0,0,0-0.1c0,0,0,0,0,0
				c0,0.1,0.2,0.4,0.3,0.5c0,0,0,0,0,0c0,0,0,0,0-0.1c0,0,0,0,0,0c0.1,0.1,0.3,0.3,0.4,0.3c0,0,0,0,0,0c0,0,0,0,0,0c0,0,0,0,0,0
				c0.1,0.1,0.3,0.2,0.4,0.3c0,0,0.1,0,0.1,0c0-0.1,0.1-0.4,0.1-0.5c0,0,0,0,0,0c0,0,0,0,0,0c0,0,0,0,0,0c0-0.1,0-0.3,0-0.5
				c0,0,0,0,0,0c0,0,0,0,0,0c0,0,0,0,0,0C90.8,64.3,90.7,64,90.7,63.9C90.6,63.9,90.6,63.9,90.7,63.9L90.7,63.9z"/>
			<path fill="#231F20" d="M90.6,65.8L90.6,65.8c-0.2,0-0.3-0.1-0.5-0.2c0,0,0,0-0.1,0H90l-0.1,0c-0.1,0-0.2-0.1-0.3-0.2l-0.1,0
				l-0.1-0.1c-0.1-0.1-0.2-0.2-0.3-0.4h-0.1L89,64.8c-0.2-0.3,0-0.7,0.1-1.1l0.1-0.4l0.3,0l0.2-0.2l0.2,0l0.2,0.1
				c0.4,0.1,0.8,0.2,1,0.6l0.1,0.1L91,64c0.1,0.2,0.1,0.3,0.1,0.5l0,0.1L91,64.6c0,0.1,0,0.3,0,0.4l0,0.2l-0.1,0
				c0,0.1,0,0.3-0.1,0.4l-0.1,0.2L90.6,65.8z M90.1,65L90.1,65l0.2,0.1c0,0,0.1,0.1,0.1,0.1c0-0.1,0-0.1,0-0.2l0-0.1l0.1-0.1
				c0-0.1,0-0.2,0-0.2l0-0.1l0.1-0.1c0-0.1-0.1-0.2-0.1-0.3l-0.1-0.1l0-0.1c-0.1-0.1-0.2-0.1-0.3-0.1l0.1,0.4L90,64.3l-0.2,0
				l-0.1-0.1L89.5,64c0,0.1-0.1,0.3-0.1,0.4h0.1l0.1,0.2c0,0.1,0.1,0.2,0.1,0.3l0,0h0.1l0.1,0.1C89.9,65,90,65,90.1,65L90.1,65z"/>
		</g>
		<g>
			<path fill="#FFFFFF" d="M94.3,51.3C94.3,51.3,94.3,51.3,94.3,51.3C94.4,51.3,94.4,51.3,94.3,51.3c-0.1-0.3-0.5-0.4-0.9-0.5
				c0,0,0,0,0,0l0.2,0.6c0,0,0,0,0,0L93.1,51c0,0,0,0,0,0c-0.1,0.5-0.3,0.9-0.1,1.1c0,0,0,0,0,0c0,0,0,0,0-0.1c0,0,0,0,0,0
				c0.1,0.1,0.2,0.4,0.3,0.5c0,0,0,0,0,0c0,0,0,0,0-0.1c0,0,0,0,0,0c0.1,0.1,0.3,0.3,0.4,0.3c0,0,0,0,0,0c0,0,0,0,0,0c0,0,0,0,0,0
				c0.1,0.1,0.3,0.2,0.5,0.2c0,0,0.1,0,0.1,0c0-0.1,0-0.4,0-0.5c0,0,0,0,0,0c0,0,0,0,0,0c0,0,0,0,0,0c0-0.1,0-0.3-0.1-0.5
				c0,0,0,0,0,0c0,0,0,0,0,0c0,0,0,0,0,0C94.5,51.7,94.3,51.5,94.3,51.3C94.3,51.3,94.3,51.3,94.3,51.3L94.3,51.3z"/>
			<path fill="#231F20" d="M94.3,53.3L94.3,53.3c-0.2,0-0.3-0.1-0.4-0.2c0,0-0.1,0-0.1,0l-0.1,0c-0.1,0-0.2-0.1-0.3-0.2l-0.1,0
				l-0.1-0.1c-0.1-0.1-0.2-0.2-0.3-0.4h-0.1l-0.1-0.1c-0.2-0.4-0.1-0.7,0.1-1.2l0.1-0.4l0.3,0l0.1-0.2l0.2,0l0.2,0.1
				c0.4,0.1,0.8,0.2,1,0.5l0.1,0.1l-0.1,0.1c0.1,0.1,0.1,0.3,0.2,0.5l0,0.1l-0.1,0.1c0,0.1,0,0.3,0,0.4l0,0.2l-0.1,0
				c0,0.1,0,0.3,0,0.4l0,0.2L94.3,53.3z M93.8,52.6L93.8,52.6l0.2,0.1c0,0,0.1,0.1,0.2,0.1c0-0.1,0-0.2,0-0.2l0-0.1l0.1-0.1
				c0-0.1,0-0.2-0.1-0.2l0-0.1l0.1-0.1c-0.1-0.1-0.1-0.2-0.2-0.3L94,51.4l0-0.1c-0.1,0-0.2-0.1-0.3-0.1l0.1,0.4l-0.2,0.2l-0.2,0
				l-0.1-0.1l-0.2-0.2c0,0.1-0.1,0.3-0.1,0.4h0.1l0.1,0.2c0.1,0.1,0.1,0.2,0.1,0.3l0,0h0.1l0.1,0.1C93.6,52.5,93.7,52.5,93.8,52.6
				L93.8,52.6z"/>
		</g>
		<g>
			<path fill="#FFFFFF" d="M92.2,50.6C92.2,50.6,92.2,50.6,92.2,50.6C92.2,50.6,92.2,50.6,92.2,50.6c0-0.1-0.1-0.3-0.1-0.3
				c0,0,0,0,0,0c0,0,0,0,0,0c0,0,0,0,0,0c-0.1-0.2-0.3-0.2-0.6-0.3c0,0,0,0,0,0l0.1,0.4c0,0,0,0,0,0l-0.3-0.3c0,0,0,0,0,0
				c-0.1,0.3-0.2,0.5-0.1,0.7c0,0,0,0,0,0c0,0,0,0,0,0c0,0,0,0,0,0c0,0.1,0.1,0.2,0.2,0.3c0,0,0,0,0,0c0,0,0,0,0,0c0,0,0,0,0,0
				c0.1,0.1,0.2,0.2,0.2,0.2c0,0,0,0,0,0c0,0,0,0,0,0c0,0,0,0,0,0c0.1,0,0.2,0.1,0.3,0.1c0,0,0,0,0,0c0-0.1,0-0.2,0-0.3c0,0,0,0,0,0
				c0,0,0,0,0,0c0,0,0,0,0,0C92.2,50.8,92.2,50.7,92.2,50.6C92.2,50.6,92.2,50.6,92.2,50.6L92.2,50.6z"/>
			<path fill="#231F20" d="M92.1,51.5L92.1,51.5c-0.1,0-0.2-0.1-0.3-0.1l0,0c0,0-0.1,0-0.1,0c-0.1,0-0.1-0.1-0.2-0.1h-0.1l-0.1-0.1
				c-0.1-0.1-0.1-0.1-0.2-0.2h-0.1l-0.1-0.1c-0.1-0.2-0.1-0.5,0-0.8l0.1-0.3l0.2,0l0.1-0.1l0.2,0l0.1,0c0.2,0.1,0.5,0.1,0.6,0.4
				l0.1,0.1l0,0.1c0,0.1,0.1,0.2,0.1,0.3l0,0.1l0,0c0,0.1,0,0.1,0,0.2l0,0.2l0,0c0,0.1,0,0.1,0,0.2l0,0.2L92.1,51.5z M91.6,50.7
				L91.6,50.7l0.2,0.1c0,0,0,0,0,0c0,0,0,0,0,0h0.1l0,0l0.1-0.1c0,0,0-0.1,0-0.1l0-0.1l0-0.1c0,0,0,0,0-0.1l-0.2,0.2L91.6,50.7
				l-0.1-0.1L91.6,50.7C91.6,50.7,91.6,50.7,91.6,50.7z"/>
		</g>
		<g>
			<path fill="#FFFFFF" d="M72,48.6C72,48.5,71.9,48.5,72,48.6c-0.1-0.1-0.1,0-0.1,0c0.1,0.5,0.6,0.8,1.3,1.3c0,0,0.1,0,0.1,0
				l0.1-1.1c0,0,0,0,0.1,0l0.4,1c0,0,0.1,0,0.1,0c0.5-0.6,0.9-1.1,0.8-1.7c0,0,0-0.1-0.1,0c0,0,0,0-0.1,0.1c0,0,0,0,0,0
				c0-0.2-0.1-0.7-0.2-1c0,0-0.1,0-0.1,0c0,0,0,0,0,0.1c0,0,0,0,0,0c-0.1-0.2-0.3-0.6-0.4-0.7c0,0-0.1,0-0.1,0c0,0,0,0,0,0
				c0,0,0,0-0.1,0c-0.1-0.2-0.4-0.5-0.6-0.6c0,0-0.1,0-0.1,0c-0.1,0.2-0.3,0.6-0.3,0.8c0,0,0,0-0.1,0c0,0,0,0,0,0c0,0-0.1,0-0.1,0
				c-0.1,0.2-0.2,0.5-0.2,0.8c0,0,0,0,0,0c0,0,0,0-0.1-0.1c0,0-0.1,0-0.1,0C71.9,47.9,72,48.3,72,48.6C72,48.6,72,48.6,72,48.6
				L72,48.6z"/>
			<path fill="#231F20" d="M73.1,50.1L73.1,50.1l-0.4-0.2c-0.5-0.4-1-0.7-1.1-1.2l0-0.1l0.1-0.1c0,0,0,0,0.1-0.1
				c0-0.3-0.1-0.6,0-0.8l0-0.2l0.1,0c0-0.2,0.1-0.5,0.2-0.6l0.1-0.1l0.2,0c0.1-0.2,0.2-0.5,0.3-0.7c0.1-0.1,0.2-0.1,0.3-0.1h0.1
				l0.1,0.1c0.1,0.1,0.3,0.3,0.5,0.5c0,0,0,0,0.1,0h0.1l0.1,0.1c0.1,0.1,0.2,0.3,0.3,0.5l0,0c0.1,0,0.2,0.1,0.2,0.1
				c0.1,0.2,0.2,0.5,0.2,0.8c0.1,0,0.2,0.1,0.2,0.2c0.1,0.6-0.3,1.1-0.7,1.6L73.9,50l-0.2,0c-0.1,0-0.2-0.1-0.3-0.2l0-0.1l0,0.3
				L73.1,50.1z M72.2,48.8c0.1,0.2,0.4,0.4,0.8,0.7l0.1-0.9l0.4,0l0.1,0.2l0.3,0.7c0.3-0.3,0.5-0.6,0.5-0.9h-0.1l0-0.3
				c0-0.3-0.1-0.5-0.1-0.6l-0.2,0l-0.1-0.2c-0.1-0.2-0.1-0.3-0.2-0.5c0,0,0,0-0.1,0h-0.1l-0.1-0.1c-0.1-0.1-0.2-0.3-0.4-0.4
				c-0.1,0.2-0.2,0.4-0.2,0.5l0,0.2l-0.2,0c0,0.2-0.1,0.4-0.1,0.5l0,0.2l-0.2,0c0,0.2,0.1,0.5,0.1,0.6l0,0.1L72.2,48.8z"/>
		</g>
		<g>
			<path fill="#FFFFFF" d="M71.7,44.5C71.7,44.5,71.7,44.4,71.7,44.5c-0.1,0-0.1,0-0.1,0c0,0,0,0,0,0c0-0.2-0.1-0.7-0.2-1
				c0,0-0.1,0-0.1,0c0,0,0,0,0,0.1c0,0,0,0,0,0c-0.1-0.2-0.3-0.6-0.4-0.7c0,0-0.1,0-0.1,0c0,0,0,0,0,0c0,0,0,0-0.1,0
				c-0.1-0.2-0.4-0.5-0.6-0.6c0,0-0.1,0-0.1,0c-0.1,0.2-0.3,0.6-0.3,0.8c0,0,0,0-0.1,0c0,0,0,0,0,0c0,0-0.1,0-0.1,0
				c-0.1,0.2-0.2,0.5-0.2,0.8c0,0,0,0,0,0c0,0,0,0-0.1-0.1c0,0-0.1,0-0.1,0c-0.1,0.3,0,0.8,0.1,1c0,0,0,0,0,0c0,0-0.1,0-0.1,0
				c0,0-0.1,0-0.1,0.1c0.1,0.5,0.6,0.8,1.3,1.3c0,0,0.1,0,0.1,0l0.1-1.1c0,0,0,0,0,0l0.4,1c0,0,0.1,0,0.1,0
				C71.4,45.5,71.8,45,71.7,44.5L71.7,44.5z"/>
			<path fill="#231F20" d="M70.3,46.5L70.3,46.5l-0.4-0.2c-0.5-0.4-1-0.7-1.1-1.3l0-0.1l0.1-0.1c0,0,0,0,0.1-0.1
				c0-0.3-0.1-0.6,0-0.8l0-0.2l0.2,0c0-0.2,0.1-0.5,0.2-0.6l0.1-0.1l0.2,0c0.1-0.2,0.2-0.5,0.3-0.7c0.1-0.1,0.2-0.1,0.3-0.1h0.1
				l0.1,0.1c0.1,0.1,0.3,0.3,0.5,0.5c0,0,0,0,0.1,0h0.1l0.1,0.1c0.1,0.1,0.2,0.3,0.3,0.5l0,0c0.1,0,0.2,0.1,0.2,0.1
				c0.1,0.2,0.2,0.5,0.2,0.8c0.1,0,0.2,0.1,0.2,0.2c0.1,0.6-0.3,1.1-0.7,1.6l-0.2,0.3l-0.2,0c-0.1,0-0.2-0.1-0.3-0.2l0-0.1l0,0.3
				L70.3,46.5z M69.3,45.2c0.1,0.2,0.4,0.4,0.8,0.7l0.1-0.9l0.4,0l0.1,0.2l0.3,0.7c0.3-0.3,0.5-0.6,0.5-0.9h-0.1l0-0.3
				c0-0.2-0.1-0.5-0.1-0.6l-0.2,0l-0.1-0.2c-0.1-0.2-0.1-0.3-0.2-0.5c0,0,0,0-0.1,0h-0.1l-0.1-0.1c-0.1-0.1-0.2-0.3-0.4-0.4
				c-0.1,0.2-0.2,0.4-0.2,0.5l0,0.2l-0.2,0c0,0.2-0.1,0.4-0.1,0.5l0,0.2l-0.2,0c0,0.2,0,0.4,0.1,0.6l0,0.1L69.3,45.2z"/>
		</g>
		<g>
			<path fill="#FFFFFF" d="M93.2,54.4C93.2,54.4,93.3,54.4,93.2,54.4C93.3,54.4,93.3,54.4,93.2,54.4c-0.1-0.3-0.5-0.4-0.9-0.5
				c0,0,0,0,0,0l0.2,0.6c0,0,0,0,0,0L92,54.1c0,0,0,0,0,0c-0.1,0.5-0.3,0.9-0.1,1.1c0,0,0,0,0,0c0,0,0,0,0-0.1c0,0,0,0,0,0
				c0.1,0.1,0.2,0.4,0.3,0.5c0,0,0,0,0,0c0,0,0,0,0-0.1c0,0,0,0,0,0c0.1,0.1,0.3,0.3,0.4,0.3c0,0,0,0,0,0c0,0,0,0,0,0c0,0,0,0,0,0
				c0.1,0.1,0.3,0.2,0.5,0.2c0,0,0.1,0,0.1,0c0-0.1,0-0.4,0-0.5c0,0,0,0,0,0c0,0,0,0,0,0c0,0,0,0,0,0c0-0.1,0-0.3-0.1-0.5
				c0,0,0,0,0,0c0,0,0,0,0,0c0,0,0,0,0,0C93.4,54.8,93.3,54.6,93.2,54.4C93.2,54.4,93.2,54.4,93.2,54.4L93.2,54.4z"/>
			<path fill="#231F20" d="M93.2,56.4L93.2,56.4c-0.2,0-0.3-0.1-0.4-0.2c0,0-0.1,0-0.1,0l-0.1,0c-0.1,0-0.2-0.1-0.3-0.2l-0.1,0
				l-0.1-0.1c-0.1-0.1-0.2-0.2-0.3-0.4h-0.1l-0.1-0.1c-0.2-0.4-0.1-0.8,0.1-1.2l0.1-0.3l0.3,0l0.1-0.2l0.2,0l0.2,0.1
				c0.4,0.1,0.8,0.2,1,0.5l0.1,0.1l-0.1,0.1c0.1,0.1,0.1,0.3,0.2,0.5l0,0.1l-0.1,0.1c0,0.1,0,0.3,0,0.4l0,0.2l-0.1,0
				c0,0.1,0,0.3,0,0.4l-0.1,0.2L93.2,56.4z M92.7,55.6L92.7,55.6l0.2,0.1c0,0,0.1,0.1,0.1,0.1c0-0.1,0-0.2,0-0.2l0-0.1l0.1-0.1
				c0-0.1,0-0.2-0.1-0.2l0-0.1l0.1-0.1c0-0.1-0.1-0.2-0.1-0.3l-0.1-0.1l0-0.1c-0.1,0-0.2-0.1-0.3-0.1l0.1,0.4l-0.2,0.2l-0.2,0
				l-0.1-0.1l-0.2-0.2c0,0.1-0.1,0.3-0.1,0.4h0.1l0.1,0.2c0.1,0.1,0.1,0.2,0.1,0.3l0,0h0.1l0.1,0.1C92.5,55.6,92.6,55.6,92.7,55.6
				L92.7,55.6z"/>
		</g>
		<g>
			<path fill="#FFFFFF" d="M95.3,47.5C95.3,47.5,95.3,47.4,95.3,47.5C95.3,47.4,95.3,47.4,95.3,47.5c0-0.1,0-0.1,0-0.1
				c-0.1-0.1-0.3-0.2-0.4-0.2c0,0,0,0,0,0c0,0,0,0,0,0c0,0,0,0,0,0C94.8,47,94.5,47,94.4,47c0,0,0,0,0,0c0,0,0,0,0,0c0,0,0,0,0,0
				c-0.3,0-0.6,0.3-0.9,0.7c0,0,0,0,0,0l0.6,0.2c0,0,0,0,0,0l-0.6,0.1c0,0,0,0,0,0c0.3,0.4,0.5,0.7,0.9,0.7c0,0,0,0,0,0
				c0,0,0,0,0-0.1c0,0,0,0,0,0c0.1,0,0.4,0,0.6,0c0,0,0,0,0,0c0,0,0,0,0,0c0,0,0,0,0,0c0.2,0,0.4-0.1,0.5-0.2c0,0,0,0,0-0.1
				c0,0,0,0,0,0c0,0,0,0,0,0c0.1-0.1,0.4-0.2,0.4-0.3c0,0,0-0.1,0-0.1C95.7,47.7,95.4,47.5,95.3,47.5L95.3,47.5z"/>
			<path fill="#231F20" d="M94.3,48.9L94.3,48.9c-0.4,0-0.7-0.3-0.9-0.7L93.2,48l0.1-0.3l-0.1-0.3l0.2-0.3c0.3-0.3,0.5-0.6,0.9-0.6
				h0.2l0.1,0.1c0.2,0,0.3,0,0.5,0.1l0.1,0.1l0,0.1c0.1,0,0.2,0.1,0.3,0.2l0.1,0.1l0,0.1c0.1,0.1,0.3,0.2,0.3,0.3
				c0.1,0.1,0.1,0.3,0,0.4c-0.1,0.1-0.2,0.2-0.3,0.2l0,0.1l-0.1,0.1c-0.1,0.1-0.2,0.1-0.3,0.1l0,0.1L95,48.8c-0.1,0-0.3,0.1-0.5,0.1
				l-0.1,0.1L94.3,48.9z M93.9,48.1c0.1,0.1,0.2,0.2,0.3,0.3l0,0l0.2,0c0.1,0,0.2,0,0.3,0l0-0.1l0.2,0c0.1,0,0.2,0,0.2-0.1l0-0.1
				l0.1-0.1c0,0,0.1-0.1,0.2-0.1c-0.1,0-0.1-0.1-0.2-0.1l-0.1-0.1l0-0.1c-0.1,0-0.1-0.1-0.2-0.1l-0.2,0l0-0.1c0,0-0.1,0-0.2,0
				l-0.3,0l0-0.1c-0.1,0.1-0.2,0.1-0.3,0.2l0.4,0.1l0,0.2l0,0.2L94.2,48L93.9,48.1z"/>
		</g>
		<g>
			<path fill="#FFFFFF" d="M85.7,55.7l-0.4-0.5c0,0,0,0,0,0c-0.1,0.5-0.3,0.9-0.1,1.1c0,0,0,0,0,0c0,0,0,0,0-0.1c0,0,0,0,0,0
				c0.1,0.1,0.2,0.4,0.3,0.5c0,0,0,0,0,0c0,0,0,0,0-0.1c0,0,0,0,0,0c0.1,0.1,0.3,0.3,0.4,0.3c0,0,0,0,0,0c0,0,0,0,0,0c0,0,0,0,0,0
				c0.1,0.1,0.3,0.2,0.5,0.2c0,0,0.1,0,0.1,0c0-0.1,0-0.4,0-0.5c0,0,0,0,0,0c0,0,0,0,0,0c0,0,0,0,0,0c0-0.1,0-0.3-0.1-0.5
				c0,0,0,0,0,0c0,0,0,0,0,0c0,0,0,0,0,0c0-0.2-0.2-0.4-0.2-0.6c0,0,0,0,0,0c0,0,0,0,0.1,0c0,0,0,0,0,0c-0.2-0.3-0.5-0.3-1-0.5
				c0,0,0,0,0,0L85.7,55.7C85.7,55.7,85.7,55.7,85.7,55.7L85.7,55.7z"/>
			<path fill="#231F20" d="M86.5,57.5L86.5,57.5c-0.2,0-0.3-0.1-0.4-0.2c0,0-0.1,0-0.1,0l-0.1,0c-0.1,0-0.2-0.1-0.3-0.2l-0.1,0
				L85.4,57c-0.1-0.1-0.2-0.2-0.3-0.4H85l-0.1-0.2c-0.2-0.3-0.1-0.7,0.1-1.2L85,55l0.3,0l0.1-0.2l0.2,0l0.2,0.1
				c0.4,0.1,0.8,0.2,1,0.5l0.1,0.1l-0.1,0.1c0.1,0.1,0.1,0.3,0.2,0.5l0,0.1l-0.1,0.1c0,0.1,0,0.3,0,0.4l0,0.2l-0.1,0
				c0,0.1,0,0.3,0,0.4l0,0.2L86.5,57.5z M86,56.7L86,56.7l0.2,0.1c0,0,0.1,0.1,0.1,0.1c0-0.1,0-0.2,0-0.2l0-0.1l0.1-0.1
				c0-0.1,0-0.2-0.1-0.2l0-0.1l0.1-0.1c0-0.1-0.1-0.2-0.1-0.3l-0.1-0.1l0-0.1c-0.1,0-0.2-0.1-0.3-0.1l0.1,0.4L85.8,56l-0.2,0
				l-0.1-0.1l-0.2-0.2c0,0.1-0.1,0.3-0.1,0.4h0.1l0.1,0.2c0,0.1,0.1,0.2,0.1,0.3l0,0h0.1l0.1,0.1C85.8,56.7,85.9,56.7,86,56.7
				L86,56.7z"/>
		</g>
		<g>
			<path fill="#FFFFFF" d="M91.8,61.6C91.8,61.6,91.9,61.6,91.8,61.6C91.9,61.6,91.9,61.6,91.8,61.6c0-0.2-0.2-0.3-0.3-0.4
				c0,0,0,0,0,0c0,0,0,0,0.1,0c0,0,0,0,0,0c-0.1-0.1-0.4-0.3-0.5-0.3c0,0,0,0,0,0c0,0,0,0,0.1,0c0,0,0,0,0,0c-0.3-0.1-0.6,0-1.1,0.2
				c0,0,0,0,0,0l0.5,0.4c0,0,0,0,0,0L90,61.2c0,0,0,0,0,0c0.1,0.5,0.2,0.9,0.5,1c0,0,0,0,0,0c0,0,0,0,0-0.1c0,0,0,0,0,0
				c0.1,0.1,0.4,0.2,0.5,0.2c0,0,0,0,0,0c0,0,0,0,0,0c0,0,0,0,0,0c0.1,0,0.4,0.1,0.5,0c0,0,0,0,0-0.1c0,0,0,0,0,0c0,0,0,0,0,0
				c0.1,0,0.4,0,0.5-0.1c0,0,0,0,0-0.1C92.1,62,91.9,61.7,91.8,61.6C91.8,61.6,91.8,61.6,91.8,61.6L91.8,61.6z"/>
			<path fill="#231F20" d="M91,62.7L91,62.7c-0.1,0-0.3,0-0.4-0.1l0,0l-0.2,0l-0.1,0c-0.4-0.2-0.5-0.6-0.6-1l-0.1-0.3l0.2-0.2
				l0.1-0.3l0.3-0.1c0.4-0.2,0.8-0.3,1.1-0.1l0.1,0.1l0,0.1c0.2,0.1,0.3,0.2,0.4,0.3l0.1,0.1l0,0.1c0.1,0.1,0.2,0.2,0.2,0.3l0.1,0.1
				l0,0.1c0.1,0.1,0.2,0.3,0.2,0.4c0,0.1,0,0.3-0.2,0.4c-0.1,0-0.3,0.1-0.4,0.1l0,0.1l-0.1,0c-0.1,0-0.2,0-0.3,0l0,0.1L91,62.7z
				 M90.5,61.9L90.5,61.9l0.1,0c0.1,0.1,0.2,0.1,0.2,0.1l0-0.1l0.2,0l0,0c0.1,0,0.1,0,0.2,0l0.1-0.1l0.2,0l0,0c0.1,0,0.1,0,0.2,0
				c0-0.1-0.1-0.1-0.1-0.2l-0.1-0.1l0-0.1c0-0.1-0.1-0.1-0.2-0.2l-0.1-0.1l0-0.1c-0.1,0-0.1-0.1-0.3-0.1L90.9,61l0-0.1
				c-0.1,0-0.2,0.1-0.3,0.1l0.4,0.3l-0.1,0.3l-0.2,0l-0.3-0.1C90.3,61.7,90.4,61.9,90.5,61.9L90.5,61.9z"/>
		</g>
		<g>
			<path fill="#FFFFFF" d="M79.8,53.5C79.8,53.5,79.8,53.5,79.8,53.5c-0.1-0.5-0.1-0.9-0.4-1.1c0,0,0,0,0,0c0,0,0,0,0,0.1
				c0,0,0,0,0,0c-0.1-0.1-0.3-0.2-0.5-0.3c0,0,0,0,0,0c0,0,0,0,0,0.1c0,0,0,0,0,0c-0.1-0.1-0.4-0.1-0.5-0.1c0,0,0,0,0,0c0,0,0,0,0,0
				c0,0,0,0,0,0c-0.1,0-0.4,0-0.5,0c0,0,0,0,0,0.1c0,0.1,0.2,0.4,0.2,0.5c0,0,0,0,0,0c0,0,0,0,0,0c0,0,0,0,0,0
				c0,0.1,0.2,0.3,0.3,0.4c0,0,0,0,0,0c0,0,0,0-0.1,0c0,0,0,0,0,0c0.1,0.2,0.4,0.3,0.5,0.3c0,0,0,0,0,0c0,0,0,0-0.1,0c0,0,0,0,0,0
				c0.3,0.2,0.6,0,1.1-0.1c0,0,0,0,0,0l-0.5-0.4c0,0,0,0,0,0L79.8,53.5z"/>
			<path fill="#231F20" d="M78.8,54.3c-0.2,0-0.3,0-0.4-0.1l-0.1-0.1l0-0.1c-0.1-0.1-0.3-0.2-0.4-0.3l-0.1-0.1l0-0.1
				c-0.1-0.1-0.2-0.2-0.2-0.3l-0.1-0.1l0-0.1c-0.1-0.1-0.1-0.3-0.2-0.4c0-0.2,0.1-0.3,0.2-0.4c0.1,0,0.3,0,0.4,0l0-0.1l0.2,0
				c0.1,0,0.2,0,0.3,0l0-0.1l0.2,0c0.1,0,0.3,0.1,0.5,0.2l0.2,0l0.1,0c0.3,0.2,0.4,0.6,0.5,1l0.1,0.3l-0.2,0.2L79.9,54l-0.3,0.1
				C79.3,54.2,79,54.3,78.8,54.3z M78.5,53.5c0.1,0,0.1,0.1,0.3,0.1l0.1,0.1l0,0.1c0.1,0,0.2,0,0.4-0.1l-0.3-0.3l0.1-0.3l0.2,0
				l0.3,0.1c0-0.1-0.1-0.3-0.1-0.4l-0.1,0l-0.1,0c-0.1-0.1-0.2-0.1-0.2-0.1l0,0l-0.2,0l-0.1,0c-0.1,0-0.1,0-0.2,0l-0.1,0.1l-0.2,0
				c-0.1,0-0.2,0-0.2,0c0,0.1,0.1,0.1,0.1,0.2l0.1,0.1l-0.1,0.1c0,0.1,0.1,0.1,0.2,0.2l0.1,0.1L78.5,53.5z"/>
		</g>
		<g>
			<path fill="#FFFFFF" d="M84.6,48.6C84.6,48.6,84.6,48.6,84.6,48.6c0-0.5,0-0.9-0.2-1.1c0,0,0,0,0,0c0,0,0,0,0,0.1c0,0,0,0,0,0
				c-0.1-0.1-0.3-0.3-0.5-0.4c0,0,0,0,0,0c0,0,0,0,0,0.1c0,0,0,0,0,0c-0.1-0.1-0.3-0.2-0.5-0.2c0,0,0,0,0,0c0,0,0,0,0,0c0,0,0,0,0,0
				c-0.1,0-0.4-0.1-0.5-0.1c0,0,0,0,0,0.1c0,0.1,0.1,0.4,0.1,0.5c0,0,0,0,0,0c0,0,0,0,0,0c0,0,0,0,0,0c0,0.1,0.1,0.3,0.2,0.4
				c0,0,0,0,0,0c0,0,0,0-0.1,0c0,0,0,0,0,0c0.1,0.2,0.3,0.4,0.4,0.4c0,0,0,0,0,0c0,0,0,0-0.1,0c0,0,0,0,0,0c0.2,0.2,0.6,0.1,1.1,0.1
				c0,0,0,0,0,0L84,48.4c0,0,0,0,0,0L84.6,48.6z"/>
			<path fill="#231F20" d="M83.7,49.3c-0.2,0-0.4,0-0.6-0.2L83,49l0-0.1c-0.1-0.1-0.2-0.2-0.3-0.4l-0.1-0.1l0-0.1
				c-0.1-0.1-0.1-0.2-0.1-0.3l0-0.1l0.1-0.1c0-0.1-0.1-0.3-0.1-0.4c0-0.2,0.1-0.3,0.3-0.3c0,0,0,0,0,0c0.1,0,0.3,0,0.4,0l0-0.1
				l0.1,0c0.1,0,0.2,0,0.3,0.1l0,0l0.2,0l0.1,0c0.1,0,0.3,0.1,0.4,0.2l0.2,0l0.1,0.1c0.3,0.2,0.3,0.6,0.3,1.1l0,0.3l-0.2,0.2l-0.1,0
				l-0.1,0.3l-0.3,0.1C84,49.2,83.9,49.3,83.7,49.3z M83.6,48.8c0.1,0,0.2,0,0.4,0l-0.3-0.4l0.2-0.3l0.2,0l0.1,0l0.3,0.1
				c0-0.2,0-0.3,0-0.4h-0.1l-0.1-0.1c-0.1-0.1-0.1-0.1-0.2-0.2l-0.2,0l-0.1,0c-0.1,0-0.1-0.1-0.2-0.1l0,0.1l-0.2,0l0,0
				c0,0-0.1,0-0.2,0c0,0.1,0,0.2,0.1,0.2l0.1,0.1l-0.1,0.1c0,0.1,0.1,0.2,0.1,0.2l0.1,0.1l0,0.1c0.1,0.1,0.1,0.1,0.2,0.2L83.6,48.8
				L83.6,48.8z"/>
		</g>
		<g>
			<path fill="#FFFFFF" d="M68.3,58.5l-0.5,0.4c0,0,0,0,0,0l0.3-0.6c0,0,0,0,0,0c-0.5,0-0.8,0-1.1,0.2c0,0,0,0,0,0c0,0,0,0,0.1,0
				c0,0,0,0,0,0c-0.1,0.1-0.3,0.3-0.3,0.5c0,0,0,0,0,0c0,0,0,0,0.1,0c0,0,0,0,0,0c-0.1,0.1-0.2,0.4-0.2,0.5c0,0,0,0,0,0c0,0,0,0,0,0
				c0,0,0,0,0,0c0,0.1-0.1,0.4-0.1,0.5c0,0,0,0,0.1,0c0.1,0,0.4-0.1,0.5-0.1c0,0,0,0,0,0c0,0,0,0,0,0c0,0,0,0,0,0
				c0.1,0,0.3-0.1,0.4-0.2c0,0,0,0,0,0c0,0,0,0,0,0.1c0,0,0,0,0,0c0.2-0.1,0.3-0.3,0.4-0.4c0,0,0,0,0,0c0,0,0,0,0,0.1c0,0,0,0,0,0
				C68.5,59.4,68.4,59,68.3,58.5C68.4,58.5,68.4,58.5,68.3,58.5L68.3,58.5z"/>
			<path fill="#231F20" d="M66.8,60.5c-0.2,0-0.3-0.1-0.3-0.3c0-0.1,0-0.3,0-0.4l-0.1-0.1l0-0.1c0-0.1,0-0.2,0.1-0.4l-0.1-0.1l0-0.1
				c0-0.1,0.1-0.3,0.2-0.4l0-0.1l0.1-0.1c0.3-0.3,0.6-0.3,1-0.3l0.3,0l0.2,0.2l0,0h0.2l0.1,0.4c0.1,0.4,0.1,0.9-0.2,1.2l-0.1,0.1
				l-0.1,0c-0.1,0.1-0.2,0.2-0.4,0.3l-0.1,0l-0.2,0l0,0c-0.1,0.1-0.2,0.1-0.3,0.1l-0.2,0l0,0C67,60.4,66.9,60.5,66.8,60.5L66.8,60.5
				z M67,59.5L67,59.5L67,59.5l0.1,0.2c0,0.1,0,0.1,0,0.2c0.1,0,0.1,0,0.2-0.1l0.1,0h0.1l0,0c0.1,0,0.1-0.1,0.2-0.1l0.1-0.1l0.2,0
				c0-0.1,0.1-0.1,0.2-0.2l0.1-0.1l0.1,0c0-0.1,0-0.2,0-0.4l-0.3,0.2l-0.2,0l-0.2-0.2l0-0.1l0.1-0.3c-0.1,0-0.3,0-0.3,0l0,0.1
				l-0.1,0.1c-0.1,0.1-0.1,0.2-0.2,0.2l0.1,0.1l-0.1,0.1C67,59.3,67,59.4,67,59.5z"/>
		</g>
		<g>
			<path fill="#FFFFFF" d="M69.2,51C69.2,50.9,69.2,50.9,69.2,51C69.1,50.9,69.1,50.9,69.2,51C69.1,50.9,69.1,50.9,69.2,51
				c0-0.2,0.1-0.5,0.2-0.6c0,0,0-0.1,0-0.1c-0.1,0-0.4,0-0.5,0c0,0,0,0,0,0c0,0,0,0,0,0c0,0,0,0,0,0c-0.1,0-0.3,0-0.5,0.1
				c0,0,0,0,0,0c0,0,0,0,0-0.1c0,0,0,0,0,0c-0.2,0-0.4,0.2-0.5,0.3c0,0,0,0,0,0c0,0,0,0,0-0.1c0,0,0,0,0,0c-0.3,0.2-0.3,0.6-0.4,1
				c0,0,0,0,0,0l0.6-0.2c0,0,0,0,0,0l-0.5,0.4c0,0,0,0,0,0c0.5,0.1,0.8,0.3,1.1,0.1c0,0,0,0,0,0c0,0,0,0-0.1,0c0,0,0,0,0,0
				c0.1-0.1,0.4-0.2,0.5-0.3c0,0,0,0,0,0c0,0,0,0-0.1,0c0,0,0,0,0,0C69,51.2,69.1,51.1,69.2,51L69.2,51z"/>
			<path fill="#231F20" d="M68.3,52.2L68.3,52.2c-0.2,0-0.5-0.1-0.7-0.2l-0.3-0.1l-0.1-0.3l0,0h0L67,51.4l0.1-0.4
				c0.1-0.4,0.2-0.8,0.5-1l0.1,0l0.2,0c0.1-0.1,0.3-0.1,0.4-0.1h0.1l0.1,0.1c0.1,0,0.2,0,0.3,0l0.1,0c0.1,0,0.1,0,0.2,0.1
				c0.1,0,0.3,0,0.4,0c0.1,0,0.2,0.2,0.2,0.4c0,0.1-0.1,0.3-0.2,0.4l0,0.1l-0.1,0.2c0,0.1-0.1,0.2-0.2,0.3l0,0.1l-0.1,0.1
				c-0.1,0.1-0.2,0.2-0.4,0.3l0,0.1l-0.1,0.1C68.5,52.2,68.4,52.2,68.3,52.2z M67.9,51.6c0.1,0,0.2,0.1,0.3,0.1l0-0.1l0.2-0.1
				c0,0,0.2-0.1,0.3-0.1l0-0.1l0.1-0.1c0.1,0,0.1-0.1,0.2-0.2l-0.1-0.1l0.1-0.1c0,0,0.1-0.1,0.1-0.2c-0.1,0-0.1,0-0.2,0l-0.2,0
				l-0.1-0.1c-0.1,0-0.2,0-0.2,0l-0.1,0h-0.1l0,0c-0.1,0-0.1,0.1-0.2,0.1l-0.1,0l-0.1,0c0,0.1-0.1,0.2-0.1,0.4l0.3-0.1H68l0.2,0.3
				l-0.1,0.1L67.9,51.6z"/>
		</g>
		<g>
			<path fill="#FFFFFF" d="M67.6,47.5l0.6-0.2c0,0,0,0,0,0l-0.5,0.4c0,0,0,0,0,0c0.5,0.1,0.8,0.3,1.1,0.1c0,0,0,0,0,0c0,0,0,0-0.1,0
				c0,0,0,0,0,0c0.1-0.1,0.4-0.2,0.5-0.3c0,0,0,0,0,0c0,0,0,0-0.1,0c0,0,0,0,0,0c0.1-0.1,0.3-0.3,0.3-0.4c0,0,0,0,0,0c0,0,0,0,0,0
				c0,0,0,0,0,0c0.1-0.1,0.2-0.4,0.2-0.5c0,0,0-0.1,0-0.1c-0.1,0-0.4,0-0.5,0c0,0,0,0,0,0c0,0,0,0,0,0c0,0,0,0,0,0
				c-0.1,0-0.3,0-0.5,0.1c0,0,0,0,0,0c0,0,0,0,0-0.1c0,0,0,0,0,0c-0.2,0-0.4,0.2-0.5,0.3c0,0,0,0,0,0c0,0,0,0,0-0.1c0,0,0,0,0,0
				C67.7,46.6,67.7,47,67.6,47.5C67.6,47.5,67.6,47.5,67.6,47.5L67.6,47.5z"/>
			<path fill="#231F20" d="M68.6,48.3c-0.2,0-0.5-0.1-0.7-0.2L67.6,48l-0.1-0.3l0,0h0l-0.2-0.2l0-0.1l0-0.2c0.1-0.4,0.2-0.8,0.5-1
				l0.1,0l0.2,0c0.1-0.1,0.3-0.1,0.4-0.1h0.1l0.1,0.1c0.1,0,0.2,0,0.3,0l0.1,0c0.1,0,0.1,0,0.2,0.1c0.1,0,0.3,0,0.4,0
				c0.2,0,0.2,0.2,0.2,0.4c0,0.1-0.1,0.3-0.2,0.4l0,0.1l0,0.2c0,0.1-0.1,0.2-0.2,0.3l0,0.1l-0.1,0.1c-0.1,0.1-0.2,0.2-0.4,0.3l0,0.1
				L69,48.2C68.9,48.3,68.7,48.3,68.6,48.3z M68.2,47.7c0.1,0,0.2,0.1,0.3,0.1l0-0.1l0.2-0.1c0.1-0.1,0.2-0.1,0.2-0.1l0-0.1l0.1-0.1
				c0.1,0,0.1-0.1,0.2-0.2L69.1,47l0.1-0.1c0,0,0.1-0.1,0.1-0.2c-0.1,0-0.1,0-0.2,0l-0.2,0l-0.1-0.1c-0.1,0-0.2,0-0.2,0l-0.1,0h-0.1
				l0,0c-0.1,0-0.2,0.1-0.2,0.1l-0.1,0l-0.1,0c0,0.1-0.1,0.2-0.1,0.4l0.3-0.1h0.2l0.2,0.3l-0.1,0.1L68.2,47.7z"/>
		</g>
		<g>
			<path fill="#FFFFFF" d="M84.2,60.7C84.2,60.8,84.2,60.8,84.2,60.7C84.2,60.7,84.2,60.7,84.2,60.7c0.1,0,0.1,0,0.1,0
				c-0.1,0.2-0.1,0.4-0.1,0.5c0,0,0,0,0,0c0,0,0,0,0,0c0,0,0,0,0,0c0,0.1,0,0.4,0,0.5c0,0,0,0,0.1,0c0.1,0,0.4-0.2,0.5-0.2
				c0,0,0,0,0,0c0,0,0,0,0,0c0,0,0,0,0,0c0.1-0.1,0.3-0.2,0.4-0.3c0,0,0,0,0,0c0,0,0,0,0,0.1c0,0,0,0,0,0c0.1-0.1,0.3-0.4,0.3-0.5
				c0,0,0,0,0,0c0,0,0,0,0,0.1c0,0,0,0,0,0c0.2-0.3,0-0.7-0.1-1.1c0,0,0,0,0,0l-0.4,0.5c0,0,0,0,0,0l0.2-0.6c0,0,0,0,0,0
				c-0.4,0.1-0.8,0.2-1,0.5c0,0,0,0,0,0c0,0,0,0,0.1,0c0,0,0,0,0,0C84.3,60.3,84.2,60.5,84.2,60.7L84.2,60.7z"/>
			<path fill="#231F20" d="M84.4,62.1h-0.2l-0.1-0.2c0-0.1,0-0.2,0-0.4h0L84,61.3c0-0.1,0-0.2,0-0.4l-0.1-0.1l0-0.1
				c0-0.2,0.1-0.3,0.2-0.5L84,60.2l0.1-0.2c0.2-0.4,0.6-0.4,1-0.5l0.4-0.1l0.2,0.2l0,0l0.2,0L86,60c0.1,0.4,0.3,0.8,0.1,1.2L86,61.3
				l-0.1,0c-0.1,0.1-0.2,0.3-0.3,0.4l-0.1,0.1l-0.1,0c-0.1,0.1-0.2,0.2-0.3,0.2l-0.1,0h-0.1C84.7,62,84.5,62.1,84.4,62.1L84.4,62.1z
				 M84.5,61.1l0.1,0.1l0,0.1c0,0.1,0,0.1,0,0.2c0.1,0,0.1-0.1,0.2-0.1l0.1,0l0.2,0c0.1,0,0.1-0.1,0.1-0.1l0.1-0.1l0.2,0
				c0-0.1,0.1-0.1,0.1-0.3l0.1-0.1l0.1,0c0-0.1,0-0.2-0.1-0.4l-0.2,0.3l-0.2,0l-0.2-0.2l0-0.1L85,60c-0.1,0-0.2,0.1-0.3,0.1l0,0.1
				l-0.1,0.1c0,0.1-0.1,0.2-0.1,0.3l0.1,0.1l-0.1,0.1C84.5,60.9,84.5,61,84.5,61.1z"/>
		</g>
		<g>
			<path fill="#FFFFFF" d="M65.6,50.5l0.5,0.4c0,0,0,0,0,0c0-0.5,0.1-0.9-0.1-1.2c0,0,0,0,0,0c0,0,0,0,0,0.1c0,0,0,0,0,0
				c-0.1-0.1-0.3-0.3-0.4-0.4c0,0,0,0,0,0c0,0,0,0,0,0.1c0,0,0,0,0,0c-0.1-0.1-0.3-0.2-0.4-0.2c0,0,0,0,0,0c0,0,0,0,0,0c0,0,0,0,0,0
				c-0.1,0-0.4-0.1-0.5-0.1c0,0,0,0,0,0c0,0.1,0,0.4,0.1,0.5c0,0,0,0,0,0c0,0,0,0,0,0c0,0,0,0,0,0c0,0.1,0.1,0.3,0.2,0.5
				c0,0,0,0,0,0c0,0,0,0-0.1,0c0,0,0,0,0,0c0.1,0.2,0.3,0.4,0.4,0.5c0,0,0,0,0,0c0,0,0,0-0.1,0c0,0,0,0,0,0c0.2,0.2,0.6,0.2,1.1,0.2
				c0,0,0,0,0,0L65.6,50.5C65.6,50.5,65.6,50.5,65.6,50.5L65.6,50.5z"/>
			<path fill="#231F20" d="M65.5,51.4c-0.3,0-0.6,0-0.9-0.3L64.6,51l0-0.1c-0.1-0.1-0.2-0.3-0.3-0.4l0-0.1l0.1-0.1
				c-0.1-0.1-0.1-0.3-0.1-0.4l0-0.1l0.1-0.1c0-0.1-0.1-0.3-0.1-0.4c0-0.2,0.1-0.3,0.3-0.3c0.1,0,0.3,0,0.4,0.1l0,0l0.1,0
				c0.1,0,0.2,0.1,0.4,0.1l0,0l0.2,0l0.1,0c0.1,0.1,0.3,0.2,0.4,0.3l0.1,0l0.1,0.1c0.3,0.3,0.2,0.7,0.2,1.2l0,0.4l-0.2,0l-0.2,0.3
				L65.5,51.4z M65.2,50.8c0.1,0,0.2,0,0.3,0h0l-0.2-0.4l0.1-0.3l0.2,0l0.1,0l0.2,0.2c0-0.2,0-0.3,0-0.4h-0.1l-0.1-0.1
				c0,0-0.1-0.1-0.2-0.2l-0.2,0l-0.1-0.1c-0.1,0-0.1-0.1-0.2-0.1l0,0l-0.2,0l-0.1,0c0,0-0.1,0-0.2-0.1c0,0.1,0,0.2,0,0.2l0,0.1
				l-0.1,0.1c0,0.1,0.1,0.2,0.1,0.2l0.1,0.1l-0.1,0.1c0,0.1,0.1,0.1,0.2,0.2L65.2,50.8L65.2,50.8z"/>
		</g>
		<g>
			<path fill="#FFFFFF" d="M63.8,54.7c-0.1,0-0.4-0.1-0.5-0.1c0,0,0,0,0,0c0,0.1,0,0.4,0.1,0.5c0,0,0,0,0,0c0,0,0,0,0,0c0,0,0,0,0,0
				c0,0.1,0.1,0.3,0.2,0.5c0,0,0,0,0,0c0,0,0,0-0.1,0c0,0,0,0,0,0c0.1,0.2,0.3,0.4,0.4,0.5c0,0,0,0,0,0c0,0,0,0-0.1,0c0,0,0,0,0,0
				c0.2,0.2,0.6,0.2,1.1,0.2c0,0,0,0,0,0l-0.3-0.6c0,0,0,0,0,0l0.5,0.4c0,0,0,0,0,0c0-0.5,0.1-0.9-0.1-1.2c0,0,0,0,0,0
				c0,0,0,0,0,0.1c0,0,0,0,0,0c-0.1-0.1-0.3-0.3-0.4-0.4c0,0,0,0,0,0c0,0,0,0,0,0.1c0,0,0,0,0,0C64.2,54.8,64,54.7,63.8,54.7
				C63.8,54.6,63.8,54.7,63.8,54.7C63.8,54.7,63.8,54.7,63.8,54.7C63.8,54.7,63.8,54.7,63.8,54.7L63.8,54.7z"/>
			<path fill="#231F20" d="M64.3,56.8c-0.3,0-0.6,0-0.9-0.3l-0.1-0.1l0-0.1c-0.1-0.1-0.2-0.3-0.3-0.4l0-0.1l0.1-0.1
				c-0.1-0.1-0.1-0.3-0.1-0.4l0-0.1l0.1-0.1c0-0.1-0.1-0.3-0.1-0.4c0-0.2,0.1-0.3,0.3-0.3c0.1,0,0.3,0,0.4,0.1l0,0l0.1,0
				c0.1,0,0.2,0.1,0.4,0.1l0,0l0.2,0l0.1,0c0.1,0.1,0.2,0.2,0.4,0.3l0.1,0l0.1,0.1c0.3,0.3,0.2,0.7,0.2,1.1l0,0.4l-0.2,0l-0.2,0.3
				L64.3,56.8z M64,56.2c0.1,0,0.2,0,0.3,0l0,0l-0.2-0.4l0.2-0.3l0.2,0l0.1,0l0.2,0.2c0-0.2,0-0.3,0-0.4h-0.1l-0.1-0.1
				c-0.1-0.1-0.1-0.2-0.2-0.2l-0.2,0l-0.1-0.1C64.1,55,64,55,64,54.9l0,0l-0.2,0l-0.1,0c0,0-0.1,0-0.2-0.1c0,0.1,0,0.2,0,0.2l0,0.1
				l-0.1,0.1c0,0.1,0.1,0.2,0.1,0.2l0.1,0.1l-0.1,0.1c0,0.1,0.1,0.1,0.2,0.2L64,56.2L64,56.2z"/>
		</g>
		<g>
			<path fill="#FFFFFF" d="M64,58.4C64,58.4,64,58.3,64,58.4l-0.6-0.2c0,0,0,0,0,0L64,58c0,0,0,0,0,0c-0.3-0.4-0.5-0.7-0.9-0.7
				c0,0,0,0,0,0c0,0,0,0,0,0.1c0,0,0,0,0,0c-0.1,0-0.4,0-0.6,0c0,0,0,0,0,0c0,0,0,0,0,0c0,0,0,0,0,0c-0.2,0-0.4,0.1-0.5,0.2
				c0,0,0,0,0,0.1c0,0,0,0,0,0c0,0,0,0,0,0c-0.1,0.1-0.4,0.2-0.4,0.3c0,0,0,0.1,0,0.1c0.1,0.1,0.3,0.2,0.4,0.3c0,0,0,0,0,0
				c0,0,0,0,0,0c0,0,0,0,0,0.1c0.1,0.1,0.3,0.2,0.4,0.2c0,0,0,0,0,0c0,0,0,0,0,0c0,0,0,0,0,0c0.2,0.1,0.5,0.1,0.6,0.1c0,0,0,0,0,0
				c0,0,0,0,0,0c0,0,0,0,0,0C63.4,59.1,63.6,58.7,64,58.4L64,58.4z"/>
			<path fill="#231F20" d="M63.1,59.3l-0.2,0l-0.1-0.1c-0.2,0-0.3,0-0.5-0.1L62.3,59l0-0.1c-0.1,0-0.2-0.1-0.3-0.2l-0.1-0.1l0-0.1
				c-0.1-0.1-0.3-0.2-0.3-0.3c-0.1-0.1-0.1-0.3,0-0.4c0.1-0.1,0.2-0.2,0.3-0.2l0-0.1l0.1-0.1c0.1-0.1,0.2-0.1,0.3-0.2l0-0.1l0.1-0.1
				c0.1-0.1,0.3-0.1,0.5-0.1L63,57l0.2,0c0.4,0,0.7,0.3,0.9,0.7l0.2,0.2l-0.1,0.3l0.1,0.3L64,58.7C63.7,59,63.5,59.3,63.1,59.3z
				 M63.2,58.7L63.2,58.7c0.1,0,0.2-0.1,0.3-0.2l-0.4-0.1l0-0.2l0-0.2l0.2-0.1l0.3-0.1c-0.1-0.1-0.2-0.2-0.3-0.3l0,0l-0.2,0
				c-0.1,0-0.2,0-0.3,0l0,0.1l-0.2,0c-0.1,0-0.1,0-0.2,0.1l0,0.1L62.2,58c0,0-0.1,0.1-0.2,0.1c0.1,0,0.1,0.1,0.2,0.1l0.1,0.1l0,0.1
				c0.1,0,0.1,0.1,0.2,0.1l0.2,0l0,0.1c0,0,0.1,0,0.2,0L63.2,58.7z"/>
		</g>
		<g>
			<path fill="#FFFFFF" d="M66.1,46.4C66.1,46.3,66,46.3,66.1,46.4C66,46.4,66,46.4,66.1,46.4C66,46.4,66,46.5,66.1,46.4
				c-0.2,0-0.3-0.2-0.5-0.3c0,0,0,0,0,0c0,0,0,0,0,0.1c0,0,0,0,0,0c-0.1-0.1-0.3-0.2-0.4-0.2c0,0,0,0,0,0c0,0,0,0,0,0c0,0,0,0,0,0
				c-0.1,0-0.4-0.1-0.5-0.1c0,0,0,0,0,0c0,0.1,0,0.4,0.1,0.5c0,0,0,0,0,0c0,0,0,0,0,0c0,0,0,0,0,0c0,0.1,0.1,0.3,0.2,0.5
				c0,0,0,0,0,0c0,0,0,0-0.1,0c0,0,0,0,0,0c0.1,0.2,0.3,0.4,0.4,0.5c0,0,0,0,0,0c0,0,0,0-0.1,0c0,0,0,0,0,0c0.2,0.2,0.6,0.2,1.1,0.2
				c0,0,0,0,0,0l-0.3-0.6c0,0,0,0,0,0l0.5,0.4c0,0,0,0,0,0C66.2,47,66.3,46.6,66.1,46.4L66.1,46.4z"/>
			<path fill="#231F20" d="M65.5,48c-0.3,0-0.6,0-0.9-0.3l-0.1-0.1l0-0.1c-0.1-0.1-0.2-0.3-0.3-0.4l0-0.1l0.1-0.1
				c-0.1-0.1-0.1-0.3-0.1-0.4l0-0.1l0.1-0.1c0-0.1-0.1-0.3-0.1-0.4c0-0.2,0.1-0.3,0.3-0.3c0.1,0,0.3,0,0.4,0.1l0,0l0.1,0
				c0.1,0,0.2,0.1,0.4,0.1l0,0l0.2,0l0.1,0c0.1,0.1,0.3,0.2,0.4,0.3l0.1,0l0.1,0.1c0.3,0.3,0.2,0.7,0.2,1.1l0,0.4l-0.2,0L66.1,48
				L65.5,48z M65.2,47.5c0.1,0,0.2,0,0.3,0h0l-0.2-0.4l0.2-0.3l0.2,0l0.1,0l0.2,0.2c0-0.2,0-0.3,0-0.4h-0.1l-0.1-0.1
				c-0.1-0.1-0.1-0.2-0.2-0.2l-0.2,0l-0.1-0.1c-0.1,0-0.1-0.1-0.2-0.1l0,0l-0.2,0l-0.1,0c0,0-0.1,0-0.2-0.1c0,0.1,0,0.2,0,0.2l0,0.1
				l-0.1,0.1c0,0.1,0.1,0.2,0.1,0.2l0.1,0.1l-0.1,0.1c0,0.1,0.1,0.1,0.2,0.2L65.2,47.5L65.2,47.5z"/>
		</g>
		<g>
			<path fill="#FFFFFF" d="M75.3,54.2C75.3,54.2,75.3,54.2,75.3,54.2c0.2,0,0.4-0.1,0.5-0.2c0,0,0,0,0,0c0,0,0,0,0,0c0,0,0,0,0,0
				c0.1-0.1,0.3-0.2,0.4-0.3c0,0,0,0,0,0c0,0,0,0,0,0.1c0,0,0,0,0,0c0.1-0.1,0.3-0.4,0.3-0.5c0,0,0,0,0,0c0,0,0,0,0,0.1c0,0,0,0,0,0
				c0.2-0.3,0-0.7-0.1-1.1c0,0,0,0,0,0l-0.4,0.5c0,0,0,0,0,0l0.2-0.6c0,0,0,0,0,0c-0.4,0.1-0.8,0.2-1,0.5c0,0,0,0,0,0c0,0,0,0,0.1,0
				c0,0,0,0,0,0c-0.1,0.1-0.2,0.4-0.2,0.6c0,0,0,0,0,0c0,0,0,0,0,0c0,0,0,0,0,0c-0.1,0.2-0.1,0.4-0.1,0.5c0,0,0,0,0,0c0,0,0,0,0,0
				c0,0,0,0,0,0C75.2,53.8,75.2,54.1,75.3,54.2L75.3,54.2z"/>
			<path fill="#231F20" d="M75.3,54.5h-0.2L75,54.2c0-0.1,0-0.2,0-0.3h0l-0.1-0.2c0-0.1,0-0.2,0-0.4l-0.1-0.1l0-0.1
				c0-0.2,0.1-0.3,0.2-0.5L75,52.5l0.1-0.2c0.2-0.3,0.6-0.4,1-0.5l0.4-0.1l0.2,0.2l0,0l0.2,0l0.1,0.4c0.1,0.4,0.3,0.8,0.1,1.2
				l-0.1,0.1l-0.1,0c-0.1,0.2-0.2,0.3-0.3,0.4l-0.1,0.1l-0.1,0c-0.1,0.1-0.2,0.2-0.3,0.2l-0.1,0h-0.1C75.6,54.4,75.5,54.4,75.3,54.5
				L75.3,54.5z M75.4,53.4L75.4,53.4l0.1,0.2c0,0.1,0,0.1,0,0.2c0.1,0,0.1-0.1,0.2-0.1l0.1,0l0.2,0c0.1,0,0.1-0.1,0.1-0.1l0.1-0.1
				l0.2,0c0-0.1,0.1-0.1,0.1-0.3l0.1-0.1l0.1,0c0-0.1,0-0.2-0.1-0.4L76.2,53L76,53l-0.2-0.2l0-0.1l0.1-0.3c-0.1,0-0.2,0.1-0.3,0.1
				l0,0.1l-0.1,0.1c-0.1,0.1-0.1,0.2-0.2,0.3l0.1,0.1l0,0.1C75.4,53.3,75.4,53.4,75.4,53.4z"/>
		</g>
		<g>
			<path fill="#FFFFFF" d="M70.7,53.2c0.3-0.2,0.3-0.6,0.4-1.1c0,0,0,0,0,0l-0.6,0.2c0,0,0,0,0,0l0.5-0.4c0,0,0,0,0,0
				c-0.4-0.1-0.8-0.3-1.1-0.1c0,0,0,0,0,0c0,0,0,0,0.1,0c0,0,0,0,0,0c-0.1,0.1-0.4,0.2-0.5,0.3c0,0,0,0,0,0c0,0,0,0,0.1,0
				c0,0,0,0,0,0c-0.1,0.1-0.3,0.3-0.3,0.4c0,0,0,0,0,0c0,0,0,0,0,0c0,0,0,0,0,0c-0.1,0.1-0.2,0.4-0.2,0.5c0,0,0,0.1,0,0.1
				c0.1,0,0.4,0.1,0.5,0c0,0,0,0,0,0c0,0,0,0,0,0c0,0,0,0,0,0.1c0.1,0,0.3,0,0.5-0.1c0,0,0,0,0,0c0,0,0,0,0,0.1c0,0,0,0,0,0
				c0.2,0,0.4-0.2,0.5-0.3C70.7,53,70.7,53.1,70.7,53.2C70.7,53.1,70.7,53.1,70.7,53.2C70.7,53.2,70.7,53.2,70.7,53.2L70.7,53.2z"/>
			<path fill="#231F20" d="M70.1,53.6H70L70,53.5c-0.1,0-0.2,0-0.3,0l-0.1,0c-0.1,0-0.1,0-0.2-0.1c-0.1,0-0.3,0-0.4-0.1
				c-0.2,0-0.2-0.2-0.2-0.4c0-0.1,0.1-0.3,0.2-0.4l0-0.1l0.1-0.1c0-0.1,0.1-0.2,0.2-0.3l0-0.1l0.1-0.1c0.1-0.1,0.2-0.2,0.4-0.3
				l0-0.1l0.1-0.1c0.3-0.2,0.7-0.1,1.1,0.1l0.3,0.1l0.1,0.3l0,0h0l0.2,0.2l-0.1,0.3c-0.1,0.4-0.2,0.8-0.5,1l-0.1,0l-0.2,0l0,0
				C70.5,53.5,70.3,53.5,70.1,53.6L70.1,53.6z M69.7,52.9l0.1,0.1c0.1,0,0.2,0,0.2,0l0.1,0h0.1l0,0c0.1,0,0.1-0.1,0.2-0.1l0.1,0
				l0.1,0c0-0.1,0.1-0.2,0.1-0.4l-0.3,0.1h-0.2l-0.2-0.3l0.1-0.1l0.2-0.2c-0.1,0-0.2-0.1-0.3-0.1l0,0l-0.2,0.1
				C69.9,52,69.9,52,69.8,52l0,0.1l-0.1,0.1c-0.1,0-0.1,0.1-0.2,0.2l0.1,0.1l-0.1,0.1c0,0-0.1,0.1-0.1,0.2c0,0,0.1,0,0.1,0
				L69.7,52.9z"/>
		</g>
		<g>
			<path fill="#FFFFFF" d="M76,58.6C76,58.6,76,58.7,76,58.6C76,58.7,76,58.7,76,58.6C76.1,58.6,76.1,58.7,76,58.6
				c0.1,0.2,0,0.5,0,0.6c0,0,0,0,0.1,0c0.1,0,0.4-0.1,0.5-0.1c0,0,0,0,0,0c0,0,0,0,0,0c0,0,0,0,0,0c0.1,0,0.3-0.1,0.4-0.2
				c0,0,0,0,0,0c0,0,0,0,0,0.1c0,0,0,0,0,0c0.2-0.1,0.3-0.3,0.4-0.4c0,0,0,0,0,0c0,0,0,0,0,0.1c0,0,0,0,0,0c0.2-0.3,0.1-0.7,0.1-1.2
				c0,0,0,0,0,0l-0.5,0.4c0,0,0,0,0,0l0.3-0.6c0,0,0,0,0,0c-0.5,0-0.8,0-1.1,0.2c0,0,0,0,0,0c0,0,0,0,0.1,0c0,0,0,0,0,0
				c-0.1,0.1-0.3,0.3-0.3,0.5c0,0,0,0,0,0c0,0,0,0,0.1,0c0,0,0,0,0,0C76.1,58.3,76,58.5,76,58.6L76,58.6z"/>
			<path fill="#231F20" d="M76.1,59.5c-0.2,0-0.3-0.1-0.3-0.3c0-0.1,0-0.3,0-0.4l-0.1-0.1l0-0.1c0-0.1,0-0.2,0.1-0.4l-0.1-0.1l0-0.1
				c0-0.1,0.1-0.3,0.2-0.4l0-0.1l0.1-0.1c0.2-0.3,0.6-0.3,1-0.3l0.3,0l0.2,0.2l0,0l0.2,0l0.1,0.4c0.1,0.4,0.1,0.9-0.2,1.2L77.7,59
				l-0.2,0c-0.1,0.1-0.2,0.2-0.4,0.3l-0.1,0l-0.2,0l0,0c-0.1,0.1-0.2,0.1-0.3,0.1l-0.2,0l0,0C76.3,59.5,76.2,59.5,76.1,59.5
				L76.1,59.5z M76.3,58.5l0.1,0.1l0,0.1c0,0.1,0,0.1,0,0.2c0.1,0,0.1,0,0.2-0.1l0.1,0h0.1l0,0c0.1,0,0.1-0.1,0.2-0.1l0.1-0.1l0.2,0
				c0.1-0.1,0.1-0.1,0.2-0.2l0.1-0.1l0.1,0c0-0.1,0-0.2,0-0.4l-0.3,0.2l-0.2,0L76.8,58l0-0.1l0.1-0.3c-0.1,0-0.3,0-0.3,0l0,0.1
				l-0.1,0.1c-0.1,0.1-0.1,0.2-0.2,0.2l0.1,0.1l-0.1,0.1C76.3,58.3,76.3,58.4,76.3,58.5z"/>
		</g>
		<g>
			<path fill="#FFFFFF" d="M77.2,51.7C77.2,51.7,77.2,51.7,77.2,51.7c0.5,0.2,0.8,0.4,1.1,0.2c0,0,0,0,0,0c0,0,0,0-0.1,0
				c0,0,0,0,0,0c0.1-0.1,0.4-0.2,0.5-0.3c0,0,0,0,0,0c0,0,0,0-0.1,0c0,0,0,0,0,0c0.1-0.1,0.3-0.3,0.3-0.4c0,0,0,0,0,0c0,0,0,0,0,0
				c0,0,0,0,0,0c0.1-0.1,0.2-0.4,0.2-0.5c0,0,0-0.1,0-0.1c-0.1,0-0.4,0-0.5,0c0,0,0,0,0,0c0,0,0,0,0,0c0,0,0,0,0,0
				c-0.1,0-0.3,0-0.5,0.1c0,0,0,0,0,0c0,0,0,0,0-0.1c0,0,0,0,0,0c-0.2,0-0.4,0.2-0.5,0.3c0,0,0,0,0,0c0,0,0,0,0-0.1c0,0,0,0,0,0
				c-0.3,0.2-0.3,0.6-0.4,1c0,0,0,0,0,0l0.6-0.2c0,0,0,0,0,0L77.2,51.7z"/>
			<path fill="#231F20" d="M78,52.2L78,52.2c-0.2,0-0.5-0.1-0.7-0.2L77,51.9l-0.1-0.3l0,0h0l-0.2-0.2l0.1-0.4c0.1-0.4,0.2-0.8,0.5-1
				l0.1,0l0.2,0c0.1-0.1,0.3-0.1,0.4-0.1h0.1l0.1,0.1c0.1,0,0.2,0,0.3,0l0.1,0c0.1,0,0.1,0,0.2,0.1c0.1,0,0.3,0,0.4,0
				c0.2,0.1,0.2,0.2,0.2,0.4c0,0.1-0.1,0.3-0.2,0.4l0,0.1l0,0.2c0,0.1-0.1,0.2-0.2,0.3l0,0.1l-0.1,0.1c-0.1,0.1-0.2,0.2-0.3,0.3
				l0,0.1l-0.1,0.1C78.3,52.2,78.2,52.2,78,52.2z M77.6,51.6c0.1,0,0.2,0.1,0.3,0.1l0-0.1l0.2-0.1c0.1-0.1,0.2-0.1,0.2-0.1l0-0.1
				l0.1-0.1c0,0,0.1-0.1,0.2-0.2l-0.1-0.1l0.1-0.1c0,0,0.1-0.1,0.1-0.2c-0.1,0-0.1,0-0.2,0l-0.2,0l-0.1-0.1c-0.1,0-0.2,0-0.2,0.1
				l-0.1,0h-0.1l0,0c-0.1,0-0.1,0.1-0.2,0.1l-0.1,0l-0.1,0c0,0.1-0.1,0.2-0.1,0.4l0.3-0.1h0.2l0.2,0.3l-0.1,0.1L77.6,51.6z"/>
		</g>
		<g>
			<path fill="#FFFFFF" d="M76.8,49.3C76.8,49.3,76.8,49.2,76.8,49.3c-0.1-0.1-0.4-0.1-0.5-0.1c0,0,0,0,0,0c0,0,0,0,0,0c0,0,0,0,0,0
				c-0.1,0-0.3,0-0.5,0.1c0,0,0,0,0,0c0,0,0,0,0-0.1c0,0,0,0,0,0c-0.2,0-0.4,0.2-0.5,0.3c0,0,0,0,0,0c0,0,0,0,0-0.1c0,0,0,0,0,0
				c-0.3,0.2-0.3,0.6-0.4,1c0,0,0,0,0,0l0.6-0.2c0,0,0,0,0,0l-0.5,0.4c0,0,0,0,0,0c0.4,0.1,0.8,0.3,1.1,0.1c0,0,0,0,0,0
				c0,0,0,0-0.1,0c0,0,0,0,0,0c0.1-0.1,0.4-0.2,0.5-0.3c0,0,0,0,0,0c0,0,0,0-0.1,0c0,0,0,0,0,0c0.1-0.1,0.3-0.3,0.3-0.4c0,0,0,0,0,0
				c0,0,0,0,0,0c0,0,0,0,0,0C76.7,49.7,76.8,49.4,76.8,49.3L76.8,49.3z"/>
			<path fill="#231F20" d="M75.7,51.1L75.7,51.1c-0.2,0-0.5-0.1-0.7-0.2l-0.3-0.1l-0.1-0.3l0,0h0l-0.2-0.2l0.1-0.4
				c0.1-0.4,0.2-0.8,0.5-1l0.1,0l0.2,0c0.1-0.1,0.3-0.1,0.4-0.1h0.1l0.1,0.1c0.1,0,0.2,0,0.3,0l0.1,0c0.1,0,0.1,0,0.2,0.1
				c0.1,0,0.3,0,0.4,0c0.1,0,0.2,0.2,0.2,0.4c0,0.1-0.1,0.3-0.2,0.4l0,0.1L76.9,50c0,0.1-0.1,0.2-0.2,0.3l0,0.1l-0.1,0.1
				c-0.1,0.1-0.2,0.2-0.4,0.3l0,0.1L76.2,51C76,51.1,75.9,51.1,75.7,51.1z M75.4,50.5c0.1,0,0.2,0.1,0.3,0.1l0-0.1l0.2-0.1
				c0.1-0.1,0.2-0.1,0.2-0.1l0-0.1l0.1-0.1c0.1,0,0.1-0.1,0.2-0.2l-0.1-0.1l0.1-0.1c0,0,0.1-0.1,0.1-0.2c-0.1,0-0.1,0-0.2,0l-0.2,0
				l-0.1-0.1c-0.1,0-0.2,0-0.2,0l-0.1,0h-0.1l0,0c-0.1,0-0.1,0.1-0.2,0.1l-0.1,0l-0.1,0c0,0.1-0.1,0.2-0.1,0.4l0.3-0.1h0.2l0.2,0.3
				l-0.1,0.1L75.4,50.5z"/>
		</g>
		<g>
			<path fill="#FFFFFF" d="M71.3,49.8c0-0.5,0.1-0.9-0.1-1.1c0,0,0,0,0,0c0,0,0,0,0,0.1c0,0,0,0,0,0c-0.1-0.1-0.3-0.3-0.4-0.4
				c0,0,0,0,0,0c0,0,0,0,0,0.1c0,0,0,0,0,0c-0.1-0.1-0.3-0.2-0.4-0.2c0,0,0,0,0,0c0,0,0,0,0,0c0,0,0,0,0,0c-0.1,0-0.4-0.1-0.5-0.1
				c0,0,0,0,0,0c0,0.1,0,0.4,0.1,0.5c0,0,0,0,0,0c0,0,0,0,0,0c0,0,0,0,0,0c0,0.1,0.1,0.3,0.2,0.5c0,0,0,0,0,0c0,0,0,0-0.1,0
				c0,0,0,0,0,0c0.1,0.2,0.3,0.4,0.4,0.5c0,0,0,0,0,0c0,0,0,0-0.1,0c0,0,0,0,0,0c0.2,0.2,0.6,0.2,1.1,0.2c0,0,0,0,0,0l-0.3-0.6
				c0,0,0,0,0,0L71.3,49.8C71.2,49.8,71.3,49.8,71.3,49.8L71.3,49.8z"/>
			<path fill="#231F20" d="M70.6,50.4c-0.3,0-0.6,0-0.9-0.3L69.6,50l0-0.1c-0.1-0.1-0.2-0.3-0.3-0.4l0-0.1l0.1-0.1
				c-0.1-0.1-0.1-0.2-0.1-0.4l0-0.1l0.1-0.1c0-0.1-0.1-0.3-0.1-0.4c0-0.2,0.1-0.3,0.3-0.3c0.1,0,0.3,0,0.4,0.1l0,0l0.2,0l0,0
				c0.1,0,0.2,0.1,0.3,0.1l0,0l0.2,0l0.1,0c0.1,0,0.2,0.1,0.4,0.3l0.1,0l0.1,0.1c0.3,0.3,0.2,0.7,0.2,1.1l0,0.4l-0.2,0l-0.2,0.3
				L70.6,50.4z M70.2,49.8c0.1,0,0.2,0,0.3,0l0,0l-0.2-0.4l0.2-0.3l0.2,0l0.1,0l0.2,0.2c0-0.2,0-0.3,0-0.4H71l-0.1-0.1
				c-0.1-0.1-0.1-0.2-0.2-0.2l-0.2,0l-0.1-0.1c0,0-0.1-0.1-0.2-0.1l0,0l-0.2,0l-0.1,0c0,0-0.1,0-0.2-0.1c0,0.1,0,0.2,0,0.2l0,0.1
				l-0.1,0.1c0,0.1,0.1,0.2,0.1,0.2l0.1,0.1l-0.1,0.1c0,0.1,0.1,0.1,0.2,0.2L70.2,49.8L70.2,49.8z"/>
		</g>
		<g>
			<path fill="#FFFFFF" d="M73,52.8C73,52.8,73,52.8,73,52.8c0.2,0.3,0.6,0.2,1.1,0.2c0,0,0,0,0,0l-0.3-0.6c0,0,0,0,0,0l0.5,0.4
				c0,0,0,0,0,0c0-0.5,0.1-0.9-0.1-1.2c0,0,0,0,0,0c0,0,0,0,0,0.1c0,0,0,0,0,0c-0.1-0.1-0.3-0.3-0.4-0.4c0,0,0,0,0,0c0,0,0,0,0,0.1
				c0,0,0,0,0,0c-0.1-0.1-0.3-0.2-0.4-0.2c0,0,0,0,0,0c0,0,0,0,0,0c0,0,0,0,0,0c-0.1,0-0.4-0.1-0.5-0.1c0,0,0,0,0,0
				c0,0.1,0.1,0.4,0.1,0.5c0,0,0,0,0,0c0,0,0,0,0,0c0,0,0,0,0,0c0,0.1,0.1,0.3,0.2,0.5c0,0,0,0,0,0c0,0,0,0-0.1,0c0,0,0,0,0,0
				C72.8,52.5,73,52.7,73,52.8C73.1,52.8,73.1,52.8,73,52.8C73,52.8,73,52.8,73,52.8L73,52.8z"/>
			<path fill="#231F20" d="M73.7,53.3c-0.3,0-0.6,0-0.9-0.3l-0.1-0.1l0-0.1c-0.1-0.1-0.2-0.3-0.3-0.4l0-0.1l0.1-0.1
				c-0.1-0.1-0.1-0.3-0.1-0.4l0-0.1l0.1-0.1c0-0.1-0.1-0.3-0.1-0.4c0-0.2,0.1-0.3,0.3-0.3c0.1,0,0.3,0,0.4,0.1l0,0l0.1,0
				c0.1,0,0.2,0.1,0.4,0.1l0,0l0.2,0l0.1,0c0.1,0.1,0.2,0.2,0.4,0.3l0.1,0l0.1,0.1c0.3,0.3,0.2,0.7,0.2,1.2l0,0.4l-0.2,0l-0.2,0.3
				L73.7,53.3z M73.4,52.7c0.1,0,0.2,0,0.3,0l0,0l-0.2-0.4l0.2-0.3l0.2,0l0.1,0l0.2,0.2c0-0.2,0-0.3,0-0.4h-0.1L74,51.8
				c-0.1-0.1-0.1-0.2-0.2-0.2l-0.2,0l-0.1-0.1c-0.1,0-0.1-0.1-0.2-0.1l0,0l-0.2,0l-0.1,0c0,0-0.1,0-0.2-0.1c0,0.1,0,0.2,0,0.2l0,0.1
				l-0.1,0.1c0,0.1,0.1,0.2,0.1,0.2l0.1,0.1L73,52.3c0,0.1,0.1,0.1,0.2,0.2L73.4,52.7L73.4,52.7z"/>
		</g>
		<g>
			<path fill="#FFFFFF" d="M77,47.8c0-0.5,0.1-0.9-0.1-1.1c0,0,0,0,0,0c0,0,0,0,0,0.1c0,0,0,0,0,0c-0.1-0.1-0.3-0.3-0.4-0.4
				c0,0,0,0,0,0c0,0,0,0,0,0.1c0,0,0,0,0,0c-0.1-0.1-0.3-0.2-0.4-0.2c0,0,0,0,0,0c0,0,0,0,0,0c0,0,0,0,0,0c-0.1,0-0.4-0.1-0.5-0.1
				c0,0,0,0,0,0c0,0.1,0.1,0.4,0.1,0.5c0,0,0,0,0,0c0,0,0,0,0,0c0,0,0,0,0,0c0,0.1,0.1,0.3,0.2,0.5c0,0,0,0,0,0c0,0,0,0-0.1,0
				c0,0,0,0,0,0c0.1,0.2,0.3,0.4,0.4,0.5c0,0,0,0,0,0c0,0,0,0-0.1,0c0,0,0,0,0,0c0.2,0.2,0.6,0.2,1.1,0.2c0,0,0,0,0,0l-0.3-0.6
				c0,0,0,0,0,0L77,47.8C76.9,47.9,77,47.9,77,47.8L77,47.8z"/>
			<path fill="#231F20" d="M76.3,48.4c-0.3,0-0.6,0-0.9-0.3L75.3,48l0-0.1c-0.1-0.1-0.2-0.3-0.3-0.4l0-0.1l0.1-0.1
				C75,47.1,75,47,75,46.9l0-0.1l0.1-0.1c0-0.1-0.1-0.3-0.1-0.4c0-0.2,0.1-0.3,0.3-0.3c0.1,0,0.3,0,0.4,0.1l0,0l0.1,0
				c0.1,0,0.2,0.1,0.4,0.1l0,0l0.2,0l0.1,0c0.1,0,0.2,0.1,0.4,0.3l0.1,0l0.1,0.1c0.3,0.3,0.2,0.7,0.2,1.2l0,0.4l-0.2,0l-0.2,0.3
				L76.3,48.4z M75.9,47.9c0.1,0,0.2,0,0.3,0h0l-0.2-0.4l0.2-0.3l0.2,0l0.1,0l0.2,0.2c0-0.2,0-0.3,0-0.4h-0.1l-0.1-0.1
				c-0.1-0.1-0.1-0.2-0.2-0.2l-0.2,0l-0.1-0.1c-0.1,0-0.1-0.1-0.2-0.1l0,0l-0.2,0l-0.1,0c0,0-0.1,0-0.2-0.1c0,0.1,0,0.2,0,0.2l0,0.1
				L75.5,47c0,0.1,0.1,0.2,0.1,0.2l0.1,0.1l-0.1,0.1c0,0.1,0.1,0.1,0.2,0.2L75.9,47.9L75.9,47.9z"/>
		</g>
		<g>
			<path fill="#FFFFFF" d="M74.2,54.9l0.5,0.4c0,0,0,0,0,0c0-0.5,0.1-0.9-0.1-1.1c0,0,0,0,0,0c0,0,0,0,0,0.1c0,0,0,0,0,0
				c-0.1-0.1-0.3-0.3-0.4-0.4c0,0,0,0,0,0c0,0,0,0,0,0.1c0,0,0,0,0,0c-0.1-0.1-0.3-0.2-0.4-0.2c0,0,0,0,0,0c0,0,0,0,0,0c0,0,0,0,0,0
				c-0.1,0-0.4-0.1-0.5-0.1c0,0,0,0,0,0c0,0.1,0,0.4,0.1,0.5c0,0,0,0,0,0c0,0,0,0,0,0c0,0,0,0,0,0c0,0.1,0.1,0.3,0.2,0.5
				c0,0,0,0,0,0c0,0,0,0-0.1,0c0,0,0,0,0,0c0.1,0.2,0.3,0.4,0.4,0.5c0,0,0,0,0,0c0,0,0,0-0.1,0c0,0,0,0,0,0c0.2,0.2,0.6,0.2,1.1,0.2
				c0,0,0,0,0,0L74.2,54.9C74.2,54.9,74.2,54.9,74.2,54.9L74.2,54.9z"/>
			<path fill="#231F20" d="M74.1,55.8c-0.3,0-0.6,0-0.9-0.3l-0.1-0.1l0-0.1c-0.1-0.1-0.2-0.3-0.3-0.4l0-0.1l0.1-0.1
				c-0.1-0.1-0.1-0.2-0.1-0.4l0-0.1l0.1-0.1c0-0.1-0.1-0.3-0.1-0.4c0-0.2,0.1-0.3,0.3-0.3c0.1,0,0.3,0,0.4,0.1l0,0l0.1,0
				c0.1,0,0.2,0.1,0.4,0.1l0,0l0.2,0l0.1,0c0.1,0.1,0.3,0.2,0.4,0.3l0.1,0l0.1,0.1c0.3,0.3,0.2,0.7,0.2,1.1l0,0.4l-0.2,0l-0.2,0.3
				L74.1,55.8z M73.7,55.3c0.1,0,0.2,0,0.3,0l0,0l-0.2-0.4l0.2-0.3l0.2,0l0.1,0l0.2,0.2c0-0.2,0-0.3,0-0.4h-0.1l-0.1-0.1
				c-0.1-0.1-0.1-0.2-0.2-0.2l-0.2,0l-0.1-0.1c-0.1,0-0.1-0.1-0.2-0.1l0,0l-0.2,0l-0.1,0c0,0-0.1,0-0.2-0.1c0,0.1,0,0.2,0,0.2l0,0.1
				l-0.1,0.1c0,0.1,0.1,0.2,0.1,0.2l0.1,0.1l-0.1,0.1c0,0.1,0.1,0.1,0.2,0.2L73.7,55.3L73.7,55.3z"/>
		</g>
		<g>
			<path fill="#FFFFFF" d="M79.4,47.7C79.4,47.7,79.4,47.7,79.4,47.7C79.4,47.8,79.3,47.8,79.4,47.7c-0.1,0-0.3-0.3-0.5-0.3
				c0,0,0,0,0,0c0,0,0,0,0,0.1c0,0,0,0,0,0c-0.1-0.1-0.3-0.2-0.4-0.2c0,0,0,0,0,0c0,0,0,0,0,0c0,0,0,0,0,0c-0.1,0-0.4-0.1-0.5-0.1
				c0,0,0,0,0,0c0,0.1,0,0.4,0.1,0.5c0,0,0,0,0,0c0,0,0,0,0,0c0,0,0,0,0,0c0,0.1,0.1,0.3,0.2,0.5c0,0,0,0,0,0c0,0,0,0-0.1,0
				c0,0,0,0,0,0c0.1,0.2,0.3,0.4,0.4,0.5c0,0,0,0,0,0c0,0,0,0-0.1,0c0,0,0,0,0,0c0.2,0.2,0.6,0.2,1.1,0.2c0,0,0,0,0,0L79,48.5
				c0,0,0,0,0,0l0.5,0.4c0,0,0,0,0,0C79.6,48.3,79.6,47.9,79.4,47.7C79.4,47.7,79.4,47.7,79.4,47.7L79.4,47.7z"/>
			<path fill="#231F20" d="M78.8,49.4c-0.3,0-0.6,0-0.9-0.3L77.9,49l0-0.1c-0.1-0.1-0.2-0.3-0.3-0.4l0-0.1l0.1-0.1
				c-0.1-0.1-0.1-0.3-0.1-0.4l0-0.1l0.1-0.1c0-0.1-0.1-0.3-0.1-0.4c0-0.2,0.1-0.3,0.3-0.3c0.1,0,0.3,0,0.4,0.1l0,0l0.1,0
				c0.1,0,0.2,0.1,0.4,0.1l0,0l0.2,0l0.1,0c0.1,0.1,0.2,0.2,0.4,0.3l0.1,0l0.1,0.1c0.3,0.3,0.3,0.7,0.2,1.2l0,0.4l-0.2,0l-0.2,0.3
				L78.8,49.4z M78.5,48.8c0.1,0,0.2,0,0.3,0h0l-0.2-0.4l0.2-0.3l0.2,0l0.1,0l0.2,0.2c0-0.2,0-0.3,0-0.4h-0.1l-0.1-0.1
				c-0.1-0.1-0.1-0.2-0.2-0.2l-0.2,0l-0.1-0.1c0,0-0.1-0.1-0.2-0.1l0,0l-0.2,0l-0.1,0c0,0-0.1,0-0.2-0.1c0,0.1,0,0.2,0,0.2l0,0.1
				L78.1,48c0,0.1,0.1,0.2,0.1,0.2l0.1,0.1l-0.1,0.1c0,0.1,0.1,0.1,0.2,0.2L78.5,48.8L78.5,48.8z"/>
		</g>
		<g>
			<path fill="#FFFFFF" d="M82.5,45.9l0.1-1.1c0,0,0,0,0.1,0l0.4,1c0,0,0.1,0,0.1,0c0.5-0.6,0.9-1.1,0.8-1.7c0,0,0-0.1-0.1,0
				c0,0,0,0-0.1,0.1c0,0,0,0,0,0c0-0.2-0.1-0.7-0.2-1c0,0-0.1,0-0.1,0c0,0,0,0,0,0.1c0,0,0,0,0,0c-0.1-0.2-0.3-0.6-0.4-0.7
				c0,0-0.1,0-0.1,0c0,0,0,0,0,0c0,0,0,0-0.1,0c-0.1-0.2-0.4-0.5-0.6-0.6c0,0-0.1,0-0.1,0c-0.1,0.2-0.3,0.6-0.3,0.8c0,0,0,0-0.1,0
				c0,0,0,0,0,0c0,0-0.1,0-0.1,0c-0.1,0.2-0.2,0.5-0.2,0.8c0,0,0,0,0,0c0,0,0,0-0.1-0.1c0,0-0.1,0-0.1,0c-0.1,0.3,0,0.8,0.1,1
				c0,0,0,0,0,0c0,0-0.1,0-0.1,0c0,0-0.1,0-0.1,0.1C81.3,45.2,81.8,45.5,82.5,45.9C82.5,45.9,82.5,45.9,82.5,45.9L82.5,45.9z"/>
			<path fill="#231F20" d="M82.5,46.2L82.5,46.2L82,45.9c-0.5-0.4-1-0.7-1.1-1.2l0-0.1l0.1-0.1c0,0,0,0,0.1-0.1c0-0.3-0.1-0.6,0-0.8
				l0-0.2l0.1,0c0-0.2,0.1-0.5,0.2-0.6l0.1-0.1l0.2,0c0.1-0.2,0.2-0.5,0.3-0.7c0.1-0.1,0.2-0.1,0.3-0.1h0.1l0.1,0.1
				c0.1,0.1,0.3,0.3,0.5,0.5c0,0,0,0,0.1,0H83l0.1,0.1c0.1,0.1,0.2,0.3,0.3,0.5l0,0c0.1,0,0.2,0.1,0.2,0.1c0.1,0.2,0.2,0.5,0.2,0.8
				c0.1,0,0.2,0.1,0.2,0.2c0.1,0.6-0.3,1.1-0.7,1.6l-0.2,0.3l-0.2,0c-0.1,0-0.2-0.1-0.3-0.1l0-0.1l0,0.3L82.5,46.2z M81.5,44.8
				c0.1,0.2,0.4,0.4,0.8,0.7l0.1-0.9l0.4,0l0.1,0.1l0.3,0.7c0.3-0.3,0.5-0.6,0.5-0.9h-0.1l0-0.3c0-0.3-0.1-0.5-0.1-0.6l-0.2,0
				l-0.1-0.2c-0.1-0.2-0.1-0.3-0.2-0.5c0,0,0,0-0.1,0h-0.1l-0.1-0.1c-0.1-0.1-0.2-0.3-0.4-0.4c-0.1,0.2-0.2,0.4-0.2,0.5l0,0.2
				l-0.2,0c0,0.2-0.1,0.4-0.1,0.5l0,0.2l-0.2,0c0,0.2,0.1,0.5,0.1,0.6l0,0.1L81.5,44.8z"/>
		</g>
		<g>
			<path fill="#FFFFFF" d="M89.7,42.9C89.8,42.9,89.7,42.8,89.7,42.9c-0.1-0.1-0.4-0.1-0.5-0.1c0,0,0,0,0,0c0,0,0,0,0,0c0,0,0,0,0,0
				c-0.1,0-0.3,0-0.5,0.1c0,0,0,0,0,0c0,0,0,0,0-0.1c0,0,0,0,0,0c-0.2,0-0.4,0.2-0.5,0.3c0,0,0,0,0,0c0,0,0,0,0-0.1c0,0,0,0,0,0
				c-0.3,0.2-0.3,0.6-0.4,1c0,0,0,0,0,0l0.6-0.2c0,0,0,0,0,0l-0.5,0.4c0,0,0,0,0,0c0.4,0.1,0.8,0.3,1.1,0.1c0,0,0,0,0,0
				c0,0,0,0-0.1,0c0,0,0,0,0,0c0.1-0.1,0.4-0.2,0.5-0.3c0,0,0,0,0,0c0,0,0,0-0.1,0c0,0,0,0,0,0c0.1-0.1,0.3-0.3,0.3-0.4c0,0,0,0,0,0
				c0,0,0,0,0,0c0,0,0,0,0,0C89.6,43.3,89.7,43,89.7,42.9L89.7,42.9z"/>
			<path fill="#231F20" d="M88.7,44.7L88.7,44.7c-0.2,0-0.5-0.1-0.7-0.2l-0.3-0.1l-0.1-0.2l0-0.1h0l-0.2-0.2l0.1-0.3
				c0.1-0.4,0.2-0.8,0.5-1l0.1,0l0.2,0c0.1-0.1,0.3-0.1,0.4-0.1h0.1l0.1,0.1c0.1,0,0.2,0,0.3,0l0.1,0c0.1,0,0.1,0,0.2,0.1
				c0.1,0,0.3,0,0.4,0c0.2,0,0.2,0.2,0.2,0.4c0,0.1-0.1,0.3-0.2,0.4l0,0.1l0,0.1c0,0.1-0.1,0.2-0.2,0.3l0,0.1l-0.1,0.1
				c-0.1,0.1-0.2,0.2-0.4,0.3v0.1l-0.1,0.1C88.9,44.7,88.8,44.7,88.7,44.7z M88.3,44.1c0.1,0,0.2,0.1,0.3,0.1l0-0.1l0.2-0.1
				c0.1-0.1,0.2-0.1,0.3-0.1l0-0.1l0.1-0.1c0,0,0.1-0.1,0.1-0.2l-0.1-0.1l0.1-0.1c0,0,0.1-0.1,0.1-0.2c-0.1,0-0.1,0-0.2,0l-0.2,0
				L89,42.9c-0.1,0-0.2,0-0.2,0l-0.1,0h-0.1l0,0c-0.1,0-0.2,0.1-0.2,0.1l-0.1,0l-0.1,0c0,0.1-0.1,0.2-0.1,0.4l0.3-0.1h0.2l0.2,0.3
				l-0.1,0.1L88.3,44.1z"/>
		</g>
		<g>
			<path fill="#FFFFFF" d="M81.5,47.1l0.5,0.4c0,0,0,0,0,0c0-0.5,0.1-0.9-0.1-1.1c0,0,0,0,0,0c0,0,0,0,0,0.1c0,0,0,0,0,0
				c-0.1-0.1-0.3-0.3-0.4-0.4c0,0,0,0,0,0c0,0,0,0,0,0.1c0,0,0,0,0,0c-0.1-0.1-0.3-0.2-0.4-0.2c0,0,0,0,0,0c0,0,0,0,0,0c0,0,0,0,0,0
				c-0.1,0-0.4-0.1-0.5-0.1c0,0,0,0,0,0c0,0.1,0,0.4,0.1,0.5c0,0,0,0,0,0c0,0,0,0,0,0c0,0,0,0,0,0c0,0.1,0.1,0.3,0.2,0.5
				c0,0,0,0,0,0c0,0,0,0-0.1,0c0,0,0,0,0,0c0.1,0.2,0.3,0.4,0.4,0.5c0,0,0,0,0,0s0,0-0.1,0c0,0,0,0,0,0c0.2,0.2,0.6,0.2,1.1,0.2
				c0,0,0,0,0,0L81.5,47.1C81.4,47.1,81.5,47.1,81.5,47.1L81.5,47.1z"/>
			<path fill="#231F20" d="M81.3,48c-0.3,0-0.6,0-0.9-0.3l-0.1-0.1l0-0.1c-0.1-0.1-0.2-0.3-0.3-0.4l0-0.1l0.1-0.1
				c-0.1-0.1-0.1-0.3-0.1-0.4l0-0.1l0.1-0.1c0-0.1-0.1-0.3-0.1-0.4c0-0.2,0.1-0.3,0.3-0.3c0.1,0,0.3,0,0.4,0.1l0,0l0.1,0
				c0.1,0,0.2,0.1,0.4,0.1l0,0l0.2,0l0.1,0c0.1,0.1,0.2,0.2,0.4,0.3l0.1,0l0.1,0.1c0.3,0.3,0.2,0.7,0.2,1.1l0,0.4l-0.2,0l-0.2,0.3
				L81.3,48z M81,47.4c0.1,0,0.2,0,0.3,0l0,0l-0.2-0.4l0.2-0.3l0.2,0l0.1,0l0.2,0.2c0-0.2,0-0.3,0-0.4h-0.1l-0.1-0.1
				c-0.1-0.1-0.1-0.2-0.2-0.2l-0.2,0l-0.1-0.1c-0.1,0-0.1-0.1-0.2-0.1l0,0l-0.2,0l-0.1,0c0,0-0.1,0-0.2-0.1c0,0.1,0,0.2,0,0.2l0,0.1
				l-0.1,0.1c0,0.1,0.1,0.2,0.1,0.2l0.1,0.1L80.7,47c0,0.1,0.1,0.1,0.2,0.2L81,47.4L81,47.4z"/>
		</g>
		<g>
			<path fill="#FFFFFF" d="M61.8,48.5C61.7,48.5,61.7,48.5,61.8,48.5c-0.1-0.1-0.1,0-0.1,0c0.1,0.5,0.6,0.8,1.3,1.3c0,0,0.1,0,0.1,0
				L63,49c0.1,0,0.1,0,0.2,0l0.3,0.7c0,0,0.1,0,0.1,0c0.5-0.6,0.9-1.1,0.8-1.7c0,0,0-0.1-0.1,0c0,0,0,0-0.1,0.1c0,0,0,0,0,0
				c0-0.2-0.1-0.7-0.2-1c0,0-0.1,0-0.1,0c0,0,0,0,0,0.1c0,0,0,0,0,0c-0.1-0.2-0.3-0.6-0.4-0.7c0,0-0.1,0-0.1,0c0,0,0,0,0,0
				c0,0,0,0-0.1,0c-0.1-0.2-0.4-0.5-0.6-0.6c0,0-0.1,0-0.1,0c-0.1,0.2-0.3,0.6-0.3,0.8c0,0,0,0-0.1,0c0,0,0,0,0,0c0,0-0.1,0-0.1,0
				c-0.1,0.2-0.2,0.5-0.2,0.8c0,0,0,0,0,0c0,0,0,0-0.1-0.1c0,0-0.1,0-0.1,0C61.7,47.8,61.8,48.3,61.8,48.5
				C61.8,48.5,61.8,48.5,61.8,48.5L61.8,48.5z"/>
			<path fill="#231F20" d="M62.9,50L62.9,50l-0.4-0.2c-0.5-0.4-1-0.7-1.1-1.3l0-0.1l0.1-0.1c0,0,0,0,0.1-0.1c0-0.3-0.1-0.6,0-0.8
				l0-0.2l0.1,0c0-0.2,0.1-0.5,0.2-0.6l0.1-0.1l0.2,0c0.1-0.2,0.2-0.5,0.3-0.7c0.1-0.1,0.2-0.1,0.3-0.1h0.1l0.1,0.1
				c0.1,0.1,0.3,0.3,0.5,0.5l0,0c0.1,0,0.2,0,0.2,0.1c0.1,0.1,0.2,0.3,0.3,0.5l0,0c0.1,0,0.2,0.1,0.2,0.1c0.1,0.2,0.2,0.5,0.2,0.8
				c0.1,0,0.2,0.1,0.2,0.2c0.1,0.6-0.3,1.1-0.7,1.6l-0.2,0.3l-0.2,0c-0.1,0-0.2-0.1-0.3-0.2l0-0.1l0,0.3L62.9,50z M62,48.7
				c0.1,0.2,0.4,0.4,0.8,0.7l0-0.6l0.2,0c0,0,0.1,0,0.1,0h0.2l0.1,0.2l0.1,0.3c0.3-0.3,0.5-0.6,0.5-0.9H64l0-0.3
				c0-0.3-0.1-0.5-0.1-0.6l-0.2,0l-0.1-0.2c-0.1-0.2-0.1-0.3-0.2-0.5c0,0,0,0-0.1,0h-0.1L63,46.7c-0.1-0.1-0.2-0.3-0.4-0.4
				c-0.1,0.2-0.2,0.4-0.2,0.5l0,0.2l-0.2,0c0,0.2-0.1,0.4-0.1,0.5l0,0.2l-0.2,0c0,0.2,0,0.4,0.1,0.6l0,0.1L62,48.7z"/>
		</g>
		<g>
			<path fill="#FFFFFF" d="M67,45.3C67,45.3,67,45.3,67,45.3c0.2,0.3,0.6,0.2,1.1,0.2c0,0,0,0,0,0l-0.3-0.6c0,0,0,0,0,0l0.5,0.4
				c0,0,0,0,0,0c0-0.5,0.1-0.9-0.1-1.2c0,0,0,0,0,0c0,0,0,0,0,0.1c0,0,0,0,0,0c-0.1-0.1-0.3-0.3-0.4-0.4c0,0,0,0,0,0c0,0,0,0,0,0.1
				c0,0,0,0,0,0c-0.1-0.1-0.3-0.2-0.4-0.2c0,0,0,0,0,0c0,0,0,0,0,0c0,0,0,0,0,0c-0.1,0-0.4-0.1-0.5-0.1c0,0,0,0,0,0
				c0,0.1,0,0.4,0.1,0.5c0,0,0,0,0,0c0,0,0,0,0,0c0,0,0,0,0,0c0,0.1,0.1,0.3,0.2,0.5c0,0,0,0,0,0c0,0,0,0-0.1,0c0,0,0,0,0,0
				C66.8,44.9,67,45.1,67,45.3C67.1,45.2,67.1,45.2,67,45.3C67.1,45.2,67.1,45.2,67,45.3L67,45.3z"/>
			<path fill="#231F20" d="M67.7,45.7c-0.3,0-0.6,0-0.9-0.3l-0.1-0.1l0-0.1c-0.1-0.1-0.2-0.3-0.3-0.4l0-0.1l0.1-0.1
				c-0.1-0.1-0.1-0.2-0.1-0.4l0-0.1l0.1-0.1c0-0.1-0.1-0.3-0.1-0.4c0-0.2,0.1-0.3,0.3-0.3c0.1,0,0.3,0,0.4,0.1l0,0l0.1,0
				c0.1,0,0.2,0.1,0.4,0.1l0,0l0.2,0l0.1,0c0.1,0.1,0.3,0.2,0.4,0.3l0.1,0l0.1,0.1c0.3,0.3,0.2,0.7,0.2,1.2l0,0.4l-0.2,0l-0.2,0.3
				L67.7,45.7z M67.4,45.2c0.1,0,0.2,0,0.3,0l0,0l-0.2-0.4l0.2-0.3l0.2,0l0.1,0l0.2,0.2c0-0.2,0-0.3,0-0.4h-0.1L68,44.3
				c-0.1-0.1-0.1-0.2-0.2-0.2l-0.2,0L67.6,44c-0.1,0-0.1-0.1-0.2-0.1l0,0l-0.2,0l-0.1,0c0,0-0.1,0-0.2-0.1c0,0.1,0,0.2,0,0.2l0,0.1
				L67,44.3c0,0.1,0.1,0.2,0.1,0.2l0.1,0.1l-0.1,0.1c0,0.1,0.1,0.1,0.2,0.2L67.4,45.2L67.4,45.2z"/>
		</g>
		<g>
			<path fill="#FFFFFF" d="M73.4,44.5l0.5,0.4c0,0,0,0,0,0c0-0.5,0.1-0.9-0.1-1.2c0,0,0,0,0,0c0,0,0,0,0,0.1c0,0,0,0,0,0
				c-0.1-0.1-0.3-0.3-0.4-0.4c0,0,0,0,0,0c0,0,0,0,0,0.1c0,0,0,0,0,0c-0.1-0.1-0.3-0.2-0.4-0.2c0,0,0,0,0,0c0,0,0,0,0,0c0,0,0,0,0,0
				c-0.1,0-0.4-0.1-0.5-0.1c0,0,0,0,0,0c0,0.1,0.1,0.4,0.1,0.5c0,0,0,0,0,0c0,0,0,0,0,0c0,0,0,0,0,0c0,0.1,0.1,0.3,0.2,0.5
				c0,0,0,0,0,0c0,0,0,0-0.1,0c0,0,0,0,0,0c0.1,0.2,0.3,0.4,0.4,0.5c0,0,0,0,0,0c0,0,0,0-0.1,0c0,0,0,0,0,0c0.2,0.2,0.6,0.2,1.1,0.2
				c0,0,0,0,0,0L73.4,44.5C73.3,44.5,73.3,44.5,73.4,44.5L73.4,44.5z"/>
			<path fill="#231F20" d="M73.2,45.4c-0.3,0-0.6,0-0.9-0.3L72.3,45l0-0.1c-0.1-0.1-0.2-0.3-0.3-0.4l0-0.1l0.1-0.1
				C72,44.1,72,44,71.9,43.9l0-0.1l0.1-0.1c0-0.1-0.1-0.3-0.1-0.4c0-0.2,0.1-0.3,0.3-0.3c0.1,0,0.3,0,0.4,0.1l0,0l0.2,0l0,0
				c0.1,0,0.2,0.1,0.3,0.1v0l0.2,0l0.1,0c0.1,0.1,0.2,0.1,0.4,0.3l0.1,0l0.1,0.1c0.3,0.3,0.2,0.7,0.2,1.2l0,0.4l-0.2,0l-0.2,0.3
				L73.2,45.4z M72.9,44.8c0.1,0,0.2,0,0.3,0l0,0l-0.2-0.4l0.1-0.3l0.2,0l0.1,0l0.2,0.2c0-0.2,0-0.3,0-0.4h-0.1l-0.1-0.1
				c-0.1-0.1-0.1-0.2-0.2-0.2l-0.2,0l-0.1-0.1c-0.1,0-0.1-0.1-0.2-0.1l0,0l-0.2,0l-0.1,0c0,0-0.1,0-0.2-0.1c0,0.1,0,0.2,0,0.2l0,0.1
				l-0.1,0.1c0,0.1,0.1,0.2,0.1,0.2l0.1,0.1l-0.1,0.1c0,0.1,0.1,0.1,0.2,0.2L72.9,44.8L72.9,44.8z"/>
		</g>
		<g>
			<path fill="#FFFFFF" d="M91.6,45.3C91.5,45.3,91.5,45.3,91.6,45.3C91.5,45.3,91.5,45.4,91.6,45.3c-0.1,0.1-0.1,0.1-0.1,0
				c0-0.2-0.1-0.4-0.2-0.5c0,0,0,0-0.1,0c0,0,0,0,0,0c0,0,0,0,0,0c-0.1-0.1-0.2-0.4-0.3-0.4c0,0,0,0-0.1,0c-0.1,0.1-0.2,0.3-0.3,0.5
				c0,0,0,0,0,0c0,0,0,0,0,0c0,0,0,0-0.1,0c-0.1,0.1-0.1,0.3-0.2,0.5c0,0,0,0,0,0c0,0,0,0,0,0c0,0,0,0,0,0c-0.1,0.2-0.1,0.5,0,0.6
				c0,0,0,0,0,0c0,0,0,0,0,0c0,0,0,0,0,0c0,0.3,0.3,0.6,0.6,0.9c0,0,0,0,0,0l0.2-0.6c0,0,0,0,0,0l0.1,0.6c0,0,0,0,0,0
				c0.3-0.3,0.7-0.6,0.7-0.9c0,0,0,0,0,0c0,0,0,0,0,0c0,0,0,0,0,0C91.6,45.8,91.6,45.5,91.6,45.3L91.6,45.3z"/>
			<path fill="#231F20" d="M91,47.1h-0.2l0,0l-0.3,0l-0.2-0.2c-0.3-0.3-0.6-0.6-0.6-0.9v-0.3l0.1,0c0-0.2,0-0.3,0.1-0.4l0.1-0.2
				l0.1,0c0-0.1,0.1-0.2,0.1-0.3l0.1-0.1l0.1,0c0.1-0.1,0.2-0.3,0.2-0.3l0.1-0.1l0.1,0c0.1,0,0.2,0,0.2,0.1c0.1,0.1,0.2,0.2,0.2,0.3
				h0.1l0.1,0.1c0.1,0.1,0.1,0.2,0.1,0.3h0.1l0.1,0.2c0,0.1,0.1,0.2,0.1,0.4h0.1l0,0.3c0,0.4-0.3,0.7-0.6,1l-0.2,0.2L91,47.1z
				 M90.9,45.9H91l0.1,0.2l0.1,0.3c0.1-0.1,0.2-0.2,0.2-0.3L91.4,46l0-0.1c0-0.1,0-0.2,0-0.3h-0.1l0-0.2c0-0.1,0-0.1-0.1-0.2H91
				L90.9,45c0,0,0-0.1-0.1-0.2c0,0.1-0.1,0.1-0.1,0.2l-0.1,0.1l-0.1,0c0,0.1-0.1,0.2-0.1,0.2l0,0.2l-0.1,0c0,0.1,0,0.2,0,0.3l0,0.1
				l-0.1,0.1c0,0.1,0.1,0.2,0.2,0.3l0.1-0.4L90.9,45.9z"/>
		</g>
		<g>
			<path fill="#FFFFFF" d="M80.3,44.4C80.2,44.4,80.2,44.4,80.3,44.4c-0.1,0-0.1,0-0.1,0c0,0,0,0,0,0c0-0.2-0.1-0.7-0.2-1
				c0,0-0.1,0-0.1,0c0,0,0,0,0,0.1c0,0,0,0,0,0c-0.1-0.2-0.3-0.6-0.4-0.7c0,0-0.1,0-0.1,0c0,0,0,0,0,0c0,0,0,0-0.1,0
				c-0.1-0.2-0.4-0.5-0.6-0.6c0,0-0.1,0-0.1,0c-0.1,0.2-0.3,0.6-0.3,0.8c0,0,0,0-0.1,0c0,0,0,0,0,0c0,0-0.1,0-0.1,0
				c-0.1,0.2-0.2,0.5-0.2,0.8c0,0,0,0,0,0c0,0,0,0-0.1-0.1c0,0-0.1,0-0.1,0c-0.1,0.3,0,0.8,0.1,1c0,0,0,0,0,0c0,0-0.1,0-0.1,0
				c0,0-0.1,0-0.1,0.1c0.1,0.5,0.6,0.8,1.3,1.3c0,0,0.1,0,0.1,0l0.1-1.1c0,0,0,0,0.1,0l0.4,1c0,0,0.1,0,0.1,0
				C79.9,45.5,80.3,45,80.3,44.4L80.3,44.4z"/>
			<path fill="#231F20" d="M78.8,46.5L78.8,46.5l-0.4-0.2c-0.5-0.4-1-0.7-1.1-1.2l0-0.1l0.1-0.1c0,0,0,0,0.1-0.1
				c0-0.3-0.1-0.6,0-0.8l0-0.2l0.1,0c0-0.2,0.1-0.5,0.2-0.6l0.1-0.1l0.2,0c0.1-0.2,0.2-0.5,0.3-0.7c0.1-0.1,0.2-0.1,0.3-0.1h0.1
				l0.1,0.1c0.1,0.1,0.3,0.3,0.5,0.5l0,0c0.1,0,0.2,0,0.2,0.1c0.1,0.1,0.2,0.3,0.3,0.5l0,0c0.1,0,0.2,0.1,0.2,0.1
				c0.1,0.2,0.2,0.5,0.2,0.8c0.1,0,0.2,0.1,0.2,0.2c0.1,0.6-0.3,1.1-0.7,1.6l-0.2,0.3l-0.2,0c-0.1,0-0.2-0.1-0.3-0.2l0-0.1l0,0.3
				L78.8,46.5z M77.8,45.1c0.1,0.2,0.4,0.4,0.8,0.7l0.1-0.9l0.4,0l0.1,0.2l0.3,0.7c0.3-0.3,0.5-0.6,0.5-0.9h-0.1l0-0.3
				c0-0.1,0-0.4-0.1-0.6l-0.2,0l-0.1-0.2c-0.1-0.2-0.1-0.3-0.2-0.5c0,0,0,0-0.1,0H79l-0.1-0.1c-0.1-0.1-0.2-0.3-0.4-0.4
				c-0.1,0.2-0.2,0.4-0.2,0.5l0,0.2l-0.2,0c0,0.1-0.1,0.4-0.1,0.5l0,0.2l-0.2,0c0,0.2,0,0.4,0.1,0.6l0,0.1L77.8,45.1z"/>
		</g>
		<g>
			<path fill="#FFFFFF" d="M72.1,41.3C72,41.3,72,41.3,72.1,41.3c0,0.2,0.1,0.4,0.2,0.5c0,0,0,0,0,0c0,0,0,0,0,0c0,0,0,0,0,0
				c0,0.1,0.2,0.3,0.3,0.4c0,0,0,0,0,0s0,0-0.1,0c0,0,0,0,0,0c0.1,0.2,0.4,0.3,0.5,0.3c0,0,0,0,0,0c0,0,0,0-0.1,0c0,0,0,0,0,0
				c0.3,0.2,0.6,0,1.1-0.1c0,0,0,0,0,0l-0.5-0.4c0,0,0,0,0,0l0.6,0.2c0,0,0,0,0,0c-0.1-0.5-0.2-0.9-0.4-1c0,0,0,0,0,0c0,0,0,0,0,0.1
				c0,0,0,0,0,0c-0.1-0.1-0.3-0.2-0.5-0.3c0,0,0,0,0,0c0,0,0,0,0,0.1c0,0,0,0,0,0c-0.1-0.1-0.4-0.1-0.5-0.1c0,0,0,0,0,0c0,0,0,0,0,0
				c0,0,0,0,0,0C72.4,41.2,72.2,41.3,72.1,41.3L72.1,41.3z"/>
			<path fill="#231F20" d="M73.1,43.2c-0.2,0-0.3,0-0.4-0.1L72.6,43l0-0.1c-0.2-0.1-0.3-0.2-0.4-0.3l-0.1-0.1l0-0.1
				C72.1,42.2,72,42.1,72,42l0-0.1l0-0.1c-0.1-0.1-0.1-0.3-0.2-0.4l0-0.1l0.1-0.1c0-0.1,0.1-0.1,0.2-0.1c0.1,0,0.3,0,0.4,0l0.1-0.1
				l0.1,0c0.1,0,0.2,0,0.3,0l0-0.1l0.2,0c0.2,0,0.3,0.1,0.5,0.2l0.2,0l0.1,0c0.3,0.2,0.4,0.6,0.5,1l0.1,0.3l-0.2,0.2l-0.1,0.3
				L73.9,43C73.6,43.1,73.4,43.2,73.1,43.2z M72.8,42.4c0.1,0,0.1,0.1,0.2,0.1l0.2,0.1l0,0.1c0.1,0,0.2,0,0.4-0.1l-0.3-0.3l0.1-0.3
				l0.2,0l0.1,0l0.2,0.1c0-0.1-0.1-0.3-0.1-0.4l-0.1,0l-0.1,0c-0.1-0.1-0.2-0.1-0.2-0.1l0,0l-0.2,0l-0.1,0c-0.1,0-0.1,0-0.2,0
				l-0.1,0.1l-0.2,0l-0.1,0c0,0-0.1,0-0.1,0c0,0.1,0.1,0.1,0.1,0.2l0.1,0.1l-0.1,0.1c0,0.1,0.1,0.1,0.2,0.2l0.1,0.1L72.8,42.4z"/>
		</g>
		<g>
			<path fill="#FFFFFF" d="M81.1,42.8C81.1,42.8,81.1,42.7,81.1,42.8C81.1,42.7,81.1,42.7,81.1,42.8C81,42.7,81,42.7,81.1,42.8
				c0-0.2,0.2-0.4,0.3-0.6c0,0,0,0,0,0c0,0,0,0-0.1,0c0,0,0,0,0,0c0.1-0.1,0.2-0.3,0.2-0.5c0,0,0,0,0,0c0,0,0,0,0,0c0,0,0,0,0,0
				c0-0.1,0.1-0.4,0.1-0.5c0,0,0,0,0,0c-0.1,0-0.4,0.1-0.5,0.1c0,0,0,0,0,0c0,0,0,0,0,0c0,0,0,0,0,0c-0.1,0-0.3,0.1-0.4,0.2
				c0,0,0,0,0,0c0,0,0,0,0-0.1c0,0,0,0,0,0c-0.2,0.1-0.4,0.3-0.4,0.4c0,0,0,0,0,0c0,0,0,0,0-0.1c0,0,0,0,0,0
				c-0.2,0.2-0.2,0.7-0.1,1.2c0,0,0,0,0,0l0.5-0.4c0,0,0,0,0,0L80,42.9c0,0,0,0,0,0C80.5,43,80.9,43,81.1,42.8L81.1,42.8z"/>
			<path fill="#231F20" d="M80.4,43.2l-0.5,0L79.8,43l0,0h-0.2l0-0.4c0-0.4-0.1-0.9,0.2-1.2l0.1-0.1l0.2,0c0.1-0.1,0.2-0.2,0.4-0.3
				l0.1,0l0.1,0c0.1-0.1,0.2-0.1,0.3-0.1h0.1l0.1,0c0.1,0,0.3-0.1,0.4-0.1c0.2,0,0.3,0.1,0.3,0.3c0,0.1,0,0.3-0.1,0.4l0.1,0.1l0,0.1
				c0,0.1-0.1,0.2-0.1,0.4l0.1,0.1l0,0.1c-0.1,0.1-0.2,0.3-0.3,0.4l0,0.1l-0.1,0.1C81.1,43.2,80.7,43.2,80.4,43.2z M80.4,42.7
				L80.4,42.7c0.1,0,0.3,0,0.3,0l0-0.1l0.1-0.1c0.1-0.1,0.2-0.2,0.2-0.2L81,42.2l0.1-0.1c0-0.1,0.1-0.2,0.1-0.2v0l-0.1-0.1l0-0.1
				c0-0.1,0-0.1,0-0.2c-0.1,0-0.1,0-0.2,0.1l-0.1,0h-0.1l0,0c-0.1,0-0.1,0.1-0.2,0.1l-0.1,0.1l-0.2,0c-0.1,0.1-0.1,0.1-0.2,0.2
				l-0.1,0.1l-0.1,0c0,0.1,0,0.2,0,0.4l0.3-0.2l0.2,0l0.2,0.2l0,0.1L80.4,42.7z"/>
		</g>
		<g>
			<path fill="#FFFFFF" d="M77.1,43.8C77.1,43.8,77.1,43.8,77.1,43.8c-0.1,0.1-0.1,0.1-0.1,0c0-0.2,0.1-0.7,0.1-1c0,0,0,0-0.1,0
				c0,0,0,0-0.1,0.1c0,0,0,0,0,0c0-0.3-0.1-0.6-0.2-0.8c0,0-0.1,0-0.1,0c0,0,0,0,0,0c0,0,0,0-0.1,0c-0.1-0.2-0.2-0.6-0.3-0.8
				c0,0-0.1,0-0.1,0c-0.2,0.1-0.5,0.5-0.6,0.6c0,0,0,0-0.1,0c0,0,0,0,0,0c0,0-0.1,0-0.1,0c-0.1,0.1-0.3,0.5-0.4,0.7c0,0,0,0,0,0
				c0,0,0-0.1,0-0.1c0,0-0.1,0-0.1,0c-0.2,0.3-0.2,0.7-0.2,1c0,0,0,0,0,0c0,0,0-0.1-0.1-0.1c0,0-0.1,0-0.1,0c-0.1,0.5,0.3,1,0.8,1.7
				c0,0,0.1,0,0.1,0l0.4-1c0,0,0,0,0.1,0l0.1,1.1c0,0,0,0.1,0.1,0C76.5,44.7,77.1,44.4,77.1,43.8C77.2,43.8,77.1,43.8,77.1,43.8
				L77.1,43.8z"/>
			<path fill="#231F20" d="M75.9,45.4h-0.2L75.6,45l-0.1,0.2l-0.2,0c-0.1,0-0.2,0-0.2-0.1l-0.2-0.2c-0.4-0.6-0.8-1-0.7-1.6l0-0.2
				l0.2,0c0-0.3,0.1-0.6,0.2-0.8l0.1-0.1l0.2,0c0,0,0,0,0,0c0.1-0.2,0.2-0.4,0.3-0.5l0.1-0.1l0.1,0c0,0,0,0,0.1,0
				c0.1-0.2,0.4-0.4,0.5-0.5l0.1,0l0.1,0c0.1,0,0.2,0.1,0.3,0.1c0.1,0.1,0.2,0.4,0.3,0.7c0.1,0,0.2,0.1,0.2,0.2
				c0.1,0.1,0.1,0.4,0.2,0.6c0.1,0,0.2,0.1,0.2,0.2c0.1,0.2,0,0.5,0,0.8l0.1,0.1c0.1,0.1,0.1,0.2,0.1,0.2c-0.1,0.6-0.6,0.9-1.1,1.3
				L76,45.4L75.9,45.4z M75.7,43.8h0.2L76,44l0.1,0.7c0.3-0.2,0.6-0.4,0.8-0.7l-0.1-0.1l0-0.2c0-0.1,0.1-0.4,0.1-0.6h-0.2l0-0.3
				c0-0.2,0-0.4-0.1-0.5h-0.2l-0.1-0.2c0-0.1-0.1-0.4-0.2-0.5c-0.1,0.1-0.3,0.3-0.4,0.4l-0.1,0.1l-0.2,0c-0.1,0.1-0.2,0.3-0.2,0.5
				l-0.1,0.2l-0.2,0c0,0.2-0.1,0.4-0.1,0.6l0,0.2l-0.2,0c0.1,0.3,0.3,0.6,0.5,0.9l0.3-0.8L75.7,43.8z"/>
		</g>
		<g>
			<path fill="#FFFFFF" d="M85.7,46.9l0.5,0.4c0,0,0,0,0,0c0-0.5,0.1-0.9-0.1-1.2c0,0,0,0,0,0c0,0,0,0,0,0.1c0,0,0,0,0,0
				c-0.1-0.1-0.3-0.3-0.4-0.4c0,0,0,0,0,0c0,0,0,0,0,0.1c0,0,0,0,0,0c-0.1-0.1-0.3-0.2-0.4-0.2c0,0,0,0,0,0c0,0,0,0,0,0c0,0,0,0,0,0
				c-0.1,0-0.4-0.1-0.5-0.1c0,0,0,0,0,0c0,0.1,0,0.4,0.1,0.5c0,0,0,0,0,0c0,0,0,0,0,0c0,0,0,0,0,0c0,0.1,0.1,0.3,0.2,0.5
				c0,0,0,0,0,0c0,0,0,0-0.1,0c0,0,0,0,0,0c0.1,0.2,0.3,0.4,0.4,0.5c0,0,0,0,0,0c0,0,0,0-0.1,0c0,0,0,0,0,0c0.2,0.2,0.6,0.2,1.1,0.2
				c0,0,0,0,0,0L85.7,46.9C85.7,46.9,85.7,46.8,85.7,46.9L85.7,46.9z"/>
			<path fill="#231F20" d="M85.6,47.7c-0.3,0-0.6,0-0.9-0.3l-0.1-0.1l0-0.1c-0.1-0.1-0.2-0.3-0.3-0.4l0-0.1l0.1-0.1
				c-0.1-0.1-0.1-0.3-0.1-0.4l0-0.1l0.1-0.1c0-0.1-0.1-0.3-0.1-0.4c0-0.2,0.1-0.3,0.3-0.3c0.1,0,0.3,0,0.4,0.1l0,0l0.1,0
				c0.1,0,0.2,0.1,0.4,0.1l0,0l0.2,0l0.1,0c0.1,0.1,0.3,0.2,0.4,0.3l0.1,0l0.1,0.1c0.3,0.3,0.2,0.7,0.2,1.1l0,0.4l-0.2,0l-0.2,0.3
				L85.6,47.7z M85.3,47.2c0.1,0,0.2,0,0.3,0h0l-0.2-0.4l0.2-0.3l0.2,0l0.1,0l0.2,0.2c0-0.2,0-0.3,0-0.4H86l-0.1-0.1
				c-0.1-0.1-0.1-0.2-0.2-0.2l-0.2,0L85.5,46c0,0-0.1-0.1-0.2-0.1l0,0l-0.2,0l-0.1,0c0,0-0.1,0-0.2-0.1c0,0.1,0,0.2,0,0.2l0,0.1
				l-0.1,0.1c0,0.1,0.1,0.2,0.1,0.2l0.1,0.1L85,46.8c0,0.1,0.1,0.1,0.2,0.2L85.3,47.2L85.3,47.2z"/>
		</g>
		<g>
			<path fill="#FFFFFF" d="M86.2,42.7C86.2,42.7,86.1,42.7,86.2,42.7C86.1,42.8,86.1,42.8,86.2,42.7C86.1,42.8,86.1,42.8,86.2,42.7
				c-0.2,0-0.3-0.2-0.5-0.3c0,0,0,0,0,0c0,0,0,0,0,0.1c0,0,0,0,0,0c-0.1-0.1-0.3-0.2-0.4-0.2c0,0,0,0,0,0c0,0,0,0,0,0c0,0,0,0,0,0
				c-0.1,0-0.4-0.1-0.5-0.1c0,0,0,0,0,0c0,0.1,0.1,0.4,0.1,0.5c0,0,0,0,0,0c0,0,0,0,0,0c0,0,0,0,0,0c0,0.1,0.1,0.3,0.2,0.5
				c0,0,0,0,0,0c0,0,0,0-0.1,0c0,0,0,0,0,0c0.1,0.2,0.3,0.4,0.4,0.5c0,0,0,0,0,0c0,0,0,0-0.1,0c0,0,0,0,0,0c0.2,0.2,0.6,0.2,1.1,0.2
				c0,0,0,0,0,0l-0.3-0.6c0,0,0,0,0,0l0.5,0.4c0,0,0,0,0,0C86.3,43.4,86.4,43,86.2,42.7L86.2,42.7z"/>
			<path fill="#231F20" d="M85.6,44.4c-0.3,0-0.6,0-0.9-0.3L84.6,44l0-0.1c-0.1-0.1-0.2-0.3-0.3-0.4l0-0.1l0.1-0.1
				c-0.1-0.1-0.1-0.3-0.1-0.4l0-0.1l0.1-0.1c0-0.1-0.1-0.3-0.1-0.4c0-0.2,0.1-0.3,0.3-0.3c0.1,0,0.3,0,0.4,0.1l0,0l0.1,0
				c0.1,0,0.2,0.1,0.4,0.1l0,0l0.2,0l0.1,0c0.1,0.1,0.3,0.2,0.4,0.3l0.1,0l0.1,0.1c0.3,0.3,0.2,0.7,0.2,1.2l0,0.4l-0.2,0l-0.2,0.3
				L85.6,44.4z M85.3,43.9c0.1,0,0.2,0,0.3,0h0l-0.2-0.4l0.2-0.3l0.2,0l0.1,0l0.2,0.2c0-0.2,0-0.3,0-0.4H86L85.9,43
				c-0.1-0.1-0.1-0.2-0.2-0.2l-0.2,0l-0.1-0.1c-0.1,0-0.1-0.1-0.2-0.1l0,0l-0.2,0l-0.1,0c0,0-0.1,0-0.2-0.1c0,0.1,0,0.2,0,0.2l0,0.1
				L84.8,43c0,0.1,0.1,0.2,0.1,0.2l0.1,0.1L85,43.5c0.1,0.1,0.1,0.1,0.2,0.2L85.3,43.9L85.3,43.9z"/>
		</g>
	</g>
	<g>
		<path fill="#FFFFFF" d="M64.4,85C64.4,85,64.4,85,64.4,85c0.2,0.2,0.4,0.3,0.6,0.5c-0.2-0.3-0.3-0.6-0.4-1c0-0.1,0-0.2,0-0.2
			c0-0.2-0.4-2.2,0.2-4.2c0.3-1,0.7-1.9,1.5-2.7c0,0,0,3.6,2.1,5.8c0,0-0.1-1.2,1.1-3.7c1.2-2.6,0.3-6.1,0.3-6.1s1.9,2,2.9,5
			c0.5-0.7,0.9-1.1,0.8-0.9c-0.4,1-0.2,1.8,0.1,2.5c0.3,0.9,0.8,1.7,0.8,2.9c0,0.6-0.3,1.3-0.7,1.9c-0.1,0.2-0.2,0.4-0.4,0.5
			c0.2-0.1,0.3-0.2,0.4-0.3c0,0,0,0,0,0c0,0,3.6-2.6,3.6-4.9c0-2.3-1.7-3.3-0.9-5.5c0.1-0.2-0.6,0.4-1.3,1.5c-1.7-8.1-9-13.3-9-13.3
			s3.3,4.2,2.1,8.4c-1.2,4.2-0.5,6.7-0.5,6.7c-2.1-3.2-1-8.4-1-8.4c-2,2-3.1,4.4-3.7,6.4c-0.6-1-1.1-1.5-1.1-1.3
			c0.8,2.2-1,3.2-0.9,5.4C61.1,82.4,64.4,85,64.4,85L64.4,85z"/>
	</g>
</g>
<path d="M71.9,87.4h6.7v-0.9H62.3v0.9h7.6H71.9z"/>
</svg>
