<?xml version="1.0" encoding="utf-8"?>
<!-- Generator: Adobe Illustrator 18.1.1, SVG Export Plug-In . SVG Version: 6.00 Build 0)  -->
<!DOCTYPE svg PUBLIC "-//W3C//DTD SVG 1.1//EN" "http://www.w3.org/Graphics/SVG/1.1/DTD/svg11.dtd">
<svg version="1.1" id="Capa_1" xmlns="http://www.w3.org/2000/svg" xmlns:xlink="http://www.w3.org/1999/xlink" x="0px" y="0px"
	 viewBox="216 -216.6 560.6 560.6" enable-background="new 216 -216.6 560.6 560.6" xml:space="preserve">
<g>
	<path d="M504.5,317.9c-16.5-33-11.6-83.5-11-130.5c8.4-22.6,8.9-51.7,8.3-81.7c0.4-0.5,0.9-1.1,1.3-1.6c1.1-0.9,2-2.1,3.1-2.8
		c1.1-0.7,2.1-1.7,3.2-2.1c0.5-0.3,1.1-0.5,1.6-0.8c0.3-0.1,0.5-0.3,0.8-0.4c0.3-0.1,0.5-0.1,0.8-0.2c1-0.3,1.9-0.5,2.8-0.8
		c0.8-0.1,1.6-0.1,2.2-0.2c1.2-0.1,1.9-0.1,1.9-0.1s-0.7-0.1-1.9-0.2c-0.6,0-1.4-0.2-2.2-0.2c-0.9,0.1-1.9,0.2-2.9,0.3
		c-0.3,0-0.5,0.1-0.8,0.1c-0.3,0.1-0.6,0.2-0.8,0.3c-0.6,0.2-1.2,0.4-1.8,0.6c-1.3,0.3-2.4,1.1-3.7,1.7c-1.2,0.6-2.3,1.6-3.5,2.4
		c-0.3-10.5-0.6-21-0.8-31.4c0-0.5,0-1,0-1.5c0.3-0.2,0.6-0.4,0.8-0.7l0,0l0.3-0.4c0,0,0.4-0.6,1.1-1.7c0.7-1.1,1.8-2.5,3.2-4.3
		c0.7-0.8,1.5-1.7,2.3-2.7c0.9-0.9,1.7-1.9,2.7-2.8c1-0.9,2-1.9,3.1-2.8c1-0.9,2.2-1.7,3.3-2.5c1.1-0.8,2.4-1.4,3.5-2.1
		c1.2-0.5,2.4-1.1,3.6-1.4c1.2-0.2,2.4-0.7,3.5-0.8c1.1,0,2.2-0.3,3.2-0.1c1,0.1,1.9,0.2,2.8,0.3c0.8,0.2,1.5,0.5,2.1,0.6
		c1.2,0.4,1.8,0.6,1.8,0.6s-0.6-0.3-1.7-0.9c-0.6-0.3-1.2-0.7-2-1c-0.8-0.2-1.8-0.5-2.8-0.8c-1-0.3-2.2-0.3-3.4-0.4
		c-1.2-0.2-2.5,0.1-3.8,0.2c-1.3,0.2-2.7,0.6-4.1,0.9c-1.3,0.5-2.7,1-4,1.6c-1.3,0.7-2.7,1.3-3.9,2.1c-1.3,0.7-2.5,1.6-3.6,2.4
		c-1.2,0.8-2.2,1.7-3.2,2.5c-1,0.9-1.9,1.7-2.8,2.5c-0.7,0.7-1.4,1.3-2,1.9c1.2-44,14.4-75.1,39.4-95.8c9.1-7.5,19.6-12.7,30.8-16.4
		c0.2,0.1,0.3,0.1,0.5,0.2c1.2,0.5,3,1.3,5.1,2.2c4.2,1.9,9.7,4.8,14.9,8.2c5.2,3.4,10.2,7.6,13.2,11.5c0.8,1,1.4,1.9,1.9,2.8
		c0.5,0.9,0.9,1.7,1.2,2.4c0.3,0.7,0.5,1.3,0.6,1.7c0.1,0.4,0.2,0.6,0.2,0.6s0-0.2-0.1-0.6c-0.1-0.4-0.2-1-0.5-1.8
		c-0.2-0.8-0.6-1.6-1-2.6c-0.5-1-1-2.1-1.7-3.2c-1.4-2.2-3.2-4.6-5.3-7c-2.1-2.3-4.5-4.6-7-6.8c-4.7-4.1-9.7-7.6-13.7-10.2
		c20.5-5.4,43.1-7,65.3-9.7c9.3-1.1,20-3.5,29.4-8.3c0.5,0.8,1.3,1.3,2.2,1.3c0.1,0,0.2,0,0.3,0l0.1,0c0,0,0.7-0.1,2-0.2
		c1.3-0.1,3.2-0.2,5.4-0.2c4.5-0.1,10.5,0,16.4,0.8c5.9,0.8,11.8,2.4,15.9,4.7c1,0.6,1.9,1.2,2.7,1.7c0.8,0.6,1.4,1.1,1.9,1.7
		c0.5,0.5,0.9,1,1.1,1.2c0.2,0.3,0.4,0.5,0.4,0.5s-0.1-0.2-0.3-0.5c-0.2-0.3-0.5-0.8-1-1.4c-0.4-0.6-1.1-1.2-1.8-2
		c-0.7-0.7-1.6-1.4-2.6-2.2c-2-1.5-4.4-2.9-7.1-4.1c-2.7-1.2-5.7-2.2-8.7-3.1c-6-1.7-12.1-2.7-16.7-3.3c-0.7-0.1-1.3-0.2-1.9-0.2
		c10.1-7.7,16.8-19.5,14.9-37.1c-0.1,48.3-58.1,44.5-92.6,42.8c34.3-16.7,68.4-34.3,91.7-66.4c-10.2,11.5-22.2,20.3-35.2,27.6
		c0-0.1,0-0.1,0-0.2c0.2-0.9,0.4-2,0.6-3c0.1-1.1,0.3-2.2,0.3-3.3c0.1-1.1,0.1-2.2,0.1-3.4c0-1.1-0.1-2.3-0.2-3.4
		c-0.1-1.1-0.3-2.2-0.4-3.2c-0.1-1-0.4-2-0.7-2.9c-0.2-0.9-0.5-1.7-0.8-2.5c-0.3-0.7-0.5-1.5-0.8-2c-0.3-0.6-0.5-1.1-0.7-1.5
		c-0.4-0.8-0.6-1.3-0.6-1.3s0.1,0.5,0.4,1.4c0.1,0.4,0.3,1,0.4,1.6c0.2,0.6,0.3,1.4,0.4,2.1c0.1,0.8,0.3,1.6,0.3,2.5
		c0.1,0.9,0.2,1.8,0.1,2.8c0,1,0,2-0.1,3c-0.1,1-0.2,2-0.4,3c-0.1,1-0.4,2-0.6,2.9c-0.2,1-0.5,1.9-0.8,2.8c-0.3,0.9-0.6,1.7-0.9,2.5
		c-0.3,0.8-0.6,1.5-1,2.1c-0.6,1.3-1.2,2.3-1.6,3c-0.2,0.3-0.4,0.6-0.5,0.7c-0.1,0.1-0.1,0.2-0.1,0.2
		c-49.7,25.4-111.4,33.2-144.4,82.2c4.5-15.8,11.3-30.8,15.3-48c0.1-0.1,0.2-0.2,0.3-0.3c0.1-0.2,0.3-0.4,0.4-0.6l0,0
		c0,0,0.1-0.1,0.1-0.3c0.1-0.2,0.2-0.4,0.4-0.8c0.4-0.7,1-1.7,1.8-2.8c0.4-0.6,0.9-1.2,1.4-1.8c0.5-0.6,1.1-1.2,1.6-1.9
		c0.6-0.6,1.2-1.3,1.9-1.8c0.7-0.6,1.4-1.2,2.1-1.7c0.7-0.6,1.5-1,2.3-1.4c0.8-0.5,1.5-0.8,2.3-1.1c0.8-0.4,1.5-0.6,2.3-0.8
		c0.7-0.3,1.4-0.4,2.1-0.5c0.7-0.1,1.3-0.3,1.8-0.3c0.5,0,1,0,1.4-0.1c0.8,0,1.2,0,1.2,0s-0.4-0.1-1.2-0.3c-0.4-0.1-0.9-0.2-1.4-0.3
		c-0.6-0.1-1.2-0.1-1.9-0.2c-0.7-0.1-1.4-0.1-2.2,0c-0.8,0.1-1.7,0-2.5,0.2c-0.9,0.2-1.8,0.3-2.7,0.6c-0.9,0.2-1.8,0.5-2.7,0.9
		c-0.9,0.3-1.8,0.8-2.6,1.3c-0.9,0.4-1.7,1-2.5,1.5c-0.6,0.4-1.1,0.8-1.6,1.2c2.3-16.5,1.2-35.2-7.1-58.3c7.4,26.7,5.9,46.8,1,64.4
		c-0.5,0.7-0.8,1.6-0.7,2.5c-6.8,22.2-18.9,40.5-25.2,62.7c-0.1-0.3-0.3-0.6-0.4-0.9c-1-2.1-2.3-4.5-3.9-6.9
		c-0.4-0.6-0.8-1.2-1.2-1.8c-0.4-0.6-0.9-1.2-1.3-1.8c-0.9-1.2-1.9-2.3-2.9-3.4c-1-1.1-2.1-2-3.2-3c-1.2-0.8-2.2-1.7-3.4-2.3
		c-1.2-0.6-2.3-1.3-3.4-1.6c-0.6-0.2-1.1-0.3-1.6-0.5c-0.3-0.1-0.5-0.2-0.8-0.2c-0.3,0-0.5-0.1-0.8-0.1c-1-0.1-1.9-0.2-2.7-0.3
		c-0.8,0-1.5,0.1-2.1,0.2c-1.1,0.1-1.8,0.2-1.8,0.2s0.7,0,1.8,0.1c0.6,0.1,1.3,0.1,2,0.2c0.8,0.2,1.6,0.5,2.6,0.7
		c0.2,0.1,0.5,0.1,0.7,0.2c0.2,0.1,0.5,0.2,0.7,0.4c0.5,0.2,1,0.5,1.5,0.7c1,0.4,2,1.3,3,2c1,0.7,1.9,1.8,2.9,2.6
		c0.9,1,1.8,2.1,2.6,3.2c0.8,1.2,1.6,2.3,2.3,3.5c0.3,0.6,0.7,1.2,1,1.8c0.3,0.6,0.6,1.2,0.9,1.9c1.2,2.4,2.1,4.8,2.8,6.9
		c0.7,2.1,1.2,3.8,1.5,5.1c0.3,1.2,0.4,1.9,0.4,1.9c0.1,0.4,0.3,0.8,0.6,1.2c0,0,0,0,0,0c-6.9,37.2-0.2,85.4-2.8,125.8
		c-7-23.6-21.9-45.7-29.1-69.3c0-1-0.2-1.9-0.8-2.7c-5.4-19-6.9-40.8,1-69.6c-9,24.8-10.1,45.1-7.7,62.9c-0.6-0.4-1.2-0.9-1.8-1.3
		c-0.9-0.5-1.7-1.1-2.7-1.6c-0.9-0.5-1.9-1-2.9-1.4c-1-0.4-2-0.8-2.9-1c-1-0.3-2-0.5-2.9-0.6c-0.9-0.2-1.9-0.2-2.7-0.3
		c-0.9-0.1-1.7,0-2.4,0c-0.7,0.1-1.4,0.1-2,0.2c-0.6,0.1-1.1,0.2-1.5,0.3c-0.8,0.2-1.3,0.3-1.3,0.3s0.5,0,1.3,0.1
		c0.4,0,0.9,0,1.5,0.1c0.6,0,1.2,0.2,2,0.3c0.7,0.1,1.5,0.2,2.3,0.5c0.8,0.3,1.6,0.4,2.4,0.9c0.8,0.4,1.7,0.7,2.5,1.2
		c0.8,0.5,1.7,0.9,2.4,1.5c0.8,0.5,1.6,1.2,2.3,1.8c0.7,0.6,1.4,1.3,2.1,2c0.6,0.7,1.2,1.3,1.8,2c0.5,0.7,1,1.3,1.5,1.9
		c0.9,1.2,1.5,2.3,1.9,3.1c0.2,0.4,0.4,0.7,0.4,0.8c0.1,0.2,0.2,0.3,0.2,0.3l0,0c0.1,0.2,0.2,0.4,0.4,0.6c0.1,0.1,0.2,0.2,0.3,0.3
		c4.3,18.6,11.7,34.9,16.5,51.9c-35.7-52.9-102.3-61.3-155.9-88.8c0,0-0.1-0.1-0.1-0.2c-0.1-0.1-0.3-0.4-0.5-0.8
		c-0.5-0.7-1.1-1.8-1.8-3.2c-0.3-0.7-0.7-1.5-1-2.3c-0.4-0.8-0.6-1.7-1-2.7c-0.3-1-0.6-1.9-0.9-3c-0.2-1-0.5-2.1-0.6-3.2
		c-0.2-1.1-0.3-2.2-0.4-3.3c-0.1-1.1-0.1-2.2-0.1-3.2c0-1.1,0.1-2.1,0.2-3c0-1,0.2-1.9,0.4-2.7c0.2-0.8,0.3-1.6,0.4-2.3
		c0.2-0.7,0.3-1.2,0.5-1.7c0.3-1,0.4-1.5,0.4-1.5s-0.2,0.5-0.7,1.4c-0.2,0.4-0.5,1-0.8,1.6c-0.3,0.6-0.5,1.4-0.8,2.2
		c-0.3,0.8-0.6,1.7-0.8,2.7c-0.2,1-0.6,2-0.7,3.1c-0.2,1.1-0.4,2.3-0.5,3.4c-0.1,1.2-0.2,2.4-0.2,3.6c0,1.2,0,2.5,0.1,3.7
		c0.1,1.2,0.2,2.4,0.4,3.5c0.2,1.1,0.3,2.3,0.6,3.3c0,0.1,0,0.1,0.1,0.2c-14-7.9-27-17.4-38-29.8c25.1,34.7,61.9,53.7,99,71.7
		c-37.3,1.8-99.9,6-100-46.2c-2,19,5.2,31.7,16.1,40.1c-0.7,0.1-1.3,0.1-2.1,0.2c-5,0.6-11.6,1.7-18.1,3.6c-3.2,0.9-6.4,2-9.4,3.3
		c-2.9,1.3-5.6,2.8-7.7,4.4c-1.1,0.8-2,1.6-2.8,2.3c-0.8,0.8-1.4,1.5-1.9,2.1c-0.5,0.6-0.8,1.2-1.1,1.5c-0.2,0.4-0.4,0.6-0.4,0.6
		s0.1-0.2,0.4-0.5c0.3-0.3,0.6-0.8,1.2-1.3c0.5-0.6,1.2-1.2,2.1-1.8c0.8-0.6,1.8-1.3,2.9-1.9c4.4-2.5,10.7-4.2,17.2-5
		c6.4-0.9,12.9-1,17.7-0.9c2.4,0,4.4,0.2,5.8,0.2c1.4,0.1,2.2,0.2,2.2,0.2l0.1,0c0.1,0,0.2,0,0.4,0c1-0.1,1.8-0.6,2.3-1.5
		c10.1,5.1,21.6,7.7,31.7,8.9c24,2.9,48.4,4.6,70.5,10.5c-4.3,2.8-9.7,6.6-14.8,11c-2.7,2.3-5.3,4.8-7.6,7.3
		c-2.3,2.5-4.3,5.1-5.7,7.5c-0.7,1.2-1.3,2.4-1.8,3.4c-0.5,1.1-0.8,2-1.1,2.8c-0.3,0.8-0.4,1.5-0.5,1.9c-0.1,0.4-0.2,0.7-0.2,0.7
		s0.1-0.2,0.2-0.6c0.2-0.4,0.3-1.1,0.7-1.8c0.3-0.8,0.8-1.6,1.3-2.6c0.6-0.9,1.3-2,2.1-3c3.3-4.3,8.6-8.7,14.3-12.4
		c5.6-3.7,11.6-6.8,16.1-8.9c2.3-1.1,4.1-1.9,5.5-2.4c0.2-0.1,0.4-0.1,0.5-0.2c12.2,4,23.4,9.6,33.3,17.7
		c27,22.3,41.3,55.9,42.5,103.4c-0.6-0.7-1.3-1.4-2.1-2.1c-0.9-0.9-1.9-1.8-3-2.7c-1.1-0.9-2.2-1.9-3.5-2.7
		c-1.2-0.9-2.5-1.8-3.9-2.6c-1.3-0.9-2.8-1.6-4.2-2.3c-1.4-0.7-2.9-1.2-4.4-1.8c-1.5-0.3-2.9-0.8-4.4-1c-1.5-0.1-2.8-0.4-4.1-0.2
		c-1.3,0.2-2.6,0.1-3.7,0.4c-1.1,0.3-2.1,0.6-3,0.9c-0.9,0.3-1.6,0.8-2.2,1.1c-1.2,0.6-1.9,1-1.9,1s0.7-0.2,2-0.7
		c0.6-0.2,1.4-0.5,2.2-0.7c0.9-0.1,1.9-0.2,3-0.4c1.1-0.2,2.3,0.1,3.5,0.1c1.2,0,2.5,0.6,3.8,0.8c1.3,0.4,2.6,1,3.9,1.5
		c1.3,0.8,2.6,1.4,3.8,2.3c1.2,0.9,2.5,1.7,3.6,2.7c1.2,0.9,2.3,1.9,3.3,3c1.1,1,2,2.1,2.9,3c0.9,1,1.7,2,2.5,2.9
		c1.5,1.9,2.7,3.4,3.4,4.6c0.8,1.1,1.1,1.7,1.2,1.8l0.3,0.4l0,0c0.3,0.3,0.6,0.6,0.9,0.7c0,0.6,0,1.1,0,1.7
		c-0.6,36.3-3.4,74.8,2.4,106.2c-0.4,0-0.8,0-1.2,0"/>
	<path d="M368.3,1.3c-4.8-4.7-10.3-7.6-15.8-10.9c-4.3-2.6-8.9-6-11.4-11.2c1.1,6.4,3.1,13.3,6.7,18.4c5.2,7.2,12.3,11.7,18.3,17.6
		c4.1,3.9,7.4,9.3,9.6,14.9C377.8,19.8,375.2,8.1,368.3,1.3z"/>
	<path d="M364.3,15.8c-7.4-7.4-17.1-12.6-20.8-24c-0.4,5.1-0.1,10.4,0.9,15.3c1.8,8.7,6.9,14.6,13.4,18.8c1.7,1.1,3.5,1.9,5.3,2.7
		c1.8,0.8,3.6,1.5,5.4,2.4c1.7,0.9,3.2,1.7,4.5,3.3c0.8,1,1.5,2,2.1,3C375.1,37.3,373.5,25.1,364.3,15.8z"/>
	<path d="M549.2-93.5c6,1.6,11.8,3.5,18,3.5c9,0,17.2-7.1,21.1-16.5c-4.7,2.7-10.2,4.2-15.4,4.2c-7.9,0-15.7-2-23.6-0.3
		c-5.5,1.2-10.7,5-15,9.1C539.1-95.6,544.4-94.8,549.2-93.5z"/>
	<path d="M588.4-112c-1.8,0.3-3.5-0.3-5.2-0.9c-1.9-0.6-3.7-1.5-5.5-2.2c-1.8-0.8-3.6-1.5-5.5-1.9c-7.2-1.7-14.3-0.9-20.3,4.4
		c-3.4,3-6.5,6.9-8.9,11.1c8.9-5.9,19.3-2.6,28.9-2.8c12.1-0.2,19.8-8.4,19.8-8.4C590.6-112.4,589.5-112.1,588.4-112z"/>
	<path d="M442.1,12.7c-2.7,2.3-6,4-9.3,4.7c-5,1-10.1,0.8-14.9,2.9c-3.3,1.5-6.3,4.6-8.6,7.7c2.8-1.9,6.2-2.1,9.3-2
		c3.9,0.2,7.8,0.7,11.7-0.1C435.9,24.8,440.5,19.2,442.1,12.7z"/>
	<path d="M443.6,8.4c-0.7,0.3-1.3,0.6-2,0.9c-1.1,0.4-2.2,0.3-3.4,0.2c-1.2-0.2-2.4-0.4-3.7-0.7c-1.2-0.2-2.4-0.5-3.7-0.5
		c-4.7-0.1-9.1,1.3-12.4,5.4c-1.9,2.4-3.5,5.2-4.6,8.2c5.1-4.9,11.9-4.2,18-5.5C439.5,14.7,443.6,8.4,443.6,8.4z"/>
	<path d="M444.5-20.1c3.3,0.7,6.6,2.4,9.3,4.7c-1.6-6.5-6.2-12-11.8-13.2c-3.9-0.8-7.8-0.3-11.7-0.1c-3.1,0.2-6.6,0-9.3-2
		c2.3,3.2,5.3,6.3,8.6,7.7C434.4-20.9,439.5-21.1,444.5-20.1z"/>
	<path d="M449.9-12.1c1.1-0.1,2.3-0.3,3.4,0.2c0.7,0.2,1.4,0.5,2,0.9c0,0-4.1-6.2-11.7-7.9c-6.1-1.3-12.9-0.6-18-5.5
		c1.1,3,2.7,5.8,4.6,8.2c3.3,4.1,7.7,5.6,12.4,5.4c1.2,0,2.4-0.3,3.6-0.5C447.5-11.6,448.7-11.9,449.9-12.1z"/>
	<path d="M488.1-86c4.8,2.1,9.9,1.9,14.9,2.9c3.3,0.7,6.6,2.4,9.3,4.7c-1.6-6.5-6.2-12-11.8-13.2c-3.9-0.8-7.8-0.3-11.7-0.1
		c-3.1,0.2-6.6,0-9.3-2C481.8-90.6,484.8-87.5,488.1-86z"/>
	<path d="M501.2-74c1.2,0,2.4-0.3,3.7-0.5c1.2-0.2,2.4-0.5,3.7-0.7c1.1-0.1,2.3-0.3,3.4,0.2c0.7,0.2,1.4,0.5,2,0.9
		c0,0-4.1-6.2-11.7-7.9c-6.1-1.3-12.9-0.6-18-5.5c1.1,3,2.7,5.8,4.6,8.2C492-75.3,496.4-73.8,501.2-74z"/>
	<path d="M480.5,22.9c-2.2-1.2-4.6-1.6-6.9-2.1c-1.9-0.4-3.9-1.1-5.3-2.8c1,2.3,2.4,4.6,4.2,6.1c2.6,2.1,5.7,2.8,8.5,4.3
		c1.9,1,3.6,2.5,5,4.4C485.7,28.7,483.7,24.6,480.5,22.9z"/>
	<path d="M480.3,28.9c-3.4-1.8-7.6-2.6-10-6.4c0.3,2,0.9,3.9,1.7,5.6c1.5,3,3.9,4.6,6.7,5.4c0.7,0.2,1.5,0.3,2.2,0.3
		c0.8,0.1,1.5,0.1,2.3,0.2c0.7,0.1,1.4,0.2,2,0.7c0.4,0.3,0.7,0.6,1.1,0.9C486.3,35.6,484.6,31.2,480.3,28.9z"/>
	<path d="M290.6-19.3c3.4,3.3,6.2,7.8,8.1,12.5c1.6-8.6-0.5-18.4-6.3-24.1c-4-3.9-8.7-6.4-13.2-9.1c-3.6-2.2-7.4-5.1-9.5-9.4
		c0.9,5.4,2.6,11.2,5.6,15.4C279.5-28,285.5-24.3,290.6-19.3z"/>
	<path d="M289-18.8c-6.2-6.2-14.3-10.6-17.4-20.1c-0.4,4.2-0.1,8.7,0.8,12.8c1.5,7.2,5.8,12.3,11.2,15.7c1.4,0.9,2.9,1.6,4.4,2.2
		c1.5,0.7,3,1.3,4.5,2c1.4,0.7,2.7,1.5,3.8,2.8c0.6,0.8,1.2,1.7,1.8,2.5C298-0.8,296.7-11,289-18.8z"/>
	<path d="M624.8-145.1c1.4,11.8,9.3,21.4,18.6,25.2c-3.2-5.8-5.5-12.7-6.3-19.5c-1.2-10.3-0.6-20.9-3.4-30.9
		c-1.9-7-6.3-13.3-10.8-18.2c2.7,5.8,2.8,12.9,2.3,19.4C624.8-161.2,623.8-153.2,624.8-145.1z"/>
	<path d="M649.6-135.3c0.4-2.5,0.8-5,0.9-7.5c0.5-9.7-1.4-18.9-7.2-26c-3.3-4-7.4-7.5-11.6-9.9c6.9,10.8,5.4,24.8,7,37.4
		c2,15.8,10.9,24.7,10.9,24.7c-0.5-1.4-0.9-2.8-1.2-4.2c-0.5-2.3-0.3-4.7,0-7C648.7-130.3,649.2-132.8,649.6-135.3z"/>
	<path d="M322.7,98.3c6.6,1.8,13.2,3.9,20,3.9c10,0,19.1-7.9,23.5-18.4c-5.3,3-11.3,4.7-17.1,4.7c-8.8,0-17.5-2.2-26.2-0.3
		c-6.1,1.3-11.9,5.6-16.7,10.2C311.5,96,317.4,96.9,322.7,98.3z"/>
	<path d="M347.9,86.4c13.4-0.2,22-9.4,22-9.4c-1.2,0.3-2.4,0.6-3.6,0.8c-2,0.3-3.9-0.3-5.8-0.9c-2.1-0.7-4.1-1.6-6.1-2.5
		c-2-0.8-4-1.6-6.1-2.1c-8-1.9-15.9-1-22.6,4.9c-3.8,3.3-7.2,7.6-9.9,12.4C325.7,82.8,337.2,86.5,347.9,86.4z"/>
	<path d="M565.2,14.4c4.9-5.7,10-11,13.7-17.9c5.4-10,4.9-23.4-0.1-33.5c-0.8,6.9-2.8,13.9-6,19.7C567.9-8.6,561.6-1,558.2,8.7
		c-2.4,6.8-2.6,14.9-1.9,22.2C557.5,24.4,561.3,18.9,565.2,14.4z"/>
	<path d="M576-44.3c-0.4,1.4-0.9,2.8-1.4,4.1c-0.9,2.2-2.3,3.7-3.9,5.3c-1.6,1.7-3.4,3.2-5.1,4.7c-1.7,1.5-3.4,3.1-4.9,4.9
		c-5.7,7-9.4,15.3-8.9,25.2c0.3,5.6,1.4,11.4,3.3,16.6c0.8-13.5,9.6-23,15.4-33.7C577.8-30.7,576-44.3,576-44.3z"/>
	<path d="M258.6,36.5c3.5,0.2,7.2,1.5,10.3,3.5c-2.4-6.5-7.8-11.7-13.8-12.1c-4.2-0.3-8.2,0.8-12.3,1.6c-3.3,0.6-6.9,1-10-0.7
		c2.8,3,6.2,5.8,9.9,6.8C247.9,37.2,253.3,36.2,258.6,36.5z"/>
	<path d="M244,42.6c3.9,3.8,8.7,4.7,13.7,3.8c1.3-0.2,2.5-0.6,3.8-1.1c1.3-0.4,2.5-0.9,3.8-1.3c1.2-0.3,2.4-0.6,3.6-0.4
		c0.7,0.2,1.5,0.4,2.2,0.6c0,0-5-5.9-13.2-6.6c-6.5-0.5-13.6,1.3-19.5-3.1C239.8,37.7,241.8,40.4,244,42.6z"/>
	<path d="M701.1-92.5c-3.7,1.6-7,5.1-9.6,8.6c3.1-2.2,6.9-2.4,10.4-2.2c4.4,0.2,8.7,0.8,13-0.2c6.3-1.3,11.3-7.5,13.1-14.7
		c-3,2.6-6.7,4.5-10.4,5.2C712.2-94.6,706.5-94.8,701.1-92.5z"/>
	<path d="M723.8-104.6c-1.4-0.2-2.7-0.5-4.1-0.8c-1.3-0.3-2.7-0.5-4.1-0.6c-5.3-0.2-10.1,1.4-13.8,6c-2.1,2.6-3.9,5.8-5.1,9.1
		c5.6-5.5,13.3-4.7,20-6.2c8.5-1.9,13.1-8.8,13.1-8.8c-0.7,0.4-1.5,0.7-2.2,1C726.3-104.3,725.1-104.4,723.8-104.6z"/>
	<path d="M544.7,86.4c-1.8-7.2-6.8-13.4-13.1-14.7c-4.3-0.9-8.7-0.4-13-0.2c-3.5,0.2-7.3,0-10.4-2.2c2.6,3.5,5.9,7,9.6,8.6
		c5.3,2.3,11,2.1,16.6,3.2C538,81.9,541.6,83.8,544.7,86.4z"/>
	<path d="M532.2,91.4c1.4,0,2.7-0.3,4.1-0.6c1.4-0.3,2.7-0.6,4.1-0.8c1.3-0.2,2.5-0.3,3.8,0.2c0.8,0.3,1.5,0.6,2.2,1
		c0,0-4.6-6.9-13.1-8.8c-6.7-1.5-14.4-0.7-20-6.2c1.2,3.3,3,6.5,5.1,9.1C522.1,89.9,527,91.5,532.2,91.4z"/>
	<path d="M503.7-131.3c3.7,0.7,7.3,2.6,10.4,5.2c-1.8-7.2-6.8-13.4-13.1-14.7c-4.3-0.9-8.7-0.4-13-0.2c-3.5,0.2-7.3,0-10.4-2.2
		c2.6,3.5,5.9,7,9.6,8.6C492.5-132.2,498.2-132.4,503.7-131.3z"/>
	<path d="M502.7-130.1c-6.7-1.5-14.4-0.7-20-6.2c1.2,3.3,3,6.5,5.1,9.1c3.7,4.6,8.6,6.2,13.8,6c1.4,0,2.7-0.3,4.1-0.6
		c1.4-0.3,2.7-0.6,4.1-0.8c1.3-0.2,2.5-0.3,3.8,0.2c0.8,0.3,1.5,0.6,2.2,1C515.8-121.3,511.2-128.2,502.7-130.1z"/>
	<path d="M461.2,157.2c-4-2.1-8.3-2.8-12.6-3.8c-3.4-0.8-7.1-2.1-9.6-5.1c1.8,4.1,4.3,8.4,7.6,11.1c4.7,3.8,10.3,5.2,15.5,7.8
		c3.4,1.8,6.6,4.6,9,8C470.7,167.7,467,160.2,461.2,157.2z"/>
	<path d="M460.8,168c-6.3-3.4-13.8-4.7-18.2-11.6c0.5,3.6,1.6,7.1,3.1,10.3c2.7,5.5,7.1,8.5,12.2,9.8c1.3,0.3,2.7,0.5,4.1,0.6
		c1.4,0.1,2.7,0.2,4.1,0.4c1.3,0.2,2.5,0.4,3.6,1.2c0.7,0.5,1.3,1,2,1.6C471.7,180.3,468.6,172.3,460.8,168z"/>
	<path d="M412-14.8c3.5,3.4,6.5,8.1,8.4,13c1.7-8.9-0.5-19.1-6.5-25c-4.1-4.1-9-6.6-13.7-9.5c-3.8-2.3-7.7-5.2-9.9-9.8
		c1,5.6,2.7,11.6,5.8,16C400.6-23.8,406.7-19.9,412-14.8z"/>
	<path d="M404.7-5.5c1.5,0.9,3,1.6,4.6,2.3c1.6,0.7,3.2,1.3,4.7,2.1c1.4,0.7,2.8,1.5,3.9,2.9c0.7,0.8,1.3,1.7,1.9,2.6
		c0,0-1.4-10.6-9.4-18.7c-6.4-6.4-14.9-11-18.1-20.9c-0.4,4.4-0.1,9,0.8,13.3C394.7-14.3,399-9.1,404.7-5.5z"/>
	<path d="M397.2,118.7c5.2,1.4,10.3,3.1,15.7,3.1c7.8,0,14.9-6.2,18.4-14.4c-4.1,2.3-8.8,3.7-13.4,3.7c-6.8,0-13.7-1.7-20.5-0.3
		c-4.8,1-9.3,4.4-13,8C388.4,116.9,393.1,117.6,397.2,118.7z"/>
	<path d="M416.9,109.3c10.5-0.1,17.2-7.3,17.2-7.3c-0.9,0.3-1.9,0.5-2.8,0.6c-1.6,0.2-3.1-0.2-4.6-0.7c-1.6-0.6-3.2-1.3-4.8-1.9
		c-1.6-0.7-3.2-1.3-4.8-1.7c-6.3-1.5-12.4-0.8-17.7,3.8c-3,2.6-5.7,6-7.7,9.7C399.5,106.6,408.5,109.4,416.9,109.3z"/>
	<path d="M673-143c-2.3,5.1-2.9,11.4-2.9,17.1c1.3-4.9,4.7-8.8,8-12c4.1-4,8.4-7.7,11.8-12.7c4.8-7.3,5.2-17.8,2-26.1
		c-1,5.3-3.1,10.5-5.9,14.8C681.6-155.5,676.2-150.2,673-143z"/>
	<path d="M668.5-150.3c-0.1,4.4,0.4,9,1.6,13.2c1.4-10.4,8.9-17,14-24.9c6.4-9.9,5.9-20.6,5.9-20.6c-0.4,1-0.9,2.1-1.4,3
		c-0.8,1.6-2,2.7-3.3,3.8c-1.4,1.2-2.8,2.2-4.2,3.2c-1.4,1-2.8,2.1-4.1,3.4C672.1-164.2,668.8-158.1,668.5-150.3z"/>
	<path d="M469.1-55.1c-1.6-6.1-2.8-12.2-5.5-17.7c-3.9-8.1-11.9-12.4-19.6-12c3.7,3.1,7.1,7.3,9.3,12.1c3.3,7.1,5.5,15,9.9,21.3
		c3.1,4.4,7.8,7.5,12.2,9.6C472.1-45.2,470.4-50.3,469.1-55.1z"/>
	<path d="M466.7-46.1c-7.6-5.5-9.9-16.2-14.1-24.8c-5.3-10.8-13.9-14.2-13.9-14.2c0.7,0.8,1.3,1.7,1.9,2.6c0.9,1.5,1.3,3.3,1.7,5.1
		c0.4,1.9,0.6,3.9,0.9,5.9c0.3,1.9,0.6,3.9,1.1,5.8c2,7.2,5.5,13.3,11.5,16.5C459.3-47.5,463-46.4,466.7-46.1z"/>
	<path d="M668.9-55.1c-5.5-0.6-11.3,1.5-16.3,4c4.9-0.5,9.8,1.9,14.1,4.6c5.3,3.4,10.5,7.1,16.4,9c8.6,2.8,17.9-1.4,23.8-9.2
		c-5.1,1.1-10.6,0.9-15.6-0.8C683.8-50,676.7-54.3,668.9-55.1z"/>
	<path d="M703.3-54.3c-1.6-1.2-3.2-2.5-4.7-3.8c-1.5-1.3-3.1-2.5-4.8-3.6c-6.5-3.9-13.4-5.3-20.3-2.2c-3.9,1.8-7.7,4.5-10.9,7.8
		c9.8-2.9,18.9,3.5,28.1,6.4c11.5,3.6,20.7-1.9,20.7-1.9c-1.1,0-2.2-0.1-3.3-0.3C706.3-52.2,704.8-53.2,703.3-54.3z"/>
	<path d="M529.7-126.1c2.4-1.7,5.4-1.9,8.1-1.7c3.4,0.2,6.8,0.6,10.2-0.1c4.9-1,8.9-5.9,10.3-11.5c-2.4,2-5.2,3.5-8.1,4.1
		c-4.3,0.9-8.8,0.7-13,2.5C534.3-131.5,531.8-128.8,529.7-126.1z"/>
	<path d="M559.6-143.1c-0.6,0.3-1.1,0.6-1.7,0.8c-1,0.4-2,0.3-3,0.1c-1.1-0.1-2.1-0.4-3.2-0.6c-1.1-0.2-2.1-0.4-3.2-0.4
		c-4.1-0.1-7.9,1.1-10.8,4.7c-1.6,2-3,4.5-4,7.1c4.4-4.3,10.4-3.6,15.6-4.8C556-137.7,559.6-143.1,559.6-143.1z"/>
	<path d="M706.6-127.9c4.2,1.8,8.6,1.6,13,2.5c2.9,0.6,5.7,2.1,8.1,4.1c-1.4-5.6-5.4-10.4-10.3-11.5c-3.4-0.7-6.8-0.3-10.2-0.1
		c-2.7,0.1-5.7,0-8.1-1.7C701.1-131.9,703.7-129.2,706.6-127.9z"/>
	<path d="M703.1-129.3c1,2.6,2.3,5.1,4,7.1c2.9,3.6,6.7,4.8,10.8,4.7c1.1,0,2.1-0.2,3.2-0.4c1.1-0.2,2.1-0.5,3.2-0.6
		c1-0.1,2-0.2,2.9,0.1c0.6,0.2,1.2,0.5,1.7,0.8c0,0-3.6-5.4-10.2-6.9C713.5-125.7,707.5-125,703.1-129.3z"/>
	<path d="M316.3,33.3c-3.4-0.7-6.8-0.3-10.2-0.1c-2.7,0.1-5.7,0-8.1-1.7c2,2.7,4.6,5.5,7.5,6.7c4.2,1.8,8.6,1.6,13,2.5
		c2.9,0.6,5.7,2.1,8.1,4.1C325.1,39.2,321.2,34.3,316.3,33.3z"/>
	<path d="M302,36.8c1,2.6,2.3,5.1,4,7.1c2.9,3.6,6.7,4.8,10.8,4.7c1.1,0,2.1-0.2,3.2-0.4c1.1-0.2,2.1-0.5,3.2-0.6
		c1-0.1,2-0.2,2.9,0.1c0.6,0.2,1.2,0.5,1.7,0.8c0,0-3.6-5.4-10.2-6.9C312.4,40.5,306.5,41.1,302,36.8z"/>
	<path d="M615.2-114.3c2.7,1.4,5.2,3.6,7.1,6.3c-0.3-5.9-3.1-11.7-7.7-14.1c-3.1-1.7-6.5-2.2-9.9-3c-2.7-0.6-5.5-1.6-7.5-4
		c1.4,3.2,3.4,6.6,5.9,8.7C606.8-117.5,611.2-116.4,615.2-114.3z"/>
	<path d="M612.1-107c1,0.3,2.1,0.4,3.2,0.5c1.1,0.1,2.1,0.2,3.2,0.3c1,0.2,2,0.3,2.8,1c0.5,0.4,1,0.8,1.5,1.2c0,0-2.4-6.3-8.5-9.6
		c-4.9-2.6-10.8-3.7-14.2-9.1c0.4,2.8,1.2,5.6,2.4,8C604.6-110.4,608.1-108.1,612.1-107z"/>
	<path d="M601.8,28.8c3.7-4.3,7.6-8.3,10.4-13.6c4.1-7.6,3.7-17.8-0.1-25.4C611.6-5,610,0.3,607.5,4.7c-3.6,6.6-8.4,12.3-11,19.7
		c-1.8,5.1-1.9,11.3-1.5,16.8C595.9,36.4,598.9,32.2,601.8,28.8z"/>
	<path d="M610-15.8c-0.3,1.1-0.7,2.1-1.1,3.1c-0.7,1.7-1.8,2.8-2.9,4c-1.2,1.3-2.6,2.4-3.8,3.6c-1.3,1.2-2.6,2.4-3.7,3.7
		c-4.4,5.3-7.1,11.6-6.8,19.2c0.2,4.3,1.1,8.6,2.5,12.6c0.6-10.3,7.3-17.4,11.7-25.6C611.3-5.5,610-15.8,610-15.8z"/>
	<path d="M437.4,48.5c-3.3-0.7-6.6-0.3-9.9-0.1c-2.6,0.1-5.5,0-7.9-1.7c2,2.7,4.4,5.3,7.3,6.5c4.1,1.8,8.4,1.6,12.6,2.4
		c2.8,0.6,5.6,2,7.9,4C446,54.2,442.2,49.5,437.4,48.5z"/>
	<path d="M423.5,52c0.9,2.5,2.3,4.9,3.9,6.9c2.8,3.5,6.5,4.7,10.5,4.6c1,0,2.1-0.2,3.1-0.4c1-0.2,2.1-0.4,3.1-0.6
		c1-0.1,1.9-0.2,2.9,0.1c0.6,0.2,1.1,0.5,1.7,0.7c0,0-3.5-5.3-9.9-6.7C433.6,55.5,427.8,56.1,423.5,52z"/>
</g>
<path d="M574.5,320.4c-17.5-36.4-8.2-57.3,5.3-76.9c14.7-21.5,18.5-42.8,18.5-42.8s11.6,15.1,6.9,38.6c20.5-22.8,24.3-59,21.2-72.9
	c46.2,32.3,66,102.3,39.4,154.1c141.6-80.1,35.2-200,16.7-213.5c6.2,13.5,7.3,36.4-5.1,47.5c-21.1-80.1-73.3-96.5-73.3-96.5
	c6.2,41.3-22.4,86.4-49.9,120.2c-1-16.5-2-27.8-10.7-43.6c-1.9,29.9-24.8,54.3-31,84.3C504.1,259.2,518.8,289,574.5,320.4z"/>
<rect x="274.5" y="317.5" width="479.3" height="12"/>
</svg>
