<?xml version="1.0" encoding="utf-8"?>
<!-- Generator: Adobe Illustrator 18.1.1, SVG Export Plug-In . SVG Version: 6.00 Build 0)  -->
<!DOCTYPE svg PUBLIC "-//W3C//DTD SVG 1.1//EN" "http://www.w3.org/Graphics/SVG/1.1/DTD/svg11.dtd">
<svg version="1.1" id="Layer_1" xmlns="http://www.w3.org/2000/svg" xmlns:xlink="http://www.w3.org/1999/xlink" x="0px" y="0px"
	 viewBox="0 0 128 128" enable-background="new 0 0 128 128" xml:space="preserve">
<g>
	<path d="M4.2,99.8h0.8v-3.1h0.9c1.1,0,1.9-0.8,1.9-1.9c0-1.1-0.7-1.9-1.9-1.9H4.2V99.8L4.2,99.8z M4.9,93.5h0.8
		c0.8,0,1.2,0.4,1.2,1.3c0,0.9-0.4,1.3-1.2,1.3H4.9V93.5L4.9,93.5z"/>
	<path d="M8.6,99.8h0.7v-3.5c0.4-0.7,0.8-0.9,1.3-0.9v-0.7c-0.5,0-0.8,0.1-1.3,0.7l0,0v-0.6H8.6L8.6,99.8L8.6,99.8z"/>
	<path d="M11.6,96.8c0-1.2,0.3-1.6,0.8-1.6c0.6,0,0.8,0.5,0.8,1.6H11.6L11.6,96.8z M14,97.4v-0.3c0-1.4-0.5-2.4-1.5-2.4
		s-1.5,0.8-1.5,2.6c0,1.8,0.5,2.6,1.5,2.6c0.9,0,1.5-0.7,1.6-1.4l-0.7-0.1c-0.1,0.5-0.3,0.9-0.8,0.9c-0.7,0-0.9-0.4-0.9-1.6v-0.3
		L14,97.4L14,97.4z"/>
	<path d="M17.5,95.9c-0.2-0.8-0.6-1.2-1.4-1.2c-0.8,0-1.3,0.5-1.3,1.2c0,1.5,2.1,1.5,2.1,2.7c0,0.4-0.3,0.8-0.7,0.8
		c-0.5,0-0.8-0.4-0.9-0.9l-0.6,0.1c0.3,0.8,0.7,1.3,1.6,1.3c0.8,0,1.4-0.6,1.4-1.4c0-1.6-2.1-1.6-2.1-2.7c0-0.3,0.2-0.6,0.5-0.6
		c0.5,0,0.8,0.3,0.9,0.8L17.5,95.9L17.5,95.9z"/>
	<path d="M18.8,99.8h0.7v-5h-0.7V99.8L18.8,99.8z M18.8,93.6h0.7v-0.8h-0.7V93.6L18.8,93.6z"/>
	<path d="M23.2,99.8h0.7c-0.1-0.3-0.1-0.7-0.1-1.4v-5.6H23v2.3c-0.2-0.2-0.5-0.5-0.9-0.5c-0.8,0-1.4,0.7-1.4,2.6
		c0,1.9,0.7,2.6,1.4,2.6c0.4,0,0.8-0.2,1-0.6l0,0L23.2,99.8L23.2,99.8z M23,98.8c-0.2,0.3-0.5,0.5-0.7,0.5c-0.6,0-0.9-0.5-0.9-2
		c0-1.6,0.3-2,0.9-2c0.3,0,0.5,0.3,0.8,0.5L23,98.8L23,98.8z"/>
	<path d="M25.5,96.8c0-1.2,0.3-1.6,0.8-1.6c0.6,0,0.8,0.5,0.8,1.6H25.5L25.5,96.8z M27.9,97.4v-0.3c0-1.4-0.5-2.4-1.5-2.4
		c-1.1,0-1.5,0.8-1.5,2.6c0,1.8,0.5,2.6,1.5,2.6c0.9,0,1.5-0.7,1.6-1.4l-0.7-0.1c-0.1,0.5-0.3,0.9-0.8,0.9c-0.7,0-0.9-0.4-0.9-1.6
		v-0.3L27.9,97.4L27.9,97.4z"/>
	<path d="M28.9,99.8h0.7v-3.9c0.3-0.4,0.6-0.6,1-0.6c0.4,0,0.5,0.3,0.5,0.8v3.7h0.7V96c0-0.9-0.4-1.3-1.1-1.3
		c-0.3,0-0.8,0.3-1.1,0.6v-0.5h-0.7L28.9,99.8L28.9,99.8z"/>
	<polygon points="32.8,95.4 34.6,95.4 32.7,99.3 32.7,99.8 35.4,99.8 35.4,99.2 33.4,99.2 35.4,95.2 35.4,94.8 32.8,94.8 	"/>
	<path d="M36.9,96.3c0.1-0.5,0.3-1,0.9-1c0.5,0,0.7,0.3,0.7,0.9v0.3c-1,0.2-2.4,0.8-2.4,2.1c0,0.8,0.5,1.3,1.3,1.3
		c0.3,0,0.8-0.3,1.1-0.5l0.1,0.4h0.7c-0.1-0.1-0.1-0.5-0.1-0.9v-2.8c0-0.9-0.5-1.4-1.4-1.4c-0.9,0-1.4,0.7-1.5,1.5L36.9,96.3
		L36.9,96.3z M38.4,98.8c-0.3,0.3-0.6,0.5-1,0.5c-0.5,0-0.7-0.3-0.7-0.8c0-0.8,1-1.3,1.6-1.4L38.4,98.8L38.4,98.8z"/>
	<path d="M45,99.8h0.7c-0.1-0.3-0.1-0.7-0.1-1.4v-5.6h-0.7v2.3c-0.2-0.2-0.5-0.5-0.9-0.5c-0.8,0-1.4,0.7-1.4,2.6
		c0,1.9,0.7,2.6,1.4,2.6c0.5,0,0.8-0.2,1-0.6l0,0L45,99.8L45,99.8z M44.9,98.8c-0.2,0.3-0.5,0.5-0.7,0.5c-0.6,0-0.9-0.5-0.9-2
		c0-1.6,0.3-2,0.9-2c0.3,0,0.5,0.3,0.8,0.5L44.9,98.8L44.9,98.8z"/>
	<path d="M47.3,96.8c0-1.2,0.3-1.6,0.8-1.6c0.6,0,0.8,0.5,0.8,1.6H47.3L47.3,96.8z M49.7,97.4v-0.3c0-1.4-0.5-2.4-1.5-2.4
		c-1.1,0-1.5,0.8-1.5,2.6c0,1.8,0.5,2.6,1.5,2.6c0.9,0,1.5-0.7,1.6-1.4l-0.7-0.1c-0.1,0.5-0.3,0.9-0.8,0.9c-0.7,0-0.9-0.4-0.9-1.6
		v-0.3L49.7,97.4L49.7,97.4z"/>
	<polygon points="50.8,99.8 51.4,99.8 51.4,92.8 50.8,92.8 	"/>
	<path d="M58.5,94.9c-0.1-1.5-0.8-2.2-1.8-2.2c-1.2,0-2,0.9-2,3.6c0,2.6,0.8,3.6,2,3.6c1.2,0,1.9-0.9,1.9-2.4h-0.8
		c0,1.3-0.4,1.8-1.1,1.8c-0.9,0-1.3-0.8-1.3-3c0-2.2,0.4-3,1.3-3c0.6,0,0.9,0.5,1,1.6H58.5L58.5,94.9z"/>
	<path d="M60.1,97.3c0-1.6,0.3-2,0.8-2s0.8,0.4,0.8,2s-0.3,2-0.8,2S60.1,99,60.1,97.3L60.1,97.3z M59.4,97.3c0,1.8,0.5,2.6,1.5,2.6
		s1.5-0.8,1.5-2.6c0-1.8-0.5-2.6-1.5-2.6C59.9,94.7,59.4,95.5,59.4,97.3L59.4,97.3z"/>
	<path d="M63.5,99.8h0.7v-3.9c0.3-0.4,0.6-0.6,1-0.6c0.4,0,0.5,0.3,0.5,0.8v3.7h0.7V96c0-0.9-0.4-1.3-1.1-1.3
		c-0.3,0-0.8,0.3-1.1,0.6v-0.5h-0.7L63.5,99.8L63.5,99.8z"/>
	<path d="M70.3,95.9c-0.2-0.8-0.6-1.2-1.4-1.2s-1.3,0.5-1.3,1.2c0,1.5,2.1,1.5,2.1,2.7c0,0.4-0.3,0.8-0.7,0.8
		c-0.5,0-0.8-0.4-0.9-0.9l-0.6,0.1c0.3,0.8,0.7,1.3,1.6,1.3c0.8,0,1.4-0.6,1.4-1.4c0-1.6-2.1-1.6-2.1-2.7c0-0.3,0.2-0.6,0.5-0.6
		c0.5,0,0.8,0.3,0.9,0.8L70.3,95.9L70.3,95.9z"/>
	<path d="M71.6,99.8h0.7v-5h-0.7V99.8L71.6,99.8z M71.6,93.6h0.7v-0.8h-0.7V93.6L71.6,93.6z"/>
	<path d="M76.2,100.2c0,0.4-0.3,0.7-1.1,0.7c-0.8,0-1.1-0.3-1.1-0.7c0-0.3,0.3-0.5,0.7-0.7C75.3,99.7,76.2,99.7,76.2,100.2
		L76.2,100.2z M74.3,96.5c0-1,0.3-1.3,0.7-1.3c0.4,0,0.7,0.3,0.7,1.3c0,1-0.3,1.3-0.7,1.3S74.3,97.4,74.3,96.5L74.3,96.5z
		 M76.9,94.7c-0.4,0-0.7,0.2-0.8,0.5c-0.2-0.3-0.6-0.5-0.9-0.5c-0.9,0-1.4,0.7-1.4,1.9c0,0.5,0.2,1.1,0.6,1.4
		c-0.3,0-0.7,0.3-0.7,0.7c0,0.3,0.3,0.6,0.5,0.7c-0.5,0.2-0.7,0.5-0.7,1c0,0.7,0.6,1.1,1.7,1.1c1.1,0,1.7-0.5,1.7-1.2
		c0-0.8-0.6-1.1-1.4-1.2c-0.6-0.1-1.2-0.2-1.2-0.5c0-0.2,0.2-0.3,0.3-0.3c0.2,0,0.3,0,0.5,0c0.8,0,1.4-0.5,1.4-1.8
		c0-0.4,0-0.7-0.2-1c0.1-0.1,0.3-0.2,0.4-0.2c0.1,0,0.1,0,0.2,0V94.7L76.9,94.7z"/>
	<polygon points="77.9,99.8 78.7,99.8 78.7,92.8 77.9,92.8 	"/>
	<path d="M80.1,99.8h0.7v-5h-0.7V99.8L80.1,99.8z M80.1,93.6h0.7v-0.8h-0.7V93.6L80.1,93.6z"/>
	<path d="M82.5,97.3c0-1.6,0.3-2,0.8-2c0.6,0,0.8,0.4,0.8,2s-0.3,2-0.8,2C82.8,99.3,82.5,99,82.5,97.3L82.5,97.3z M81.8,97.3
		c0,1.8,0.5,2.6,1.5,2.6c1.1,0,1.5-0.8,1.5-2.6c0-1.8-0.5-2.6-1.5-2.6C82.3,94.7,81.8,95.5,81.8,97.3L81.8,97.3z"/>
	<path d="M90.4,99.8H91c-0.1-0.3-0.1-0.7-0.1-1.4v-5.6h-0.7v2.3c-0.2-0.2-0.5-0.5-0.9-0.5c-0.8,0-1.4,0.7-1.4,2.6
		c0,1.9,0.7,2.6,1.4,2.6c0.5,0,0.8-0.2,1-0.6l0,0L90.4,99.8L90.4,99.8z M90.2,98.8c-0.2,0.3-0.5,0.5-0.7,0.5c-0.6,0-0.9-0.5-0.9-2
		c0-1.6,0.3-2,0.9-2c0.3,0,0.5,0.3,0.8,0.5L90.2,98.8L90.2,98.8z"/>
	<path d="M92.6,96.8c0-1.2,0.3-1.6,0.8-1.6c0.6,0,0.8,0.5,0.8,1.6H92.6L92.6,96.8z M95,97.4v-0.3c0-1.4-0.5-2.4-1.5-2.4
		c-1.1,0-1.5,0.8-1.5,2.6c0,1.8,0.5,2.6,1.5,2.6c0.9,0,1.5-0.7,1.6-1.4l-0.7-0.1c-0.1,0.5-0.3,0.9-0.8,0.9c-0.7,0-0.9-0.4-0.9-1.6
		v-0.3L95,97.4L95,97.4z"/>
	<path d="M96.1,99.8h0.7v-5h-0.7V99.8L96.1,99.8z M96.1,93.6h0.7v-0.8h-0.7V93.6L96.1,93.6z"/>
	<polygon points="99.9,92.8 99.9,99.8 100.6,99.8 100.6,93.4 100.6,93.4 102,99.8 102.6,99.8 104,93.4 104,93.4 104,99.8 
		104.7,99.8 104.7,92.8 103.5,92.8 102.3,98.1 102.3,98.1 101.1,92.8 	"/>
	<path d="M105.9,99.8h0.7v-5h-0.7V99.8L105.9,99.8z M105.9,93.6h0.7v-0.8h-0.7V93.6L105.9,93.6z"/>
	<path d="M108,99.8h0.7v-3.9c0.3-0.4,0.6-0.6,1-0.6c0.4,0,0.5,0.3,0.5,0.8v3.7h0.7V96c0-0.9-0.4-1.3-1.1-1.3c-0.3,0-0.8,0.3-1.1,0.6
		v-0.5H108L108,99.8L108,99.8z"/>
	<path d="M112.3,99.8h0.7v-5h-0.7V99.8L112.3,99.8z M112.3,93.6h0.7v-0.8h-0.7V93.6L112.3,93.6z"/>
	<path d="M116.9,95.9c-0.2-0.8-0.6-1.2-1.4-1.2s-1.3,0.5-1.3,1.2c0,1.5,2.1,1.5,2.1,2.7c0,0.4-0.3,0.8-0.7,0.8
		c-0.5,0-0.8-0.4-0.9-0.9l-0.6,0.1c0.3,0.8,0.7,1.3,1.6,1.3c0.8,0,1.4-0.6,1.4-1.4c0-1.6-2.1-1.6-2.1-2.7c0-0.3,0.2-0.6,0.5-0.6
		c0.5,0,0.8,0.3,0.9,0.8L116.9,95.9L116.9,95.9z"/>
	<path d="M117.5,95.4h0.7v3.5c0,0.8,0.3,1.1,1,1.1c0.3,0,0.5,0,0.7-0.1v-0.5c-0.1,0-0.3,0.1-0.4,0.1c-0.3,0-0.5-0.2-0.5-0.5v-3.5
		h0.9v-0.6h-0.9v-1.7h-0.7v1.7h-0.7L117.5,95.4L117.5,95.4z"/>
	<path d="M120.7,99.8h0.7v-3.5c0.4-0.7,0.8-0.9,1.3-0.9v-0.7c-0.5,0-0.8,0.1-1.3,0.7l0,0v-0.6h-0.7V99.8L120.7,99.8z"/>
	<path d="M123.5,99.8h0.7v-5h-0.7V99.8L123.5,99.8z M123.5,93.6h0.7v-0.8h-0.7V93.6L123.5,93.6z"/>
	<path d="M4.9,104h0.4c1.1,0,1.7,0.5,1.7,2.8c0,2.4-0.6,2.8-1.7,2.8H4.9V104L4.9,104z M4.2,110.4h1.3c1.5,0,2.4-0.8,2.4-3.5
		c0-2.7-0.9-3.5-2.4-3.5H4.2V110.4L4.2,110.4z"/>
	<path d="M9.1,110.4h0.7v-5H9.1V110.4L9.1,110.4z M9.1,104.2h0.7v-0.8H9.1V104.2L9.1,104.2z"/>
	<path d="M11.9,105.3h-0.6v6.6h0.7v-2c0.2,0.2,0.5,0.5,0.9,0.5c0.8,0,1.4-0.7,1.4-2.6c0-1.9-0.7-2.6-1.4-2.6c-0.5,0-0.8,0.2-1,0.6
		l0,0L11.9,105.3L11.9,105.3z M12,106.3c0.2-0.3,0.5-0.5,0.7-0.5c0.6,0,0.9,0.5,0.9,2s-0.3,2-0.9,2c-0.3,0-0.5-0.3-0.8-0.4L12,106.3
		L12,106.3z"/>
	<path d="M16.1,106.8c0.1-0.5,0.3-1,0.9-1c0.5,0,0.7,0.3,0.7,0.9v0.3c-1,0.2-2.4,0.8-2.4,2.1c0,0.8,0.5,1.3,1.3,1.3
		c0.3,0,0.8-0.3,1.1-0.5l0.1,0.4h0.7c-0.1-0.1-0.1-0.5-0.1-0.9v-2.8c0-0.9-0.5-1.4-1.4-1.4c-0.9,0-1.4,0.7-1.5,1.5L16.1,106.8
		L16.1,106.8z M17.7,109.3c-0.3,0.3-0.6,0.5-1,0.5c-0.5,0-0.7-0.3-0.7-0.8c0-0.8,1-1.3,1.6-1.4L17.7,109.3L17.7,109.3z"/>
	<path d="M19.8,110.4h0.7v-3.5c0.4-0.7,0.8-0.9,1.3-0.9v-0.7c-0.5,0-0.8,0.1-1.3,0.7l0,0v-0.6h-0.7L19.8,110.4L19.8,110.4z"/>
	<path d="M21.9,105.9h0.7v3.5c0,0.8,0.3,1.1,1,1.1c0.3,0,0.5,0,0.7-0.1v-0.5c-0.1,0-0.3,0.1-0.4,0.1c-0.3,0-0.5-0.2-0.5-0.5V106h0.9
		v-0.6h-0.9v-1.7h-0.7v1.7H22L21.9,105.9L21.9,105.9z"/>
	<path d="M25.3,110.4H26v-5h-0.7V110.4L25.3,110.4z M25.3,104.2H26v-0.8h-0.7V104.2L25.3,104.2z"/>
	<path d="M28.2,110.4v-4c0.2-0.2,0.4-0.5,0.8-0.5c0.4,0,0.5,0.2,0.5,0.7v3.8h0.7v-4c0.2-0.2,0.5-0.5,0.9-0.5c0.4,0,0.5,0.2,0.5,0.7
		v3.8h0.7v-4c0-0.7-0.3-1.1-1-1.1c-0.5,0-0.9,0.3-1.2,0.6c-0.1-0.4-0.5-0.6-0.9-0.6c-0.5,0-0.9,0.3-1.2,0.6v-0.5h-0.6v5L28.2,110.4
		L28.2,110.4z"/>
	<path d="M34.2,107.4c0-1.2,0.3-1.6,0.8-1.6c0.6,0,0.8,0.5,0.8,1.6H34.2L34.2,107.4z M36.6,107.9v-0.3c0-1.4-0.5-2.4-1.5-2.4
		c-1.1,0-1.5,0.8-1.5,2.6c0,1.8,0.5,2.6,1.5,2.6c0.9,0,1.5-0.7,1.6-1.4l-0.7-0.1c-0.1,0.5-0.3,0.9-0.8,0.9c-0.7,0-0.9-0.4-0.9-1.6
		v-0.3L36.6,107.9L36.6,107.9z"/>
	<path d="M37.6,110.4h0.7v-3.9c0.3-0.4,0.6-0.6,1-0.6c0.4,0,0.5,0.3,0.5,0.8v3.7h0.7v-3.8c0-0.9-0.4-1.3-1.1-1.3
		c-0.3,0-0.8,0.3-1.1,0.6v-0.5h-0.7V110.4L37.6,110.4z"/>
	<path d="M41.4,105.9H42v3.5c0,0.8,0.3,1.1,1,1.1c0.3,0,0.5,0,0.7-0.1v-0.5c-0.1,0-0.3,0.1-0.4,0.1c-0.3,0-0.5-0.2-0.5-0.5V106h0.9
		v-0.6h-0.9v-1.7h-0.7v1.7h-0.7L41.4,105.9L41.4,105.9z"/>
	<path d="M45,107.8c0-1.6,0.3-2,0.8-2c0.6,0,0.8,0.4,0.8,2s-0.3,2-0.8,2C45.3,109.8,45,109.5,45,107.8L45,107.8z M44.3,107.8
		c0,1.8,0.5,2.6,1.5,2.6c1.1,0,1.5-0.8,1.5-2.6c0-1.8-0.5-2.6-1.5-2.6C44.8,105.2,44.3,106,44.3,107.8L44.3,107.8z"/>
	<path d="M52.9,110.4h0.7c-0.1-0.3-0.1-0.7-0.1-1.4v-5.6h-0.7v2.3c-0.2-0.2-0.5-0.5-0.9-0.5c-0.8,0-1.4,0.7-1.4,2.6
		c0,1.9,0.7,2.6,1.4,2.6c0.5,0,0.8-0.2,1-0.6l0,0L52.9,110.4L52.9,110.4z M52.8,109.4c-0.2,0.3-0.5,0.5-0.7,0.5
		c-0.6,0-0.9-0.5-0.9-2c0-1.6,0.3-2,0.9-2c0.3,0,0.5,0.3,0.8,0.5L52.8,109.4L52.8,109.4z"/>
	<path d="M55.3,107.4c0-1.2,0.3-1.6,0.8-1.6c0.6,0,0.8,0.5,0.8,1.6H55.3L55.3,107.4z M57.6,107.9v-0.3c0-1.4-0.5-2.4-1.5-2.4
		c-1.1,0-1.5,0.8-1.5,2.6c0,1.8,0.5,2.6,1.5,2.6c0.9,0,1.5-0.7,1.6-1.4l-0.7-0.1c-0.1,0.5-0.3,0.9-0.8,0.9c-0.7,0-0.9-0.4-0.9-1.6
		v-0.3L57.6,107.9L57.6,107.9z"/>
	<polygon points="58.7,110.4 59.4,110.4 59.4,103.4 58.7,103.4 	"/>
	<polygon points="60.9,110.4 61.6,110.4 61.6,103.4 60.9,103.4 	"/>
	<path d="M63.6,106.8c0.1-0.5,0.3-1,0.9-1c0.5,0,0.7,0.3,0.7,0.9v0.3c-1,0.2-2.4,0.8-2.4,2.1c0,0.8,0.5,1.3,1.3,1.3
		c0.3,0,0.8-0.3,1.1-0.5l0.1,0.4H66c-0.1-0.1-0.1-0.5-0.1-0.9v-2.8c0-0.9-0.5-1.4-1.4-1.4c-0.9,0-1.4,0.7-1.5,1.5L63.6,106.8
		L63.6,106.8z M65.2,109.3c-0.3,0.3-0.6,0.5-1,0.5c-0.5,0-0.7-0.3-0.7-0.8c0-0.8,1-1.3,1.6-1.4L65.2,109.3L65.2,109.3z"/>
	<path d="M69.3,110.4h0.8v-3.1h0.8c1.1,0,1.9-0.8,1.9-1.9c0-1.1-0.7-1.9-1.9-1.9h-1.6L69.3,110.4L69.3,110.4z M70.1,104h0.8
		c0.8,0,1.2,0.4,1.2,1.3c0,0.9-0.5,1.3-1.2,1.3h-0.8V104L70.1,104z"/>
	<path d="M73.7,110.4h0.7v-3.5c0.4-0.7,0.8-0.9,1.3-0.9v-0.7c-0.5,0-0.8,0.1-1.3,0.7l0,0v-0.6h-0.7L73.7,110.4L73.7,110.4z"/>
	<path d="M76.8,107.8c0-1.6,0.3-2,0.8-2c0.6,0,0.8,0.4,0.8,2s-0.3,2-0.8,2C77.1,109.8,76.8,109.5,76.8,107.8L76.8,107.8z
		 M76.1,107.8c0,1.8,0.5,2.6,1.5,2.6c1.1,0,1.5-0.8,1.5-2.6c0-1.8-0.5-2.6-1.5-2.6C76.6,105.2,76.1,106,76.1,107.8L76.1,107.8z"/>
	<path d="M79.6,105.9h0.7v3.5c0,0.8,0.3,1.1,1,1.1c0.3,0,0.5,0,0.7-0.1v-0.5c-0.1,0-0.3,0.1-0.4,0.1c-0.3,0-0.5-0.2-0.5-0.5V106H82
		v-0.6H81v-1.7h-0.7v1.7h-0.7L79.6,105.9L79.6,105.9z"/>
	<path d="M83.3,107.4c0-1.2,0.3-1.6,0.8-1.6c0.6,0,0.8,0.5,0.8,1.6H83.3L83.3,107.4z M85.6,107.9v-0.3c0-1.4-0.5-2.4-1.5-2.4
		c-1.1,0-1.5,0.8-1.5,2.6c0,1.8,0.5,2.6,1.5,2.6c0.9,0,1.5-0.7,1.6-1.4l-0.7-0.1c-0.1,0.5-0.3,0.9-0.8,0.9c-0.7,0-0.9-0.4-0.9-1.6
		v-0.3L85.6,107.9L85.6,107.9z"/>
	<polygon points="86.4,105.9 88.2,105.9 86.2,109.8 86.2,110.4 89,110.4 89,109.8 87,109.8 89,105.8 89,105.3 86.4,105.3 	"/>
	<path d="M89.9,110.4h0.7v-5h-0.7V110.4L89.9,110.4z M89.9,104.2h0.7v-0.8h-0.7V104.2L89.9,104.2z"/>
	<path d="M92.4,107.8c0-1.6,0.3-2,0.8-2c0.6,0,0.8,0.4,0.8,2s-0.3,2-0.8,2C92.7,109.8,92.4,109.5,92.4,107.8L92.4,107.8z
		 M91.7,107.8c0,1.8,0.5,2.6,1.5,2.6c1.1,0,1.5-0.8,1.5-2.6c0-1.8-0.5-2.6-1.5-2.6C92.2,105.2,91.7,106,91.7,107.8L91.7,107.8z"/>
	<path d="M95.8,110.4h0.7v-3.9c0.3-0.4,0.6-0.6,1-0.6c0.4,0,0.5,0.3,0.5,0.8v3.7h0.7v-3.8c0-0.9-0.4-1.3-1.1-1.3
		c-0.3,0-0.8,0.3-1.1,0.6v-0.5h-0.6V110.4L95.8,110.4z"/>
	<path d="M100.5,107.4c0-1.2,0.3-1.6,0.8-1.6c0.6,0,0.8,0.5,0.8,1.6H100.5L100.5,107.4z M102.8,107.9v-0.3c0-1.4-0.5-2.4-1.5-2.4
		c-1.1,0-1.5,0.8-1.5,2.6c0,1.8,0.5,2.6,1.5,2.6c0.9,0,1.5-0.7,1.6-1.4l-0.7-0.1c-0.1,0.5-0.3,0.9-0.8,0.9c-0.7,0-0.9-0.4-0.9-1.6
		v-0.3L102.8,107.9L102.8,107.9z"/>
	<path d="M109.6,105.5c-0.1-1.5-0.8-2.2-1.8-2.2c-1.2,0-2,0.9-2,3.6c0,2.6,0.8,3.6,2,3.6c1.2,0,1.9-0.9,1.9-2.4h-0.8
		c0,1.3-0.4,1.8-1.1,1.8c-0.9,0-1.3-0.8-1.3-3c0-2.2,0.4-3,1.3-3c0.6,0,0.9,0.5,1,1.6H109.6L109.6,105.5z"/>
	<path d="M110.9,110.4h0.7v-5h-0.7V110.4L110.9,110.4z M110.9,104.2h0.7v-0.8h-0.7V104.2L110.9,104.2z"/>
	<polygon points="112.5,105.3 113.7,110.4 114.7,110.4 115.9,105.3 115.2,105.3 114.2,109.6 114.2,109.6 113.2,105.3 	"/>
	<path d="M116.8,110.4h0.7v-5h-0.7V110.4L116.8,110.4z M116.8,104.2h0.7v-0.8h-0.7V104.2L116.8,104.2z"/>
	<polygon points="119,110.4 119.7,110.4 119.7,103.4 119,103.4 	"/>
	<path d="M121.5,107.4c0-1.2,0.3-1.6,0.8-1.6c0.6,0,0.8,0.5,0.8,1.6H121.5L121.5,107.4z M123.8,107.9v-0.3c0-1.4-0.5-2.4-1.5-2.4
		s-1.5,0.8-1.5,2.6c0,1.8,0.5,2.6,1.5,2.6c0.9,0,1.5-0.7,1.6-1.4l-0.7-0.1c-0.1,0.5-0.3,0.9-0.8,0.9c-0.7,0-0.9-0.4-0.9-1.6v-0.3
		L123.8,107.9L123.8,107.9z"/>
	<path fill="#FFFFFF" d="M94.3,52.3h-0.2c-2.4,4.1-5.1,7.3-7.8,9.8c2.4-0.3,5.1-0.4,7.9-0.4c11,0.1,18.7,2.5,23.4,5.4
		c0,0,0.1,0.1,0.1,0.2c0,0.1-0.1,0.2-0.2,0.2h0c-2.7-1.2-6.4-2.4-11.1-3.2C132.2,81.6,128,52.6,94.3,52.3L94.3,52.3z"/>
	<path fill="#347546" d="M93.1,51.1c-2.2-4.1-3.7-8.1-4.6-11.7c-1,2.2-2.2,4.6-3.6,7.1C79.4,56,73.4,61.5,68.7,64.2c0,0-0.1,0-0.2,0
		c-0.1,0-0.1-0.2-0.1-0.3l0,0c2.4-1.7,5.2-4.3,8.2-8.1C49,69.7,75.9,80.6,93.1,51.3C93.1,51.2,93.1,51.1,93.1,51.1L93.1,51.1z"/>
	<path fill="#E82E31" d="M94.7,50.8c4.7,0.1,8.8,0.8,12.4,1.9c-1.4-2-2.9-4.2-4.3-6.7c-5.4-9.6-7.2-17.6-7.1-23.1c0,0,0-0.1,0.1-0.1
		c0.1,0,0.2,0,0.3,0.1v0c0.3,3,1.1,6.8,2.8,11.2c2-31.1-20.8-13.1-4.3,16.5C94.6,50.7,94.6,50.8,94.7,50.8L94.7,50.8z"/>
	<path d="M109.3,53.6c0,0,0-0.1-0.1-0.1l0,0l0,0c0,0,0,0,0-0.1c-1.7-2.4-3.5-5.1-5.2-8.2c-1.8-3.2-3.2-6.2-4.4-8.9
		c2.1-30.1-15.6-21.1-11.5,0.6c0,0,0,0,0,0.1l0,0l0,0c0,0,0,0,0,0.1c-1.2,2.7-2.6,5.5-4.4,8.6c-1.9,3.2-3.7,5.9-5.5,8.3
		c-26.9,13.2-10.4,24.2,6.2,9.8c0,0,0.1,0,0.1,0l0,0l0,0c0,0,0,0,0.1,0c2.9-0.3,6.1-0.5,9.6-0.4c3.6,0,6.9,0.3,9.8,0.6
		C128.9,80.8,130,60.9,109.3,53.6L109.3,53.6z M98.8,34.1c-1.7-4.5-2.5-8.3-2.8-11.2v0c0-0.1-0.2-0.1-0.3-0.1c0,0-0.1,0.1-0.1,0.1
		c-0.1,5.5,1.7,13.5,7.1,23.1c1.4,2.5,2.8,4.7,4.3,6.7c-3.5-1.1-7.7-1.8-12.4-1.9c0,0,0-0.1-0.1-0.2C77.9,21.1,100.8,3,98.8,34.1
		L98.8,34.1z M76.7,55.8c-3,3.7-5.8,6.3-8.2,8.1l0,0c0,0.1,0,0.2,0.1,0.3c0,0,0.1,0,0.2,0C73.4,61.5,79.4,56,85,46.5
		c1.4-2.5,2.7-4.9,3.6-7.1c0.8,3.6,2.3,7.6,4.6,11.7c0,0,0,0.1-0.1,0.2C75.9,80.6,49,69.7,76.7,55.8L76.7,55.8z M106.4,64.3
		c4.7,0.8,8.4,1.9,11.1,3.1h0c0.1,0,0.2-0.1,0.2-0.2c0,0,0-0.1-0.1-0.2c-4.6-2.8-12.4-5.2-23.4-5.4c-2.9,0-5.5,0.1-7.9,0.4
		c2.7-2.6,5.4-5.8,7.8-9.8h0.2C128,52.6,132.2,81.6,106.4,64.3L106.4,64.3z"/>
	<line fill="none" stroke="#000000" stroke-width="0.348" stroke-miterlimit="3.864" x1="55.5" y1="17.9" x2="55.5" y2="69.7"/>
	<path fill="#D1C7C7" d="M38.4,40.7c0,7.4-6,13.3-13.3,13.3s-13.3-6-13.3-13.3c0-7.4,5.9-13.3,13.3-13.3
		C32.5,27.3,38.4,33.3,38.4,40.7L38.4,40.7z"/>
	<path fill="#ACA6A9" d="M10.6,43.9c0,0,0,0.1,0,0.2l-1.2,0.4c-0.2,0.1-0.3,0.3-0.3,0.5l0.5,1.7C9.8,46.9,10,47,10.2,47l1.2-0.4
		c0.3,0.6,0.6,1.3,0.9,1.8l-1,0.7c-0.2,0.1-0.3,0.4-0.1,0.6l1.1,1.5c0.1,0.2,0.4,0.3,0.6,0.1l1-0.7c0.5,0.5,0.9,1,1.4,1.4l-0.7,1
		c-0.1,0.2-0.1,0.5,0.1,0.6l1.4,1.1c0.2,0.1,0.5,0.1,0.6-0.1l0.7-1c0.6,0.3,1.2,0.7,1.8,0.9l-0.4,1.2c-0.1,0.2,0,0.5,0.3,0.5
		l1.7,0.5c0.2,0.1,0.5,0,0.5-0.3l0.4-1.2c0.7,0.2,1.3,0.3,2,0.3V57c0,0.3,0.2,0.4,0.4,0.4H26c0.3,0,0.4-0.2,0.4-0.4v-1.3
		c0.7,0,1.4-0.2,2-0.3l0.4,1.2c0.1,0.2,0.3,0.3,0.5,0.3l1.7-0.5c0.2-0.1,0.3-0.3,0.3-0.5L31,54.6c0.6-0.3,1.2-0.6,1.8-0.9l0.7,1
		c0.1,0.2,0.4,0.3,0.6,0.1l1.4-1.1c0.2-0.1,0.3-0.4,0.1-0.6l-0.7-1c0.5-0.5,1-0.9,1.4-1.4l1,0.7c0.2,0.1,0.5,0.1,0.6-0.1l1.1-1.5
		c0.1-0.2,0.1-0.5-0.1-0.6L38,48.4c0.3-0.6,0.7-1.2,0.9-1.8l1.2,0.3c0.2,0.1,0.5,0,0.5-0.3l0.5-1.7c0.1-0.2,0-0.5-0.3-0.5L39.8,44
		c0,0,0-0.1,0-0.1h-3.2c-0.5,1.8-1.4,3.5-2.7,4.9l-3-4.9H19.5l-3,4.9c-1.2-1.4-2.2-3-2.7-4.9L10.6,43.9L10.6,43.9z M25.2,52.6
		c-1.8,0-3.5-0.4-5.1-1.1l5.1-6.2l5.1,6.2C28.7,52.2,27,52.6,25.2,52.6L25.2,52.6z"/>
	<path fill="#ACA6A9" d="M13.8,43.9c-0.3-1-0.4-2.1-0.4-3.2c0-0.5,0-1.1,0.1-1.6l7.3,2.9l-1.3,2h11.4l-1.3-2l7.3-2.9
		c0.1,0.5,0.1,1.1,0.1,1.6c0,1.1-0.2,2.2-0.4,3.2h3.2c0.1-0.6,0.2-1.2,0.3-1.9h1.2c0.3,0,0.4-0.2,0.4-0.4v-1.7
		c0-0.3-0.2-0.4-0.4-0.4h-1.3c0-0.7-0.2-1.4-0.3-2.1l1.2-0.4c0.2-0.1,0.3-0.3,0.3-0.5l-0.6-1.7c-0.1-0.2-0.3-0.3-0.5-0.3L39,34.8
		c-0.3-0.6-0.6-1.3-0.9-1.8l1-0.8c0.2-0.1,0.3-0.4,0.1-0.6l-1.1-1.5c-0.1-0.2-0.4-0.3-0.6-0.1l-1,0.7c-0.5-0.5-0.9-1-1.4-1.4l0.7-1
		c0.1-0.2,0.1-0.5-0.1-0.6l-1.4-1.1c-0.2-0.1-0.5-0.1-0.6,0.1l-0.7,1c-0.6-0.3-1.2-0.7-1.8-0.9l0.4-1.2c0.1-0.2,0-0.5-0.3-0.5
		l-1.7-0.5c-0.2-0.1-0.5,0-0.5,0.3L28.6,26c-0.7-0.2-1.3-0.3-2-0.3v-1.3c0-0.3-0.2-0.4-0.4-0.4h-1.8c-0.3,0-0.4,0.2-0.4,0.4v1.3
		c-0.7,0-1.4,0.2-2,0.3l-0.4-1.2c-0.1-0.2-0.3-0.3-0.5-0.3l-1.7,0.5c-0.2,0.1-0.3,0.3-0.3,0.5l0.4,1.2c-0.6,0.3-1.2,0.6-1.8,0.9
		l-0.7-1c-0.1-0.2-0.4-0.3-0.6-0.1l-1.4,1.1c-0.2,0.1-0.3,0.4-0.1,0.6l0.7,1c-0.5,0.5-1,0.9-1.4,1.4L13,30c-0.2-0.1-0.5-0.1-0.6,0.1
		l-1.1,1.5c-0.1,0.2-0.1,0.5,0.1,0.6l1,0.7c-0.3,0.6-0.7,1.2-0.9,1.8l-1.2-0.4c-0.2-0.1-0.5,0-0.5,0.3l-0.5,1.7
		c-0.1,0.2,0,0.5,0.3,0.5l1.2,0.4c-0.2,0.7-0.3,1.4-0.3,2H9.2c-0.3,0-0.4,0.2-0.4,0.4v1.8C8.7,41.9,9,42,9.2,42h1.2
		c0,0.6,0.2,1.3,0.3,1.9L13.8,43.9L13.8,43.9z M35.5,34.9l-7.7,2l-0.4-6.5l-0.1-1.4C30.9,29.6,33.8,31.8,35.5,34.9L35.5,34.9z
		 M23,28.9L23,30.1l-0.4,6.7l-7.7-2C16.5,31.8,19.5,29.6,23,28.9L23,28.9z"/>
	<polygon fill="#FFFFFF" points="25.2,44.9 18.5,49.8 21.1,41.9 14.4,37 22.7,37 25.2,29.1 27.7,37 36,37 29.3,41.9 31.9,49.8 	"/>
	<path fill="#A61E22" d="M25.2,29.6l2.4,7.3l0.1,0.3h0.3h7.6l-6.1,4.5l-0.2,0.1l0.1,0.3l2.4,7.3l-6.1-4.5l-0.2-0.1l-0.2,0.1L19,49.3
		l2.4-7.3l0.1-0.3l-0.2-0.1l-6.2-4.5h7.6h0.3l0.1-0.3L25.2,29.6L25.2,29.6z M25.2,28.5l-2.7,8.3h-8.6l7,5.1l-2.7,8.3l7-5.1l7,5.1
		l-2.7-8.3l7-5.1h-8.6L25.2,28.5L25.2,28.5z"/>
	<path fill="#3E4F31" d="M34.9,22.4c-0.1-0.1-0.2-0.3-0.3-0.4c-0.1-0.1-0.3-0.3-0.4-0.3c-0.1,0,0,0.3-0.2,0.4
		c-0.2,0.2-0.3-0.1-0.4-0.3c-0.1-0.2-0.3-0.3-0.3-0.4c-0.1-0.2-0.2-0.3-0.3-0.5c-0.1-0.2-0.3-0.3-0.5-0.5c-0.2-0.1-0.5-0.4-0.8-0.4
		c-0.3,0-0.1,0.1-0.3,0.3c-0.1,0.1-0.2,0-0.3,0c-0.2-0.1-0.3-0.4-0.5-0.4c-0.3,0-0.5,0-0.8-0.2c-0.3-0.3-1.3-0.4-1.6-0.1
		c-0.2,0.2,0,0.2,0,0.4c0,0.2-0.2,0.2-0.3,0.2c-0.3,0-0.6,0.1-0.5,0.5c0,0.1,0.1,0.3,0.2,0.4c0.1,0.1,0.3,0.1,0.5,0.2
		c0.3,0.2,0,0.5,0.1,0.8c0.1,0.4,0.4,0.4,0.8,0.4c0.3,0,0.6,0.1,0.9,0.1c0.1,0,0.3,0,0.3,0.2c0,0.2-0.2,0.2-0.3,0.3
		c-0.2,0.3,0.3,0.3,0.5,0.2c0.2,0,0.2-0.1,0.4,0c0.2,0.1,0.3,0.3,0.5,0.4c0.2,0.1,0.5,0,0.7-0.1c0.2-0.1,0.7-0.2,0.8,0
		c0.2,0.4-0.5,0.4-0.3,0.7c0.1,0.3,0.8,0.1,1,0.1s0.3,0,0.5-0.1c0.3-0.1,0.7-0.3,1-0.4c0.3-0.2,0.3-0.5,0.3-0.8
		C35.2,22.9,35.1,22.7,34.9,22.4L34.9,22.4z"/>
	<path fill="#5A6C3F" d="M34.8,23c-0.2,0-0.8,0-1.2,0c-0.4-0.1-0.7-0.2-1.1,0c-0.4,0.2-1,0.2-1.3,0.2c-0.3,0-0.4-0.1-0.2-0.1
		c0.8,0,1.6-0.3,1.5-0.5c0-0.1-0.5-0.5-0.8-0.5c-0.2-0.1-0.5-0.2-0.8-0.2s-0.9-0.3-1.1-0.4c-0.2,0-0.5-0.3-0.9-0.5s-0.4-0.5-0.2-0.3
		c0.2,0.2,0.6,0.3,0.8,0.4c0.2,0.1,0.5,0.2,0.3,0c-0.2-0.3-0.4-0.8-0.4-0.8s0.6,0.7,0.8,0.9c0.2,0.2,0.6,0.4,0.8,0.5
		c0.2,0.1,0.1-0.2,0-0.5c0-0.3-0.3-0.5,0-0.4c0.3,0.1,0.6,0.9,0.8,0.9c0.2,0,0.5,0.3,0.8,0.5c0.4,0.2,0.2-0.2,0.1-0.5
		c-0.1-0.2-0.3-0.5-0.4-0.6c0,0,0-0.1,0-0.1s0,0,0,0.1c0.1,0.1,0.2,0.3,0.3,0.2c0.1,0,0.1-0.2,0.1-0.4c-0.1-0.1-0.3-0.2-0.4-0.3
		c-0.2-0.1-0.5-0.4-0.8-0.4c-0.3,0-0.1,0.1-0.3,0.3c-0.1,0.1-0.2,0-0.3,0c-0.2-0.1-0.3-0.4-0.5-0.4c-0.3,0-0.5,0-0.8-0.2
		c-0.3-0.3-1.3-0.4-1.6-0.1c-0.2,0.2,0,0.2,0,0.4c0,0.2-0.2,0.2-0.3,0.2c-0.3,0-0.6,0.1-0.5,0.5c0,0.1,0.1,0.3,0.2,0.4
		c0.1,0.1,0.3,0.1,0.5,0.2c0.3,0.2,0,0.5,0.1,0.8c0.1,0.4,0.4,0.4,0.8,0.4c0.3,0,0.6,0.1,0.9,0.1c0.1,0,0.3,0,0.3,0.2
		s-0.2,0.2-0.3,0.3c-0.2,0.3,0.3,0.3,0.5,0.2c0.2,0,0.2-0.1,0.4,0c0.2,0.1,0.3,0.3,0.5,0.4c0.2,0.1,0.5,0,0.7-0.1
		c0.2-0.1,0.7-0.2,0.8,0c0.2,0.4-0.5,0.4-0.3,0.7c0.1,0.3,0.8,0.1,1,0.1s0.3,0,0.5-0.1c0.3-0.1,0.7-0.3,1-0.4s0.3-0.5,0.3-0.8
		c0-0.2,0-0.3,0-0.4C35,22.9,34.9,22.9,34.8,23L34.8,23z"/>
	<path fill="#182A19" d="M35.5,22.2c-0.1,0-0.3-0.1-0.4,0c-0.2,0.1-0.1,0.2-0.2,0.3c-0.2,0.2-0.8,0-1.1,0c-0.3,0-0.5,0.2-0.5,0.5
		c0,0.2,0.1,0.4,0.1,0.6c0,0.2,0.2,0.3,0.2,0.5c0,0.2-0.3,0.2-0.4,0.4c-0.1,0.2,0,0.4,0.1,0.6c0.1,0.2,0.3,0.5,0.5,0.5
		c0.3,0.1,0.6,0,0.8,0c0.2,0,0.4,0.3,0.4,0.5c0,0.4-0.5,0.5-0.6,0.8c-0.1,0.2,0,0.4,0.1,0.5c0.1,0.1,0.4,0.1,0.6,0.1
		c0.2,0,0.6-0.1,0.7,0.2c0,0.2-0.1,0.4-0.1,0.7c0,0.3,0.3,0.4,0.5,0.5c0.3,0.1,0.6,0.1,0.9,0.1c0.4,0,0.8-0.1,1.2-0.1
		c0.2,0,0.4,0,0.5-0.1c0.3-0.3,0.3-0.9,0.2-1.3c0-0.3-0.2-0.6-0.3-0.8c-0.3-0.6-0.4-1.2-0.7-1.8c-0.1-0.2-0.3-0.3-0.4-0.5
		c-0.1-0.1-0.2-0.3-0.2-0.4c-0.1-0.1-0.2-0.3-0.3-0.4c0-0.1-0.1-0.2-0.1-0.3c-0.1-0.1-0.2-0.3-0.3-0.4c-0.2-0.2-0.4-0.1-0.5-0.3
		C36,22.5,35.8,22.3,35.5,22.2L35.5,22.2z"/>
	<path fill="#4A604F" d="M39,27.7c0-0.3-0.2-0.6-0.3-0.8c-0.3-0.6-0.4-1.2-0.7-1.8c-0.1-0.2-0.3-0.3-0.4-0.5
		c-0.1-0.1-0.2-0.3-0.2-0.4c-0.1-0.1-0.2-0.2-0.2-0.3c-0.4,0.6-0.9,1-1.4,0.5c-0.8-0.9-1.8-1.4-2.3-1.6c-0.1,0.1-0.1,0.2-0.1,0.3
		c0,0.2,0.1,0.4,0.1,0.6c0,0.2,0.2,0.3,0.2,0.5c0,0.2-0.3,0.2-0.4,0.4c-0.1,0.2,0,0.4,0.1,0.6c0.1,0.2,0.3,0.4,0.5,0.5
		c0.3,0.1,0.6,0,0.8,0c0.2,0,0.4,0.3,0.4,0.5c0,0.4-0.5,0.5-0.6,0.8c-0.1,0.2,0,0.4,0.1,0.5c0.1,0.1,0.4,0.1,0.6,0.1
		c0.2,0,0.6-0.1,0.7,0.2c0,0.2-0.1,0.4-0.1,0.7c0,0.3,0.3,0.4,0.5,0.5c0.3,0.1,0.6,0.1,0.9,0.1c0.4,0,0.8-0.1,1.2-0.1
		c0.2,0,0.4,0,0.5-0.1C39.1,28.7,39,28.1,39,27.7L39,27.7z"/>
	<path fill="#182A19" d="M33.5,23.6c0,0-0.1,0.5,0,0.8c0.1-0.1,0.2-0.2,0.2-0.3C33.7,24,33.5,23.8,33.5,23.6L33.5,23.6z"/>
	<path fill="#223917" d="M34.6,26.9c0,0,0,0.2,0.3,0.2c0.4,0,0.6,0,0.8,0.2c0.1,0.1,0.3,0.4,0,0.4c-0.3,0-1,0.1-1.3,0
		C34.4,27.6,34.2,27.2,34.6,26.9L34.6,26.9z"/>
	<path fill="#182A19" d="M35.3,26.3c0,0,0,0.3,0.3,0.5c0.3,0.2,0.2,0.7,0.2,0.7s0.6-0.1,0.6-0.4C36.4,26.7,36.3,26.5,35.3,26.3
		L35.3,26.3z"/>
	<path fill="#3E4F31" d="M36,22.7c-0.1,0-0.2,0-0.3,0c-0.3,0-0.2,0.3-0.3,0.5c0,0.2-0.2,0.4-0.2,0.6c0,0.3,0.1,0.4,0.2,0.6
		c0.1,0.2,0.1,0.5-0.1,0.6c-0.2,0.2-0.3,0.3-0.4,0.6c0,0.2,0,0.4,0.2,0.5c0.3,0.3,0.9,0.2,1.2,0.6c0.2,0.2,0,0.4-0.2,0.5
		c-0.1,0.1-0.3,0.2-0.4,0.2c-0.1,0-0.2,0.1-0.3,0.2c-0.2,0.2,0,0.5,0.2,0.5c0.1,0,0.2,0.1,0.3,0.2c0.1,0.1,0.3,0.1,0.4,0.1
		c0.2,0,0.4,0,0.5,0.1c0.1,0,0.1,0.2,0.2,0.3c0.3,0.5,1,0.4,1.5,0.4c0.1,0,0.3,0,0.4,0.1c0.3,0.2-0.1,0.4-0.2,0.5
		c-0.2,0.3,0.4,0.3,0.5,0.3c0.1,0,0.3,0.1,0.4,0.1c0.1,0,0.2-0.1,0.3-0.1c0.1-0.1,0.3-0.1,0.4-0.2c0.3-0.2,0.3-0.5,0.4-0.9
		c0-0.2,0-0.4,0-0.5c0-0.2,0-0.4-0.1-0.6c0-0.1-0.1-0.2-0.2-0.3c-0.2-0.3-0.2-0.5-0.2-0.8c0-0.3,0.1-0.5,0-0.7
		c0-0.2-0.1-0.5-0.3-0.6c-0.1-0.1-0.2-0.2-0.2-0.3c0-0.1,0-0.3,0-0.4c0-0.2-0.2-0.6-0.4-0.4c-0.2,0.1-0.3,0.4-0.3,0.5
		c-0.1,0.1-0.3,0.2-0.3,0c-0.1-0.2,0-0.5-0.1-0.7c0-0.2-0.1-0.5-0.2-0.6S38.2,23.1,38,23c-0.1,0-0.4-0.2-0.5-0.2
		c-0.2,0-0.1,0.4-0.4,0.3c-0.1,0-0.2-0.2-0.3-0.2c-0.1-0.1-0.2-0.1-0.3-0.2C36.3,22.7,36.1,22.7,36,22.7L36,22.7z"/>
	<path fill="#223917" d="M37.8,29.1c0,0-0.4,0.2-1.2,0.1c-0.8-0.1-1-0.5-0.7-1C36.1,27.7,37.6,28.4,37.8,29.1L37.8,29.1z"/>
	<path fill="#745942" d="M6.9,40.6c-0.1-0.4-0.4,0.5-0.6,0.5c-0.2,0-0.2,0.3-0.2,0.5c0,0.7,0.7,0.4,0.8,1.7
		C7.1,44.3,7.3,42.1,6.9,40.6L6.9,40.6z"/>
	<path fill="#745942" d="M7.7,36.5c0,0-0.2-0.6-0.6-1.1c-0.3-0.4-0.2,0.8-0.2,1c0,0.1,0.5,0.5,0.3,1.8C7.1,39.5,7.7,36.5,7.7,36.5
		L7.7,36.5z"/>
	<path fill="#745942" d="M9,33.3c0,0-0.3-0.4-0.5-0.3c-0.2,0.1-0.2,0.3-0.3,0.2C8.1,33,8,33,8,33.3s0,0.4,0.2,0.6
		c0.2,0.2,0.3,0.4,0.3,0.6C8.4,34.6,9,33.3,9,33.3L9,33.3z"/>
	<path fill="#745942" d="M11.1,28.4c0,0,0.1,0.7,0,1c-0.1,0.3-0.4,0.6-0.4,0.6s0.1-0.6,0-1.1C10.8,28.4,11.1,28.4,11.1,28.4
		L11.1,28.4z"/>
	<path fill="#745942" d="M9,33.7c0,0,0.5,0.1,0.9-0.1c0.5-0.2,0.3,0.3-0.2,0.4s-1,0-1,0L9,33.7L9,33.7z"/>
	<path fill="#745942" d="M8.7,36.8c0,0-0.8,0.3-1.1,0.6C7.4,37.8,7.9,36.2,8,36c0.2-0.2,0.4,0,0.4,0.3c0,0.2-0.3,0.3-0.3,0.4
		c0.1,0.1,0.4,0.1,0.7,0C9.2,36.6,8.7,36.8,8.7,36.8L8.7,36.8z"/>
	<path fill="#745942" d="M13.1,26.5c0,0-0.4,0.2-0.4,0.5c0,0.3,0.1,0.5,0.1,0.5L12.3,28c0,0,0-0.8,0-1.2s0.7-0.7,1.1-1
		C13.8,25.4,13.1,26.5,13.1,26.5L13.1,26.5z"/>
	<path fill="#8E7566" d="M9.9,50c0,0-0.2,0.8-0.1,1.1c0.1,0.3-0.3,0.1-0.4,0c-0.1-0.1-0.3,0,0,0.3c0.3,0.3,0.4,0.5,0.6,0.5
		c0.1,0.3,0.4,1.2,0.8,1.8c0,0.5,0,0.9,0.9,1.9c0.9,1,2.4,1.6,2.4,1.6s-0.1-1.2-1-1.6s-1.2-1-1.3-1.3c-0.1-0.3,0-0.4-0.3-0.5
		c-0.3,0,0-0.3-0.4-0.4c-0.3-0.5-0.5-1-0.6-1.4c-0.1-0.4,0.2-0.8,0.4-0.8C11.1,51.2,10.3,50.5,9.9,50L9.9,50z"/>
	<path fill="#8E7566" d="M26.8,63.4c0,0,0.9,0.7,1.3,1c0.4,0.3,0.8,0.5,1.3,0.8c0.4,0.3,0.9,0.7,0.9,0.9c0,0.2,0,0.5,0.2,0.7
		s0.3,0.3,0.5,0.3s0.4,0.1,0.5,0.3c0.1,0.2,0.2,0.4,0.3,0.6c0.2,0.2,0.8,0.1,1.1,0c0.3-0.1,0.6-0.5,0.8-0.6s0.5-0.1,0.7-0.3
		s0.5-0.3,0.3-0.6c-0.2-0.3-0.5-0.3-0.8-0.2c-0.3,0-1.1-0.5-1.9-1.1s-1.2-1.4-1.2-1.4L27,63.2L26.8,63.4L26.8,63.4z"/>
	<path fill="#502E1F" d="M30.3,66.2c0,0.2,0,0.5,0.2,0.7s0.3,0.3,0.5,0.3s0.4,0.1,0.5,0.3c0.1,0.2,0.2,0.4,0.3,0.5
		c0-0.2,0-0.4,0.1-0.5c0.1-0.2,0.3-0.3,0.5-0.5c0.2-0.1,0-0.2-0.1-0.2s-0.3,0.3-0.5,0.4s-0.2-0.1-0.1-0.2c0.1-0.1,0.4-0.3,0.3-0.3
		s-0.3-0.2-0.5-0.3s-0.5-0.4-0.8-0.6c-0.3-0.3-0.8-0.5-0.8-0.6c-0.1-0.1,0.1-0.2,0.3-0.2c0.1,0,1,0,1.5,0c-0.7-0.6-1-1.2-1-1.2
		l-3.6-0.8l-0.1,0.1l-0.1,0.2c0,0,0.9,0.7,1.3,1c0.4,0.3,0.8,0.5,1.3,0.8C29.8,65.6,30.3,66,30.3,66.2L30.3,66.2z M30.7,66.4
		c0.1-0.1,0.3-0.1,0.4,0c0.1,0.1,0.2,0.3,0.1,0.4c-0.1,0.1-0.3,0.1-0.4,0C30.6,66.7,30.6,66.5,30.7,66.4L30.7,66.4z"/>
	<path fill="#8E7566" d="M24.2,63.5c0,0-0.5,0.6-0.8,0.8c-0.3,0.3-0.7,0.4-0.9,0.5c-0.2,0.2-0.4,0.3-0.5,0.5c0,0.2,0,0.3-0.1,0.5
		c-0.1,0.1-0.3,0.1-0.5,0.1c-0.2,0-0.2,0.1-0.4,0.2c-0.2,0.1-0.3,0.3-0.4,0.3c-0.1,0-0.2,0-0.2,0.1c0.1,0.1,0.3,0.4,0.2,0.5
		c-0.2,0.1-0.3,0.1-0.4,0.2c-0.1,0.1-0.3,0.1-0.5,0.1c-0.2,0-0.3,0.3-0.4,0.4c-0.1,0.2,0,0.3-0.3,0.4c-0.3,0.1-0.9,0-1.3-0.2
		c-0.4-0.3-0.7-0.5-0.8-0.7c-0.1-0.1-0.3-0.1-0.5-0.1c-0.2,0-0.2-0.2,0-0.4c0.1-0.2,0.3-0.3,0.4-0.3s0.5,0,0.7-0.3
		c0.2-0.2,0.6-0.5,0.7-0.5s0-0.4,0.2-0.5s0.3-0.2,0.5-0.2c0.2,0,0.5,0,0.6,0s0.2-0.2,0.4-0.3c0.2,0,0.4-0.1,0.5-0.3
		c0.1-0.2,0.6-0.6,0.6-0.6L24.2,63.5L24.2,63.5z"/>
	<path fill="#502E1F" d="M21.1,63.9c0,0-0.5,0.4-0.6,0.6l0,0c0.2,0,0.4,0,0.5,0c0.2,0,0.6-0.2,0.8,0s0.2,0.2,0.1,0.5
		c-0.1,0.3-0.3,0.3-0.6,0.5c-0.3,0.1-0.5,0.3-0.6,0.4c-0.1,0.1-0.5,0.4-0.5,0.6c-0.1,0.2-0.3,0.3-0.2,0.4c0.1,0.1,0.1,0,0.2-0.1
		c0.1-0.1,0.3-0.2,0.4-0.2c0,0,0.1,0,0.1,0c0,0,0.1,0,0.2-0.1c0.1,0,0.3-0.2,0.4-0.3c0.2-0.1,0.2-0.2,0.4-0.2s0.4,0,0.5-0.1
		c0.1-0.1,0-0.3,0.1-0.5c0-0.2,0.3-0.3,0.5-0.5c0.2-0.2,0.5-0.3,0.9-0.5c0.3-0.3,0.8-0.8,0.8-0.8L21.1,63.9L21.1,63.9z M20.2,67.1
		c-0.2,0.1-0.3,0-0.4-0.1s-0.3-0.1-0.3,0c0,0.1-0.1,0.3-0.3,0.1c-0.2-0.1-0.7-0.3-1.1-0.3c-0.4,0-0.9,0-0.7,0.1
		c0.3,0.1,0.4,0,1.2,0.2c0.5,0.1,0.7,0.5,0.8,0.7c0.1-0.2,0.3-0.4,0.4-0.4c0.2,0,0.3,0,0.5-0.1c0.1-0.1,0.3-0.1,0.4-0.2
		c0.1-0.1,0-0.3-0.1-0.4C20.6,66.8,20.4,67,20.2,67.1L20.2,67.1z M18.7,65.8c0.2,0,0.4,0,0.7-0.1c0.2-0.1,0.5-0.5,0.5-0.7
		c0,0,0-0.1,0-0.1c0,0-0.1,0.1-0.1,0.1c0,0.1,0,0.2-0.2,0.3c-0.1,0.1-0.3,0.3-0.7,0.3c-0.2,0-0.3-0.2-0.3-0.4
		c-0.1,0-0.1,0.2-0.1,0.3C18.4,65.7,18.5,65.8,18.7,65.8L18.7,65.8z"/>
	<path fill="#B12124" d="M12.7,65.4c-0.3,0-0.4,0-0.5,0c-0.3-0.1-2.7-1.6-4-2.4c-0.7-0.5-1.2-0.7-1.6-1c-0.3-0.2-0.6-0.3-1-0.5
		c-0.3-0.2-1-1.5-1.2-1.9v0C5.5,58.1,6,56.1,6,56c0,0,0,0,0,0L9,56l0.2-1.1c0,0,0,0,0,0c0,0,0,0,0,0c0,0,0,0,0,0
		c0.8,0.4,1.1,0.7,1,1.1c0,0,0,0.1,0,0.1c-0.1,0.3-0.2,0.5-0.2,1.3c0,0.9,0.3,1.5,0.5,1.6c0.2,0.2,2.5,1.9,2.6,1.9
		c0,0,1.9-0.2,2.8-0.2l-0.2-0.2c0,0,0,0,0-0.1c0,0,0.4-0.5,0.8-1.5c0.3-0.8,0.4-1.4,0.5-1.7c0-0.1,0-0.2,0-0.2
		c0-0.2,0.4-0.4,0.7-0.4c0,0,0.1,0,0.1,0c0.3,0.1,3.4,1.3,3.6,1.4c0.1,0.1,1.1,1.4,1.4,1.6h0.7c0.2-0.1,1.1-0.7,1.3-0.7
		s0.6,0.1,0.7,0.1l0.7-0.4c0,0,0,0,0,0h0l0.8,0.9h1.5c0.2-0.3,0.8-1.4,1-1.5c0.2-0.1,3-1.4,3.4-1.5c0,0,0.1,0,0.1,0
		c0.3,0,0.9,0.3,0.9,0.5s0.5,2.4,0.5,2.5l0.6,0.8c0,0,0,0,0,0.1L35,60.5c0.4,0,1.9,0.2,2.7,0.2c0.3,0,0.3,0,0.3,0
		c0.3-0.1,2-1.6,2.7-2.2L41,56l0,0c0,0-0.1-0.2-0.2-0.3c-0.2-0.2-0.2-0.3-0.1-0.5c0.1-0.1,0.7-0.8,0.8-0.8h0h0l0.3,0.2l0.2,1H44
		c0.1,0,0.2,0,0.3,0s0.1,0,0.2,0c0.2,0,0.4,0,0.5,0.2c0.2,0.3,0.1,0.5,0.1,0.5l1.6,3c0,0,0,0,0,0.1c0,0-1,1.3-1.4,1.5
		c-0.2,0.2-0.4,0.3-0.6,0.3c-0.1,0-0.3,0.1-0.3,0.2c-0.3,0.2-2.7,1.8-3.2,2.1c-1.1,0.8-2.3,1.5-2.4,1.6c0,0-0.1,0-0.3,0
		c-0.8,0-3-0.1-3.9-0.2c-1.1-0.2-3-0.5-3.4-0.6c-0.3-0.1-0.5-0.1-0.8-0.1c-0.3,0-0.6,0-0.9-0.1c-0.7-0.1-1.9-0.5-2.2-0.6
		c-0.2,0.2-1.4,0.9-1.6,0.9c-0.3,0-1.3-0.6-1.4-0.7c0,0-3.2,0.5-3.6,0.6c-0.1,0-0.4,0.1-0.8,0.2C19,64.6,18,64.9,17,65.1
		C15.7,65.3,13.6,65.4,12.7,65.4L12.7,65.4z"/>
	<path fill="#881619" d="M41.4,54.6l0.3,0.2l0.2,1h2c0.2,0,0.3,0,0.5,0c0.2,0,0.3,0,0.5,0.2c0.2,0.3,0.1,0.5,0.1,0.5l1.6,3
		c0,0-1,1.2-1.4,1.5c-0.3,0.3-0.7,0.3-0.9,0.5c-0.3,0.2-2.7,1.8-3.2,2.1c-0.5,0.3-2.1,1.4-2.3,1.4c0,0-0.2,0-0.3,0
		c-0.8,0-3-0.1-3.8-0.2c-1.1-0.2-3-0.5-3.4-0.6s-1.1-0.1-1.8-0.3c-0.7-0.1-2.2-0.6-2.2-0.6s-1.3,0.9-1.6,0.9l0,0
		c-0.2,0-1.4-0.7-1.4-0.7s-3.3,0.5-3.7,0.5c-0.4,0-1.9,0.6-3.5,0.8c-1.3,0.2-3.3,0.3-4.2,0.3c-0.2,0-0.4,0-0.5,0
		c-0.3-0.1-2.7-1.6-4-2.4c-1.3-0.8-1.8-1-2.6-1.5c-0.3-0.2-1-1.5-1.1-1.9c1-1.5,1.6-3.5,1.6-3.5l3,0l0.2-1.2c0.8,0.4,1,0.8,0.9,1
		c-0.1,0.3-0.2,0.5-0.2,1.4c0,0.9,0.3,1.6,0.5,1.7c0.2,0.1,2.6,1.9,2.7,1.9c0.1,0,3-0.2,3-0.2l-0.3-0.3c0,0,0.4-0.5,0.8-1.5
		c0.5-1.1,0.5-1.7,0.5-1.9c0-0.2,0.4-0.3,0.6-0.3c0,0,0.1,0,0.1,0c0.3,0.1,3.4,1.3,3.5,1.4c0.1,0.1,1.4,1.6,1.4,1.6l0.7,0
		c0,0,1.1-0.7,1.3-0.7s0.7,0.1,0.7,0.1l0.7-0.5l0.8,0.9h1.6c0,0,0.8-1.4,1-1.5c0.2-0.1,3-1.4,3.4-1.4c0,0,0.1,0,0.1,0
		c0.3,0,0.9,0.3,0.9,0.4c0,0.2,0.5,2.5,0.5,2.5l0.6,0.8L35,60.6c0,0,1.9,0.2,2.7,0.2c0.2,0,0.3,0,0.4,0c0.3-0.1,2.7-2.2,2.7-2.2
		l0.2-2.4c0,0-0.1-0.2-0.3-0.3c-0.2-0.1-0.2-0.3-0.1-0.4C40.7,55.3,41.4,54.6,41.4,54.6L41.4,54.6z M41.4,54.5
		C41.3,54.5,41.3,54.5,41.4,54.5c-0.2,0.1-0.8,0.7-0.8,0.8c-0.1,0.2-0.1,0.4,0.1,0.6c0.1,0.1,0.2,0.2,0.2,0.3l-0.2,2.4
		c-0.9,0.8-2.5,2-2.7,2.1c0,0-0.1,0-0.3,0c-0.7,0-2-0.1-2.5-0.2l0.1-0.1c0,0,0-0.1,0-0.1l-0.6-0.8c-0.1-0.7-0.5-2.3-0.5-2.4
		c0-0.2-0.6-0.5-1-0.5c0,0-0.1,0-0.2,0c-0.3,0.1-3.2,1.4-3.4,1.5c-0.2,0.1-0.8,1-1,1.4H27l-0.8-0.8c0,0,0,0-0.1,0c0,0,0,0,0,0
		l-0.6,0.4c-0.1,0-0.5-0.1-0.7-0.1c-0.2,0-1,0.5-1.4,0.7h-0.6c-0.3-0.3-1.2-1.5-1.4-1.6c-0.2-0.1-3.4-1.3-3.6-1.4c0,0-0.1,0-0.2,0
		c-0.3,0-0.7,0.2-0.7,0.4c0,0,0,0.1,0,0.2c0,0.3-0.1,0.8-0.5,1.7c-0.4,1-0.8,1.5-0.8,1.5c0,0,0,0.1,0,0.2l0.1,0.1
		c-1.1,0.1-2.4,0.2-2.7,0.2c-0.3-0.1-2.4-1.7-2.6-1.9C10.3,59,10,58.3,10,57.4c0-0.7,0.1-1,0.2-1.3c0,0,0-0.1,0-0.2
		c0.1-0.4-0.2-0.8-1-1.2h0h0c0,0,0,0,0,0.1L8.9,56l-2.8,0c0,0-0.1,0-0.1,0.1c0,0-0.5,2-1.6,3.4c0,0,0,0.1,0,0.1
		c0.2,0.4,0.8,1.7,1.2,1.9c0.3,0.2,0.6,0.4,1,0.5c0.4,0.2,0.9,0.5,1.6,1c1.1,0.8,3.7,2.3,4,2.4c0,0,0.1,0,0.5,0c0.9,0,3-0.2,4.2-0.3
		c1.1-0.2,2.1-0.5,2.7-0.7c0.3-0.1,0.6-0.2,0.8-0.2c0.4,0,3.2-0.5,3.6-0.5c0.3,0.2,1.2,0.7,1.4,0.7c0,0,0,0,0,0
		c0.3,0,1.2-0.7,1.6-0.9c0.3,0.1,1.5,0.5,2.2,0.6c0.3,0,0.7,0.1,0.9,0.1c0.3,0,0.6,0,0.8,0.1c0.5,0.1,2.4,0.5,3.5,0.6
		c0.9,0.1,3,0.2,3.9,0.2c0.3,0,0.3,0,0.4,0c0.2,0,0.9-0.5,2.3-1.4c0.5-0.3,2.9-1.9,3.2-2.1c0.1-0.1,0.2-0.1,0.3-0.2
		c0.2-0.1,0.4-0.2,0.6-0.3c0.3-0.3,1.3-1.5,1.4-1.5c0,0,0-0.1,0-0.1l-1.6-3c0-0.1,0.1-0.3-0.1-0.6c-0.1-0.2-0.3-0.2-0.5-0.2
		c-0.1,0-0.1,0-0.2,0s-0.2,0-0.3,0H42l-0.2-0.9c0,0,0,0,0-0.1L41.4,54.5L41.4,54.5L41.4,54.5z"/>
	<path fill="#730F11" d="M29.1,59.5c0.2-0.1,3.7-2.1,4-2.2c0.3-0.2,0.4-0.3-0.1-0.3c-0.5,0-1.1,0.4-1.7,0.6
		c-0.6,0.3-1.4,0.7-1.6,0.8c-0.1,0.1-0.4,0.5-0.6,0.8C28.9,59.5,29,59.5,29.1,59.5L29.1,59.5z"/>
	<path fill="#730F11" d="M9.9,55.7c-0.1-0.2-0.5-0.5-0.8-0.6l-0.1,1C9.6,56.1,10,56,9.9,55.7L9.9,55.7z"/>
	<path fill="#730F11" d="M6.6,56.4c-0.2,0-0.4,0.2,0,0.3c1.8,0.8,2.6,1.4,3.6,2.1c-0.1-0.3-0.3-0.8-0.3-1.4c0-0.5,0-0.9,0.1-1.1
		C9.4,56.4,6.8,56.4,6.6,56.4L6.6,56.4z"/>
	<path fill="#730F11" d="M44.2,56.4c0.4-0.2,0.1-0.2-0.3-0.2c-0.3,0-2.3,0-3,0c0,0,0,0,0,0l-0.2,2.4c0,0,0,0-0.1,0.1
		c1.1-0.9,1.2-1.1,2-1.5C43.3,56.8,43.8,56.5,44.2,56.4L44.2,56.4z"/>
	<path fill="#730F11" d="M17.6,57.1c0.2,0.2,2.2,1.3,3.4,1.9c0.7,0.3,1.2,0.4,1.5,0.5c-0.3-0.4-1-1.3-1.1-1.4
		c-0.1-0.1-2.7-1.1-3.4-1.3C17.6,56.8,17.5,56.9,17.6,57.1L17.6,57.1z"/>
	<path fill="#730F11" d="M25.5,60.6c0,0.3,0.2,0.5,0.3,0.8c0.1,0.3,0.5,0.7,0,1.4c-0.2,0.1-0.5,0.3-0.7,0.3c-0.2,0-0.4,0-0.6,0.1
		s-0.8,0.2-1,0.3c-0.1,0-0.7,0.2-1.4,0.4c1-0.2,2-0.3,2-0.3s1.1,0.7,1.4,0.7c0.2,0,1.6-0.9,1.6-0.9s0,0,0.1,0
		c0.1-0.1,0.1-0.2,0.2-0.3c0.3-0.2,0.9-0.6,1.1-0.7c0.1-0.1,0.2-0.3,0.2-0.6c0-0.4,0.1-0.6-0.1-0.8c-0.2-0.3-1.9-1.8-1.9-1.8
		s0.3,0.5,1.5,1.9c0.2,0.3,0.1,0.5,0.1,0.7c0,0.2-0.2,0.2-0.4,0.1c-0.2-0.1-0.3,0-0.3,0s-0.1,0.3-0.2,0.5C27.2,62.7,27.1,63,27,63
		c-0.1,0-0.2-0.1-0.4,0.1c-0.2,0.2-0.7,0.6-0.8,0.7c-0.2,0.1-0.4,0-0.6-0.2c0.6-0.2,0.7-0.3,0.8-0.4s0.3-0.4,0.4-0.5
		c0.2-0.1,0.1-0.6-0.1-0.9c-0.2-0.3-0.2-0.5-0.4-0.8c-0.2-0.3-0.3-1.1-0.5-1.3c-0.2-0.3-0.9-0.2-1.6-0.2l-0.3,0.1
		c0.5,0,1.2-0.1,1.4,0.1C25.3,59.8,25.5,60.4,25.5,60.6L25.5,60.6z"/>
	<path fill="#730F11" d="M41.8,55.8l-0.2-0.9l0,0c-0.1,0.1-0.4,0.3-0.5,0.4C40.9,55.6,41,55.9,41.8,55.8L41.8,55.8z"/>
	<path fill="#FFFFFF" d="M6.9,61.1L6.9,61.1l-0.3-0.2c-0.2-0.1-0.3-0.3-0.3-0.5l-0.1-0.8V59c0,0,0,0,0,0c0,0,0,0,0,0l0,0
		c0.2,0.1,0.3,0.1,0.5,0.1c0.2,0,0.3-0.1,0.4-0.2c0-0.1,0.1-0.2,0-0.3c0-0.1-0.1-0.2-0.2-0.3c-0.1,0-0.1-0.1-0.2-0.1l-1,1.5
		c-0.1,0.2-0.2,0.3-0.1,0.5v0c0,0,0,0,0,0l0,0l0,0l-0.6-0.4c0,0,0,0,0,0v0l0,0l0,0h0c0.1,0,0.3-0.2,0.3-0.3L6.3,58
		c0.1-0.1,0.2-0.3,0.1-0.5v0c0,0,0,0,0,0c0,0,0,0,0,0l0,0L7.3,58c0.5,0.3,0.6,0.7,0.3,1.1c-0.1,0.2-0.4,0.3-0.6,0.3
		c-0.1,0-0.2,0-0.3,0l0.1,0.9c0,0.3,0.1,0.5,0.2,0.8C7,61.1,7,61.1,6.9,61.1L6.9,61.1L6.9,61.1z"/>
	<path fill="#881619" d="M6.4,57.5l0.8,0.5c0.5,0.3,0.5,0.7,0.3,1c-0.1,0.2-0.4,0.3-0.6,0.3c-0.1,0-0.2,0-0.3,0l0.1,0.9
		c0,0.3,0.1,0.6,0.2,0.8l-0.3-0.2c-0.2-0.1-0.3-0.3-0.3-0.4l-0.1-0.8V59c0.1,0.1,0.3,0.1,0.5,0.1c0.2,0,0.3,0,0.4-0.2
		c0.2-0.3,0-0.5-0.2-0.7c-0.1,0-0.2-0.1-0.3-0.1l-1,1.5c-0.1,0.2-0.3,0.4-0.2,0.5l0,0l-0.6-0.4l0,0h0c0.2,0,0.3-0.3,0.4-0.4l0.8-1.3
		C6.3,57.9,6.5,57.7,6.4,57.5L6.4,57.5L6.4,57.5z M6.4,57.4L6.4,57.4C6.4,57.4,6.3,57.5,6.4,57.4L6.4,57.4c-0.1,0.1-0.1,0.1-0.1,0.1
		c0.1,0.1,0,0.3-0.1,0.4l0,0l-0.8,1.3l0,0c-0.1,0.1-0.2,0.3-0.3,0.3h0c0,0,0,0,0,0c0,0,0,0-0.1,0c0,0,0,0,0,0.1s0,0,0,0.1l0.6,0.4h0
		l0,0c0,0,0,0,0,0c0,0,0-0.1,0-0.1c-0.1-0.1,0-0.3,0.1-0.4l0,0l0.4-0.5v0.5l0.1,0.8c0,0.2,0.1,0.4,0.3,0.5l0.3,0.2h0c0,0,0,0,0,0
		c0,0,0-0.1,0-0.1c-0.1-0.3-0.2-0.6-0.2-0.8l-0.1-0.8c0.1,0,0.2,0,0.2,0c0.3,0,0.5-0.1,0.7-0.3c0.3-0.4,0.1-0.8-0.4-1.1L6.4,57.4
		C6.5,57.4,6.4,57.4,6.4,57.4L6.4,57.4z M6.3,58.9l0.5-0.7c0,0,0.1,0,0.2,0.1c0.1,0.1,0.2,0.2,0.2,0.3c0,0.1,0,0.2,0,0.3
		C7.1,59,6.9,59,6.8,59C6.6,59,6.5,59,6.3,58.9L6.3,58.9z"/>
	<path fill="#FFFFFF" d="M8.4,62.1C8.4,62.1,8.3,62.1,8.4,62.1l-1.4-0.9c0,0,0,0,0,0v0l0,0l0,0c0.2,0,0.3-0.2,0.4-0.3l0.9-1.4
		c0.1-0.2,0.2-0.3,0.1-0.5v0l0,0l0,0l1.1,0.7c0.2,0.2,0.3,0.2,0.3,0.2l0,0l-0.1,0.5c0,0,0,0,0,0c0,0,0,0,0,0l0,0l0,0
		c0-0.1-0.4-0.3-0.5-0.5l-0.1,0c-0.1,0-0.2-0.1-0.3-0.2L8.3,60l0.4,0.3c0,0,0.1,0,0.1,0.1c0,0,0,0,0,0.1l-0.2,0.4h0c0,0,0,0,0,0l0,0
		c0-0.1-0.1-0.2-0.2-0.3l-0.2-0.1l-0.5,0.8L8,61.5c0.2,0.1,0.4,0.2,0.6,0.2c0,0,0.1,0,0.1,0l0,0h0c0,0,0,0,0,0v0L8.4,62.1L8.4,62.1
		L8.4,62.1z"/>
	<path fill="#881619" d="M8.4,58.8l1.1,0.7c0,0,0.3,0.2,0.3,0.2l0,0l-0.1,0.5l0,0c0-0.2-0.5-0.4-0.6-0.5c-0.1-0.1-0.3-0.2-0.4-0.2
		L8.2,60l0.4,0.3c0,0,0.1,0.1,0.2,0.1l0,0l-0.2,0.4l0,0c0-0.1-0.1-0.2-0.3-0.3l-0.3-0.2l-0.5,0.8L8,61.4c0.2,0.1,0.4,0.2,0.6,0.2
		c0,0,0.1,0,0.2,0l0,0L8.4,62l-1.4-0.9l0,0h0c0.2,0,0.3-0.3,0.4-0.4l0.8-1.3C8.3,59.2,8.5,59,8.4,58.8L8.4,58.8L8.4,58.8z M8.4,58.7
		C8.3,58.7,8.3,58.7,8.4,58.7L8.4,58.7c-0.1,0.1-0.1,0.1-0.1,0.2c0.1,0.1,0,0.3-0.1,0.4l0,0l-0.8,1.3l0,0C7.2,60.8,7.1,61,7,61
		c0,0,0,0,0,0l0,0c0,0,0,0-0.1,0c0,0,0,0,0,0.1c0,0,0,0,0,0.1l1.4,0.9h0h0l0.4-0.3c0,0,0,0,0-0.1s0,0,0-0.1c0,0,0,0-0.1,0l0,0
		c0,0-0.1,0-0.1,0c-0.2,0-0.4-0.1-0.5-0.2l-0.3-0.3l0.4-0.7l0.2,0.1c0.1,0,0.2,0.1,0.2,0.2c0,0,0,0.1,0,0.1h0c0,0,0,0,0.1,0l0.2-0.4
		c0,0,0-0.1,0-0.1l0,0c0,0-0.1,0-0.1,0l-0.3-0.2l0.3-0.5c0.1,0,0.2,0.1,0.3,0.2l0.1,0c0.1,0.1,0.5,0.3,0.5,0.4c0,0,0,0,0,0.1h0h0
		c0,0,0,0,0-0.1l0.1-0.5c0,0,0-0.1,0-0.1h0c0,0-0.1,0-0.3-0.2L8.4,58.7C8.4,58.7,8.4,58.7,8.4,58.7L8.4,58.7z"/>
	<path fill="#FFFFFF" d="M9.3,62.7L9.3,62.7l-0.7-0.4c0,0,0,0,0,0l0,0l0,0c0.2,0,0.3-0.2,0.4-0.3l0.8-1.4C9.9,60.3,10,60.1,10,60v0
		l0,0l0,0l0.8,0.5c0.5,0.3,0.7,0.8,0.5,1.1c-0.1,0.3-0.4,0.4-0.7,0.4c-0.2,0-0.4,0-0.5-0.2c-0.1-0.1-0.2-0.1-0.3-0.2v0h0
		c0,0,0,0,0,0c0.1,0.1,0.3,0.1,0.4,0.1c0.2,0,0.4-0.1,0.5-0.3c0.2-0.3,0-0.5-0.2-0.7c-0.1,0-0.1-0.1-0.2-0.1l-0.9,1.6
		C9.3,62.3,9.3,62.4,9.3,62.7L9.3,62.7C9.3,62.7,9.3,62.7,9.3,62.7L9.3,62.7L9.3,62.7z"/>
	<path fill="#881619" d="M10,59.9l0.8,0.5c0.5,0.3,0.7,0.7,0.4,1.1c-0.1,0.3-0.4,0.3-0.6,0.3c-0.2,0-0.3,0-0.5-0.1
		c-0.1,0-0.2-0.1-0.2-0.2c0.1,0.1,0.3,0.1,0.4,0.1c0.2,0,0.4-0.1,0.5-0.3c0.2-0.3,0-0.5-0.3-0.7c-0.1,0-0.2-0.1-0.3-0.1l-0.9,1.6
		c-0.1,0.2-0.2,0.3-0.1,0.5l0,0l-0.7-0.4l0,0h0C8.9,62.2,9,62,9,61.9l0.8-1.3C9.9,60.3,10.1,60.1,10,59.9L10,59.9L10,59.9z M10,59.8
		C9.9,59.8,9.9,59.8,10,59.8L10,59.8C9.8,59.9,9.8,60,9.9,60c0.1,0.1,0,0.3-0.1,0.4v0L9,61.8l0,0c-0.1,0.1-0.2,0.3-0.3,0.3
		c0,0,0,0,0,0l0,0c0,0-0.1,0-0.1,0c0,0,0,0.1,0,0.1l0.7,0.4h0c0,0,0,0,0,0s0,0,0,0c0,0,0-0.1,0-0.1c-0.1-0.2,0-0.3,0.1-0.5l0.3-0.6
		l0,0c0,0.1,0.1,0.2,0.3,0.2c0.2,0.1,0.4,0.2,0.5,0.2c0.3,0,0.5-0.1,0.7-0.4c0.3-0.4,0.1-0.9-0.5-1.2L10,59.8
		C10,59.8,10,59.8,10,59.8L10,59.8z M9.9,61.4l0.5-0.8c0,0,0.1,0,0.2,0.1c0.3,0.2,0.3,0.4,0.2,0.6c-0.1,0.2-0.3,0.2-0.4,0.2
		S10,61.5,9.9,61.4C9.9,61.4,9.9,61.4,9.9,61.4L9.9,61.4z"/>
	<path fill="#FFFFFF" d="M11.7,64.1C11.7,64.1,11.7,64.1,11.7,64.1L11.7,64.1c-0.3-0.3-0.3-0.4-0.3-0.7l0-1.9c0-0.2,0-0.4-0.1-0.5v0
		c0,0,0,0,0,0l0,0l0,0l0.5,0.2c0,0,0,0,0,0v0l0,0c0,0.1,0,0.3,0,0.3l0,1.8l1-1.1c0.3-0.3,0.4-0.5,0.3-0.6v0c0,0,0,0,0,0c0,0,0,0,0,0
		l0,0l0.5,0.2c0,0,0,0,0,0v0L11.7,64.1C11.7,64.1,11.7,64.1,11.7,64.1L11.7,64.1L11.7,64.1z"/>
	<path fill="#881619" d="M11.4,60.9l0.5,0.2l0,0c0,0.1,0,0.3,0,0.4l0,1.9l1.1-1.1c0.2-0.2,0.5-0.5,0.3-0.7l0,0l0.5,0.2l-2,2.2
		c-0.2-0.3-0.3-0.3-0.3-0.7l0-1.8C11.5,61.4,11.5,61.1,11.4,60.9L11.4,60.9L11.4,60.9z M11.4,60.8L11.4,60.8
		C11.4,60.8,11.3,60.8,11.4,60.8L11.4,60.8c-0.1,0.1-0.1,0.1-0.1,0.1c0.1,0.1,0.1,0.3,0.1,0.5v0.1l0,1.8c0,0.3,0,0.4,0.2,0.7l0,0.1
		c0,0,0,0,0.1,0l0,0c0,0,0,0,0.1,0l2-2.2c0,0,0,0,0-0.1c0,0,0,0,0-0.1l-0.5-0.2h0h0c0,0,0,0,0,0c0,0,0,0.1,0,0.1
		c0.1,0.1,0,0.3-0.3,0.5l0,0l-0.9,1l0-1.6c0-0.1,0-0.3,0-0.4v0c0,0,0,0,0-0.1s0,0,0,0L11.4,60.8C11.4,60.8,11.4,60.8,11.4,60.8
		L11.4,60.8z"/>
	<path fill="#FFFFFF" d="M13.8,64.5C13.8,64.5,13.8,64.5,13.8,64.5L13.8,64.5C13.8,64.4,13.8,64.4,13.8,64.5
		c0.2-0.2,0.1-0.4,0.1-0.5l0-1.6c0-0.2,0-0.4-0.2-0.5l0,0c0,0,0,0,0,0l1,0c0.5,0,0.8,0.2,0.8,0.6c0,0.2-0.1,0.4-0.3,0.5
		c0.4,0.1,0.6,0.4,0.6,0.7c0,0.3-0.2,0.6-0.5,0.8c-0.3,0.1-0.5,0.2-0.8,0.2C14.6,64.5,13.8,64.5,13.8,64.5L13.8,64.5z M14.9,64.1
		c0.2,0,0.3,0,0.4-0.2c0.1-0.1,0.1-0.2,0.1-0.3c0-0.3-0.3-0.5-0.6-0.5c0,0,0,0-0.1,0l-0.3,0l0,0.9H14.9L14.9,64.1z M14.4,62.8
		L14.4,62.8c0.2,0,0.7,0,0.7-0.4c0-0.2-0.2-0.3-0.4-0.3c0,0,0,0-0.1,0l-0.2,0V62.8L14.4,62.8z"/>
	<path fill="#881619" d="M14.8,61.7c0.5,0,0.8,0.2,0.8,0.5c0,0.3-0.2,0.4-0.4,0.5c0.4,0.1,0.7,0.3,0.7,0.7c0,0.3-0.2,0.6-0.5,0.7
		c-0.3,0.2-0.6,0.1-0.9,0.2l-0.7,0l0,0c0.2-0.1,0.2-0.4,0.2-0.5l0-1.5c0-0.2,0-0.5-0.2-0.5l0,0L14.8,61.7
		C14.7,61.7,14.8,61.7,14.8,61.7L14.8,61.7z M14.4,62.8h0.1c0.3,0,0.6-0.1,0.6-0.5c0-0.3-0.2-0.4-0.5-0.4c0,0,0,0-0.1,0l-0.3,0
		L14.4,62.8L14.4,62.8z M14.9,64.1c0.3,0,0.6-0.2,0.6-0.5c0-0.4-0.3-0.5-0.7-0.5c0,0,0,0-0.1,0l-0.3,0l0,1H14.9
		C14.8,64.1,14.8,64.1,14.9,64.1L14.9,64.1z M14.8,61.7C14.7,61.7,14.7,61.7,14.8,61.7l-1.1,0c0,0-0.1,0-0.1,0.1c0,0,0,0.1,0,0.1
		c0.1,0,0.1,0.2,0.1,0.4v0l0,1.5v0c0,0.2,0,0.4-0.1,0.4c0,0,0,0,0,0.1s0,0.1,0.1,0.1l0,0l0.7,0h0c0.3,0,0.6,0,0.9-0.2
		c0.3-0.2,0.5-0.5,0.5-0.8c0-0.3-0.2-0.6-0.5-0.7c0.2-0.1,0.3-0.3,0.3-0.5C15.7,61.9,15.3,61.7,14.8,61.7L14.8,61.7z M14.5,62.1
		l0.2,0h0c0.2,0,0.3,0.1,0.3,0.3c0,0.3-0.5,0.3-0.5,0.3h0L14.5,62.1L14.5,62.1z M14.5,63.2h0.2c0,0,0,0,0.1,0c0.3,0,0.5,0.1,0.6,0.4
		c0,0.1,0,0.2-0.1,0.3C15.2,64,15.1,64,14.9,64h0h-0.3L14.5,63.2L14.5,63.2z"/>
	<path fill="#FFFFFF" d="M16,64.4C16,64.4,16,64.4,16,64.4L16,64.4C16,64.3,16,64.3,16,64.4c0.2-0.2,0.1-0.4,0.1-0.5l-0.2-1.6
		c0-0.2,0-0.4-0.2-0.4l0,0c0,0,0,0,0,0l1-0.1c0,0,0.1,0,0.2,0c0.5,0,0.8,0.2,0.8,0.5c0,0.2-0.1,0.4-0.3,0.5c0.4,0.1,0.6,0.3,0.6,0.7
		c0,0.3-0.1,0.6-0.4,0.8c-0.3,0.2-0.5,0.2-0.8,0.2C16.8,64.3,16,64.4,16,64.4L16,64.4z M16.6,63.9h0.3c0.2,0,0.4-0.1,0.5-0.2
		c0.1-0.1,0.1-0.2,0.1-0.3c0-0.3-0.3-0.4-0.6-0.4c0,0-0.1,0-0.1,0l-0.3,0L16.6,63.9L16.6,63.9z M16.5,62.6L16.5,62.6
		c0.2,0,0.7-0.1,0.6-0.4c0-0.2-0.2-0.3-0.4-0.3c0,0-0.1,0-0.1,0l-0.2,0L16.5,62.6L16.5,62.6z"/>
	<path fill="#881619" d="M16.9,61.5c0.4,0,0.7,0.2,0.7,0.5c0,0.3-0.1,0.5-0.3,0.5c0.4,0,0.7,0.3,0.7,0.7c0,0.3-0.2,0.6-0.4,0.8
		c-0.3,0.2-0.6,0.2-0.9,0.2L16,64.3l0,0c0.2-0.1,0.1-0.4,0.1-0.6L16,62.2c0-0.2,0-0.5-0.2-0.5l0,0l1-0.1
		C16.8,61.5,16.8,61.5,16.9,61.5L16.9,61.5z M16.5,62.7h0.1c0.3,0,0.6-0.2,0.6-0.5c0-0.3-0.2-0.4-0.4-0.4c0,0-0.1,0-0.1,0l-0.3,0
		L16.5,62.7L16.5,62.7z M16.6,63.9h0.3c0.3,0,0.7-0.2,0.6-0.6c0-0.3-0.3-0.5-0.6-0.5c0,0-0.1,0-0.2,0l-0.3,0L16.6,63.9L16.6,63.9z
		 M16.9,61.4c0,0-0.1,0-0.2,0l-1,0.1c0,0-0.1,0-0.1,0.1s0,0.1,0.1,0.1c0.1,0,0.1,0.2,0.2,0.4v0l0.1,1.5v0c0,0.2,0,0.4-0.1,0.4
		c0,0,0,0,0,0.1s0,0.1,0.1,0.1l0,0l0.7-0.1h0c0.3,0,0.6,0,0.9-0.2c0.3-0.2,0.5-0.5,0.5-0.8c0-0.3-0.3-0.6-0.6-0.7
		c0.2-0.1,0.3-0.3,0.2-0.5C17.6,61.7,17.3,61.4,16.9,61.4L16.9,61.4z M16.5,61.9l0.2,0c0,0,0,0,0.1,0c0.2,0,0.3,0.1,0.3,0.3
		c0,0.3-0.4,0.4-0.5,0.4h0L16.5,61.9L16.5,61.9z M16.6,63l0.2,0c0,0,0.1,0,0.1,0c0.3,0,0.5,0.1,0.5,0.4c0,0.1,0,0.2-0.1,0.3
		c-0.1,0.1-0.3,0.2-0.4,0.2h-0.3L16.6,63L16.6,63z"/>
	<path fill="#FFFFFF" d="M18.2,63.9C18.2,63.9,18.2,63.9,18.2,63.9L18.2,63.9C18.2,63.9,18.2,63.8,18.2,63.9
		c0.1-0.2,0.1-0.4,0.1-0.5L18,61.7c0-0.2,0-0.4-0.2-0.4l0,0c0,0,0,0,0,0l0.8-0.1c0,0,0,0,0,0v0c-0.1,0.1-0.1,0.3-0.1,0.5l0.3,1.8
		l0.5,0c0.3,0,0.5-0.1,0.6-0.3h0l0,0h0v0l-0.1,0.5c0,0,0,0,0,0S18.2,63.9,18.2,63.9L18.2,63.9z"/>
	<path fill="#881619" d="M18.5,61.1L18.5,61.1c-0.2,0.1-0.1,0.4-0.1,0.6l0.3,1.8l0.5,0c0.3,0,0.5-0.2,0.7-0.4l0,0l-0.1,0.6l-1.6,0.3
		l0,0c0.2-0.1,0.1-0.4,0.1-0.6L18,61.8c0-0.2,0-0.5-0.3-0.5l0,0L18.5,61.1L18.5,61.1z M18.5,61L18.5,61l-0.8,0.1c0,0-0.1,0-0.1,0.1
		c0,0,0,0.1,0.1,0.1c0.1,0,0.2,0.2,0.2,0.4v0l0.3,1.5v0c0,0.2,0,0.4,0,0.4c0,0,0,0.1,0,0.1c0,0,0,0.1,0.1,0.1l0,0l1.6-0.3
		c0,0,0.1,0,0.1-0.1L20,63c0,0,0,0,0-0.1c0,0,0,0-0.1,0l0,0c0,0,0,0-0.1,0c-0.2,0.2-0.4,0.3-0.6,0.3l-0.5,0l-0.3-1.7v0
		c0-0.2,0-0.4,0-0.4C18.6,61.2,18.6,61.1,18.5,61C18.6,61.1,18.6,61,18.5,61L18.5,61z"/>
	<path fill="#FFFFFF" d="M20.1,63.6L20.1,63.6C20.1,63.6,20.1,63.5,20.1,63.6L20.1,63.6C20.1,63.5,20.1,63.5,20.1,63.6
		c0.1-0.2,0.1-0.4,0.1-0.5L20,61.4c0-0.2,0-0.4-0.2-0.4c0,0,0,0,0,0c0,0,0,0,0-0.1l0.8-0.1c0,0,0,0,0,0c0,0,0,0,0,0c0,0,0,0,0,0
		c-0.1,0.1-0.1,0.3-0.1,0.5l0.3,1.6c0,0.2,0,0.4,0.2,0.4c0,0,0,0,0,0c0,0,0,0,0,0.1C20.9,63.4,20.1,63.6,20.1,63.6L20.1,63.6z"/>
	<path fill="#881619" d="M20.5,60.7L20.5,60.7c-0.2,0.1-0.1,0.4-0.1,0.6l0.3,1.5c0,0.2,0,0.5,0.3,0.5l0,0l-0.8,0.1l0,0
		c0.2-0.1,0.1-0.4,0.1-0.6L20,61.4c0-0.2,0-0.5-0.3-0.5l0,0L20.5,60.7L20.5,60.7z M20.5,60.6L20.5,60.6l-0.8,0.1c0,0-0.1,0-0.1,0.1
		s0,0.1,0.1,0.1c0.1,0,0.2,0.2,0.2,0.4v0.1l0.3,1.5v0c0,0.2,0,0.4,0,0.4c0,0,0,0,0,0.1c0,0,0,0,0,0.1l0,0l0,0l0.8-0.1
		c0,0,0.1,0,0.1-0.1s0-0.1-0.1-0.1c-0.1,0-0.2-0.2-0.2-0.4v0l-0.3-1.5v0c0-0.2,0-0.4,0-0.4c0,0,0,0,0-0.1S20.6,60.8,20.5,60.6
		C20.5,60.7,20.5,60.6,20.5,60.6L20.5,60.6z"/>
	<path fill="#FFFFFF" d="M22.2,63.2c-0.8,0-1.3-0.5-1.4-1.2c-0.1-0.4,0-0.8,0.3-1.1c0.2-0.3,0.5-0.5,1-0.5c0.1,0,0.3,0,0.4,0
		c0.1,0,0.2,0,0.3,0c0,0,0,0,0,0l0.1,0.5v0c0,0,0,0,0,0l0,0c-0.2-0.1-0.4-0.1-0.5-0.1c0,0-0.1,0-0.2,0c-0.3,0-0.5,0.2-0.6,0.4
		s-0.2,0.5-0.1,0.7c0.1,0.5,0.5,0.9,1,0.9c0,0,0.1,0,0.2,0c0.3,0,0.6-0.3,0.8-0.4l0,0h0l0,0l-0.1,0.5c-0.2,0.1-0.4,0.2-0.6,0.3
		S22.3,63.2,22.2,63.2L22.2,63.2z"/>
	<path fill="#881619" d="M22.4,60.3c0.1,0,0.2,0,0.3,0l0.1,0.5c-0.2-0.1-0.4-0.1-0.6-0.1c-0.1,0-0.1,0-0.2,0
		c-0.5,0.1-0.9,0.5-0.8,1.1c0.1,0.5,0.5,1,1,1c0,0,0.1,0,0.2,0c0.3,0,0.6-0.2,0.8-0.4l0,0l-0.1,0.5C23,63,22.7,63,22.5,63.1
		c-0.1,0-0.3,0-0.3,0c-0.8,0-1.3-0.4-1.4-1.2c-0.1-0.8,0.4-1.5,1.2-1.6C22.1,60.3,22.2,60.3,22.4,60.3L22.4,60.3z M22.4,60.2
		c-0.2,0-0.3,0-0.4,0c-0.4,0.1-0.8,0.3-1,0.6c-0.3,0.3-0.3,0.7-0.3,1.1c0.1,0.8,0.7,1.3,1.5,1.3c0.1,0,0.3,0,0.4,0
		c0.3,0,0.5-0.1,0.6-0.3l0,0l0.1-0.5c0,0,0,0,0-0.1c0,0,0,0-0.1,0l0,0h0c-0.2,0.1-0.5,0.3-0.8,0.4c0,0-0.1,0-0.2,0
		c-0.5,0-0.8-0.4-0.9-0.9c0-0.3,0-0.5,0.1-0.7c0.1-0.2,0.3-0.3,0.5-0.3c0,0,0.1,0,0.2,0c0.2,0,0.4,0,0.5,0.1h0h0c0,0,0,0,0-0.1
		l-0.1-0.5c0,0,0-0.1-0.1-0.1C22.6,60.2,22.5,60.2,22.4,60.2L22.4,60.2z"/>
	<path fill="#FFFFFF" d="M23.3,63C23.3,63,23.3,63,23.3,63L23.3,63L23.3,63c0.1-0.2,0.2-0.4,0.2-0.6l0.4-1.9c0-0.1,0-0.2,0-0.3
		c0,0,0,0-0.1,0c0,0,0,0,0,0c0,0,0,0,0,0l0.6-0.1c0,0,0,0,0,0l1.2,2c0.1,0.2,0.2,0.4,0.4,0.4c0,0,0,0,0,0v0c0,0,0,0,0,0l-0.8,0.1
		c0,0,0,0,0,0c0,0,0,0,0,0v0c0.1-0.1,0.1-0.1,0-0.3L25,61.8L24.1,62l-0.1,0.6c0,0.1,0,0.3,0,0.3c0,0,0,0,0.1,0c0,0,0,0,0,0
		c0,0,0,0,0,0.1C24.1,63,23.3,63,23.3,63L23.3,63z M24.2,61.5l0.6-0.1l-0.5-0.8L24.2,61.5L24.2,61.5z"/>
	<path fill="#881619" d="M24.6,60.1l1.1,1.9c0.1,0.2,0.3,0.4,0.5,0.5l0,0l-0.8,0.1l0,0c0.2-0.1,0.1-0.2,0-0.4l-0.3-0.5l-1,0.2
		l-0.1,0.6c0,0.3,0,0.4,0.1,0.4l0,0L23.3,63l0,0c0.2-0.2,0.3-0.4,0.3-0.6l0.4-1.8c0-0.2,0.1-0.3-0.1-0.4l0,0L24.6,60.1L24.6,60.1z
		 M24.1,61.6l0.8-0.1l-0.5-1L24.1,61.6L24.1,61.6z M24.6,60C24.6,60,24.5,60,24.6,60l-0.6,0.1c0,0-0.1,0-0.1,0.1c0,0,0,0.1,0.1,0.1
		c0,0,0,0,0,0c0,0,0,0.1,0,0.2l-0.4,1.8v0.1c0,0.2-0.1,0.4-0.3,0.5c0,0,0,0.1,0,0.1c0,0,0,0.1,0.1,0.1l0,0l0.8-0.1
		c0,0,0.1,0,0.1-0.1c0,0,0-0.1-0.1-0.1c0,0-0.1,0-0.1,0c0,0,0-0.2,0-0.3l0.1-0.5l0.9-0.1l0.3,0.5l0,0c0,0.1,0.1,0.2,0.1,0.2
		c0,0,0,0-0.1,0.1c0,0,0,0,0,0.1s0,0,0,0.1l0,0l0,0l0.8-0.1c0,0,0,0,0,0c0,0,0,0,0-0.1c0,0,0-0.1-0.1-0.1c-0.2,0-0.3-0.2-0.4-0.4
		l0,0l-1.1-1.9C24.6,60,24.6,60,24.6,60L24.6,60z M24.2,61.4l0.2-0.7l0.4,0.6L24.2,61.4L24.2,61.4z"/>
	<path fill="#FFFFFF" d="M28.9,63.1C28.8,63.1,28.8,63.1,28.9,63.1C28.8,63.1,28.8,63,28.9,63.1c0.2-0.1,0.2-0.3,0.2-0.5l0.3-1.6
		c0-0.2,0.1-0.4-0.1-0.5l0,0v0c0,0,0,0,0,0l0.8,0.1c0,0,0,0,0,0s0,0,0,0c-0.2,0-0.2,0.3-0.2,0.4l-0.3,1.6c0,0.2-0.1,0.4,0.1,0.5l0,0
		c0,0,0,0,0,0S28.9,63.1,28.9,63.1L28.9,63.1z"/>
	<path fill="#881619" d="M29.3,60.4l0.8,0.1l0,0c-0.2,0-0.3,0.3-0.3,0.5l-0.3,1.5c0,0.2-0.1,0.5,0.1,0.6l0,0L28.9,63l0,0
		c0.2,0,0.3-0.3,0.3-0.5l0.3-1.5C29.4,60.8,29.5,60.6,29.3,60.4L29.3,60.4L29.3,60.4z M29.3,60.3L29.3,60.3L29.3,60.3L29.3,60.3
		c-0.1,0.1-0.1,0.1,0,0.1c0.1,0,0.1,0.2,0,0.4v0L29,62.5v0c0,0.2-0.1,0.4-0.2,0.4c0,0-0.1,0-0.1,0.1c0,0,0,0.1,0.1,0.1l0.8,0.1l0,0
		c0,0,0.1,0,0.1-0.1c0,0,0-0.1,0-0.1c-0.1,0-0.1-0.3,0-0.4v0l0.3-1.5v0c0-0.2,0.1-0.4,0.2-0.4c0,0,0.1,0,0.1-0.1s0-0.1-0.1-0.1
		L29.3,60.3L29.3,60.3L29.3,60.3z"/>
	<path fill="#FFFFFF" d="M30.7,63.5C30.6,63.5,30.6,63.4,30.7,63.5C30.6,63.4,30.6,63.4,30.7,63.5c0.2-0.1,0.2-0.3,0.2-0.5l0.2-1.8
		l-0.3,0c0,0-0.1,0-0.1,0c-0.1,0-0.3,0-0.3,0.1h0l0,0h0v0l0.2-0.5l0,0l0,0c0,0,0.1,0,0.1,0h0l1.6,0.2c0,0,0.1,0,0.1,0c0,0,0,0,0.1,0
		c0,0,0,0,0,0c0,0,0,0,0,0l-0.2,0.5l0,0l0,0c0,0,0,0,0,0c0-0.1-0.1-0.2-0.3-0.2l-0.3,0L31.4,63c0,0.3,0,0.4,0.1,0.5v0v0h0
		C31.5,63.6,30.7,63.5,30.7,63.5L30.7,63.5z"/>
	<path fill="#881619" d="M30.5,60.7L30.5,60.7c0,0,0.1,0,0.2,0l1.6,0.2c0,0,0.1,0,0.1,0c0,0,0,0,0.1,0l0,0l-0.2,0.5l0,0
		c0-0.2-0.2-0.2-0.3-0.2l-0.4,0L31.3,63c0,0.2,0,0.4,0.1,0.5l0,0l-0.8-0.1l0,0c0.2,0,0.2-0.3,0.3-0.5l0.2-1.8l-0.3,0
		c0,0-0.1,0-0.1,0c-0.1,0-0.3,0-0.4,0.1l0,0L30.5,60.7L30.5,60.7z M30.5,60.6C30.5,60.6,30.4,60.6,30.5,60.6l-0.3,0.5c0,0,0,0,0,0.1
		s0,0,0.1,0l0,0c0,0,0,0,0.1,0c0.1-0.1,0.3-0.1,0.3-0.1c0,0,0.1,0,0.1,0l0.3,0l-0.2,1.7v0c0,0.2,0,0.4-0.2,0.4c0,0-0.1,0-0.1,0.1
		s0,0.1,0.1,0.1l0.8,0.1l0,0c0,0,0,0,0,0s0,0,0-0.1c0,0,0-0.1,0-0.1c-0.1-0.1-0.1-0.2-0.1-0.4l0.2-1.8l0.3,0c0.2,0,0.2,0,0.3,0.1
		c0,0,0,0.1,0.1,0.1l0,0c0,0,0.1,0,0.1,0l0.2-0.5c0,0,0,0,0-0.1c0,0,0,0-0.1,0c0,0,0,0,0,0c0,0,0,0,0,0c0,0,0,0-0.1,0c0,0,0,0-0.1,0
		l-1.6-0.2h0C30.5,60.7,30.5,60.7,30.5,60.6C30.6,60.6,30.5,60.6,30.5,60.6L30.5,60.6L30.5,60.6z"/>
	<path fill="#FFFFFF" d="M34,64.1L34,64.1C34,64,34,64,34,64.1C34,64,34,64,34,64.1c0.2-0.1,0.2-0.1,0.1-0.4L33.9,63L33,62.9
		l-0.3,0.5c0,0.1-0.1,0.2-0.1,0.3c0,0,0,0,0.1,0.1l0,0v0c0,0,0,0,0,0L32,63.8c0,0,0,0,0,0s0,0,0,0c0.2-0.1,0.3-0.3,0.4-0.5l0.9-1.6
		c0-0.1,0.1-0.2,0.1-0.3c0,0,0,0-0.1-0.1l0,0c0,0,0,0,0,0l0.6,0.1c0,0,0,0,0,0l0.6,2.2c0,0.2,0.1,0.4,0.3,0.5c0,0,0,0,0,0
		c0,0,0,0,0,0C34.9,64.2,34,64.1,34,64.1L34,64.1z M33.8,62.6l-0.2-0.9l-0.4,0.8L33.8,62.6L33.8,62.6z"/>
	<path fill="#881619" d="M33.3,61.2l0.6,0.1l0.6,2.2c0.1,0.3,0.1,0.5,0.3,0.6l0,0l-0.8-0.1l0,0c0.2,0,0.2-0.1,0.1-0.4L34,63l-1-0.1
		l-0.3,0.5c-0.1,0.2-0.2,0.3,0,0.4l0,0L32,63.8l0,0c0.3-0.1,0.3-0.3,0.5-0.5l0.9-1.6C33.4,61.5,33.5,61.3,33.3,61.2L33.3,61.2
		L33.3,61.2z M33.9,62.7l-0.3-1.1l-0.5,0.9L33.9,62.7L33.9,62.7z M33.3,61.1C33.3,61.1,33.3,61.2,33.3,61.1L33.3,61.1
		c-0.1,0.1-0.1,0.2,0,0.2l0,0c0,0,0,0.1-0.1,0.2l0,0l-0.9,1.6l0,0c-0.1,0.2-0.2,0.4-0.4,0.4c0,0,0,0,0,0.1s0,0.1,0.1,0.1l0.7,0.1
		l0,0h0c0,0,0,0,0-0.1s0-0.1,0-0.1c0,0-0.1,0-0.1-0.1c0,0,0-0.1,0.1-0.3l0.3-0.5l0.9,0.1l0.1,0.5v0c0,0.2,0,0.2,0,0.3
		c0,0,0,0-0.1,0.1c0,0,0,0,0,0.1c0,0,0,0,0,0l0.8,0.1l0,0c0,0,0.1,0,0.1-0.1s0-0.1,0-0.1c-0.2-0.1-0.2-0.3-0.3-0.5v0l-0.6-2.2
		c0,0,0,0-0.1-0.1L33.3,61.1L33.3,61.1L33.3,61.1z M33.3,62.5l0.3-0.6l0.2,0.7L33.3,62.5L33.3,62.5z"/>
	<path fill="#FFFFFF" d="M35.1,64.2C35.1,64.2,35,64.2,35.1,64.2C35,64.2,35,64.2,35.1,64.2C35,64.2,35,64.1,35.1,64.2
		c0.2-0.1,0.2-0.4,0.2-0.5l0.1-1.6c0-0.2,0-0.4-0.1-0.5l0,0v0h0l0.8,0h0v0c0,0,0,0,0,0c-0.2,0-0.2,0.3-0.2,0.4l0,1.8l0.5,0
		c0,0,0.1,0,0.1,0c0.2,0,0.4-0.1,0.6-0.2h0l0,0l-0.3,0.5l0,0L35.1,64.2L35.1,64.2z"/>
	<path fill="#881619" d="M35.2,61.5l0.8,0l0,0c-0.2,0.1-0.2,0.4-0.2,0.5l-0.1,1.8l0.5,0.1c0,0,0.1,0,0.1,0c0.2,0,0.4-0.1,0.6-0.2
		l0,0l-0.3,0.5l-1.6-0.1l0,0c0.2,0,0.2-0.4,0.2-0.5l0.1-1.5C35.4,61.9,35.5,61.6,35.2,61.5L35.2,61.5L35.2,61.5z M35.2,61.4
		C35.2,61.4,35.2,61.4,35.2,61.4c-0.1,0-0.1,0.1-0.1,0.1l0,0c0,0,0,0.1,0,0.1c0.1,0,0.1,0.2,0.1,0.4v0l-0.1,1.5v0
		c0,0.2,0,0.4-0.1,0.4c0,0,0,0-0.1,0.1c0,0,0,0,0,0.1c0,0,0,0,0.1,0l1.6,0.1l0,0c0,0,0.1,0,0.1,0l0.3-0.5c0,0,0,0,0-0.1s0,0-0.1,0
		c0,0,0,0-0.1,0c-0.1,0.2-0.3,0.2-0.5,0.2c0,0-0.1,0-0.1,0l-0.5,0l0.1-1.7V62c0-0.2,0-0.4,0.1-0.4c0,0,0,0,0.1-0.1c0,0,0,0,0-0.1
		c0,0,0,0-0.1,0L35.2,61.4L35.2,61.4L35.2,61.4z"/>
	<path fill="#FFFFFF" d="M37.4,64.3C37.3,64.3,37.3,64.3,37.4,64.3C37.3,64.3,37.3,64.2,37.4,64.3c0.2-0.1,0.2-0.4,0.2-0.5v-1.6
		c0-0.2,0-0.4-0.2-0.5l0,0v0c0,0,0,0,0,0h0.8c0,0,0,0,0,0c0,0,0,0,0,0c-0.2,0-0.2,0.3-0.2,0.5v1.6c0,0.2,0,0.4,0.2,0.5l0,0v0
		c0,0,0,0,0,0H37.4L37.4,64.3z"/>
	<path fill="#881619" d="M37.4,61.6h0.8l0,0c-0.2,0.1-0.2,0.4-0.2,0.5v1.5c0,0.2,0,0.5,0.2,0.5l0,0h-0.8l0,0
		c0.2-0.1,0.2-0.4,0.2-0.5v-1.5C37.5,62,37.6,61.7,37.4,61.6L37.4,61.6L37.4,61.6z M37.4,61.5C37.3,61.5,37.3,61.5,37.4,61.5
		c-0.1,0-0.1,0.1-0.1,0.1l0,0c0,0,0,0.1,0,0.1c0.1,0,0.1,0.2,0.1,0.4v0v1.5v0c0,0.2,0,0.4-0.1,0.4c0,0,0,0,0,0.1c0,0,0,0.1,0.1,0.1
		h0.8l0,0c0,0,0,0,0.1,0c0,0,0,0,0-0.1c0,0,0-0.1,0-0.1c-0.1,0-0.1-0.2-0.1-0.3v0v-1.6v0c0-0.2,0-0.4,0.1-0.4c0,0,0,0,0-0.1
		c0,0,0-0.1-0.1-0.1L37.4,61.5L37.4,61.5z"/>
	<path fill="#FFFFFF" d="M39,64.4C39,64.4,39,64.4,39,64.4L39,64.4L39,64.4c0.1-0.3,0-0.5,0-0.7l-0.4-1.9c0-0.2-0.1-0.3-0.1-0.3h0
		l0,0c0,0,0,0,0,0s0,0,0-0.1l0.5-0.4c0,0,0,0,0,0c0,0,0,0,0,0l1.9,1.3c0.2,0.1,0.3,0.2,0.5,0.2c0,0,0,0,0.1,0l0,0h0c0,0,0,0,0,0.1
		l-0.7,0.5c0,0,0,0,0,0h0v0c0.1-0.1,0.1-0.1-0.1-0.3l-0.5-0.4L39.2,63l0.1,0.5c0.1,0.2,0.1,0.3,0.2,0.3c0,0,0,0,0.1,0l0,0h0v0v0
		L39,64.4L39,64.4L39,64.4z M39.1,62.6l0.5-0.4l-0.8-0.5L39.1,62.6L39.1,62.6z"/>
	<path fill="#881619" d="M38.8,61.1l1.9,1.2c0.2,0.1,0.3,0.3,0.6,0.3c0,0,0,0,0.1,0l0,0l-0.7,0.5l0,0c0.1-0.2,0-0.2-0.2-0.4L40,62.4
		L39.1,63l0.2,0.6c0,0.2,0.1,0.3,0.2,0.3c0,0,0,0,0.1,0l0,0L39,64.3l0,0c0.1-0.3,0-0.5,0-0.7l-0.4-1.8c0-0.1,0-0.3-0.2-0.3
		c0,0,0,0-0.1,0l0,0L38.8,61.1L38.8,61.1z M39,62.7l0.7-0.5l-0.9-0.6L39,62.7L39,62.7z M38.8,61.1L38.8,61.1l-0.5,0.4
		c0,0,0,0.1,0,0.1c0,0,0,0,0.1,0c0,0,0,0,0,0h0c0,0,0.1,0,0.1,0.2v0l0.4,1.8v0.1c0,0.2,0.1,0.4,0,0.5c0,0,0,0.1,0,0.1c0,0,0,0,0.1,0
		h0l0.6-0.4c0,0,0,0,0-0.1s0,0,0-0.1c0,0,0,0-0.1,0l0,0c0,0,0,0,0,0c0,0-0.1,0-0.1-0.3L39.3,63l0.7-0.5l0.5,0.3l0,0
		c0.2,0.1,0.2,0.1,0.1,0.2c0,0,0,0.1,0,0.1c0,0,0,0,0.1,0h0l0.7-0.5c0,0,0-0.1,0-0.1c0,0,0,0-0.1,0l0,0c0,0,0,0,0,0
		c-0.2,0-0.3-0.1-0.5-0.2l0,0L39,61C38.9,61.1,38.8,61.1,38.8,61.1L38.8,61.1z M39.1,62.5L39,61.8l0.6,0.4L39.1,62.5L39.1,62.5z"/>
	<path fill="#FFFFFF" d="M41.4,62.7L41.4,62.7L41.4,62.7C41.4,62.6,41.4,62.6,41.4,62.7c0-0.3,0-0.4-0.2-0.6l-1-1.3
		c-0.1-0.2-0.2-0.3-0.4-0.3h0h0c0,0,0,0,0-0.1l0.5-0.3c0,0,0,0,0,0h0c0,0,0,0,0.1,0l0.1,0l2.2,0.6l-0.8-1.1
		c-0.1-0.2-0.2-0.3-0.4-0.3h0l0,0h0v0v0l0.6-0.4c0,0,0,0,0,0h0c0,0,0,0,0,0c-0.1,0.2,0,0.3,0.1,0.5l1.4,1.9v0c0,0,0,0,0,0
		c-0.1,0-0.3,0-0.3,0c-0.1,0-0.3,0-0.4-0.1l-2-0.5l0.8,1.1c0.1,0.2,0.2,0.3,0.4,0.3c0,0,0,0,0.1,0h0c0,0,0,0,0,0.1L41.4,62.7
		C41.4,62.7,41.4,62.7,41.4,62.7L41.4,62.7L41.4,62.7z"/>
	<path fill="#881619" d="M42,58.9L42,58.9c-0.1,0.3,0,0.4,0.1,0.5l1.4,1.8c-0.1,0-0.2,0-0.3,0s-0.3,0-0.4-0.1l-2.2-0.5l0.9,1.3
		c0.1,0.2,0.2,0.3,0.4,0.3c0,0,0,0,0.1,0l0,0l-0.6,0.4l0,0c0.1-0.2,0-0.4-0.1-0.5l-1-1.3c-0.1-0.2-0.2-0.3-0.4-0.3h0l0,0l0.5-0.3
		l0,0c0,0,0.1,0,0.1,0l0.1,0l2.3,0.6l-0.9-1.2c-0.1-0.2-0.2-0.3-0.4-0.3c0,0,0,0-0.1,0l0,0L42,58.9L42,58.9z M42,58.8L42,58.8
		l-0.6,0.4l0,0c0,0,0,0,0,0.1c0,0,0,0,0.1,0l0,0h0c0.1,0,0.2,0.1,0.3,0.3l0.8,1.1l-2-0.5l-0.1,0c0,0,0,0-0.1,0l0,0c0,0,0,0,0,0
		l-0.5,0.3c0,0,0,0.1,0,0.1c0,0,0,0,0.1,0l0,0h0c0.1,0,0.2,0.1,0.3,0.3l1,1.3c0.1,0.2,0.2,0.3,0.1,0.5c0,0,0,0.1,0,0.1s0,0,0.1,0
		c0,0,0,0,0,0h0l0.6-0.4c0,0,0-0.1,0-0.1s0,0-0.1,0l0,0h0c-0.1,0-0.2-0.1-0.3-0.3l-0.8-1.1l1.9,0.5c0.2,0,0.3,0.1,0.5,0.1
		c0.1,0,0.2,0,0.3,0c0,0,0,0,0,0c0,0,0,0,0-0.1l-1.4-1.9c-0.1-0.2-0.2-0.3-0.1-0.5c0,0,0-0.1,0-0.1C42,58.8,42,58.8,42,58.8L42,58.8
		z"/>
	<path fill="#FFFFFF" d="M43.6,61.2C43.5,61.2,43.5,61.2,43.6,61.2L43.6,61.2L43.6,61.2c0.1-0.3,0-0.5,0-0.7l-0.4-1.9
		c0-0.2-0.1-0.3-0.2-0.3h0l0,0c0,0,0,0,0,0c0,0,0,0,0-0.1l0.5-0.4c0,0,0,0,0,0c0,0,0,0,0,0l1.9,1.3c0.2,0.1,0.3,0.2,0.5,0.2
		c0,0,0,0,0.1,0l0,0h0v0v0L45.3,60c0,0,0,0,0,0h0c0,0,0,0,0-0.1c0.1-0.1,0.1-0.1-0.1-0.3l-0.5-0.4l-0.8,0.5l0.1,0.5
		c0,0.2,0.1,0.3,0.2,0.3l0,0c0,0,0,0,0.1,0l0,0h0v0v0L43.6,61.2L43.6,61.2L43.6,61.2z M43.6,59.5l0.5-0.4l-0.8-0.5L43.6,59.5
		L43.6,59.5z"/>
	<path fill="#881619" d="M43.4,58l1.9,1.3c0.2,0.1,0.3,0.3,0.6,0.3c0,0,0,0,0.1,0l0,0L45.2,60l0,0c0.1-0.2,0.1-0.2-0.2-0.4l-0.5-0.3
		l-0.8,0.6l0.1,0.6c0,0.2,0.1,0.3,0.2,0.3c0,0,0,0,0.1,0l0,0l-0.6,0.4l0,0c0.1-0.2,0-0.5,0-0.7l-0.4-1.8c0-0.1,0-0.3-0.2-0.3
		c0,0,0,0-0.1,0l0,0L43.4,58L43.4,58z M43.6,59.5l0.7-0.5l-0.9-0.6L43.6,59.5L43.6,59.5z M43.4,57.9L43.4,57.9l-0.6,0.4
		c0,0,0,0.1,0,0.1c0,0,0,0,0.1,0l0,0h0c0,0,0.1,0,0.1,0.2v0l0.4,1.8v0.1c0,0.2,0.1,0.4,0,0.5c0,0,0,0.1,0,0.1c0,0,0,0,0.1,0h0
		l0.6-0.4c0,0,0,0,0-0.1c0,0,0,0,0-0.1c0,0,0,0-0.1,0l0,0c0,0,0,0,0,0c0,0-0.1,0-0.1-0.3l-0.1-0.5l0.7-0.5l0.5,0.3l0,0
		c0.1,0,0.2,0.1,0.2,0.1s0,0,0,0.1c0,0,0,0.1,0,0.1c0,0,0,0,0.1,0h0l0.7-0.5c0,0,0,0,0-0.1s0,0,0-0.1c0,0,0,0-0.1,0l0,0h0
		c-0.2,0-0.3-0.1-0.5-0.2l0,0L43.4,57.9C43.4,57.9,43.4,57.9,43.4,57.9L43.4,57.9z M43.7,59.4l-0.2-0.7l0.6,0.4L43.7,59.4L43.7,59.4
		z"/>
	<path fill="#91191C" d="M35.1,60.3h-0.5c-2.4-0.3-3.2-0.5-4.5-0.8c0.7-0.3,0.2-0.2,1.4-0.2c0.6,0,2.8-0.5,2.8-0.5l0.1,0.7
		L35.1,60.3L35.1,60.3z"/>
	<path fill="#91191C" d="M16,60.8c0,0,0.7,0,2.8-0.5c1.9-0.5,2.7-0.5,2.9-0.6c0.2,0-0.8-0.3-1.4-0.6c-1-0.5-3.5-0.3-3.5-0.3
		s-0.4,1.1-0.9,1.8C15.8,60.6,16,60.8,16,60.8L16,60.8z"/>
	<path fill="#8E7566" d="M14.5,25.5c0,0-1.4,1-2.8,3s-2.3,3.4-3.6,6.3s-1.3,4.6-1.3,6.1c-0.1,1.4,0.3,3.5,0.3,4c0,0.5,0.3,0.6,0.4,1
		c0.1,0.3,0.6,1.6,0.8,1.9c0.1,0.3,1,1.8,1.9,2.8c0.9,1,2,2.4,2.3,3.4c0.3,0.9,0.2,1.6,0.5,2.2c0.3,0.5,1,1.1,1,1.1s0,0.5,0.8,0.4
		c0.5,0.4,3.1,2.1,4.1,2.5c1.1-0.4,1.7-0.4,2.6-0.5c-0.8-0.4-1.9-1.1-2.4-1.6c-0.5-0.4-0.5-0.7-1-0.8c-0.5,0-0.4,0.5-0.4,0.5
		s-1.2-0.8-1.6-1.1c-0.5-0.4-1.1-0.8-1.9-2.2c-0.7-1.4-0.6-2-0.6-2.4s-0.2-0.4-0.3-0.4s-0.3,0.1-0.3,0.3c-0.3-0.4-0.8-1.2-1.5-2.1
		s-1.6-2-2.3-3.2s-1.2-2.5-1.4-4.9c-0.3-2.3,0-4.4,0.8-6.6c0.9-2.2,1.5-3.6,2.7-5.1C12.4,28.7,14.5,25.5,14.5,25.5L14.5,25.5z"/>
	<path fill="#5A3633" d="M10.7,50.8c0,0,0.1-0.4,0-0.6s-0.5-0.5-0.5-0.6c0-0.2,0-0.2,0-0.3c0-0.1,0.1-0.2,0.3-0.2c0,0,0,0,0-0.1
		c-0.1-0.2-0.3-0.3-0.4-0.5c-0.2,0-0.9-0.2-1-0.1c0,0.1-0.2,0.2-0.2,0.2s-0.1-0.7-0.5-1.3c-0.3-0.6-0.5-0.6-0.6-0.8
		c0.2,0.4,0.3,0.9,0.4,1.1c0.1,0.3,1,1.8,1.9,2.8c0.9,1,2,2.4,2.3,3.4c0.3,0.8,0.3,1.2,0.4,1.6c0.3,0.2,0.6,0.4,0.8,0.6
		c0,0-0.6-2-1.4-3.3C11.3,51.5,10.7,50.8,10.7,50.8L10.7,50.8z"/>
	<path fill="#5A3633" d="M7.1,44.9c0,0.5,0.3,0.6,0.4,1c0,0.1,0.1,0.3,0.2,0.5c0-0.3-0.1-0.6-0.3-1c-0.3-0.5-0.3-0.6-0.3-1.2
		c0-0.5-0.1-1.5-0.3-1.9c0,0,0,0,0,0C6.9,43.4,7.1,44.5,7.1,44.9L7.1,44.9z"/>
	<path fill="#223917" d="M41.8,45.1c0-0.2,0-0.3,0-0.5c0-0.3-0.2-0.6-0.1-0.9c0-0.1,0.3-0.4,0.5-0.4c0.1,0,0.1,0,0.2,0.1
		c0.1,0.1,0.2,0.2,0.4,0.3c0.2,0.1,0.1,0.1,0.5,0c0.5-0.3,0.8-0.5,0.8-1.1c0-0.3,0-0.5,0.1-0.7c0-0.2,0-0.6,0.2-0.7
		c0.2-0.1,0.3,0.2,0.5,0.2c0.3,0.2,0.3-0.4,0.6-0.5c0.2,0,0.3,0.1,0.4,0c0.2-0.1,0.5-0.8,0.7-0.3c0,0.2,0,0.3,0,0.5
		c0,0.2,0,0.3,0.1,0.4c0.1,0.2,0.2,0.3,0.1,0.5c0,0.2-0.1,0.3-0.2,0.4c0,0.1-0.1,0.1,0,0.2c0.1,0.1,0.1,0,0.2,0.1
		c0.1,0.1,0.2,0.3,0.2,0.4c0,0.3-0.3,0.6-0.5,0.8c-0.1,0.1-0.3,0.2-0.2,0.3c0.1,0.1,0.3,0,0.4,0.2c0.1,0.4-0.2,0.7-0.4,0.9
		c-0.3,0.3-0.8,0.4-1.2,0.5C44.6,46,44.1,46,43.6,46c-0.3,0-0.7,0-1,0C42.1,45.8,41.9,45.6,41.8,45.1L41.8,45.1z"/>
	<path d="M41.9,45.3c0-0.2-0.1-0.5,0-0.7c0-0.2,0.1-0.4,0.2-0.5c0.1-0.3,0.3-0.2,0.5-0.2c0.3,0,0.8-0.5,0.9-0.8
		c0.3-0.5,0.3-1.1,0.5-1.5c0.1-0.2,0.1-0.4,0.3-0.3c0.4,0.2,0.3,0.7,0.3,1.1c0,0.5-0.1,0.9-0.1,1.4c0,0.3-0.1,0.4,0.3,0.3
		c0.3-0.1,0.6-0.1,0.8,0.2c0.1,0.2,0.2,0.4,0.5,0.3c0.2,0,0.4-0.1,0.3,0.2c0,0.2-0.2,0.4-0.4,0.5c-0.4,0.3-1,0.6-1.5,0.6
		c-0.6,0-1.3-0.2-1.9-0.4C42.4,45.5,42.1,45.5,41.9,45.3L41.9,45.3L41.9,45.3z"/>
	<path fill="#182A19" d="M37.6,41.7c-0.1,0.2-0.1,0.3-0.3,0.3c-0.2,0-0.3,0-0.5,0.2c-0.2,0.2-0.3,0.6-0.2,0.9
		c0.1,0.4,0.5,0.5,0.7,0.8c0.2,0.3,0.2,0.7,0.1,1.1c0,0.3,0.1,0.8,0,1.1c-0.2,0.3-0.6-0.1-0.8,0.2c-0.1,0.2,0,0.3,0,0.5
		c0.1,0.2,0.1,0.3,0.1,0.5c0,0.3-0.1,0.5,0.1,0.7c0.2,0.1,0.4,0.2,0.6,0.3c0.3,0.1,0.2,0.3,0.3,0.5c0.1,0.2,0.9,0.3,0.7,0.7
		c-0.1,0.2-0.3,0.1-0.5,0.1c-0.2,0-0.3,0.1-0.3,0.3c0,0.2,0,0.2,0.2,0.3s0.2,0.3,0.3,0.4c0.2,0.1,0.3,0.1,0.4,0.2
		c0.1,0.1,0.1,0.1,0.3,0.3c0.3,0.2,0.6-0.5,0.8-0.7c0.3-0.3,0.4-0.4,0.5-0.8c0.1-0.2,0.2-0.5,0.3-0.7c0.2-0.3,0.5-0.5,0.6-0.8
		c0-0.2,0-0.5,0-0.7c0-0.2,0-0.4,0-0.6c0-0.2,0.2-0.3,0.2-0.5c0-0.1,0-0.3-0.2-0.4c-0.1-0.1-0.3,0-0.5-0.1c-0.3-0.1-0.3-0.7-0.7-0.5
		c-0.1,0.1-0.3,0.3-0.5,0.2c-0.2-0.1,0-0.4,0-0.5c0-0.3-0.2-0.4-0.3-0.7c0-0.2,0-0.3,0-0.4c0-0.2,0-0.3,0.1-0.5c0-0.3,0.2-0.6,0.3-1
		c0-0.2-0.1-0.3-0.2-0.5c-0.1-0.2-0.1-0.3-0.1-0.6c0-0.1,0-0.4-0.1-0.4c-0.2,0-0.2,0.3-0.3,0.3c-0.1,0.1-0.1,0.3-0.3,0.3
		c-0.1-0.1-0.2-0.3-0.3-0.4c-0.2-0.2-0.4-0.3-0.6-0.1C37.7,41.2,37.7,41.5,37.6,41.7L37.6,41.7z"/>
	<path fill="#304825" d="M39.6,49.5c0,0,0-0.9-0.1-1.5c-0.3,0-1.1-0.1-1.1-0.1c-0.1,0,0-0.1,0.5-0.1c0.5,0,0.6,0,0.6,0
		s-0.3-1.4-0.4-1.8c-0.1-0.4-0.1-0.6-0.1-0.6s0.1-0.4,0.1-0.1c0,0.4,0.2,0.8,0.3,1c0,0.2,0.1,0.3,0.2,0.1c0.1-0.2,0.3-0.4,0.2-0.2
		c0,0.2-0.2,0.5-0.2,0.7c0,0.3,0.2,0.9,0.2,1.1c0.2,0,0.3,0,0.4-0.2c0.1-0.2,0.2,0,0,0.1c-0.1,0.2-0.4,0.2-0.4,0.3c0,0,0,0.7,0,1
		C39.8,49.5,39.6,49.5,39.6,49.5L39.6,49.5z"/>
	<path fill="#7A6B5F" d="M30.1,59.5l1.1-0.6c0,0-0.2-0.9,0.4-1.2c0.5-0.3,1-0.3,1.3,0.3c1-0.6,1.8-1.2,2.2-1.6
		c0.5-0.4,0.8-1.1,1.1-1.7c0.3-0.6,0.7-1.5,0.7-1.5s-0.2-1.1-0.1-1.3c0.1-0.2,0.3-0.3,0.5-0.3c0.2,0,0.4,0.1,0.4,0.4
		c0.4-0.5,1.1-1.5,1.5-2.1c0.4-0.6,2-2.4,2.3-2.9s0.8-2.1,1.1-2.8c0.3-0.8,0.5-1.7,0.3-2.5c-0.1-0.8-0.2-2-0.3-3.1
		c-0.2-1.1-0.5-1.3-0.5-1.6c-0.1-0.3-0.4,0-0.4-0.3c0-0.3,0.3-0.3,0.2-0.6c-0.1-0.4-0.5-1.6-0.8-2.3s-1.1-2.8-1.2-3.1
		c-0.1-0.3,0.5-1.1,0.8-0.3c0.3,0.8,1.2,3.3,1.4,3.7s0.7,1.5,0.9,2.3c0.2,0.8,0.3,1,0.4,1.2c0.1,0.2,0.3,0.2,0.3,0.5
		c0,0.3,0,0.6,0.1,1.1s0.5,0.2,0.5,0.7c0.1,0.5,0,0.5,0,0.9c0,0.4,0.4,0.6,0.2,2.2c-0.2,1.6-1.6,3.9-2.5,5.3
		c-0.9,1.4-1.6,2.1-1.7,2.2c-0.1,0.1-0.1,0.6-0.4,0.9c-0.3,0.3-0.5,0.2-0.7,0.6c-0.3,0.4-0.6,0.9-1.1,2.5c0.8-0.8,1.2-1.5,1.5-1.9
		c0.2-0.5,0.8-1.3,0.9-1.5c0.1-0.3,0.2-0.7,0.4-1.1s0.4-0.1,0.7-0.5c0.3-0.4,0.1-1.2,0.1-1.2l0.5-0.8l0.5,1.4c0,0-1,1.9-1.2,2.2
		c-0.2,0.2-0.4,0.3-0.5,0.5s0,0.5-0.2,0.8c-0.2,0.3-0.5,0.8-0.7,1c-0.2,0.3-0.5,0.6-0.7,0.9c-0.2,0.3-0.4,0.6-0.8,1
		c-0.4,0.4-0.6,0.5-0.7,0.9c-0.1,0.4-0.1,0.5-0.7,1.1c-0.6,0.5-0.7,0.5-1.2,0.8c-0.5,0.3-0.9,0.6-1.1,0.7c-0.2,0.1-0.7,0.4-1.1,0.8
		C33.3,60,33.2,60,33.2,60S31.2,59.9,30.1,59.5L30.1,59.5z"/>
	<path d="M38.4,43.1c0,0,0.3,0.3,0.5,0.5c0.2,0.2,0.2,0.4,0.1,0.7c-0.1,0.3-0.2,0.6-0.2,0.9c0,0.3,0,0.7-0.2,0.8
		c-0.3,0.2-0.1,0.4-0.3,0.4c-0.3,0-0.5,0-0.5,0l0.1-2.1L38.4,43.1L38.4,43.1z"/>
	<path fill="#687D50" d="M37.3,46.2c0.4,0.1,0.4,0.2,0.8,0c0.2-0.1,0-0.5,0.3-0.8s-0.1-0.3-0.2-0.5c-0.1-0.2,0.3-0.8,0.3-1.1
		c0.1-0.3,0-1-0.4-1.1c-0.4-0.2-0.3,0.5-0.9,0.3c-0.3-0.2-0.4-0.5-0.3-0.8c-0.2,0.3-0.2,0.6-0.1,0.9c0.1,0.4,0.5,0.5,0.7,0.8
		c0.2,0.3,0.2,0.7,0.1,1.1c0,0.3,0.1,0.8,0,1.1C37.4,46.2,37.4,46.2,37.3,46.2L37.3,46.2z"/>
	<path fill="#40260D" d="M37.1,56.5c-0.3,0-0.1,0.2-0.2,0.4c0,0.2-0.2,0.2-0.5,0.2c-0.3,0-0.3,0.2-0.4,0.3c-0.1,0.2-0.3,0.3-0.5,0.3
		c-0.2,0-0.3-0.1-0.3,0.1s0,0.3-0.2,0.3c-0.2,0-0.3,0.1-0.4,0.2c-0.1,0.1-0.2,0.3-0.4,0.3c-0.2,0-0.3,0.1-0.5,0.2
		c-0.1,0-0.3,0-0.5,0.3s-0.1,0.3-0.3,0.3c-0.1,0-0.2-0.4-0.5-0.7c-0.3,0.8-1.1,0.5-1.3,0.4c-0.1-0.1-0.2-0.1-0.2,0
		c0,0.1,0.8,0.9,0.8,0.9l-0.2,0c0.7,0.1,1.4,0.2,1.4,0.2s0.1,0,0.5-0.4c0.4-0.4,0.9-0.7,1.1-0.8c0.2-0.1,0.6-0.5,1.1-0.7
		c0.5-0.3,0.7-0.3,1.2-0.8c0.4-0.4,0.5-0.5,0.6-0.8C37.5,56.5,37.3,56.5,37.1,56.5L37.1,56.5z"/>
	<path fill="#40260D" d="M39.5,53.9c-0.1,0-0.3,0.2-0.3,0.3c0,0.1-0.2,0.1-0.3,0.3c-0.2,0.2-0.4,0.5-0.5,0.6
		c-0.2,0.2-0.3,0.2-0.5,0.1c-0.2-0.1-0.1-0.4,0-0.7c0-0.1,0.1-0.2,0.1-0.3c0,0-0.1,0.1-0.2,0.2c0.5-1.6,0.9-2.1,1.1-2.5
		c0.2-0.3,0.3-0.3,0.5-0.5c-0.1,0-0.2-0.1-0.3,0c-0.1,0.1,0,0.2-0.3,0.3c-0.2,0.1-0.7,0.8-0.8,1.2c-0.2,0.4-0.5,1.3-0.7,1.6
		c-0.1,0.4-0.3,0.9-0.3,1.1c-0.1,0.3,0.1,0.4,0.4,0.4c0,0,0.1,0,0.1,0.1l0,0c0.1-0.4,0.3-0.4,0.7-0.8c0.4-0.4,0.6-0.8,0.8-1
		C39.3,54.3,39.5,54,39.5,53.9L39.5,53.9z"/>
	<path fill="#240A00" d="M44.2,40.8c0-0.4,0-0.4,0-0.9c-0.1-0.5-0.4-0.3-0.5-0.7s0-0.7-0.1-1.1c0-0.3-0.2-0.4-0.3-0.6
		c-0.1-0.2-0.3-0.4-0.4-1.2c-0.2-0.8-0.6-1.9-0.9-2.3c-0.2-0.3-0.8-2.2-1.2-3.2c-0.1,0-0.3-0.1-0.3-0.1c-0.1,0-0.4,0.2-0.5,0.3
		c0.3,0.8,0.8,2.1,1.1,2.6c0.3,0.7,0.7,1.9,0.8,2.3c0.1,0.4-0.2,0.4-0.2,0.6s0.3,0,0.4,0.3c0.1,0.3,0.3,0.5,0.5,1.3
		c0.2,0,0.5,0,0.7,0c0.2,0,0.3,0.2,0.3,0.5s0.1,0.5,0.2,0.7c0,0.2,0.1,0.6,0.1,0.8c0,0.3,0.3,0.6,0.3,0.8c0,0.2,0,0.7-0.1,0.9
		c-0.1,0.2-0.1,0.6-0.2,0.9c-0.1,0.3,0,0.7,0,1c0,0.3-0.1,0.5-0.2,0.7c-0.1,0.3-0.2,0.7-0.3,0.9c-0.1,0.2-0.5,0.9-1,0.6
		c-0.1,0-0.2,0-0.3,0c-0.2,0.4-0.3,0.8-0.4,1c-0.2,0.3-0.7,0.9-1.2,1.6h0c0.5,0,0.5,0.7,0.5,1c0,0.3-0.4,0.6-0.5,0.8
		c-0.1,0.1-0.1,0.3-0.2,0.6c0,0.1-0.1,0.3-0.1,0.4c0.3-0.3,0.3-0.7,0.3-0.8c0.1-0.1,0.6-0.7,1.4-1.7c0,0.1,0,0.2,0,0.3
		c0.2-0.3,0.3-0.5,0.6-0.8l-0.1-0.2c0.9-1.4,2.2-3.5,2.3-5C44.6,41.4,44.2,41.1,44.2,40.8L44.2,40.8z"/>
	<path fill="#40260D" d="M40.7,50.1c-0.1,0.2-0.2,0.5-0.3,0.7c0.1-0.1,0.1-0.2,0.2-0.3c0-0.1,0.2-0.4,0.4-0.6
		C40.9,50,40.8,50,40.7,50.1L40.7,50.1z"/>
	<path fill="#40260D" d="M40,52.5c-0.1-0.1-0.2-0.3-0.2-0.5c-0.1,0.2-0.3,0.4-0.4,0.6c0,0.3,0.2,0.1,0.4,0.2
		C40,52.8,40.1,52.5,40,52.5L40,52.5z"/>
	<path fill="#687D50" d="M40,29.2l-0.3-0.6L39,27.3l-0.6-1.1l-0.9-1.1l-0.8-1l-0.8-0.9l-0.4-0.4c-0.1,0.1,0,0.3-0.1,0.4
		c0,0.2-0.2,0.4-0.2,0.6c0,0.3,0.1,0.4,0.2,0.6c0.1,0.2,0.1,0.5-0.1,0.6c-0.2,0.2-0.3,0.3-0.4,0.6c0,0.2,0,0.4,0.2,0.5
		c0.3,0.3,0.9,0.2,1.2,0.6c0.2,0.2,0,0.4-0.2,0.5c-0.1,0.1-0.3,0.2-0.4,0.2c-0.1,0-0.2,0.1-0.3,0.2c-0.2,0.2,0,0.5,0.2,0.5
		c0.1,0,0.2,0.1,0.3,0.2c0.1,0,0.3,0,0.4,0c0.2,0,0.4,0,0.5,0.1c0.1,0,0.1,0.2,0.2,0.3c0.3,0.5,1,0.4,1.5,0.4c0.1,0,0.3,0,0.4,0.1
		c0.3,0.2-0.1,0.4-0.2,0.5c-0.2,0.3,0.4,0.3,0.5,0.3c0.1,0,0.3,0.1,0.4,0.1c0.1,0,0.2-0.1,0.3-0.1c0.1-0.1,0.3-0.1,0.4-0.2l0,0
		L40,29.2L40,29.2z"/>
	<path fill="#2D3E30" d="M35.6,23l1.1,1.4c0,0-0.5,0-0.8,0.1c0.3,0,0.6,0,1.1,0.3c0.4,0.4,0.7,0.8,0.8,1c0.2,0.2,0.4,0.5,0.4,0.5
		s-0.9-0.1-1.4,0c0.5,0,1.3,0.1,1.6,0.3c0.3,0.3,0.3,0.5,0.5,0.8c0.2,0.3,0.4,0.8,0.4,0.8s-0.8,0-1.1,0c-0.3,0,0.2,0.1,0.4,0.1
		c0.2,0,0.5,0,0.6,0.1c0.1,0,0.3,0,0.3,0.2c0.1,0.2,0.3,0.7,0.3,0.7s0.5,0.3,0-0.6c-0.5-0.9-1-1.5-1.1-1.7c0-0.2,0.2-0.2,0.3-0.4
		s0-0.5,0-0.7c0-0.3,0-0.4,0-0.4s-0.1,0.4-0.2,0.7c0,0.3-0.1,0.5-0.3,0.5s-0.3-0.1-0.5-0.4c-0.3-0.3-0.4-0.4-0.4-0.5c0-0.2,0-1,0-1
		s-0.1,0.9-0.2,0.8s-0.3-0.4-0.5-0.6C37,24.5,37.1,24.3,37,24c0-0.3,0-0.2-0.1,0.1c-0.1,0.3-0.2,0.1-0.4-0.3
		C36.3,23.5,35.6,23,35.6,23L35.6,23z"/>
	<path fill="#485D3F" d="M40.2,31.5c0.1,0.4,0.5,0.5,0.8,0.9c0.2,0.3,0.5,0.5,0.8,0.9c0.2,0.2,0.6,0.6,0.5,0.9
		c-0.1,0.2-0.3,0.2-0.4,0.3c-0.1,0.2-0.1,0.4-0.1,0.6c0,0.5,0.5,0.5,0.8,0.8c0.1,0.1,0.1,0.2,0.3,0.3c0.1,0,0.3,0,0.5,0.2
		c0.3,0.3-0.4,0.5-0.1,0.8c0.2,0.3,0.7,0.3,0.8,0.6c0,0.2-0.1,0.3-0.2,0.4c0,0.2,0,0.3,0.2,0.4c0.2,0.2,0.3,0.5,0.3,0.9
		c0,0.2-0.5,0.5-0.3,0.8c0,0.1,0.3,0.1,0.4,0c0.1-0.1,0.1-0.3,0.2-0.4c0-0.3,0.1-0.5,0.3-0.8c0.1-0.2,0.3-0.4,0.3-0.6
		c0.1-0.2,0-0.3,0.1-0.5c0.1-0.3,0.3-0.6,0.5-0.9c0.1-0.2,0.3-0.7,0.2-1c-0.1-0.5-0.7,0-0.7-0.3c0-0.2,0.2-0.5,0.3-0.6
		c0.1-0.2,0.2-0.4,0.3-0.7c0-0.3,0-0.7-0.1-1c-0.1-0.2-0.1-0.3-0.3-0.3s-0.2,0.2-0.3,0.3c-0.1,0.2-0.3,0.7-0.6,0.6
		c-0.3,0-0.1-0.4,0-0.5c0.1-0.3,0.3-0.5,0.3-0.8c0-0.2,0-0.3,0-0.5c0-0.5-0.3-0.8-0.3-1.3c0-0.2-0.1-1.1-0.4-0.7
		c-0.1,0.1,0,0.3-0.2,0.4c-0.2,0-0.2-0.2-0.2-0.3c0-0.3,0.1-0.6,0.1-1c0-0.1-0.1-0.3-0.2-0.4c-0.1-0.2-0.3-0.3-0.4-0.5
		c-0.1-0.2-0.1-0.3-0.3-0.2c-0.1,0.1-0.3,0.2-0.5,0.1c-0.2-0.1-0.1-0.3-0.1-0.5c0-0.5-0.2-0.5-0.5-0.7c-0.2-0.1-0.5-0.5-0.8-0.4
		c-0.3,0.1,0.1,0.7,0,0.9c0,0.1-0.2,0.2-0.3,0.3c-0.1,0.1-0.2,0.2-0.3,0.3c-0.3,0.4-0.6,0.9-0.6,1.4C39.8,30.4,40,30.9,40.2,31.5
		L40.2,31.5z"/>
	<path fill="#223917" d="M43.3,29.9c0,0,0.1,0.7-0.3,0.9c-0.5,0.3,0,0.8,0.2,1.3c0.3,0.4,0.4,0.9,0.4,0.9s0.5-0.4,0.5-1.1
		C44.1,31.1,43.5,31.1,43.3,29.9L43.3,29.9z"/>
	<path fill="#223917" d="M44.6,36.8c0,0,0.7-0.8,0.8-0.8c0.2,0,0.3,0,0,0.4c-0.3,0.4-0.4,0.9-0.5,1.2c-0.1,0.3-0.3,0.5-0.3,0.5
		S44.7,37.6,44.6,36.8L44.6,36.8z"/>
	<path fill="#223917" d="M44.2,35.6c0,0,0.4-0.5,0.9-1.4c0,0.6,0,0.7-0.7,1.6C44.4,35.7,44.2,35.6,44.2,35.6L44.2,35.6z"/>
	<path fill="#223917" d="M41.1,27c0,0.4,0.2,1,0.5,1.4c0.5,0.8,0.6,1.2,0.6,1.8c-0.7-0.5-1-1-1.2-1.1c-0.3-0.1,0.2-0.3,0-0.7
		c-0.2-0.3,0-0.3,0.1-0.4C41.2,28,40.9,27.5,41.1,27L41.1,27z"/>
	<path fill="#223917" d="M43.6,33.8c-0.8-0.3-1.2-0.5-1.2-0.5l0-0.5c0,0,0.5,0.4,1.1,0.5c-0.4-0.6-0.7-1.4-1-2.1
		c-0.3-0.6-0.8-0.6-1.1-0.8c-0.4-0.3-0.8-1-0.8-1c0.2,1.2-0.7,0.1-0.7,0.1L39.8,30c0.1,0.5,0.3,1,0.4,1.5c0.1,0.4,0.5,0.5,0.8,0.9
		c0.2,0.3,0.5,0.5,0.8,0.9c0.2,0.2,0.6,0.6,0.5,0.9c-0.1,0.2-0.3,0.2-0.4,0.3c0.3,0.1,0.6,0.3,0.8,0.5c0.4,0.3,0.8,0.6,1,0.9
		c0.1,0.3,0.2,0.3-0.3,0.1c-0.8-0.4-0.1-0.1-0.3,0.3c0.1,0,0.2,0,0.2,0.1c0.3,0.3-0.4,0.5-0.1,0.8c0.2,0.3,0.7,0.3,0.8,0.6
		c0,0.2-0.1,0.3-0.2,0.4c0,0.2,0,0.3,0.2,0.4c0.2,0.2,0.3,0.4,0.3,0.6h0C44.6,37.5,44.2,34.9,43.6,33.8L43.6,33.8z"/>
	<path fill="#182A19" d="M4.2,41.6c-0.3,0.1-0.1,0.9-0.1,1.3c0,0.4-0.3,1.5,0.3,3.3c0.5,1.8,1.2,2.7,1.5,3.2c0.3,0.5,2.2,3,2.5,3.3
		c0.3,0.3,0.7,0.7,1,1c0.3,0.3,0.6,0.6,0.8,0.7c0.2,0.1,0.5,0.2,0.6,0.2c0.1,0,0.2-0.4-0.1-0.5c-0.4-0.1-0.5-0.2-0.8-0.7
		c-0.3-0.5-0.6-1.3-0.9-1.9c-0.3-0.5-0.4-1.1-0.5-1.9c-0.1-0.8-0.7-2-1.3-3.5s-1.1-2-1.3-2.4c-0.3-0.4-0.8-1.3-1-1.6
		C4.7,41.7,4.6,41.5,4.2,41.6L4.2,41.6z"/>
	<path fill="#5B785E" d="M8.7,27c-0.3-0.1-1,0.8-1.5,1.5c-0.5,0.8-1.5,2.7-2,4.7c-0.5,2-0.3,4.2-0.2,5.4c0,1.2,0.4,2.2,1,2.9
		c0.6,0.7,0.8-0.3,0.5-0.3c-0.4,0-0.5,0-0.5-0.5c0-0.5,0.3-1.8,0.7-3.2c0.4-1.4,0.9-3.4,1.5-5.7C8.7,29.6,9.2,27.3,8.7,27L8.7,27z"
		/>
	<path fill="#7D7B5A" d="M14,22.2c-0.3-0.2-0.9,0.4-2.1,1.7c-1.1,1.3-2.2,3.8-2.7,4.9c-0.5,1.1-1.1,2.7-1.3,3.5
		C7.5,33,7,34.8,7.3,34.5c0.3-0.3,0.8-1.4,1.2-2c0.4-0.7,1.6-2.2,2.3-3.2c0.6-0.9,1.7-2.7,2.3-3.8C13.6,24.3,14.4,22.4,14,22.2
		L14,22.2z"/>
	<path fill="#3E4F31" d="M22.3,19.2c-0.1-0.2-0.8,0-1,0.2c-0.3,0.1-0.7,0.4-1.1,0.5c-0.5,0.2-1.1,0.4-2.5,1.4
		c-1.3,1-1.7,1.6-2.6,2.5c-0.9,0.8-2.2,2.4-2.3,2.5c-0.1,0.2-0.1,0.5,0.5,0.1c0.5-0.3,4.2-2.9,5.3-3.5c1.1-0.7,2.5-1.3,3.2-2.2
		C22.3,19.8,22.5,19.5,22.3,19.2L22.3,19.2z"/>
	<path fill="#485023" d="M13.2,23.4c0,0-1.2,1.5-2.8,4.2c-1.6,2.7-2.5,4.8-2.5,4.8l0,0.4c0,0,1.4-3,2.4-4.6
		C11.2,26.5,13.2,23.4,13.2,23.4L13.2,23.4z"/>
	<path fill="#51604F" d="M10.8,54.1c-0.4-0.1-0.5-0.2-0.8-0.7c-0.3-0.5-0.6-1.3-0.9-1.9s-0.4-1.1-0.5-1.9c-0.1-0.8-0.7-2-1.3-3.5
		s-1.1-2-1.3-2.4c-0.3-0.4-0.8-1.3-1-1.6c-0.2-0.3-0.3-0.5-0.6-0.4c-0.3,0.1-0.1,0.9-0.1,1.3c0,0.4-0.3,1.5,0.3,3.3s1.2,2.7,1.5,3.2
		c0.1,0.2,0.4,0.6,0.8,1.1l0,0c0.5,0.6,1.2,1.1,1.2,1.1s-0.1-0.2-0.2-0.3c-0.1-0.1-0.4-0.7-0.4-0.7l-0.3-0.3h0.2c0,0-1.2-2.6-1.6-4
		c-0.8-2.4-1.3-4.7-1.3-4.7s1.2,4.6,2.3,6.9c1.1,2.3,2.1,3.9,2.7,4.6c0.6,0.8,1.1,1,1.2,1.2c0.1,0,0.3,0,0.3,0.1
		C11,54.6,11.1,54.2,10.8,54.1L10.8,54.1z"/>
	<path fill="#182A19" d="M21.2,21.3c0,0-2.4,0.6-4.5,2.2c-2.2,1.6-2.6,1.8-2.6,1.8s1.1-1,1.5-1.4c0.3-0.4,1.1-1.1,1.6-1.4
		c0.5-0.3,1.9-1.2,1.9-1.2s-1.6,0.8-1.9,1.1s-0.7,0.5-1.3,1c-0.1,0.1-0.2,0.1-0.2,0.2c1.3-1.7,3.6-3.2,4.2-3.3
		c0.5-0.2,1-0.5,1.3-0.7c-0.3,0.1-0.5,0.3-0.9,0.5c-0.5,0.2-1.1,0.4-2.5,1.4c-1.3,1-1.7,1.6-2.6,2.5c-0.9,0.8-2.2,2.4-2.3,2.5
		c-0.1,0.2-0.1,0.5,0.5,0.1s4.2-2.9,5.3-3.5C19.4,22.4,20.5,21.9,21.2,21.3L21.2,21.3z"/>
	<path fill="#7D7B5A" d="M22.9,21.2c0-0.3-1.7-0.2-4.9,1.6c-3.1,1.8-4.2,3.9-4.5,4.1c-0.3,0.3,1.7-0.8,3.3-1.4
		c1.6-0.6,2.9-1.6,4-2.2C21.9,22.7,22.9,21.6,22.9,21.2L22.9,21.2z"/>
	<path fill="#485023" d="M21.1,21.9c0,0-2.1,1.7-6.2,3.9C16.8,25.1,20.6,22.9,21.1,21.9L21.1,21.9z"/>
	<path fill="#51604F" d="M15.6,24.6c-0.4-0.1-1.5,1-2.2,2.1c-0.8,1.1-1.8,2.5-2.1,3c-0.3,0.5-0.9,1.3-0.9,1.9c0,0.6-0.8,1-0.5,2.7
		c0.3,1.6,3.1-3.5,4.3-4.9c1.2-1.4,1.5-2.7,1.6-3.5C16,25.2,16,24.7,15.6,24.6L15.6,24.6z"/>
	<path fill="#3E4F31" d="M6.5,41.4c-0.4,0-0.5,0-0.5-0.5c0-0.5,0.3-1.8,0.7-3.2c0.4-1.4,0.9-3.4,1.5-5.7c0.5-2.2,1-4.4,0.5-4.8
		C8,28.2,5.5,32.6,5.4,40.2c0,0.2,0,0.4,0,0.6c0.1,0.3,0.3,0.6,0.5,0.8C6.5,42.3,6.8,41.3,6.5,41.4L6.5,41.4z"/>
	<path fill="#182A19" d="M6.3,30.3c-0.4,0.9-0.8,1.9-1.1,3c-0.5,2-0.3,4.2-0.2,5.4c0,1.2,0.4,2.2,1,2.9c0,0.1,0.1,0.1,0.2,0.2
		c0-0.3-0.3-0.5-0.3-0.6c-0.1-0.1-0.3-0.2-0.2-0.5c0.1-0.3-0.1-0.5-0.1-0.9c0.1-3.2,0.5-4.5,0.6-5.9c-0.6,2.2-0.8,4.8-0.8,5.3
		s0,0.8-0.1,0.6c0-0.1-0.1-0.7-0.1-1.2c0-0.5-0.1-1.2-0.1-1.4c0-0.3-0.3-1.9,0.3-3.9C5.9,31.3,6.3,30.3,6.3,30.3L6.3,30.3z"/>
	<path fill="#182A19" d="M11.5,29.4c-0.1,0.1-0.2,0.3-0.2,0.3c-0.3,0.5-0.9,1.3-0.9,1.9s-0.8,1-0.5,2.7l0,0c0.1,0,0.2-0.1,0.3-0.3
		c0.4-0.5,2.8-4.2,2.9-4.3c0.1-0.1,0.4-0.6,0-0.4c-0.3,0.2-0.2,0,0-0.3c0.2-0.3,1.2-1.8,1.6-3c0,0-0.5,0.8-1.6,2.6
		c-1.2,1.8-1.4,1.9-1.8,2.4c-0.4,0.5-0.3-0.4,0-0.8C11.4,30,11.5,29.6,11.5,29.4L11.5,29.4z"/>
	<path fill="#5B785E" d="M7.8,40.3c-0.2,0.4-0.2,0.6-0.3,0.8c-0.1,0.2-0.1,0.3,0,0.4c0.2,0.1,0.2-0.1,0.3-0.5
		c0.1-0.4,0.5-1.1,0.9-1.5c0.3-0.4,1.4-2,2.2-3.1c0.8-1.1,1.5-2.4,1.9-3.7c0.4-1.3,0.9-2.9,0.5-3.3c-0.4-0.4-2.2,2.4-3,3.5
		c-0.8,1.2-1.4,2.4-1.8,3.5C8.2,37.8,8.1,39.5,7.8,40.3L7.8,40.3z"/>
	<path fill="#3E4F31" d="M12.5,32.5c-0.2-0.2,0.5-1.8,0.5-1.8s-1,1.8-1.4,1.6c-0.3-0.1,0.7-1.5,0.7-1.5s-1.2,1.6-1.4,1.6
		c-0.1,0,0.2-0.5,0.4-0.9c-0.4,0.5-0.8,1.1-1,1.5c-0.8,1.2-1.4,2.4-1.8,3.5c-0.4,1.2-0.5,2.9-0.8,3.8c-0.2,0.4-0.2,0.6-0.3,0.8
		c-0.1,0.2-0.1,0.3,0,0.4c0.2,0.1,0.2-0.1,0.3-0.5C8,40.7,8.4,40,8.8,39.6c0.3-0.4,1.4-2,2.2-3.1c0.8-1.1,1.5-2.4,1.9-3.7
		c0.1-0.4,0.3-0.8,0.4-1.2C13,32,12.7,32.6,12.5,32.5L12.5,32.5z"/>
	<path fill="#182A19" d="M13.3,31.3c0,0-0.6,1.1-1,2.6c-0.4,1.5-1.7,2.7-1.7,2.7s0.3-0.8,0.4-1.2c-0.2,0.7-0.5,1-0.7,1.4
		c-0.3,0.4-0.5,0.9-0.9,1.9c0.5-0.7,1-1.5,1.5-2.1c0.8-1.1,1.5-2.4,1.9-3.7C13,32.3,13.2,31.8,13.3,31.3L13.3,31.3z"/>
	<path fill="#182A19" d="M13.5,41.4c-0.3,0-1.6,0.9-3.1,3.7c-1.5,2.8-1.6,5.1-1.5,5.6C9,51,9.2,51.4,9.3,51.5s0.3,0,0.2-0.3
		c-0.1-0.3-0.2-0.7,0-1c0.2-0.3,0.7-1.4,1-1.8c0.3-0.4,1.4-2.4,2-3.3c0.5-0.9,0.8-1.3,1.1-2.1C13.8,42.4,13.8,41.3,13.5,41.4
		L13.5,41.4z"/>
	<path fill="#51604F" d="M10.5,48.5c0,0,0.1-0.1,0.2-0.3c-0.2-0.3-0.3-0.6-0.3-1c-0.5,0.3-0.8,1.9-1.2,3c0.4-2.4,0.9-3.2,1.2-3.4
		c0-0.2,0-0.4,0-0.5c-0.3,0.1-0.6,0.5-0.9,0.9c-0.6,1.7-0.6,3-0.5,3.3C9,51,9.2,51.4,9.4,51.5c0.2,0.1,0.3,0,0.2-0.3
		c-0.1-0.3-0.2-0.7,0-1C9.7,50,10.3,48.9,10.5,48.5L10.5,48.5z"/>
	<path fill="#182A19" d="M14.5,43.1c-0.2-0.2-0.8,0.5-1.7,2.1c-0.8,1.6-1.1,5.4-1,5.9c0.1,0.5,1.1-1.9,1.6-2.7c0.5-0.9,0.8-2,1-3.1
		C14.5,44.1,14.6,43.3,14.5,43.1L14.5,43.1z"/>
	<path fill="#3E4F31" d="M13.4,45.4c0.3-1,0.8-1.8,1.1-2.1c0-0.1,0-0.2-0.1-0.2c-0.2-0.2-0.8,0.5-1.7,2.1c-0.8,1.6-1.1,5.4-1,5.9
		c0.1,0.4,0.8-1.4,1.4-2.4C13.4,47.3,13.1,46.5,13.4,45.4L13.4,45.4z"/>
	<path fill="#182A19" d="M12.1,40.5c-0.3,0-0.7,1.4-0.9,2.4c-0.2,1.1-0.4,4.6-0.3,5.3c0,0.7,0.3,3.1,0.4,3.6
		c0.1,0.5,0.4,1.2,0.4,1.6c0,0.3,0,0.6-0.1,0.7c-0.2,0,0,0.3,0.2,0.2c0.2,0,0.3-0.2,0.3-0.5c0-0.3,0.1-0.7,0.2-1.1
		c0-0.5,0.2-1.3,0.4-2.1c0.2-0.8,0.4-1.5,0.4-2.1c0-0.5,0.3-2,0.2-4.5C13,41.4,12.5,40.4,12.1,40.5L12.1,40.5z"/>
	<path fill="#51604F" d="M13.2,43.8c-0.2-2.5-0.7-3.4-1.1-3.3c-0.3,0-0.7,1.4-0.9,2.4c-0.2,1.1-0.4,4.6-0.3,5.3c0,0.5,0.2,2,0.3,3
		c0.2,0.3,0.5,0.8,0.5,0.4c0-0.3,0-2.1,0.1-3.1c0.1-1,0.3-4.1,0.3-4.1c0,1.1,0,3.1-0.1,5.4c0,1.6,0.2,2.4,0.3,2.8l0,0
		c0-0.5,0.2-1.3,0.4-2.1c0.2-0.8,0.4-1.5,0.4-2.1C13.1,47.8,13.3,46.3,13.2,43.8L13.2,43.8z"/>
	<path fill="#A99773" d="M20.6,65.2c0.3-0.3,0.8-0.5,1-0.4c0.2,0.1,0,0.3-0.3,0.4c-0.3,0.1-0.7,0.3-0.8,0.5
		c-0.2,0.3-0.3,0.3-0.4,0.4c-0.1,0.1-0.3,0-0.1-0.2C20.1,65.8,20.3,65.4,20.6,65.2L20.6,65.2z"/>
	<path fill="#5A3633" d="M19.4,66.5c-0.1,0.1-0.3,0.3-0.2,0.3c0.1,0,0.2,0,0.3-0.1c0.1-0.1,0.2-0.2,0.1-0.2
		C19.5,66.4,19.4,66.5,19.4,66.5L19.4,66.5z"/>
	<path fill="#A99773" d="M31.4,65.1c-0.1,0-0.3,0-0.1,0.2c0.1,0.1,1,0.8,1.4,1.1c0.3,0.2,0.5,0.3,0.6,0.3c0.2,0,0.5,0,0.3-0.2
		c-0.1-0.1-0.3-0.2-0.8-0.4C32.4,65.8,31.7,65.2,31.4,65.1L31.4,65.1z"/>
	<path fill="#182A19" d="M39.7,52.7c0.3,0,0.4,0,0.2-0.3c-0.2-0.2-0.3-0.3-0.2-0.7c0-0.4,0-0.4-0.2-0.4c-0.3,0-0.2,0.3-0.1,0.3
		c0,0.3,0.1,0.2,0,0.5C39.4,52.4,39.3,52.6,39.7,52.7L39.7,52.7z"/>
	<path fill="#A99773" d="M36.8,55.2c-0.2,0.3-0.4,0.3-0.6,0.6c-0.2,0.3-0.2,0.6,0,0.8c0.2,0.2,0.4,0.1,0.4-0.3
		c0-0.3,0.2-0.5,0.3-0.7c0.1-0.2,0.2-0.3,0.1-0.5C37,55,36.9,55.1,36.8,55.2L36.8,55.2z"/>
	<path fill="#766355" d="M19.8,59.7c0,0-1.1-0.5-1.1-0.6c0-0.1,0.5-0.3,0.5-0.3l-0.6-0.3c0,0,0,0.3-0.3,0.3c-0.3,0-0.6-0.1-0.8-0.4
		c-0.3-0.2-1.4-1.1-1.6-1.3c-0.3-0.2-0.9-0.6-0.9-0.6s-0.2,0.3-0.3,0.3c-0.1,0-0.2,0,0,0.2c0.2,0.2,1.2,0.8,1.4,0.9
		c0.2,0.1,0,0.3-0.2,0.2s-1-0.6-1-0.6s0.8,0.7,1.1,0.9c0.3,0.2,2.2,1.3,2.4,1.5C18.6,59.9,19,60,19,60S19.5,59.8,19.8,59.7
		L19.8,59.7z"/>
	<path fill="#A99773" d="M38.9,51.3c-0.2,0.3-1.3,1.8-1.4,2.4c-0.1,0.6,0.2,0.3,0.2,0c0-0.3,0.4-1,0.6-1.3c0.2-0.3,0.5-0.8,0.6-1
		C39,51.2,39,51.1,38.9,51.3L38.9,51.3z"/>
	<path fill="#A99773" d="M40,49.7c-0.1,0.2,0,0.4,0.1,0.2c0.1-0.2,0.2-0.5,0.3-0.6c0.1-0.2,0-0.3-0.1-0.1
		C40.2,49.3,40.1,49.6,40,49.7L40,49.7z"/>
	<path fill="#A99773" d="M19.4,68.1c0,0.2-0.2,0.3-0.7,0.2c-0.5,0-1.1-0.4-1.3-0.7c-0.2-0.3-0.2-0.3-0.6-0.4c-0.4,0-0.3-0.2-0.2-0.3
		c0.1-0.1,0.3-0.2,0.6-0.1c0.3,0.1,0.4,0.1,0.7,0.2C18.3,67.1,19.6,67.4,19.4,68.1L19.4,68.1z"/>
	<path fill="#A99773" d="M34.5,66.5c0.1,0.1,0.1,0.4-0.2,0.5c-0.3,0.2-0.6,0.1-0.8,0.3c-0.2,0.2-0.4,0.5-0.8,0.6
		c-0.4,0.1-0.8,0.1-0.9,0c0-0.1,0-0.4,0.2-0.5c0.2-0.1,0.4-0.3,0.6-0.4c0.3-0.1,0.5-0.1,0.8-0.2c0.3-0.1,0.3-0.3,0.5-0.3
		C34.2,66.4,34.4,66.4,34.5,66.5L34.5,66.5z"/>
	<path fill="#A99773" d="M43.2,43c0,0.3-0.3,1.4-0.5,1.7c-0.2,0.3,0.1,0.4,0.3,0.1c0.1-0.3,0.3-1.4,0.4-1.6
		C43.4,42.8,43.3,42.7,43.2,43L43.2,43z"/>
	<path fill="#40260D" d="M42.8,40.8C42.8,40.8,42.8,40.8,42.8,40.8c-0.1,0.2,0,0.6,0,0.8c0,0.2,0,0.4,0.2,0.4s0.3-0.1,0.4-0.2
		c0-0.1-0.1-0.2-0.2-0.5C43,41.1,43,40.8,42.8,40.8C42.9,40.6,42.9,40.7,42.8,40.8L42.8,40.8z"/>
	<path fill="#40260D" d="M18.5,57.9c0,0-0.4,0.4-0.9,0c0,0.1,0,0.5,0.4,0.6C18.4,58.7,18.7,58.4,18.5,57.9L18.5,57.9z"/>
	<path fill="#8C7D64" d="M33.3,59c0,0-0.1,0-0.2,0c-0.1-0.1-0.3-0.4-0.4-0.5c0,0,0-0.1,0.1-0.1c0,0,0.1,0,0.1,0.1
		c0,0.1,0.2,0.3,0.3,0.4c0,0,0.1,0,0.2-0.1c0,0,0.1-0.1,0.2-0.2c0.1,0,0.2,0,0.2,0c0,0,0.1,0,0.1,0s0,0,0,0c0,0,0-0.1,0.1-0.1
		c0.1,0,0.2,0,0.3,0c0,0,0.1,0,0.2,0c0,0,0.1-0.1,0.2-0.2c0.1-0.1,0.3-0.3,0.4-0.3v0c0-0.1,0-0.1,0.1-0.1c0,0,0.1,0,0.1,0.1
		c0,0,0,0.1,0,0.1v0c0,0,0,0.1,0,0.1c-0.1,0-0.1,0.1-0.2,0.1c-0.1,0-0.2,0.1-0.3,0.3c-0.1,0.1-0.2,0.2-0.3,0.3c-0.1,0-0.2,0-0.3,0
		c0,0-0.1,0-0.1,0s0,0,0,0c0,0,0,0.1-0.1,0.1c-0.1,0-0.1,0-0.2,0c0,0-0.1,0-0.1,0c0,0-0.1,0.1-0.1,0.1C33.5,58.9,33.4,59,33.3,59
		L33.3,59z"/>
	<path fill="#8C7D64" d="M35.7,57.6c-0.1,0-0.2,0-0.3-0.1c0-0.1,0-0.2,0-0.3c0,0,0.1,0,0.2,0c0,0,0.1,0.1,0,0.2v0c0,0,0,0,0.1,0
		c0,0,0,0,0.1,0c0-0.1,0-0.1-0.2-0.2c-0.1,0-0.2-0.1-0.2-0.3c0,0,0-0.1,0-0.1c0,0,0-0.1,0.1,0c0.1,0,0.2,0.1,0.3,0.1
		c0.1,0,0.1,0.1,0.2,0.1c0,0,0.1,0,0.2,0c0.1,0,0.1-0.1,0.3-0.1c0.2,0,0.3,0,0.3-0.2c0,0,0,0,0-0.1c0-0.2,0.1-0.3,0.4-0.3
		c0,0,0.1,0,0.1,0.1c0,0.1,0,0.1-0.1,0.1c-0.2,0-0.2,0-0.2,0.1c0,0,0,0,0,0.1c-0.1,0.3-0.2,0.3-0.5,0.4c0,0-0.1,0-0.2,0
		c-0.1,0-0.2,0.1-0.3,0c0,0,0,0.1,0,0.2c0,0.1-0.1,0.2-0.3,0.2C35.7,57.6,35.7,57.6,35.7,57.6L35.7,57.6z"/>
	<path fill="#40260D" d="M36.8,52.1c0,0,0.1,0.3,0.6,0.1c-0.2,0.3-0.4,0.7-0.4,0.9S36.8,52.6,36.8,52.1L36.8,52.1z"/>
	<path fill="#40260D" d="M37.6,52l0.7-0.9C38.3,51.1,38,52.2,37.6,52L37.6,52z"/>
	<path fill="#502E1F" d="M11,54.8c0.1,0.2,0.5,0.8,1.3,1.5c0.7,0.5,1.5,1,1.9,1.1c0.3,0,0.5-0.1,0.5-0.3c0.1-0.2,0-0.4-0.1-0.5
		c-0.1-0.1-0.6-0.3-0.6-0.3s0.4,0.2,0.5,0.3c0.1,0.1,0.1,0.3,0,0.4s-0.2,0.2-0.3,0.1c-0.3,0-1.1-0.5-1.7-0.9
		c-0.8-0.6-1.1-1.1-1.2-1.2C11.1,54.8,11.1,54.7,11,54.8C11,54.6,10.9,54.7,11,54.8L11,54.8z"/>
	<path fill="#502E1F" d="M13.9,57.3c0,0,0,0.5,0.8,0.4c0.4,0.3,2.5,1.8,4.1,2.5c0.1,0,0.3-0.1,0.3-0.1s-1.5-0.7-2.6-1.5
		c-1.1-0.8-1.7-1.1-1.7-1.1S14.1,57.7,13.9,57.3L13.9,57.3z"/>
	<path fill="#9A8B6A" d="M9.3,32.7c-0.2,0-0.4,0.7-0.4,0.9c-0.1,0.3-0.3,0.6-0.5,0.9c-0.2,0.3-0.3,0.7-0.4,1.1
		c-0.1,0.3-0.3,0.6-0.3,0.9c-0.2,0-0.3-0.3-0.4-0.4c0,0.2,0.2,0.4,0.2,0.6c0,0.3,0,0.5-0.1,0.7c-0.1,0.4-0.2,0.8-0.2,1.2
		c0,0.3,0,0.5,0,0.8c-0.1,0.5,0,1-0.2,1.4c0,0.2-0.2,0.5-0.2,0.7c0,0.1,0.1,0.4,0.2,0.5c0.1,0.2,0.2,0.3,0.4,0.3
		c0.2-0.2,0.2-0.4,0-0.5c-0.2-0.3-0.2-0.3-0.2-0.6c0-0.5,0.1-1.2,0.2-1.7c0.1-0.5,0.1-1.1,0.2-1.7c0-0.2,0.1-0.5,0.2-0.7
		c0-0.1,0.2-0.3,0.2-0.4c0-0.1,0-0.3,0-0.4c0.1-0.4,0.2-0.9,0.4-1.3c0-0.1,0.1-0.2,0.2-0.3c0-0.1,0-0.3,0.1-0.4
		c0.1-0.1,0.2-0.2,0.3-0.3c0.2-0.2,0.2-0.2,0.2-0.5C9.1,33.3,9.1,32.9,9.3,32.7L9.3,32.7z"/>
	<path fill="#502E1F" d="M9.9,50.2c0,0-0.5,1.9,0.9,3.7c-0.1-0.5-0.5-0.9-0.7-1.7C9.8,51.1,9.9,50.2,9.9,50.2L9.9,50.2L9.9,50.2z"/>
	<path fill="#502E1F" d="M10.8,29.7c0,0-0.7,0.9-2.1,3.6c0.5-0.5,0.9-1.4,1-1.5c0.1-0.1,0.5-1,0.7-1.1c0.1-0.1,0.3-0.5,0.4-0.6
		C10.8,30,10.8,29.7,10.8,29.7L10.8,29.7z"/>
	<path fill="#502E1F" d="M8.4,34.1c0,0-0.5,1.2-0.8,2.1c0.1-0.1,0.3-0.2,0.3-0.4c0-0.2,0.3-0.5,0.3-0.7s0.3-0.6,0.3-0.7
		C8.4,34.4,8.4,34.1,8.4,34.1L8.4,34.1z"/>
	<path fill="#502E1F" d="M7.2,37.3c0,0-0.3,0.9-0.4,3.2C7,40,7.1,39.9,7.1,39.4c0-0.5,0-0.6,0-1s0.1-0.4,0.2-0.6
		C7.3,37.6,7.2,37.3,7.2,37.3L7.2,37.3z"/>
	<path d="M39.8,29.3c0,0,0.2,0.6,0.8,0.6c0.3,0.4,0.6,1,0.6,1.1c0,0.2-0.5,0.3-0.4,0.5c0.1,0.2,0.3,0.3,0.4,0.4
		c0.1,0.1,0.7,0.3,0.8,0.5c0.2,0.2,0.3,0.4,0.3,0.8c0,0.3,0,0.5,0,0.7c0,0.2-0.1,0.1-0.3,0c-0.2-0.1-0.1,0-0.4-0.4
		c-0.3-0.4-1.1-0.8-1.3-1.2c-0.2-0.4,0-0.7,0-1.1c0-0.3-0.3-0.5-0.4-0.6c-0.2-0.2-0.1-0.4-0.2-0.5C39.7,29.7,39.8,29.3,39.8,29.3
		L39.8,29.3z"/>
	<path fill="#485D3F" d="M37.1,29.5c0,0.1,0,0.2,0,0.3c0,0.1-0.1,0.2-0.1,0.3c0,0.2-0.2,0.4-0.2,0.6c0,0.2,0.2,0.4,0.1,0.6
		c0,0.1-0.2,0.1-0.3,0.2c-0.1,0-0.2,0.2-0.3,0.3c0,0.1,0,0.3,0,0.4c0,0.1,0,0.2,0.1,0.3c0,0.1,0.1,0.2,0.2,0.3s0.3,0.1,0.3,0.2
		c0.1,0.1,0,0.3-0.1,0.3c-0.1,0.1-0.2,0.1-0.3,0.2c-0.3,0.2-0.1,0.5-0.1,0.7c0,0.2,0.3,0.4,0.4,0.5c0.1,0.1,0.3,0.2,0.5,0.3
		c0.2,0,0.3,0.1,0.5,0.2c0.2,0,0.4,0.1,0.6,0.2c0.2,0,0.2,0,0.3,0.2c0.3,0.2,0.4,0.5,0.6,0.7c0.2,0.1,0.4,0.3,0.6,0.5
		c0.1,0.1,0.1,0.2,0.2,0.3c0.1,0.3,0.1,0.6,0.3,0.9c0,0,0,0.1,0,0.1c0.1,0.1,0.2,0.2,0.3,0.3c0.1,0.1,0.2,0.2,0.2,0.3
		c0.1,0.4,0.3,0.7,0.5,1c0.1,0.2,0.3,0.3,0.5,0.4c0.2,0.1,0.3,0.3,0.5,0.5c0,0.1,0.1,0.2,0.3,0.2c0.3,0,0.3-0.6,0.4-0.8
		c0.1-0.4,0-1.3-0.6-1c-0.2,0.1-0.4,0.3-0.6,0.1c-0.2-0.2,0-0.7,0.1-0.9c0-0.2,0.1-0.3,0.2-0.5c0.1-0.1,0.2-0.2,0.2-0.3
		c0-0.3,0-0.5-0.3-0.4c-0.2,0-0.4,0.4-0.6,0.3c-0.2-0.1-0.2-0.4-0.2-0.5c0-0.3,0.1-0.6,0.2-0.9c0-0.3,0.2-0.5,0-0.7
		c-0.1-0.1-0.1-0.1-0.2-0.2c-0.1,0-0.2,0-0.3,0c-0.2-0.1,0-0.4,0.2-0.5c0.3-0.1,0.4-0.3,0.6-0.5c0.1-0.1,0.1-0.2,0.1-0.3
		c0-0.2-0.1-0.5,0-0.7c0-0.2,0.3-0.4,0.2-0.6c-0.1-0.3-0.4-0.2-0.6-0.2c-0.5,0-0.8,0.5-1.1,0.8c-0.2,0.1-0.5,0.2-0.6,0
		c-0.2-0.2,0-0.4,0.2-0.6C40,32,40,32,40.2,31.9c0.4-0.3,0.3-0.8,0.1-1.2c0,0,0,0-0.1-0.1c0,0,0,0,0-0.1c0-0.1,0-0.3-0.1-0.3
		c-0.1-0.2-0.4-0.4-0.5-0.1c-0.1,0.3,0,0.5-0.2,0.7c-0.1,0.1-0.4,0.5-0.5,0.1c-0.1-0.3,0.1-0.5,0-0.7c0-0.3-0.2-0.3-0.4-0.4
		c-0.1-0.1-0.3-0.1-0.3-0.2c-0.2-0.2-0.4-0.4-0.7-0.5C37.4,29.1,37.1,29.2,37.1,29.5L37.1,29.5z"/>
	<path fill="#223917" d="M40.7,34.2c0-0.4-0.3-0.4-0.4-0.2c-0.1,0.2-0.2,0.2-0.3,0.1c-0.2-0.1-0.2-0.4-0.3-0.9
		c-0.1-0.5-0.2-0.9-0.6-1c-0.4-0.1-0.9-0.8-0.9-1.1c0-0.3,0.1-1.1-0.2-1.3c-0.2-0.1-0.4-0.5-0.5-0.7c-0.1,0-0.2,0.2-0.2,0.3
		c0,0.1,0,0.2,0,0.3c0,0.1-0.1,0.2-0.1,0.3c0,0.2-0.2,0.4-0.2,0.6c0,0.2,0.2,0.4,0.1,0.6c0,0.1-0.2,0.1-0.3,0.2
		c-0.1,0-0.2,0.2-0.3,0.3c0,0.1,0,0.3,0,0.4c0,0.1,0,0.2,0.1,0.3c0,0.1,0.1,0.2,0.2,0.3c0.1,0.1,0.3,0.1,0.3,0.2
		c0.1,0.1,0,0.3-0.1,0.3c-0.1,0-0.3,0-0.3,0.1c-0.3,0.2-0.1,0.5-0.1,0.7c0,0.2,0.3,0.4,0.4,0.5c0.1,0.1,0.3,0.2,0.5,0.3
		c0.2,0.1,0.3,0.2,0.5,0.2c0.2,0,0.4,0.1,0.6,0.2c0.1,0,0.2,0,0.3,0.2c0.3,0.2,0.4,0.5,0.6,0.7c0.2,0.1,0.4,0.3,0.6,0.5
		c0.1,0.1,0.1,0.2,0.2,0.3c0,0.1,0,0.1,0,0.2l0,0c0.1-0.5-0.1-0.5-0.1-0.7c0-0.2-0.7-1.2-0.7-1.2s0-0.1-0.3-0.2s-0.4-0.2-0.4-0.2
		s0.1-0.1,0.4,0c-0.2-0.4-0.5-1.2-0.6-1.4c-0.1-0.1-0.3-0.1-0.5-0.3c-0.2-0.1-0.3-0.4-0.2-0.3s0.6,0.2,0.6,0.2s-0.1-0.2-0.1-0.4
		c0-0.3-0.2-0.8-0.2-0.8s0.2,0.3,0.3,0.6c0.1,0.3,0.2,0.5,0.2,0.5s0.1-0.4,0.3-0.5c0.2-0.1,0.3,0.1,0.1,0.2S39,33,38.9,33.3
		c0.1,0.5,1,2.1,1,2.1s0.1-0.4,0.2-0.8c0.1-0.5,0.2-0.1,0.2,0.1c0,0.3-0.3,1-0.3,1s0.3,0.8,0.3,0.5c0-0.3,0.2-0.8,0.3-1
		C40.6,34.9,40.6,34.6,40.7,34.2L40.7,34.2z"/>
	<path fill="#240A00" d="M40.9,51.6c0,0,0.2-0.5-0.3-1.1c0.3-0.4,0.4-0.5,0.5-0.6c0.2-0.1,0.4-0.2,0.4-0.8c0-0.6,0.4-0.8,0.6-0.2
		s0,0.9-0.2,1.4C41.8,50.7,41.2,51.3,40.9,51.6L40.9,51.6z"/>
	<path fill="#586C4A" d="M42.8,45c-0.3,0-0.7,0-0.9,0.1c-0.3,0.3-0.1,0.5,0.1,0.8c0.1,0.2,0.1,0.3,0.1,0.5c0,0.2-0.1,0.3-0.1,0.5
		c-0.1,0.2-0.1,0.3-0.3,0.4c-0.1,0.1-0.1,0.3-0.2,0.4c0,0.1-0.1,0.3,0,0.5c0.1,0.2,0.3,0.3,0.4,0.5c0.2,0.2,0.5,0.5,0.2,0.8
		c-0.2,0.1-0.3,0-0.4,0.2c-0.1,0.1-0.1,0.3,0,0.5c0,0.2,0.1,0.4,0,0.5s-0.3,0.1-0.4,0.3c-0.1,0.3,0,0.3,0.1,0.5
		c0.1,0.2,0,0.4-0.1,0.6c-0.1,0.2-0.1,0.4-0.2,0.6c-0.1,0.3-0.2,0.5-0.4,0.8c-0.1,0.1-0.1,0.3-0.3,0.2c-0.1,0-0.2-0.2-0.3-0.2
		c-0.3-0.1-0.5,0.2-0.5,0.5c0.3,0.1,0.6,0.3,0.9,0c0.1-0.1,0.2-0.2,0.4-0.3c0.2,0,0.3,0,0.5,0c0.2,0,0.3-0.2,0.5-0.3
		c0.3-0.2,0.5-0.2,0.7-0.3c0.2,0,0.5-0.1,0.6-0.3c0-0.1,0-0.3,0-0.5c-0.1-0.1-0.3-0.2-0.3-0.4c0-0.2,0.2-0.3,0.3-0.3
		c0.2-0.1,0.3-0.3,0.5-0.4c0.3-0.2,0.5-0.2,0.6-0.5c0.1-0.2,0.2-0.3,0.3-0.5c0.1-0.2,0.3-0.4,0.2-0.7c-0.2-0.1-0.3,0-0.5,0
		c0-0.2,0.1-0.3,0.2-0.4c0.3-0.3,0.4-0.6,0.7-0.9c0.1-0.2,0.2-0.4,0.3-0.6c0.1-0.3,0.3-0.5,0.4-0.8c0.2-0.4,0.3-1.3-0.3-1.3
		c-0.2,0,0-1.7-0.7-1.7c-0.3,0-0.5,0.2-0.7,0.3c-0.3,0.2-0.3,0.5-0.5,0.7C43.4,45.1,43,45.1,42.8,45L42.8,45z"/>
	<path fill="#405C40" d="M43.5,49.4c0,0,0.4-1.7-0.6-3c-1.1-1.2-0.8-1.1-0.5-1.1c0.3-0.1,0.3-0.4,1.1,0.1c0.7,0.5,0.6,0.7,0.6,0.8
		c0,0.1,0.1-0.3,0.3-0.3c0.2,0,0.3-0.3,0-0.6c-0.2-0.3-0.2-0.4,0-0.2s0.2,0.4,0.2,0.2c0.1-0.3,0.2-0.5,0.2-0.7c0-0.2,0.1,0.2,0,0.5
		c0,0.3,0,0.5,0.2,0.2c0.1-0.3,0.1-0.8,0.1-0.3c0,0.5,0,0.7,0.3,0.6c0.3,0,0.4,0,0.5,0.4c0.1,0.4-0.3,1.3-0.5,1.7
		c-0.2,0.4-0.4,0.8-0.7,1.1c-0.2,0.3-0.3,0.5-0.5,0.7C44,49.6,43.4,50.2,43.5,49.4L43.5,49.4z"/>
	<path fill="#405C40" d="M42.2,48c0,0,1.1,0.5,0.7,2.7c-0.4,2.2,0.1,0.8,0.3,0C43.2,50,43.3,48.4,42.2,48L42.2,48z"/>
	<path fill="#182A19" d="M44.3,49.5c0-0.2,0.1-0.3,0.2-0.4c0.1,0,0.1-0.1,0.2-0.2c0-0.1,0-0.3,0.3-1c0,0-0.5,0.7-0.8,0.5
		c0-0.3,0.3-1.3,0.3-1.4c0-0.2-0.2,0.3-0.4,0.6c-0.2,0.3,0,0.4-0.2,0.9s-0.3,0.4-0.4,0.6c0,0.3,0,0.8-0.3,1
		c-0.2,0.3-0.4,0.6-0.5,0.7c-0.2,0.1-0.2,0.6-0.3,0.9c-0.1,0.3-0.3,0.7-0.4,0.8c-0.1,0.2-0.2,0.6-0.4,0.7c-0.2,0-0.4,0.1-0.6,0.3
		c-0.2,0.2-0.3,0.1-0.5,0.4c0.1-0.1,0.2-0.2,0.3-0.3c0.2,0,0.3,0,0.5,0c0.2,0,0.3-0.2,0.5-0.3c0.3-0.2,0.5-0.2,0.7-0.3
		c0.2,0,0.5-0.1,0.6-0.3c0-0.1,0-0.3,0-0.5c-0.1-0.1-0.3-0.2-0.3-0.4c0-0.2,0.2-0.3,0.3-0.3c0.2-0.1,0.3-0.3,0.5-0.4
		c0.3-0.2,0.5-0.2,0.6-0.5c0.1-0.2,0.2-0.3,0.3-0.5c0.1-0.2,0.3-0.4,0.2-0.7C44.6,49.5,44.4,49.5,44.3,49.5L44.3,49.5z"/>
	<path fill="#5A4B40" d="M39.9,52.7c0.1,0,0.1-0.1,0.1-0.2c0-0.1,0-0.3,0-0.4C40,52.1,40,52,40,52c0-0.1,0-0.2,0.1-0.1
		c0,0.1,0,0.2,0.1,0.2c0,0,0,0,0.1,0.1c0.1,0.1,0.2,0.1,0.3,0.2c0.1,0.1-0.1,0.4-0.2,0.4c-0.1,0.1-0.2,0.4-0.4,0.6c0,0,0,0-0.1,0
		c-0.1,0-0.3,0.3-0.4,0.2c-0.1-0.1,0-0.2,0-0.3c0-0.1,0-0.3,0.1-0.4c0.1,0,0.1-0.1,0.2-0.1L39.9,52.7L39.9,52.7z"/>
	<path fill="#5A4B40" d="M39.5,53.5c0,0.1-0.1,0.2-0.1,0.3c0,0.1,0,0.2,0,0.2c0,0-0.1,0.2-0.1,0.2s-0.1,0.2-0.4,0.4
		c-0.3,0.3-0.3,0.3-0.4,0.5s-0.3,0.3-0.3,0.3c-0.1,0-0.2,0-0.3-0.1c0,0-0.1-0.1,0.1-0.3c0.3-0.2,0.4-0.3,0.5-0.5
		c0.2-0.2,0.4-0.4,0.5-0.5c0.1-0.1,0.2-0.2,0.2-0.3c0-0.1,0-0.3,0.1-0.4C39.5,53.3,39.6,53.3,39.5,53.5L39.5,53.5z"/>
	<path fill="#502E1F" d="M14.4,56.2c0,0,0.4,0,0.8,0.4C15.5,56.9,14.7,56.5,14.4,56.2L14.4,56.2z"/>
	<path fill="#766355" d="M12.3,52.9c0,0.1,0.1,0.3,0.2,0.4c0.1,0.3,0.3,0.5,0.4,0.7c0,0.1,0.1,0.3,0.2,0.4c0,0.2,0.1,0.3,0.2,0.5
		c0,0.2,0.2,0.4,0.3,0.6c0.1,0.2,0,0.4,0.3,0.5c0.1,0,0.3,0.2,0.4,0.1c0.2-0.1,0-0.3,0-0.4c-0.1-0.1-0.2-0.2-0.2-0.4
		c-0.1-0.2-0.2-0.4-0.3-0.5c-0.1-0.2-0.2-0.4-0.3-0.6c-0.1-0.2-0.2-0.4-0.3-0.6c-0.1-0.2-0.2-0.4-0.3-0.6c0-0.1-0.2-0.3-0.2-0.4
		c0-0.1,0-0.3-0.2-0.3c-0.1,0-0.1,0.2-0.1,0.2C12.3,52.6,12.3,52.7,12.3,52.9L12.3,52.9z"/>
	<path fill="#240A00" d="M11.6,28.7c0,0,0.8-1.2,1.9-2.3c0.4-0.3,0.3-0.3,0.2-0.1c-0.1,0.1-0.7,1-0.8,1.2s0-0.3-0.3,0.1
		c-0.3,0.4-0.3,0.2-0.4,0.4C12,28.3,12,28.6,11.6,28.7L11.6,28.7z"/>
	<path d="M4.1,81.6c0-1.7,0-2,0-2.3c0-0.4-0.1-0.5-0.5-0.6c-0.1,0-0.3,0-0.4,0c-0.1,0-0.2,0-0.2-0.1c0-0.1,0.1-0.1,0.3-0.1
		c0.6,0,1.3,0,1.6,0c0.5,0,1.1,0,1.6,0c1.4,0,1.9,0.5,2,0.6C8.7,79.2,9,79.8,9,80.3C9,81.9,7.8,83,6.3,83c0,0-0.2,0-0.2,0
		S6,83,6,82.9c0-0.1,0.1-0.1,0.3-0.1c0.6,0,1.5-0.7,1.5-1.8c0-0.4,0-1.1-0.6-1.6C6.7,79,6.2,78.9,6,78.9c-0.2,0-0.3,0-0.4,0
		c0,0-0.1,0.1-0.1,0.2v4.4c0,1,0,1.9,0,2.4c0,0.3,0.1,0.5,0.4,0.6c0.2,0,0.4,0,0.5,0c0.1,0,0.2,0,0.2,0.1c0,0.1-0.1,0.1-0.2,0.1
		c-0.7,0-1.4,0-1.7,0c-0.3,0-0.9,0-1.4,0c-0.1,0-0.2,0-0.2-0.1c0,0,0-0.1,0.2-0.1c0.2,0,0.3,0,0.4,0c0.2,0,0.3-0.3,0.3-0.6
		c0-0.5,0-1.3,0-2.3V81.6L4.1,81.6z"/>
	<path d="M11.2,81.6c0-1.7,0-2,0-2.3c0-0.4-0.1-0.5-0.5-0.6c-0.1,0-0.3,0-0.4,0c-0.1,0-0.2,0-0.2-0.1c0-0.1,0.1-0.1,0.3-0.1
		c0.6,0,1.3,0,1.5,0c0.4,0,1.2,0,1.5,0c0.7,0,1.4,0.1,2,0.5c0.3,0.2,0.8,0.8,0.8,1.5c0,0.8-0.3,1.6-1.4,2.4c1,1.2,1.7,2.2,2.4,2.9
		c0.6,0.6,1.1,0.7,1.2,0.8c0.1,0,0.2,0,0.3,0c0.1,0,0.1,0,0.1,0.1c0,0.1-0.1,0.1-0.2,0.1h-1c-0.6,0-0.9,0-1.2-0.2
		c-0.5-0.3-0.9-0.8-1.5-1.6c-0.4-0.6-0.9-1.4-1.1-1.5c0-0.1-0.1-0.1-0.2-0.1l-0.9,0c0,0-0.1,0-0.1,0.1v0.2c0,1,0,1.9,0,2.4
		c0,0.3,0.1,0.5,0.4,0.6c0.2,0,0.4,0,0.5,0c0.1,0,0.1,0,0.1,0.1c0,0.1-0.1,0.1-0.2,0.1c-0.6,0-1.4,0-1.6,0c-0.2,0-0.9,0-1.3,0
		c-0.1,0-0.2,0-0.2-0.1c0,0,0-0.1,0.2-0.1c0.2,0,0.3,0,0.4,0c0.2,0,0.3-0.3,0.3-0.6c0-0.5,0-1.3,0-2.3L11.2,81.6L11.2,81.6z
		 M12.5,82.5c0,0.1,0,0.2,0.1,0.2c0.2,0.1,0.5,0.1,0.8,0.1c0.4,0,0.6,0,0.8-0.2c0.3-0.3,0.6-0.8,0.6-1.6c0-1.6-1-2-1.6-2
		c-0.3,0-0.5,0-0.6,0c-0.1,0-0.1,0.1-0.1,0.2L12.5,82.5L12.5,82.5z"/>
	<path d="M18.2,82.5c0-1.9,1.2-4.3,4.5-4.3c2.7,0,4.4,1.6,4.4,4.1c0,2.5-1.7,4.5-4.5,4.5C19.5,86.8,18.2,84.5,18.2,82.5L18.2,82.5z
		 M25.6,82.8c0-2.4-1.4-4-3.2-4c-1.3,0-2.7,0.7-2.7,3.4c0,2.3,1.3,4.1,3.3,4.1C23.8,86.3,25.6,85.9,25.6,82.8L25.6,82.8z"/>
	<path d="M30.7,79l-1.6,0c-0.6,0-0.9,0.1-1.1,0.3c-0.1,0.2-0.2,0.3-0.2,0.4c0,0.1,0,0.1-0.1,0.1c-0.1,0-0.1,0-0.1-0.2
		c0-0.2,0.2-1.2,0.2-1.3c0-0.1,0.1-0.2,0.1-0.2c0.1,0,0.2,0.1,0.5,0.1c0.3,0,0.7,0,1.1,0h4.3c0.3,0,0.6,0,0.8,0c0.2,0,0.3,0,0.3,0
		c0.1,0,0.1,0.1,0.1,0.2c0,0.2,0,1,0,1.3c0,0.1,0,0.2-0.1,0.2c-0.1,0-0.1,0-0.1-0.2v-0.1c0-0.3-0.3-0.6-1.3-0.6l-1.4,0v4.5
		c0,1,0,1.9,0,2.4c0,0.3,0.1,0.5,0.4,0.6c0.2,0,0.4,0,0.5,0c0.1,0,0.2,0,0.2,0.1c0,0.1-0.1,0.1-0.2,0.1c-0.7,0-1.4,0-1.7,0
		c-0.3,0-0.9,0-1.4,0c-0.1,0-0.2,0-0.2-0.1c0,0,0-0.1,0.2-0.1c0.2,0,0.3,0,0.4,0c0.2,0,0.3-0.3,0.3-0.6c0-0.5,0-1.3,0-2.3L30.7,79
		L30.7,79z"/>
	<path d="M37,81.6c0-1.7,0-2,0-2.3c0-0.4-0.1-0.5-0.5-0.6c-0.1,0-0.3,0-0.4,0c-0.1,0-0.2,0-0.2-0.1s0.1-0.1,0.3-0.1
		c0.3,0,0.6,0,0.9,0c0.3,0,0.5,0,0.7,0c0.3,0,2.5,0,2.7,0c0.2,0,0.4,0,0.5-0.1c0,0,0.1,0,0.2,0c0,0,0.1,0,0.1,0.1
		c0,0.1,0,0.2-0.1,0.7c0,0.1,0,0.6,0,0.7c0,0,0,0.1-0.1,0.1s-0.1,0-0.1-0.2c0-0.1,0-0.3-0.1-0.4c-0.1-0.2-0.2-0.3-0.7-0.4
		c-0.2,0-1.3,0-1.6,0c0,0-0.1,0-0.1,0.1v2.8c0,0.1,0,0.1,0.1,0.1c0.3,0,1.5,0,1.7,0c0.3,0,0.4,0,0.5-0.2c0.1-0.1,0.1-0.1,0.2-0.1
		c0,0,0.1,0,0.1,0.1c0,0.1,0,0.3-0.1,0.8c0,0.2,0,0.7,0,0.7c0,0.1,0,0.2-0.1,0.2s-0.1,0-0.1-0.1c0-0.1,0-0.3,0-0.4
		c0-0.2-0.2-0.4-0.6-0.4c-0.2,0-1.3,0-1.6,0c0,0-0.1,0-0.1,0.1v0.9c0,0.4,0,1.4,0,1.7c0,0.8,0.2,0.9,1.3,0.9c0.3,0,0.8,0,1-0.1
		c0.3-0.1,0.4-0.4,0.5-0.8c0-0.1,0-0.2,0.1-0.2s0.1,0.1,0.1,0.2c0,0.3-0.1,1-0.1,1.2c-0.1,0.3-0.2,0.3-0.6,0.3c-0.8,0-1.4,0-1.9,0
		c-0.5,0-0.8,0-1.1,0c-0.1,0-0.4,0-0.6,0c-0.3,0-0.5,0-0.8,0c-0.1,0-0.2,0-0.2-0.1c0,0,0-0.1,0.2-0.1c0.2,0,0.3,0,0.4,0
		c0.2,0,0.3-0.3,0.3-0.6c0-0.5,0-1.3,0-2.3L37,81.6L37,81.6z"/>
	<path d="M47.2,86c1.1,0,1.5-0.3,1.7-0.6c0.1-0.2,0.2-0.4,0.2-0.5c0-0.1,0-0.2,0.1-0.2s0.1,0.1,0.1,0.3c0,0.3-0.1,1.1-0.2,1.4
		c0,0.2-0.1,0.3-0.3,0.3c-1.8,0-3.6,0-5.8,0c-0.1,0-0.2,0-0.2-0.1s0-0.1,0.2-0.3c1.5-2.4,3.2-4.9,4.6-7.2h-2.2c-0.5,0-1.2,0-1.6,0.2
		c-0.4,0.2-0.5,0.6-0.6,0.8c0,0.2-0.1,0.2-0.1,0.2c-0.1,0-0.1,0-0.1-0.2c0-0.3,0.2-1.3,0.2-1.6c0-0.2,0.1-0.2,0.1-0.2
		c0.1,0,0.2,0.1,0.4,0.1c1.1,0,1.6,0,2,0h3.3c0.1,0,0.2,0,0.2,0.1c0,0.1,0,0.1-0.1,0.2c-1.5,2.4-3.2,5-4.7,7.3L47.2,86L47.2,86z"/>
	<path d="M51.6,81.6c0-1.7,0-2,0-2.3c0-0.4-0.1-0.5-0.4-0.6c-0.1,0-0.3,0-0.4,0c-0.1,0-0.2,0-0.2-0.1s0.1-0.1,0.3-0.1
		c0.4,0,1.1,0,1.4,0c0.3,0,0.9,0,1.3,0c0.1,0,0.2,0,0.2,0.1c0,0.1-0.1,0.1-0.2,0.1c-0.1,0-0.2,0-0.3,0c-0.3,0-0.4,0.3-0.4,0.6
		c0,0.3,0,0.7,0,2.3v1.9c0,1.1,0,1.9,0,2.4c0,0.3,0.1,0.5,0.4,0.5c0.2,0,0.4,0,0.5,0c0.1,0,0.2,0,0.2,0.1c0,0.1-0.1,0.1-0.2,0.1
		c-0.7,0-1.4,0-1.7,0c-0.3,0-0.9,0-1.4,0c-0.1,0-0.2,0-0.2-0.1c0,0,0-0.1,0.2-0.1c0.2,0,0.3,0,0.4,0c0.2,0,0.3-0.2,0.3-0.5
		c0-0.5,0-1.3,0-2.4v-2H51.6z"/>
	<path d="M55.2,82.5c0-1.9,1.2-4.3,4.5-4.3c2.7,0,4.4,1.6,4.4,4.1c0,2.5-1.7,4.5-4.5,4.5C56.5,86.8,55.2,84.5,55.2,82.5L55.2,82.5z
		 M62.6,82.8c0-2.4-1.4-4-3.2-4c-1.3,0-2.7,0.7-2.7,3.4c0,2.3,1.3,4.1,3.3,4.1C60.8,86.3,62.6,85.9,62.6,82.8L62.6,82.8z"/>
	<path d="M67,85.2c0,0.8,0.2,1.1,0.4,1.2c0.2,0.1,0.4,0.1,0.5,0.1c0.1,0,0.2,0,0.2,0.1c0,0.1-0.1,0.1-0.3,0.1c-0.7,0-1.1,0-1.4,0
		c-0.1,0-0.6,0-1.2,0c-0.1,0-0.3,0-0.3-0.1c0-0.1,0.1-0.1,0.2-0.1c0.1,0,0.3,0,0.5,0C66,86.4,66,86,66,85.1l0.1-6.5
		c0-0.2,0-0.4,0.1-0.4c0.1,0,0.2,0.1,0.4,0.3c0.1,0.1,1.8,1.9,3.4,3.5c0.7,0.8,2.2,2.3,2.4,2.5h0l-0.1-4.9c0-0.7-0.1-0.9-0.4-1
		c-0.2-0.1-0.4-0.1-0.6-0.1c-0.1,0-0.2,0-0.2-0.1c0-0.1,0.1-0.1,0.3-0.1c0.5,0,1.1,0,1.3,0c0.1,0,0.5,0,1.1,0c0.1,0,0.3,0,0.3,0.1
		c0,0.1-0.1,0.1-0.2,0.1c-0.1,0-0.2,0-0.3,0c-0.3,0.1-0.4,0.3-0.4,0.9l-0.1,6.9c0,0.3,0,0.3-0.1,0.3c-0.1,0-0.3-0.1-0.4-0.3
		c-0.7-0.7-2.1-2.1-3.2-3.2c-1.2-1.2-2.4-2.6-2.6-2.8h0L67,85.2L67,85.2z"/>
	<path d="M76.7,81.6c0-1.7,0-2,0-2.3c0-0.4-0.1-0.5-0.5-0.6c-0.1,0-0.3,0-0.4,0c-0.1,0-0.2,0-0.2-0.1c0-0.1,0.1-0.1,0.3-0.1
		c0.3,0,0.6,0,0.9,0s0.5,0,0.7,0c0.3,0,2.5,0,2.7,0c0.2,0,0.4,0,0.5-0.1c0,0,0.1,0,0.2,0c0,0,0.1,0,0.1,0.1c0,0.1,0,0.2-0.1,0.7
		c0,0.1,0,0.6,0,0.7c0,0,0,0.1-0.1,0.1c-0.1,0-0.1,0-0.1-0.2c0-0.1,0-0.3-0.1-0.4c-0.1-0.2-0.2-0.3-0.7-0.4c-0.2,0-1.3,0-1.6,0
		c0,0-0.1,0-0.1,0.1v2.8c0,0.1,0,0.1,0.1,0.1c0.3,0,1.5,0,1.7,0s0.4,0,0.5-0.2c0.1-0.1,0.1-0.1,0.2-0.1s0.1,0,0.1,0.1
		c0,0.1,0,0.3-0.1,0.8c0,0.2,0,0.7,0,0.7c0,0.1,0,0.2-0.1,0.2c-0.1,0-0.1,0-0.1-0.1c0-0.1,0-0.3,0-0.4c0-0.2-0.2-0.4-0.6-0.4
		c-0.2,0-1.3,0-1.6,0c0,0-0.1,0-0.1,0.1v0.9c0,0.4,0,1.4,0,1.7c0,0.8,0.2,0.9,1.3,0.9c0.3,0,0.8,0,1-0.1c0.3-0.1,0.4-0.4,0.5-0.8
		c0-0.1,0-0.2,0.1-0.2s0.1,0.1,0.1,0.2c0,0.3-0.1,1-0.1,1.2c-0.1,0.3-0.2,0.3-0.6,0.3c-0.8,0-1.4,0-1.9,0c-0.5,0-0.8,0-1.1,0
		c-0.1,0-0.4,0-0.6,0c-0.3,0-0.5,0-0.8,0c-0.1,0-0.2,0-0.2-0.1c0,0,0-0.1,0.2-0.1c0.2,0,0.3,0,0.4,0c0.2,0,0.3-0.3,0.3-0.6
		c0-0.5,0-1.3,0-2.3L76.7,81.6L76.7,81.6z"/>
	<path d="M87,85.7c-1.1-0.9-1.4-2.2-1.4-3.2c0-0.8,0.2-2,1.3-3c0.8-0.7,1.8-1.2,3.4-1.2c0.7,0,1.1,0,1.6,0.1c0.4,0,0.8,0.2,1.1,0.2
		c0.1,0,0.2,0.1,0.2,0.1c0,0.1,0,0.2,0,0.6c0,0.4,0,1,0,1.2c0,0.2,0,0.3-0.1,0.3c-0.1,0-0.1-0.1-0.1-0.3c0-0.3-0.2-0.7-0.4-1
		c-0.4-0.4-1.2-0.7-2.2-0.7c-0.9,0-1.6,0.3-2,0.7c-0.8,0.7-1,1.8-1,2.8c0,2.6,2,3.9,3.4,3.9c1,0,1.6-0.1,2-0.6
		c0.2-0.2,0.3-0.5,0.4-0.7c0-0.2,0-0.2,0.1-0.2c0.1,0,0.1,0.1,0.1,0.2c0,0.1-0.1,1.1-0.3,1.5c0,0.2-0.1,0.3-0.3,0.3
		c-0.4,0.2-1.3,0.3-1.9,0.3C89.2,86.8,88,86.5,87,85.7L87,85.7z"/>
	<path d="M95.5,81.6c0-1.7,0-2,0-2.3c0-0.4-0.1-0.5-0.4-0.6c-0.1,0-0.3,0-0.4,0c-0.1,0-0.2,0-0.2-0.1c0-0.1,0.1-0.1,0.3-0.1
		c0.4,0,1.1,0,1.4,0c0.3,0,0.9,0,1.3,0c0.1,0,0.2,0,0.2,0.1c0,0.1-0.1,0.1-0.2,0.1c-0.1,0-0.2,0-0.3,0c-0.3,0-0.4,0.3-0.4,0.6
		c0,0.3,0,0.7,0,2.3v1.9c0,1.1,0,1.9,0,2.4c0,0.3,0.1,0.5,0.4,0.5c0.2,0,0.4,0,0.5,0c0.1,0,0.2,0,0.2,0.1c0,0.1-0.1,0.1-0.2,0.1
		c-0.7,0-1.4,0-1.7,0c-0.3,0-0.9,0-1.4,0c-0.1,0-0.2,0-0.2-0.1c0,0,0-0.1,0.2-0.1c0.2,0,0.3,0,0.4,0c0.2,0,0.3-0.2,0.3-0.5
		c0-0.5,0-1.3,0-2.4L95.5,81.6L95.5,81.6z"/>
	<path d="M99.4,79.5c-0.3-0.6-0.4-0.7-0.8-0.8c-0.2,0-0.3,0-0.4,0s-0.1,0-0.1-0.1c0-0.1,0.1-0.1,0.3-0.1c0.6,0,1.2,0,1.6,0
		c0.3,0,0.8,0,1.4,0c0.1,0,0.3,0,0.3,0.1c0,0.1-0.1,0.1-0.2,0.1c-0.2,0-0.3,0-0.4,0.1c-0.1,0-0.1,0.1-0.1,0.2c0,0.1,0.1,0.5,0.3,0.8
		l1.9,5h0c0.5-1.2,1.9-4.7,2.2-5.4c0-0.1,0.1-0.3,0.1-0.4c0-0.1,0-0.2-0.1-0.2c-0.1,0-0.3,0-0.4,0c-0.1,0-0.2,0-0.2-0.1
		c0-0.1,0.1-0.1,0.3-0.1c0.5,0,1,0,1.1,0c0.2,0,0.7,0,1,0c0.1,0,0.2,0,0.2,0.1c0,0.1-0.1,0.1-0.2,0.1c-0.1,0-0.3,0-0.5,0.1
		c-0.1,0.1-0.3,0.3-0.6,1c-0.4,1-0.7,1.6-1.3,3c-0.7,1.6-1.2,2.8-1.4,3.3c-0.3,0.6-0.3,0.8-0.5,0.8c-0.1,0-0.2-0.2-0.4-0.7
		L99.4,79.5L99.4,79.5z"/>
	<path d="M108.3,81.6c0-1.7,0-2,0-2.3c0-0.4-0.1-0.5-0.4-0.6c-0.1,0-0.3,0-0.4,0c-0.1,0-0.2,0-0.2-0.1c0-0.1,0.1-0.1,0.3-0.1
		c0.4,0,1.1,0,1.4,0c0.3,0,0.9,0,1.3,0c0.1,0,0.2,0,0.2,0.1c0,0.1-0.1,0.1-0.2,0.1c-0.1,0-0.2,0-0.3,0c-0.3,0-0.4,0.3-0.4,0.6
		c0,0.3,0,0.7,0,2.3v1.9c0,1.1,0,1.9,0,2.4c0,0.3,0.1,0.5,0.4,0.5c0.2,0,0.4,0,0.5,0c0.1,0,0.2,0,0.2,0.1c0,0.1-0.1,0.1-0.2,0.1
		c-0.7,0-1.4,0-1.7,0c-0.3,0-0.9,0-1.4,0c-0.1,0-0.2,0-0.2-0.1c0,0,0-0.1,0.2-0.1c0.2,0,0.3,0,0.4,0c0.2,0,0.3-0.2,0.3-0.5
		c0-0.5,0-1.3,0-2.4L108.3,81.6L108.3,81.6z"/>
	<path d="M114.6,83.5c0,1.4,0,2.2,0.2,2.4c0.2,0.2,0.5,0.3,1.3,0.3c0.6,0,1,0,1.3-0.3c0.1-0.1,0.3-0.5,0.3-0.7c0-0.1,0-0.2,0.1-0.2
		c0.1,0,0.1,0,0.1,0.2s-0.1,0.9-0.2,1.3c-0.1,0.3-0.1,0.3-0.7,0.3c-0.8,0-1.4,0-1.9,0c-0.5,0-0.9,0-1.3,0c-0.1,0-0.3,0-0.6,0
		c-0.3,0-0.5,0-0.8,0c-0.1,0-0.2,0-0.2-0.1c0,0,0-0.1,0.2-0.1c0.2,0,0.3,0,0.4,0c0.2,0,0.3-0.3,0.3-0.6c0-0.5,0-1.3,0-2.3v-1.9
		c0-1.7,0-2,0-2.3c0-0.4-0.1-0.5-0.5-0.6c-0.1,0-0.2,0-0.4,0c-0.1,0-0.2,0-0.2-0.1c0-0.1,0.1-0.1,0.3-0.1c0.5,0,1.2,0,1.5,0
		c0.3,0,1.1,0,1.5,0c0.2,0,0.2,0,0.2,0.1c0,0.1-0.1,0.1-0.2,0.1s-0.3,0-0.4,0c-0.3,0-0.4,0.3-0.4,0.6c0,0.3,0,0.7,0,2.3v1.9H114.6z"
		/>
	<path d="M119.8,81.6c0-1.7,0-2,0-2.3c0-0.4-0.1-0.5-0.5-0.6c-0.1,0-0.3,0-0.4,0c-0.1,0-0.2,0-0.2-0.1c0-0.1,0.1-0.1,0.3-0.1
		c0.3,0,0.6,0,0.9,0c0.3,0,0.5,0,0.7,0c0.3,0,2.5,0,2.7,0c0.2,0,0.4,0,0.5-0.1c0,0,0.1,0,0.2,0c0,0,0.1,0,0.1,0.1
		c0,0.1,0,0.2-0.1,0.7c0,0.1,0,0.6,0,0.7c0,0,0,0.1-0.1,0.1c-0.1,0-0.1,0-0.1-0.2c0-0.1,0-0.3-0.1-0.4c-0.1-0.2-0.2-0.3-0.7-0.4
		c-0.2,0-1.3,0-1.6,0c0,0-0.1,0-0.1,0.1v2.8c0,0.1,0,0.1,0.1,0.1c0.3,0,1.5,0,1.7,0c0.3,0,0.4,0,0.5-0.2c0.1-0.1,0.1-0.1,0.2-0.1
		s0.1,0,0.1,0.1c0,0.1,0,0.3-0.1,0.8c0,0.2,0,0.7,0,0.7c0,0.1,0,0.2-0.1,0.2c-0.1,0-0.1,0-0.1-0.1c0-0.1,0-0.3,0-0.4
		c0-0.2-0.2-0.4-0.6-0.4c-0.2,0-1.3,0-1.6,0c0,0-0.1,0-0.1,0.1v0.9c0,0.4,0,1.4,0,1.7c0,0.8,0.2,0.9,1.3,0.9c0.3,0,0.8,0,1-0.1
		c0.3-0.1,0.4-0.4,0.5-0.8c0-0.1,0-0.2,0.1-0.2c0.1,0,0.1,0.1,0.1,0.2c0,0.3-0.1,1-0.1,1.2c-0.1,0.3-0.2,0.3-0.6,0.3
		c-0.8,0-1.4,0-1.9,0s-0.8,0-1.1,0c-0.1,0-0.3,0-0.6,0c-0.3,0-0.5,0-0.8,0c-0.1,0-0.2,0-0.2-0.1c0,0,0-0.1,0.2-0.1
		c0.2,0,0.3,0,0.4,0c0.2,0,0.3-0.3,0.3-0.6c0-0.5,0-1.3,0-2.3L119.8,81.6L119.8,81.6z"/>
</g>
</svg>
