<?xml version="1.0" encoding="utf-8"?>
<!-- Generator: Adobe Illustrator 18.1.1, SVG Export Plug-In . SVG Version: 6.00 Build 0)  -->
<!DOCTYPE svg PUBLIC "-//W3C//DTD SVG 1.1//EN" "http://www.w3.org/Graphics/SVG/1.1/DTD/svg11.dtd">
<svg version="1.1" id="Layer_1" xmlns="http://www.w3.org/2000/svg" xmlns:xlink="http://www.w3.org/1999/xlink" x="0px" y="0px"
	 viewBox="0 0 128 128" enable-background="new 0 0 128 128" xml:space="preserve">
<path fill="#F15A29" d="M102.3,33.9c15.2,14.1,14.6,39.4-1.4,56.6c-15.9,17.2-41.2,19.7-56.4,5.6C29.3,82.1,5.1,34.5,21,17.3
	C37,0.1,87.1,19.8,102.3,33.9z"/>
<path fill="#99BA3C" d="M73.4,121.9c-10.8,0-21.4-4.3-29.8-12c-16.9-15.7-19.2-40.9-5-56.2C49.4,42,80,24.5,101.6,24.5
	c6.7,0,12,1.7,15.6,5.1c10.1,9.4,6.3,29.6,3.1,40.8c-4.5,15.6-12.8,32.1-20.2,40.2C93.3,117.9,83.8,121.9,73.4,121.9z M101.6,25.5
	c-21.3,0-51.6,17.3-62.2,28.8c-13.8,14.9-11.6,39.5,4.9,54.8c8.2,7.6,18.5,11.7,29.1,11.7c10.2,0,19.4-3.9,26-11
	c7.4-7.9,15.6-24.3,20-39.8c3.1-11,6.9-30.7-2.8-39.8C113,27.1,108,25.5,101.6,25.5z"/>
<path fill="#49A8A8" d="M44.6,115.3c-10.5,0-20.9-4.2-29.1-11.8c-7.9-7.3-12.9-17-13.9-27.1c-1.1-10.2,2-19.6,8.5-26.7
	c9.9-10.7,38.4-26.8,58.9-26.8c6.7,0,12,1.7,15.7,5.2c9.9,9.2,6.5,28.3,3.6,39c-4,14.7-11.7,30.3-18.7,37.8
	C63.3,111.6,54.4,115.3,44.6,115.3z M68.9,24.9c-19.9,0-47.8,15.7-57.4,26.1c-6.1,6.6-8.9,15.5-7.9,25.1c1,9.6,5.7,18.8,13.3,25.8
	c7.9,7.3,17.7,11.3,27.8,11.3c9.2,0,17.6-3.5,23.4-9.8c6.8-7.3,14.3-22.5,18.2-37c2.8-10.2,6.1-28.5-3-37
	C79.9,26.5,75.1,24.9,68.9,24.9z"/>
</svg>
