<?xml version="1.0" encoding="utf-8"?>
<!-- Generator: Adobe Illustrator 18.1.1, SVG Export Plug-In . SVG Version: 6.00 Build 0)  -->
<!DOCTYPE svg PUBLIC "-//W3C//DTD SVG 1.1//EN" "http://www.w3.org/Graphics/SVG/1.1/DTD/svg11.dtd">
<svg version="1.1" id="Layer_1" xmlns="http://www.w3.org/2000/svg" xmlns:xlink="http://www.w3.org/1999/xlink" x="0px" y="0px"
	 viewBox="7 -6.7 141.7 141.7" enable-background="new 7 -6.7 141.7 141.7" xml:space="preserve">
<g>
	<path fill="#231F20" d="M92.1,80.7c-0.8,0-1.6-0.3-2.2-0.9l-6.6-6.6l0.5-0.3c1.4-1,2.5-2.1,3.5-3.5l0.3-0.5l6.6,6.6
		c1.2,1.2,1.2,3.1,0,4.3C93.7,80.3,93,80.7,92.1,80.7z M84.9,73.3l5.8,5.8c0.8,0.8,2.1,0.8,2.9,0c0.8-0.8,0.8-2.1,0-2.9l-5.8-5.8
		C87,71.4,86,72.4,84.9,73.3z"/>
	<path fill="#231F20" d="M75.2,74.5c-7.6,0-13.8-6.2-13.8-13.8s6.2-13.8,13.8-13.8c7.6,0,13.8,6.2,13.8,13.8S82.9,74.5,75.2,74.5z
		 M75.2,47.9c-7.1,0-12.8,5.8-12.8,12.8s5.8,12.8,12.8,12.8c7.1,0,12.8-5.8,12.8-12.8S82.3,47.9,75.2,47.9z M75.2,71.4
		c-5.9,0-10.7-4.8-10.7-10.7c0-2.2,0.7-4.4,2-6.2l1.5-2.1l-0.6,2.5c0,0.1-0.1,0.2-0.1,0.3c0,0.4,0,0.9,0.3,1.3
		c0.1,0.1,0.1,0.1,0.2,0.2c0.2,0.1,0.4,0.2,0.5,0.5c0,0,0.1,0.1,0.3,0.2c0.2,0.1,0.5,0.2,0.7,0.5c0.1,0.2,0.2,0.3,0.4,0.5l0.3,0.3
		c0.1,0.1,0.1,0.2,0.2,0.3c0,0.1,0.1,0.1,0.1,0.1c0.2,0.1,0.4,0.1,0.7,0.2c0.4,0.1,0.8,0.1,1.1,0.4c0.2,0.1,0.4,0.3,0.7,0.4
		c0.2,0.1,0.3,0.2,0.5,0.3l0-0.3c0-0.1,0-0.1,0.1-0.2c-0.1,0-0.2,0-0.3,0c-0.4-0.1-0.6-0.3-0.6-0.8c-0.1-0.6,0.1-1.1,0.5-1.4
		c0.4-0.3,1.1-0.6,1.7-0.4l0-0.1c0.2-0.3,0.4-0.4,0.6-0.6c0,0,0.1-0.1,0.1-0.1c0-0.2,0-0.4,0.2-0.6c0.2-0.3,0.4-0.6,0.7-0.8
		l-3.5,0.6l3.9-1.7c0.3-0.1,0.7-0.3,1-0.4c0.3-0.1,0.5-0.2,0.8-0.3c0,0,0,0-0.1-0.1c-0.2-0.2-0.4-0.3-0.6-0.6
		c-0.1-0.1-0.1-0.2-0.2-0.3c0,0,0,0,0,0c-0.2,0.1-0.5,0.1-0.7,0c-0.2-0.1-0.3-0.2-0.5-0.3c-0.1-0.1-0.3-0.2-0.4-0.2c0,0,0,0,0,0
		c0,0,0,0.1,0,0.1c0.1,0.2,0.1,0.3,0.1,0.6l0,0.1l-0.1,0.1c-0.1,0.2-0.2,0.4-0.2,0.6l-0.1,0.2c-0.1,0.4-0.6,0.7-1.1,0.6L74.4,54
		l0-0.4c0-0.1,0-0.2,0-0.2c-0.1-0.1-0.3-0.1-0.4-0.2c-0.3-0.1-0.6-0.2-0.9-0.4c-0.3-0.1-0.6-0.4-0.7-0.7c-0.1-0.3,0-0.6,0.1-0.8
		c0.3-0.4,0.6-0.6,0.9-0.8c0.1-0.1,0.3-0.2,0.4-0.3l0.1-0.1l0.2-0.1l0.3,0c0.5-0.1,0.9-0.1,1.4,0c0.1,0,0.2,0,0.3,0l0,0l-0.3-0.2
		l1.2,0.3l0.7,0l-0.1,0.1l0.2,0.1c0.7,0.2,1.3,0.4,1.9,0.7l0.3,0.1l0,0.3c0,0.1,0,0.3-0.1,0.4c-0.1,0.1-0.2,0.2-0.4,0.3
		c0.1,0.2,0.3,0.4,0.6,0.6c0.1,0.1,0.2,0.1,0.3,0.1c0,0,0.1-0.1,0.1-0.3c0.1-0.2,0.2-0.4,0.4-0.6l0.3-0.3l0.3,0.2
		c2.8,2,4.4,5.3,4.4,8.7c0,5-3.4,9.3-8.3,10.4l-1,0.2l0.6-1.1c0.1-0.2,0.2-0.5,0.4-0.7c0-0.1,0.1-0.5,0.6-0.6c0,0,0,0,0.1,0
		l-0.4-0.4l1.3-0.1c0,0,0.1,0,0.1,0c0.1-0.1,0.1-0.2,0.2-0.3c0.3-0.3,0.6-0.7,0.7-1c0.2-0.3,0.5-0.5,0.7-0.6c0.1,0,0.2-0.1,0.2-0.1
		l0.2-0.2c0.1-0.1,0.2-0.2,0.3-0.3c0-0.1,0-0.1,0-0.2c0-0.3,0-0.6,0.3-1c0.1-0.1,0.1-0.1,0.2-0.2c0.2-0.2,0.3-0.3,0.3-0.4
		C82,64,81.7,64,81.4,63.9c-0.4-0.1-0.9-0.2-1.3-0.5c-0.3-0.2-0.3-0.5-0.4-0.7c0,0,0-0.1,0-0.1c-0.1-0.1-0.3-0.2-0.5-0.2l-0.2-0.1
		c-0.2-0.1-0.4-0.2-0.5-0.3c-0.1,0-0.1-0.1-0.2-0.1c-0.5-0.2-1-0.4-1.5-0.4l-0.2,0c-0.1,0-0.2,0-0.3,0.1c0,0.1-0.1,0.2-0.2,0.2
		c0.1,0.5-0.2,0.8-0.3,1c-0.1,0.1-0.1,0.2-0.1,0.2c0,0.1,0,0.1,0,0.2c0,0.1,0,0.3-0.1,0.5c0.1,0.3,0.3,0.5,0.5,0.8l0.2,0.3
		c0.1,0.1,0.2,0.2,0.4,0.3c0.2,0.1,0.4,0.3,0.6,0.5c0.3,0.5,0.2,0.9,0.2,1.2l0,0.2c0,0.3-0.1,0.5-0.1,0.8c0,0.5-0.1,1.1-0.3,1.6
		c-0.1,0.2-0.1,0.4-0.1,0.6c0,0.3,0,0.6-0.1,0.9l-0.1,0.3l-0.3,0c-0.1,0-0.2,0-0.3,0C75.7,71.4,75.5,71.4,75.2,71.4z M66.5,56.4
		c-0.7,1.3-1,2.8-1,4.3c0,5.4,4.4,9.7,9.7,9.7c0.2,0,0.4,0,0.6-0.1c0-0.1,0-0.2,0-0.2c0-0.3,0-0.7,0.2-1.1c0.1-0.4,0.2-0.8,0.2-1.3
		c0-0.3,0.1-0.6,0.1-0.8l0-0.2c0-0.2,0.1-0.5,0-0.6c0,0-0.2-0.1-0.3-0.3c-0.2-0.1-0.4-0.3-0.6-0.6l-0.2-0.3
		c-0.3-0.4-0.5-0.8-0.7-1.2l-0.1-0.3l0.2-0.2c0,0,0-0.1,0-0.1c0-0.1,0-0.2,0-0.4c0-0.3,0.2-0.5,0.3-0.6c0,0,0.1-0.1,0.1-0.1
		c0,0-0.1,0-0.2,0c-0.2,0-0.4,0-0.6-0.1c-0.7-0.3-1.4-0.7-2.1-1.1c-0.2-0.1-0.4-0.3-0.7-0.4c-0.2-0.2-0.5-0.2-0.8-0.3
		c-0.3-0.1-0.6-0.1-0.9-0.3c-0.3-0.1-0.4-0.4-0.5-0.6c0-0.1-0.1-0.1-0.1-0.1l-0.3-0.3c-0.1-0.2-0.3-0.3-0.4-0.5
		c0-0.1-0.2-0.1-0.3-0.2c-0.2-0.1-0.5-0.2-0.7-0.5c0-0.1-0.1-0.1-0.2-0.2c-0.1-0.1-0.3-0.2-0.5-0.4C66.7,56.9,66.6,56.7,66.5,56.4z
		 M80.7,62.6c0.3,0.2,0.6,0.2,0.9,0.3c0.4,0.1,0.7,0.2,1.1,0.3c0.4,0.2,0.7,0.7,0.5,1.1c-0.1,0.4-0.3,0.7-0.6,0.9
		c-0.1,0.1-0.1,0.1-0.2,0.2c0,0,0,0.2,0,0.3c0,0.2,0,0.3,0,0.5l0,0.1c-0.1,0.3-0.3,0.4-0.5,0.6l-0.1,0.1c-0.2,0.2-0.4,0.3-0.5,0.4
		c-0.1,0-0.2,0.1-0.2,0.1c-0.2,0.5-0.5,0.8-0.9,1.2c-0.1,0.1-0.2,0.3-0.3,0.4l0,0c3.1-1.7,5.2-4.9,5.2-8.6c0-2.9-1.3-5.7-3.6-7.5
		c-0.1,0.2-0.2,0.3-0.3,0.5c-0.4,0.3-0.9,0.3-1.2,0.1c0.1,0.2,0.2,0.3,0.3,0.5l0.5,1l-1-0.2c-0.3-0.1-0.6-0.1-0.8,0
		c-0.1,0-0.1,0.1-0.2,0.1c-0.1,0.1-0.3,0.3-0.5,0.4l-0.2,0c-0.1,0-0.2,0-0.3,0c-0.1,0-0.3,0-0.3,0c-0.3,0.2-0.6,0.5-0.9,0.9
		c0.1,0.3,0,0.6-0.2,0.7c-0.1,0.1-0.2,0.2-0.3,0.2c-0.1,0.1-0.2,0.1-0.2,0.2c0,0,0,0.1,0,0.1c0.1,0.3,0.2,0.7-0.1,1.1l-0.2,0.4
		L74.8,59c-0.3-0.2-0.4-0.4-0.5-0.6c0-0.1-0.1-0.2-0.1-0.2c-0.2-0.1-0.6,0.2-0.7,0.3c-0.1,0.1-0.1,0.2-0.1,0.4c0,0,0,0,0.1,0
		c0.3,0,0.6-0.1,0.8,0l0.3,0.1l0,0.3c0,0.3-0.1,0.5-0.2,0.7c0,0.1,0.1,0.1,0.1,0.2c0.2,0.3,0.6,0.5,1.1,0.8c0.2-0.2,0.5-0.3,0.9-0.3
		c0.7,0,1.5,0.1,2.2,0.5c0.1,0.1,0.2,0.1,0.3,0.2c0.1,0.1,0.2,0.1,0.3,0.1l0.2,0.1c0.3,0.1,0.7,0.2,1,0.6
		C80.6,62.2,80.6,62.4,80.7,62.6C80.6,62.6,80.6,62.6,80.7,62.6z M73.2,51.9c0,0,0.1,0,0.1,0.1c0.3,0.1,0.6,0.2,0.9,0.4
		c0.2,0.1,0.4,0.2,0.6,0.2c0.1,0,0.1,0.1,0.2,0.1c0-0.1,0.1-0.2,0.1-0.2c0-0.1,0-0.1-0.1-0.2c-0.1-0.2-0.2-0.6-0.1-1l0.1-0.1
		L74.9,51c-0.1,0-0.3,0-0.4,0l-0.2,0c0,0,0,0,0,0c-0.1,0.1-0.3,0.2-0.5,0.3C73.6,51.6,73.4,51.7,73.2,51.9
		C73.2,51.9,73.2,51.9,73.2,51.9z"/>
</g>
</svg>
