<?xml version="1.0" encoding="utf-8"?>
<!-- Generator: Adobe Illustrator 18.1.1, SVG Export Plug-In . SVG Version: 6.00 Build 0)  -->
<!DOCTYPE svg PUBLIC "-//W3C//DTD SVG 1.1//EN" "http://www.w3.org/Graphics/SVG/1.1/DTD/svg11.dtd">
<svg version="1.1" id="Layer_1" xmlns="http://www.w3.org/2000/svg" xmlns:xlink="http://www.w3.org/1999/xlink" x="0px" y="0px"
	 viewBox="7 -6.7 141.7 141.7" enable-background="new 7 -6.7 141.7 141.7" xml:space="preserve">
<g>
	<path fill="#231F20" d="M78,80.1c-0.6,0-1.1-0.2-1.4-0.6c-2.7-2.8-5.1-6-7.2-9.6c-1.8-3-3.3-6-3.3-9.3c0-6.6,5.4-12,12-12
		c6.6,0,12,5.4,12,12c0,3.9-2,7.4-4.1,10.8c-1.9,3-4,5.7-6.4,8.1C79.1,79.9,78.5,80.1,78,80.1z M78,49.7c-6,0-11,4.9-11,11
		c0,3.1,1.5,5.9,3.2,8.8c2,3.5,4.4,6.6,7,9.4c0.4,0.4,1.1,0.4,1.5,0c2.4-2.3,4.5-5,6.3-7.9c2-3.2,3.9-6.7,3.9-10.2
		C89,54.6,84,49.7,78,49.7z M78,67.8c-4.1,0-7.5-3.3-7.5-7.5c0-4.1,3.3-7.5,7.5-7.5c4.1,0,7.5,3.3,7.5,7.5
		C85.5,64.4,82.1,67.8,78,67.8z M78,53.9c-3.6,0-6.5,2.9-6.5,6.5c0,3.6,2.9,6.5,6.5,6.5c3.6,0,6.5-2.9,6.5-6.5
		C84.5,56.8,81.6,53.9,78,53.9z"/>
</g>
</svg>
