<?xml version="1.0" encoding="utf-8"?>
<!-- Generator: Adobe Illustrator 18.1.1, SVG Export Plug-In . SVG Version: 6.00 Build 0)  -->
<!DOCTYPE svg PUBLIC "-//W3C//DTD SVG 1.1//EN" "http://www.w3.org/Graphics/SVG/1.1/DTD/svg11.dtd">
<svg version="1.1" id="Layer_1" xmlns="http://www.w3.org/2000/svg" xmlns:xlink="http://www.w3.org/1999/xlink" x="0px" y="0px"
	 viewBox="7 -6.7 141.7 141.7" enable-background="new 7 -6.7 141.7 141.7" xml:space="preserve">
<g>
	<path fill="#231F20" d="M89.1,86.4c-0.3,0-0.6-0.1-0.8-0.3c-1.2-1.2-2.3-2.7-3.4-4.5H71.3c-0.1,0-0.1,0-0.2,0
		c-1.8,3.1-3.2,4.5-3.2,4.5c-0.4,0.4-1.1,0.4-1.6,0c-0.2-0.2-0.3-0.5-0.3-0.8s0.1-0.6,0.3-0.8c0.1-0.1,7.8-8.1,10.4-29.7
		c-0.8-0.5-1.3-1.3-1.3-2.3c0-1.5,1.2-2.7,2.7-2.7c1.5,0,2.7,1.2,2.7,2.7c0,0.9-0.5,1.8-1.3,2.3c0.9,6.8,3.6,23,10.4,29.7
		c0.2,0.2,0.3,0.5,0.3,0.8c0,0.3-0.1,0.6-0.3,0.8C89.6,86.3,89.4,86.4,89.1,86.4z M70.9,80.9l0.2,0.1c0.1,0,0.1,0,0.2,0h13.9
		l0.1,0.1c1,1.8,2.2,3.3,3.4,4.5c0.2,0.2,0.6,0.2,0.9,0c0.1-0.1,0.2-0.3,0.2-0.4c0-0.2-0.1-0.3-0.2-0.4c-6.9-6.9-9.7-23.4-10.5-30.2
		l0-0.2l0.2-0.1c0.7-0.4,1.2-1.1,1.2-1.9c0-1.2-1-2.2-2.2-2.2c-1.2,0-2.2,1-2.2,2.2c0,0.8,0.5,1.5,1.2,1.9l0.2,0.1l0,0.2
		c-2.6,21.9-10.5,30.1-10.6,30.2c-0.1,0.1-0.2,0.3-0.2,0.4s0.1,0.3,0.2,0.4c0.2,0.2,0.6,0.2,0.9,0c0.1-0.1,1.4-1.4,3.2-4.6
		L70.9,80.9z M84.5,79.8h-13l0.2-0.4c1.1-2.2,2.1-4.6,3-7.2l0.1-0.2l6.6,0l0.1,0.2c0.9,2.7,1.8,5.2,2.9,7.3L84.5,79.8z M72.3,79.3
		h11.4c-1-2-1.9-4.3-2.7-6.8h-5.9C74.3,75,73.3,77.3,72.3,79.3z M81,70.9h-5.9l0.1-0.3c1.1-3.5,2-7.4,2.6-11.5l0.2-1.5l0.2,1.5
		c0.7,4.1,1.5,8,2.6,11.5L81,70.9z M75.8,70.4h4.5c-0.9-3-1.6-6.3-2.2-9.8C77.5,64,76.7,67.3,75.8,70.4z M71.3,62.5H71
		c-5.7,0-10.3-4.6-10.3-10.3C60.8,46.6,65.4,42,71,42h0.3v1.1H71c-5.1,0-9.2,4.1-9.2,9.2c0,5.1,4.1,9.2,9.2,9.2h0.3V62.5z
		 M70.8,42.5c-5.3,0.1-9.5,4.5-9.5,9.8c0,5.3,4.2,9.6,9.5,9.8v-0.1c-5.2-0.1-9.4-4.4-9.4-9.7C61.3,47,65.5,42.7,70.8,42.5L70.8,42.5
		z M85.7,62.4h-0.3v-1.1h0.3c5.1,0,9.2-4.1,9.2-9.2c0-5.1-4.1-9.2-9.2-9.2h-0.3v-1.1h0.3c5.7,0,10.3,4.6,10.3,10.3
		C95.9,57.8,91.3,62.4,85.7,62.4z M85.9,61.9L85.9,61.9c5.3-0.1,9.5-4.4,9.5-9.7c0-5.3-4.2-9.6-9.5-9.8v0.1c5.2,0.1,9.4,4.4,9.4,9.7
		C95.4,57.4,91.2,61.7,85.9,61.9z M72.6,59.4h-0.3c-4,0-7.2-3.2-7.2-7.2c0-4,3.2-7.2,7.2-7.2h0.3V46h-0.3c-3.4,0-6.1,2.7-6.1,6.1
		c0,3.4,2.7,6.1,6.1,6.1h0.3V59.4z M72.1,45.5c-3.6,0.1-6.4,3.1-6.4,6.7c0,3.6,2.9,6.6,6.4,6.7v-0.1c-3.5-0.1-6.4-3-6.4-6.6
		C65.8,48.6,68.6,45.7,72.1,45.5L72.1,45.5z M84.3,59.3h-0.3v-1.1h0.3c3.4,0,6.1-2.7,6.1-6.1c0-3.4-2.7-6.1-6.1-6.1h-0.3v-1.1h0.3
		c4,0,7.2,3.2,7.2,7.2S88.3,59.3,84.3,59.3z M84.6,58.7L84.6,58.7c3.6-0.1,6.4-3,6.4-6.6s-2.9-6.6-6.4-6.7v0.1
		c3.5,0.1,6.4,3,6.4,6.6C90.9,55.7,88.1,58.6,84.6,58.7z M74.4,56.1h-0.3c-2.2,0-4.1-1.8-4.1-4.1s1.8-4.1,4.1-4.1h0.3V49h-0.3
		c-1.7,0-3,1.3-3,3c0,1.7,1.3,3,3,3h0.3V56.1z M73.9,48.5c-1.9,0.1-3.3,1.7-3.3,3.6c0,1.9,1.5,3.4,3.3,3.6v-0.1
		c-1.8-0.1-3.3-1.6-3.3-3.5C70.6,50.2,72.1,48.7,73.9,48.5L73.9,48.5z M82.6,56h-0.3V55h0.3c1.7,0,3-1.3,3-3c0-1.7-1.3-3-3-3h-0.3
		v-1.1h0.3c2.2,0,4.1,1.8,4.1,4.1C86.6,54.2,84.8,56,82.6,56z M82.8,55.5L82.8,55.5c1.9-0.1,3.3-1.6,3.3-3.5s-1.5-3.4-3.3-3.6v0.1
		c1.8,0.1,3.3,1.6,3.3,3.5C86.1,53.8,84.6,55.3,82.8,55.5z"/>
</g>
</svg>
