<?xml version="1.0" encoding="utf-8"?>
<!-- Generator: Adobe Illustrator 18.1.1, SVG Export Plug-In . SVG Version: 6.00 Build 0)  -->
<!DOCTYPE svg PUBLIC "-//W3C//DTD SVG 1.1//EN" "http://www.w3.org/Graphics/SVG/1.1/DTD/svg11.dtd">
<svg version="1.1" id="Layer_1" xmlns="http://www.w3.org/2000/svg" xmlns:xlink="http://www.w3.org/1999/xlink" x="0px" y="0px"
	 viewBox="7 -6.7 141.7 141.7" enable-background="new 7 -6.7 141.7 141.7" xml:space="preserve">
<path fill="#231F20" d="M81.5,76.9c-4.9,0-9.5-1.9-12.9-5.4c-3.5-3.5-5.4-8-5.4-12.9s1.9-9.5,5.4-12.9l0.4-0.4L80.5,57l6.4-4.4
	c-0.2-0.4-0.3-0.9-0.3-1.4c0-1.8,1.5-3.3,3.3-3.3c1.8,0,3.3,1.5,3.3,3.3c0,1.8-1.5,3.3-3.3,3.3c-0.5,0-1-0.1-1.5-0.3L84,60.5
	l10.8,10.7l-0.4,0.4C91,75,86.4,76.9,81.5,76.9z M68.9,46.8c-3,3.2-4.7,7.4-4.7,11.9c0,4.6,1.8,9,5.1,12.2c3.3,3.3,7.6,5.1,12.2,5.1
	c4.5,0,8.6-1.7,11.9-4.7L82.7,60.6l5.2-7.5l-7.5,5.1L68.9,46.8z M88.2,52.9l0.3,0.2c0.4,0.3,0.9,0.4,1.3,0.4c1.3,0,2.3-1,2.3-2.3
	c0-1.3-1-2.3-2.3-2.3c-1.3,0-2.3,1-2.3,2.3c0,0.5,0.1,0.9,0.4,1.3L88.2,52.9z"/>
</svg>
