<?xml version="1.0" encoding="utf-8"?>
<!-- Generator: Adobe Illustrator 18.1.1, SVG Export Plug-In . SVG Version: 6.00 Build 0)  -->
<!DOCTYPE svg PUBLIC "-//W3C//DTD SVG 1.1//EN" "http://www.w3.org/Graphics/SVG/1.1/DTD/svg11.dtd">
<svg version="1.1" id="Layer_1" xmlns="http://www.w3.org/2000/svg" xmlns:xlink="http://www.w3.org/1999/xlink" x="0px" y="0px"
	 viewBox="7 -6.7 141.7 141.7" enable-background="new 7 -6.7 141.7 141.7" xml:space="preserve">
<path fill="#231F20" d="M91.5,81.3H64.6c-2.3,0-4.1-1.7-4.1-3.7v-27c0-2.1,1.8-3.7,4.1-3.7h26.9c2.3,0,4.1,1.7,4.1,3.7v27
	C95.5,79.6,93.7,81.3,91.5,81.3z M64.6,47.8c-1.7,0-3.1,1.2-3.1,2.7v27c0,1.5,1.4,2.7,3.1,2.7h26.9c1.7,0,3.1-1.2,3.1-2.7v-27
	c0-1.5-1.4-2.7-3.1-2.7H64.6z"/>
</svg>
